<?xml version="1.0" encoding="utf-8" standalone="no"?>
<!DOCTYPE svg PUBLIC "-//W3C//DTD SVG 1.1//EN"
  "http://www.w3.org/Graphics/SVG/1.1/DTD/svg11.dtd">
<svg xmlns:xlink="http://www.w3.org/1999/xlink" width="202.799519pt" height="166.79952pt" viewBox="0 0 202.799519 166.79952" xmlns="http://www.w3.org/2000/svg" version="1.1">
 <metadata>
  <rdf:RDF xmlns:dc="http://purl.org/dc/elements/1.1/" xmlns:cc="http://creativecommons.org/ns#" xmlns:rdf="http://www.w3.org/1999/02/22-rdf-syntax-ns#">
   <cc:Work>
    <dc:type rdf:resource="http://purl.org/dc/dcmitype/StillImage"/>
    <dc:date>2026-05-31T17:07:35.792569</dc:date>
    <dc:format>image/svg+xml</dc:format>
    <dc:creator>
     <cc:Agent>
      <dc:title>Matplotlib v3.10.0, https://matplotlib.org/</dc:title>
     </cc:Agent>
    </dc:creator>
   </cc:Work>
  </rdf:RDF>
 </metadata>
 <defs>
  <style type="text/css">*{stroke-linejoin: round; stroke-linecap: butt}</style>
 </defs>
 <g id="figure_1">
  <g id="patch_1">
   <path d="M 0 166.79952 
L 202.799519 166.79952 
L 202.799519 0 
L 0 0 
z
" style="fill: #ffffff"/>
  </g>
  <g id="axes_1">
   <g id="patch_2">
    <path d="M 43.048203 129.979754 
L 194.711413 129.979754 
L 194.711413 20.838125 
L 43.048203 20.838125 
z
" style="fill: #ffffff"/>
   </g>
   <g id="line2d_1">
    <path d="M 44.541045 90.133496 
L 44.665944 90.133496 
L 44.790843 67.514534 
L 44.886004 70.366315 
L 45.201226 85.522704 
L 45.296387 82.166458 
L 45.480762 77.309796 
L 45.492657 77.331891 
L 45.599714 78.113086 
L 45.873302 80.473908 
L 45.950621 80.036044 
L 46.152838 79.032876 
L 46.164733 79.037692 
L 46.366951 79.314629 
L 46.557273 79.575475 
L 46.598907 79.534306 
L 46.872495 79.329731 
L 47.502938 79.357801 
L 51.13096 79.221989 
L 53.896583 79.110595 
L 55.300211 79.901962 
L 55.55001 80.004377 
L 55.805755 80.083681 
L 56.126925 80.225366 
L 56.406461 80.258159 
L 56.685997 80.321807 
L 56.989323 80.287509 
L 57.298597 80.255079 
L 60.575712 78.938336 
L 61.378635 78.937016 
L 62.710892 79.175793 
L 63.6744 79.29432 
L 69.610081 78.916615 
L 71.108871 78.106184 
L 71.608467 77.582162 
L 72.114011 76.830503 
L 72.566027 75.885011 
L 73.0002 74.643692 
L 73.404635 72.969026 
L 74.046974 68.662999 
L 74.52278 63.705101 
L 75.123485 57.186159 
L 75.177013 57.115315 
L 75.218646 57.231744 
L 75.33165 58.318296 
L 75.492235 62.587743 
L 75.742033 76.436422 
L 76.211892 101.237058 
L 76.556851 105.351517 
L 76.562799 105.348501 
L 76.604432 105.090221 
L 76.723383 102.376103 
L 76.842335 100.123401 
L 76.895863 100.499431 
L 76.967234 101.050642 
L 77.02671 100.799947 
L 77.157556 98.930571 
L 77.318141 96.131382 
L 77.377617 96.371103 
L 77.41925 96.549073 
L 77.478726 96.343622 
L 77.674996 95.267018 
L 77.758262 95.393001 
L 79.471164 97.912442 
L 79.828018 98.376349 
L 79.952918 125.018771 
L 79.982655 117.47299 
L 80.161083 99.934242 
L 80.178925 100.123494 
L 80.333562 105.597625 
L 80.452514 104.287584 
L 80.779631 97.596941 
L 81.035377 86.293224 
L 81.362493 60.203773 
L 81.725295 35.790786 
L 82.010779 25.799108 
L 82.111888 27.285056 
L 82.224892 35.161176 
L 82.462795 55.116363 
L 82.522271 54.166346 
L 82.575799 53.26558 
L 82.629327 54.096876 
L 82.789912 60.97012 
L 83.01592 73.654905 
L 83.075395 73.006114 
L 83.122976 72.540504 
L 83.176504 73.082467 
L 83.426302 79.713812 
L 83.580939 82.555986 
L 83.622572 82.485751 
L 83.640415 82.464718 
L 83.682048 82.611811 
L 83.872371 84.646507 
L 84.163802 86.549142 
L 84.383862 86.870497 
L 84.38981 86.868284 
L 84.502814 86.692877 
L 84.669346 85.917321 
L 84.907249 83.549086 
L 85.186785 78.053681 
L 85.525797 66.364806 
L 85.965918 52.473294 
L 85.983761 52.43312 
L 86.025394 52.617865 
L 86.191926 55.113126 
L 86.346563 63.098362 
L 86.626099 74.807974 
L 86.74505 75.662628 
L 86.864002 80.206095 
L 87.030534 86.618263 
L 87.084062 86.141052 
L 87.143538 85.572666 
L 87.203014 85.910708 
L 87.339808 88.214347 
L 87.488497 91.188748 
L 87.547973 90.857315 
L 87.601501 90.591425 
L 87.666925 90.776395 
L 87.797771 91.937853 
L 87.922671 93.110918 
L 87.982146 92.946709 
L 88.053517 92.775426 
L 88.112993 92.866417 
L 88.249787 93.495695 
L 88.327106 93.7533 
L 88.380634 93.645405 
L 88.576904 93.380582 
L 88.761279 93.24038 
L 89.207347 91.504525 
L 89.659363 88.256254 
L 90.164907 82.921601 
L 90.700189 75.501403 
L 92.014603 56.425919 
L 92.234664 55.427077 
L 92.246559 55.432486 
L 92.347668 55.698994 
L 92.502305 57.131908 
L 92.758051 62.501523 
L 93.84051 89.792308 
L 94.143836 91.62203 
L 94.459058 92.398024 
L 94.619642 92.247744 
L 94.720751 92.253409 
L 94.744541 92.288521 
L 94.994339 92.500855 
L 95.137081 92.313027 
L 95.273876 92.183108 
L 95.315509 92.223945 
L 95.565307 92.38151 
L 95.957847 92.455243 
L 96.261173 92.444497 
L 96.463391 92.22214 
L 96.540709 91.846419 
L 96.618028 87.240062 
L 96.80835 81.101421 
L 97.37337 76.60416 
L 97.76591 74.734728 
L 98.116817 74.139462 
L 98.461777 74.047073 
L 98.562886 74.133722 
L 98.967321 74.706119 
L 99.056534 74.808773 
L 99.526393 75.644677 
L 99.633449 75.860812 
L 99.930828 76.480291 
L 100.091413 76.593046 
L 100.894336 77.809293 
L 101.05492 77.845277 
L 101.911371 78.567738 
L 102.16117 78.685349 
L 102.416915 78.741949 
L 103.118729 78.707798 
L 103.642116 78.420951 
L 104.141713 77.889075 
L 104.635362 77.063114 
L 105.123063 75.909607 
L 105.581026 74.374142 
L 106.728909 70.432329 
L 106.746751 70.44201 
L 106.972759 70.830501 
L 107.264191 72.72082 
L 107.579412 76.748093 
L 108.596448 89.461371 
L 108.905722 90.675907 
L 109.286367 91.459021 
L 109.809753 91.691409 
L 110.368826 91.516527 
L 110.713785 91.133774 
L 111.034954 90.422813 
L 111.344228 89.195998 
L 111.70703 86.701222 
L 112.129308 81.827344 
L 112.789489 70.973237 
L 113.170134 66.721494 
L 113.3783 66.093427 
L 113.515094 66.196543 
L 113.634045 66.692563 
L 114.205013 71.093748 
L 115.049569 77.834837 
L 115.293419 78.591034 
L 115.846544 80.213926 
L 116.120132 80.40791 
L 116.304507 80.255193 
L 116.554306 79.71051 
L 116.881422 78.372729 
L 117.327491 75.451774 
L 117.928196 71.737773 
L 118.070938 71.598305 
L 118.08878 71.610049 
L 118.195837 71.883459 
L 118.43374 73.164964 
L 118.683538 76.053607 
L 119.230715 81.55228 
L 119.522146 83.488824 
L 120.354807 86.881413 
L 120.39644 86.903067 
L 120.449968 86.828599 
L 120.610553 86.754123 
L 120.771138 86.95702 
L 120.842508 86.994544 
L 120.890089 86.931863 
L 121.752488 85.077637 
L 122.281822 82.738868 
L 122.7041 80.103594 
L 123.578394 73.378372 
L 124.066095 70.494272 
L 124.298051 70.08032 
L 124.411055 70.192812 
L 124.577587 70.751135 
L 124.857123 72.618938 
L 125.315086 77.136642 
L 125.927687 82.102974 
L 126.302384 83.762433 
L 126.694924 84.922773 
L 127.248049 85.142303 
L 127.587061 84.543804 
L 127.920125 83.370057 
L 128.08071 82.198642 
L 128.366193 76.351349 
L 128.449459 76.388144 
L 128.598149 76.598167 
L 128.723048 77.418708 
L 128.824157 77.840678 
L 128.871737 77.759982 
L 129.08585 77.168162 
L 129.145326 77.249415 
L 129.389176 77.811302 
L 129.466495 77.727402 
L 129.638975 77.675692 
L 129.84714 77.960365 
L 130.120728 78.158746 
L 130.382422 78.28551 
L 130.751172 78.607527 
L 130.953389 78.675231 
L 131.334034 78.969718 
L 131.536252 79.011119 
L 131.899054 79.229317 
L 132.113167 79.248751 
L 132.481916 79.368405 
L 132.773348 79.400245 
L 133.082622 79.391315 
L 134.087762 79.136864 
L 134.979899 78.625598 
L 136.883123 77.378573 
L 137.620623 77.383156 
L 137.846631 77.588736 
L 138.322437 79.032326 
L 139.17294 82.155123 
L 139.868807 83.73716 
L 140.124553 84.035895 
L 140.350561 84.201334 
L 141.08806 83.612409 
L 141.492495 82.72545 
L 142.229995 80.274849 
L 143.17566 77.034663 
L 143.520619 76.449774 
L 143.782312 76.335563 
L 144.00832 76.445051 
L 144.240276 76.679696 
L 145.70338 78.93982 
L 146.048339 79.079998 
L 146.375456 79.091125 
L 146.767996 78.84569 
L 147.291383 78.222392 
L 148.005092 77.382019 
L 148.344104 77.299855 
L 148.64743 77.518103 
L 148.962652 78.072562 
L 150.830191 82.479526 
L 151.121622 82.614031 
L 151.490372 82.709273 
L 152.186239 82.089225 
L 152.709625 81.057921 
L 153.476863 78.981156 
L 154.285733 77.19396 
L 154.618798 76.988511 
L 154.951862 77.130314 
L 155.344402 77.651499 
L 156.397123 79.456949 
L 156.974038 79.883132 
L 157.384421 79.723936 
L 157.604481 79.137242 
L 157.675852 79.227759 
L 157.919703 79.450439 
L 159.406597 79.357032 
L 193.224519 79.433402 
L 193.224519 79.433402 
" clip-path="url(#p3a6665bd95)" style="fill: none; stroke: #111111; stroke-opacity: 0.92; stroke-width: 0.96; stroke-linecap: square"/>
    <defs>
     <path id="m149215a6f7" d="M 0 1 
C 0.265203 1 0.51958 0.894634 0.707107 0.707107 
C 0.894634 0.51958 1 0.265203 1 0 
C 1 -0.265203 0.894634 -0.51958 0.707107 -0.707107 
C 0.51958 -0.894634 0.265203 -1 0 -1 
C -0.265203 -1 -0.51958 -0.894634 -0.707107 -0.707107 
C -0.894634 -0.51958 -1 -0.265203 -1 0 
C -1 0.265203 -0.894634 0.51958 -0.707107 0.707107 
C -0.51958 0.894634 -0.265203 1 0 1 
z
" style="stroke: #111111; stroke-opacity: 0.92; stroke-width: 0.45"/>
    </defs>
    <g clip-path="url(#p3a6665bd95)">
     <use xlink:href="#m149215a6f7" x="44.541045" y="90.133496" style="fill: #ffffff; fill-opacity: 0.92; stroke: #111111; stroke-opacity: 0.92; stroke-width: 0.45"/>
     <use xlink:href="#m149215a6f7" x="58.05394" y="80.003254" style="fill: #ffffff; fill-opacity: 0.92; stroke: #111111; stroke-opacity: 0.92; stroke-width: 0.45"/>
     <use xlink:href="#m149215a6f7" x="71.566834" y="77.631503" style="fill: #ffffff; fill-opacity: 0.92; stroke: #111111; stroke-opacity: 0.92; stroke-width: 0.45"/>
     <use xlink:href="#m149215a6f7" x="85.079729" y="80.568842" style="fill: #ffffff; fill-opacity: 0.92; stroke: #111111; stroke-opacity: 0.92; stroke-width: 0.45"/>
     <use xlink:href="#m149215a6f7" x="98.592623" y="74.199096" style="fill: #ffffff; fill-opacity: 0.92; stroke: #111111; stroke-opacity: 0.92; stroke-width: 0.45"/>
     <use xlink:href="#m149215a6f7" x="112.105518" y="82.156771" style="fill: #ffffff; fill-opacity: 0.92; stroke: #111111; stroke-opacity: 0.92; stroke-width: 0.45"/>
     <use xlink:href="#m149215a6f7" x="125.618413" y="79.680445" style="fill: #ffffff; fill-opacity: 0.92; stroke: #111111; stroke-opacity: 0.92; stroke-width: 0.45"/>
     <use xlink:href="#m149215a6f7" x="139.131307" y="82.034348" style="fill: #ffffff; fill-opacity: 0.92; stroke: #111111; stroke-opacity: 0.92; stroke-width: 0.45"/>
     <use xlink:href="#m149215a6f7" x="152.644202" y="81.203204" style="fill: #ffffff; fill-opacity: 0.92; stroke: #111111; stroke-opacity: 0.92; stroke-width: 0.45"/>
     <use xlink:href="#m149215a6f7" x="166.157097" y="79.412811" style="fill: #ffffff; fill-opacity: 0.92; stroke: #111111; stroke-opacity: 0.92; stroke-width: 0.45"/>
     <use xlink:href="#m149215a6f7" x="179.669991" y="79.356304" style="fill: #ffffff; fill-opacity: 0.92; stroke: #111111; stroke-opacity: 0.92; stroke-width: 0.45"/>
     <use xlink:href="#m149215a6f7" x="193.182886" y="79.432641" style="fill: #ffffff; fill-opacity: 0.92; stroke: #111111; stroke-opacity: 0.92; stroke-width: 0.45"/>
    </g>
   </g>
   <g id="matplotlib.axis_1">
    <g id="xtick_1">
     <g id="line2d_2">
      <path d="M 44.535097 129.979754 
L 44.535097 20.838125 
" clip-path="url(#p3a6665bd95)" style="fill: none; stroke: #e5e7eb; stroke-width: 0.7; stroke-linecap: square"/>
     </g>
     <g id="line2d_3">
      <defs>
       <path id="mc57d45c8b8" d="M 0 0 
L 0 3.5 
" style="stroke: #000000; stroke-width: 0.8"/>
      </defs>
      <g>
       <use xlink:href="#mc57d45c8b8" x="44.535097" y="129.979754" style="stroke: #000000; stroke-width: 0.8"/>
      </g>
     </g>
     <g id="text_1">
      <text style="font-size: 9.5px; font-family: 'Times New Roman', 'Times', 'TeX Gyre Termes', 'Nimbus Roman', 'DejaVu Serif', serif; text-anchor: middle" x="44.535097" y="143.576317" transform="rotate(-0 44.535097 143.576317)">0</text>
     </g>
    </g>
    <g id="xtick_2">
     <g id="line2d_4">
      <path d="M 74.272982 129.979754 
L 74.272982 20.838125 
" clip-path="url(#p3a6665bd95)" style="fill: none; stroke: #e5e7eb; stroke-width: 0.7; stroke-linecap: square"/>
     </g>
     <g id="line2d_5">
      <g>
       <use xlink:href="#mc57d45c8b8" x="74.272982" y="129.979754" style="stroke: #000000; stroke-width: 0.8"/>
      </g>
     </g>
     <g id="text_2">
      <text style="font-size: 9.5px; font-family: 'Times New Roman', 'Times', 'TeX Gyre Termes', 'Nimbus Roman', 'DejaVu Serif', serif; text-anchor: middle" x="74.272982" y="143.576317" transform="rotate(-0 74.272982 143.576317)">1</text>
     </g>
    </g>
    <g id="xtick_3">
     <g id="line2d_6">
      <path d="M 104.010866 129.979754 
L 104.010866 20.838125 
" clip-path="url(#p3a6665bd95)" style="fill: none; stroke: #e5e7eb; stroke-width: 0.7; stroke-linecap: square"/>
     </g>
     <g id="line2d_7">
      <g>
       <use xlink:href="#mc57d45c8b8" x="104.010866" y="129.979754" style="stroke: #000000; stroke-width: 0.8"/>
      </g>
     </g>
     <g id="text_3">
      <text style="font-size: 9.5px; font-family: 'Times New Roman', 'Times', 'TeX Gyre Termes', 'Nimbus Roman', 'DejaVu Serif', serif; text-anchor: middle" x="104.010866" y="143.576317" transform="rotate(-0 104.010866 143.576317)">2</text>
     </g>
    </g>
    <g id="xtick_4">
     <g id="line2d_8">
      <path d="M 133.74875 129.979754 
L 133.74875 20.838125 
" clip-path="url(#p3a6665bd95)" style="fill: none; stroke: #e5e7eb; stroke-width: 0.7; stroke-linecap: square"/>
     </g>
     <g id="line2d_9">
      <g>
       <use xlink:href="#mc57d45c8b8" x="133.74875" y="129.979754" style="stroke: #000000; stroke-width: 0.8"/>
      </g>
     </g>
     <g id="text_4">
      <text style="font-size: 9.5px; font-family: 'Times New Roman', 'Times', 'TeX Gyre Termes', 'Nimbus Roman', 'DejaVu Serif', serif; text-anchor: middle" x="133.74875" y="143.576317" transform="rotate(-0 133.74875 143.576317)">3</text>
     </g>
    </g>
    <g id="xtick_5">
     <g id="line2d_10">
      <path d="M 163.486635 129.979754 
L 163.486635 20.838125 
" clip-path="url(#p3a6665bd95)" style="fill: none; stroke: #e5e7eb; stroke-width: 0.7; stroke-linecap: square"/>
     </g>
     <g id="line2d_11">
      <g>
       <use xlink:href="#mc57d45c8b8" x="163.486635" y="129.979754" style="stroke: #000000; stroke-width: 0.8"/>
      </g>
     </g>
     <g id="text_5">
      <text style="font-size: 9.5px; font-family: 'Times New Roman', 'Times', 'TeX Gyre Termes', 'Nimbus Roman', 'DejaVu Serif', serif; text-anchor: middle" x="163.486635" y="143.576317" transform="rotate(-0 163.486635 143.576317)">4</text>
     </g>
    </g>
    <g id="xtick_6">
     <g id="line2d_12">
      <path d="M 193.224519 129.979754 
L 193.224519 20.838125 
" clip-path="url(#p3a6665bd95)" style="fill: none; stroke: #e5e7eb; stroke-width: 0.7; stroke-linecap: square"/>
     </g>
     <g id="line2d_13">
      <g>
       <use xlink:href="#mc57d45c8b8" x="193.224519" y="129.979754" style="stroke: #000000; stroke-width: 0.8"/>
      </g>
     </g>
     <g id="text_6">
      <text style="font-size: 9.5px; font-family: 'Times New Roman', 'Times', 'TeX Gyre Termes', 'Nimbus Roman', 'DejaVu Serif', serif; text-anchor: middle" x="193.224519" y="143.576317" transform="rotate(-0 193.224519 143.576317)">5</text>
     </g>
    </g>
    <g id="text_7">
     <text style="font-size: 11px; font-family: 'Times New Roman', 'Times', 'TeX Gyre Termes', 'Nimbus Roman', 'DejaVu Serif', serif; text-anchor: middle" x="118.879808" y="157.246551" transform="rotate(-0 118.879808 157.246551)">time (s)</text>
    </g>
   </g>
   <g id="matplotlib.axis_2">
    <g id="ytick_1">
     <g id="line2d_14">
      <path d="M 43.048203 123.123883 
L 194.711413 123.123883 
" clip-path="url(#p3a6665bd95)" style="fill: none; stroke: #e5e7eb; stroke-width: 0.7; stroke-linecap: square"/>
     </g>
     <g id="line2d_15">
      <defs>
       <path id="md5db9e4a96" d="M 0 0 
L -3.5 0 
" style="stroke: #000000; stroke-width: 0.8"/>
      </defs>
      <g>
       <use xlink:href="#md5db9e4a96" x="43.048203" y="123.123883" style="stroke: #000000; stroke-width: 0.8"/>
      </g>
     </g>
     <g id="text_8">
      <text style="font-size: 9.5px; font-family: 'Times New Roman', 'Times', 'TeX Gyre Termes', 'Nimbus Roman', 'DejaVu Serif', serif; text-anchor: end" x="36.048203" y="126.422165" transform="rotate(-0 36.048203 126.422165)">−40</text>
     </g>
    </g>
    <g id="ytick_2">
     <g id="line2d_16">
      <path d="M 43.048203 101.268708 
L 194.711413 101.268708 
" clip-path="url(#p3a6665bd95)" style="fill: none; stroke: #e5e7eb; stroke-width: 0.7; stroke-linecap: square"/>
     </g>
     <g id="line2d_17">
      <g>
       <use xlink:href="#md5db9e4a96" x="43.048203" y="101.268708" style="stroke: #000000; stroke-width: 0.8"/>
      </g>
     </g>
     <g id="text_9">
      <text style="font-size: 9.5px; font-family: 'Times New Roman', 'Times', 'TeX Gyre Termes', 'Nimbus Roman', 'DejaVu Serif', serif; text-anchor: end" x="36.048203" y="104.566989" transform="rotate(-0 36.048203 104.566989)">−20</text>
     </g>
    </g>
    <g id="ytick_3">
     <g id="line2d_18">
      <path d="M 43.048203 79.413533 
L 194.711413 79.413533 
" clip-path="url(#p3a6665bd95)" style="fill: none; stroke: #e5e7eb; stroke-width: 0.7; stroke-linecap: square"/>
     </g>
     <g id="line2d_19">
      <g>
       <use xlink:href="#md5db9e4a96" x="43.048203" y="79.413533" style="stroke: #000000; stroke-width: 0.8"/>
      </g>
     </g>
     <g id="text_10">
      <text style="font-size: 9.5px; font-family: 'Times New Roman', 'Times', 'TeX Gyre Termes', 'Nimbus Roman', 'DejaVu Serif', serif; text-anchor: end" x="36.048203" y="82.711814" transform="rotate(-0 36.048203 82.711814)">0</text>
     </g>
    </g>
    <g id="ytick_4">
     <g id="line2d_20">
      <path d="M 43.048203 57.558358 
L 194.711413 57.558358 
" clip-path="url(#p3a6665bd95)" style="fill: none; stroke: #e5e7eb; stroke-width: 0.7; stroke-linecap: square"/>
     </g>
     <g id="line2d_21">
      <g>
       <use xlink:href="#md5db9e4a96" x="43.048203" y="57.558358" style="stroke: #000000; stroke-width: 0.8"/>
      </g>
     </g>
     <g id="text_11">
      <text style="font-size: 9.5px; font-family: 'Times New Roman', 'Times', 'TeX Gyre Termes', 'Nimbus Roman', 'DejaVu Serif', serif; text-anchor: end" x="36.048203" y="60.856639" transform="rotate(-0 36.048203 60.856639)">20</text>
     </g>
    </g>
    <g id="ytick_5">
     <g id="line2d_22">
      <path d="M 43.048203 35.703182 
L 194.711413 35.703182 
" clip-path="url(#p3a6665bd95)" style="fill: none; stroke: #e5e7eb; stroke-width: 0.7; stroke-linecap: square"/>
     </g>
     <g id="line2d_23">
      <g>
       <use xlink:href="#md5db9e4a96" x="43.048203" y="35.703182" style="stroke: #000000; stroke-width: 0.8"/>
      </g>
     </g>
     <g id="text_12">
      <text style="font-size: 9.5px; font-family: 'Times New Roman', 'Times', 'TeX Gyre Termes', 'Nimbus Roman', 'DejaVu Serif', serif; text-anchor: end" x="36.048203" y="39.001464" transform="rotate(-0 36.048203 39.001464)">40</text>
     </g>
    </g>
    <g id="text_13">
     <text style="font-size: 11px; font-family: 'Times New Roman', 'Times', 'TeX Gyre Termes', 'Nimbus Roman', 'DejaVu Serif', serif; text-anchor: middle" x="14.838125" y="75.40894" transform="rotate(-90 14.838125 75.40894)">acceleration (m/s^2)</text>
    </g>
   </g>
   <g id="patch_3">
    <path d="M 43.048203 129.979754 
L 43.048203 20.838125 
" style="fill: none; stroke: #000000; stroke-width: 0.8; stroke-linejoin: miter; stroke-linecap: square"/>
   </g>
   <g id="patch_4">
    <path d="M 43.048203 129.979754 
L 194.711413 129.979754 
" style="fill: none; stroke: #000000; stroke-width: 0.8; stroke-linejoin: miter; stroke-linecap: square"/>
   </g>
   <g id="line2d_24">
    <path d="M 44.541045 90.133496 
L 44.618363 90.133496 
L 44.743263 67.767172 
L 44.808686 79.390682 
L 44.862214 79.257576 
L 44.868162 79.391842 
L 44.975218 79.330693 
L 45.088222 79.422609 
L 45.112012 79.21637 
L 45.135803 79.447332 
L 45.195278 79.397141 
L 45.242859 79.209557 
L 45.236911 79.562124 
L 45.284492 79.287347 
L 45.367758 79.526504 
L 45.379653 79.181788 
L 45.397496 79.376847 
L 45.421286 79.443102 
L 45.498605 79.329398 
L 45.504552 79.492016 
L 45.516448 79.317136 
L 45.611609 79.427246 
L 45.671085 79.250138 
L 45.694875 79.460412 
L 45.724613 79.319827 
L 45.790036 79.18628 
L 45.831669 79.571309 
L 45.891145 79.19653 
L 45.914935 79.585324 
L 45.938725 79.210064 
L 46.016044 79.600119 
L 46.004149 79.205857 
L 46.045782 79.568586 
L 46.063625 79.58618 
L 46.152838 79.203495 
L 46.212314 79.577427 
L 46.265842 79.371319 
L 46.355056 79.168082 
L 46.277737 79.54285 
L 46.372899 79.250414 
L 46.479955 79.564747 
L 46.390741 79.165193 
L 46.485903 79.3764 
L 46.51564 79.561346 
L 46.592959 79.218507 
L 46.598907 79.582859 
L 46.694068 79.208477 
L 46.705963 79.375582 
L 46.765439 79.217178 
L 46.771386 79.602176 
L 46.813019 79.388388 
L 46.890338 79.567152 
L 46.896285 79.192294 
L 46.926023 79.510971 
L 46.979551 79.233932 
L 47.021184 79.570451 
L 47.03308 79.366929 
L 47.104451 79.579865 
L 47.08066 79.211966 
L 47.140136 79.368188 
L 47.152031 79.470693 
L 47.163926 79.352101 
L 47.205559 79.550129 
L 47.22935 79.24209 
L 47.27693 79.432759 
L 47.318563 79.315868 
L 47.389934 79.403156 
L 47.508886 79.382251 
L 47.514833 79.388723 
L 47.687313 79.36924 
L 47.728946 79.520758 
L 47.722999 79.279849 
L 47.788422 79.367281 
L 47.86574 79.319543 
L 47.800317 79.470128 
L 47.895478 79.394078 
L 48.163119 79.316146 
L 48.347494 79.339011 
L 49.97713 79.316187 
L 50.339932 79.256072 
L 50.441041 79.109874 
L 50.494569 79.16634 
L 50.73842 79.258036 
L 51.321283 79.217882 
L 51.410496 79.069069 
L 51.47592 79.113428 
L 51.886302 79.258437 
L 52.207471 79.202705 
L 52.314528 79.040267 
L 52.397794 79.106979 
L 52.540536 79.180879 
L 52.730858 79.2291 
L 53.04608 79.175036 
L 53.200717 79.055296 
L 53.21856 79.07807 
L 53.622995 79.289449 
L 53.872793 79.275541 
L 53.950112 79.19881 
L 54.009587 79.319866 
L 54.253438 79.526215 
L 54.378337 79.592757 
L 54.598397 79.678326 
L 54.943357 79.741772 
L 55.252631 79.910632 
L 55.74628 79.972807 
L 56.90011 79.8996 
L 58.49406 79.560154 
L 61.206155 79.263758 
L 61.604643 79.277203 
L 61.812808 79.18372 
L 61.943655 79.210978 
L 62.407566 79.242178 
L 64.429742 79.343151 
L 65.648995 79.367758 
L 70.186996 79.01237 
L 70.686593 78.745717 
L 70.775806 78.578738 
L 70.84123 78.663293 
L 71.049395 78.680515 
L 71.23377 78.581017 
L 71.424092 78.459335 
L 71.537096 78.006121 
L 71.590624 78.130117 
L 71.638205 78.150132 
L 71.697681 78.108141 
L 71.983165 78.030549 
L 72.096169 77.297976 
L 72.161592 77.461794 
L 72.3876 77.774939 
L 72.417338 77.596109 
L 72.530342 76.417401 
L 72.60766 76.76073 
L 72.750402 77.183073 
L 72.762297 77.148858 
L 72.887196 75.613658 
L 72.982357 76.237484 
L 73.059676 76.640865 
L 73.095361 76.265448 
L 73.19647 74.6963 
L 73.255946 75.186473 
L 73.333265 76.057828 
L 73.380845 75.362375 
L 73.470059 73.751694 
L 73.529535 74.430121 
L 73.56522 74.825091 
L 73.618748 74.128297 
L 73.702014 72.729754 
L 73.755542 73.500509 
L 73.78528 74.008983 
L 73.844756 73.202862 
L 73.910179 72.024852 
L 73.969655 72.76287 
L 73.993446 73.067662 
L 74.041026 72.128992 
L 74.112397 70.846341 
L 74.165925 71.690244 
L 74.171873 71.747891 
L 74.219453 71.147025 
L 74.290824 69.615215 
L 74.356248 70.216344 
L 74.385986 69.862951 
L 74.606046 66.92576 
L 74.629836 67.35673 
L 74.683364 66.720396 
L 75.141328 60.535431 
L 75.367336 57.044145 
L 75.391126 57.35021 
L 75.397074 57.408579 
L 75.426812 56.673403 
L 75.545763 55.088314 
L 75.563606 55.283513 
L 75.581449 55.76136 
L 75.629029 54.71682 
L 75.67661 55.50316 
L 75.706348 54.771526 
L 75.736086 55.6444 
L 76.354634 87.177529 
L 76.68175 102.558535 
L 76.883968 105.029022 
L 76.925601 105.166663 
L 76.973182 104.87189 
L 76.991024 104.902283 
L 77.240823 102.975897 
L 77.514411 100.713691 
L 77.561992 99.816494 
L 77.710681 98.991024 
L 78.025903 96.718534 
L 78.251911 95.923199 
L 78.341124 96.021616 
L 79.964813 98.344086 
L 80.042131 98.443201 
L 80.16703 116.949672 
L 80.244349 107.871207 
L 80.393038 102.869269 
L 80.398986 102.881589 
L 80.416829 102.959048 
L 80.452514 102.62516 
L 80.506042 102.649559 
L 80.73205 100.471233 
L 80.940215 95.696148 
L 81.219751 83.9398 
L 81.981041 37.239254 
L 82.040517 37.68625 
L 82.088098 38.22622 
L 82.129731 37.200572 
L 82.195154 36.143679 
L 82.224892 37.405133 
L 82.23084 37.385731 
L 82.242735 37.339826 
L 82.266525 37.677422 
L 82.4509 46.968919 
L 82.480638 45.81098 
L 82.504428 47.512064 
L 82.62338 53.984858 
L 82.64717 52.221942 
L 82.653117 52.064345 
L 82.676908 53.667384 
L 82.81965 60.487548 
L 82.837492 59.332911 
L 82.84344 59.066364 
L 82.891021 61.828089 
L 83.099186 68.242532 
L 83.128924 67.800961 
L 83.152714 67.649835 
L 83.200295 68.143078 
L 83.218137 69.091216 
L 83.384669 76.385155 
L 83.438198 79.454616 
L 83.497673 76.509153 
L 83.563097 75.705375 
L 83.580939 77.080275 
L 83.592835 77.387481 
L 83.62852 77.071249 
L 83.693943 77.264264 
L 83.711786 77.488628 
L 83.771262 79.843421 
L 83.854528 79.141763 
L 83.872371 79.133219 
L 83.890213 79.188742 
L 84.062693 81.559071 
L 84.163802 81.408417 
L 84.21733 81.587459 
L 84.342229 81.82267 
L 84.36602 81.811678 
L 84.437391 81.629997 
L 84.746665 80.395844 
L 84.865616 77.929967 
L 84.936987 78.259664 
L 84.990515 77.975843 
L 85.145152 76.381499 
L 85.19868 76.980003 
L 85.317632 79.305021 
L 85.335475 77.664504 
L 85.507954 72.295938 
L 85.686382 69.336243 
L 85.7637 70.048949 
L 85.769648 70.091042 
L 85.781543 69.650393 
L 85.793438 69.020818 
L 85.882652 70.194955 
L 85.906442 69.385552 
L 85.977813 70.665413 
L 86.013498 70.473377 
L 86.602308 80.103943 
L 86.685575 81.874864 
L 86.881845 84.314033 
L 86.935373 84.238643 
L 86.994849 84.554772 
L 87.095957 86.248819 
L 87.203014 86.005075 
L 87.220856 86.089003 
L 87.429022 87.751212 
L 87.452812 87.731451 
L 87.553921 87.59888 
L 87.601501 87.681562 
L 87.708558 87.874792 
L 87.750191 87.822983 
L 88.089203 86.779226 
L 88.368739 85.274675 
L 88.529323 84.877926 
L 88.773174 83.215345 
L 88.838597 82.709131 
L 88.909968 82.817401 
L 88.951601 83.044498 
L 88.981339 82.62015 
L 89.082448 80.521058 
L 89.153819 81.108369 
L 89.177609 81.493397 
L 89.219242 80.629436 
L 89.302508 78.481708 
L 89.350089 79.453664 
L 89.373879 80.017329 
L 89.42146 78.372015 
L 89.492831 76.689388 
L 89.534464 78.079309 
L 89.546359 78.327148 
L 89.59394 76.686385 
L 89.659363 75.176988 
L 89.712891 76.387444 
L 89.927004 72.926994 
L 90.111379 70.998109 
L 89.998375 73.315026 
L 90.123274 71.447297 
L 90.135169 71.994326 
L 90.212488 70.071719 
L 90.254121 69.687246 
L 90.266016 70.413873 
L 90.277911 71.195422 
L 90.349282 68.219675 
L 90.396863 68.114766 
L 90.40281 68.313235 
L 90.5515 75.023786 
L 90.581237 74.28762 
L 90.676399 66.243182 
L 90.777507 66.962931 
L 90.860774 66.877675 
L 90.920249 68.892915 
L 90.955935 67.296237 
L 91.009463 69.055454 
L 91.122467 69.774954 
L 91.057044 67.909151 
L 91.134362 69.540456 
L 91.158152 68.799862 
L 91.223576 70.443064 
L 91.449584 72.73844 
L 91.259261 69.932952 
L 91.455531 72.714722 
L 91.473374 72.563404 
L 91.526902 73.403654 
L 91.92539 78.674927 
L 92.692627 86.503404 
L 93.073272 87.751683 
L 93.174381 87.989668 
L 93.269542 88.138611 
L 93.32307 88.117798 
L 93.525288 87.875096 
L 93.852405 86.760136 
L 94.756436 82.649793 
L 94.899178 82.25144 
L 95.030025 81.84928 
L 95.148976 80.635955 
L 95.220347 80.751298 
L 95.26198 80.812282 
L 95.279823 80.681588 
L 95.41067 78.978074 
L 95.499883 79.43707 
L 95.511779 79.465254 
L 95.541517 79.173793 
L 95.648573 77.793913 
L 95.708049 78.202393 
L 95.749682 78.502087 
L 95.791315 78.078514 
L 95.880528 76.870777 
L 95.945952 77.462265 
L 95.981637 77.906081 
L 96.035165 77.215373 
L 96.106536 75.976287 
L 96.160065 76.746781 
L 96.201698 77.600708 
L 96.261173 76.590386 
L 96.320649 75.368318 
L 96.374177 76.417772 
L 96.421758 77.447554 
L 96.475286 76.312121 
L 96.546657 74.908295 
L 96.594238 75.849845 
L 96.641818 76.672669 
L 96.677504 75.577675 
L 96.76077 73.646626 
L 96.802403 74.881633 
L 96.873774 76.783455 
L 96.921354 75.490922 
L 96.992725 74.236113 
L 97.034358 75.389575 
L 97.123572 77.189611 
L 97.165205 76.142655 
L 97.248471 75.002363 
L 97.278209 75.784157 
L 97.391213 77.451697 
L 97.426898 77.17224 
L 97.528007 75.880477 
L 97.557745 76.406685 
L 97.706434 77.761846 
L 97.74212 77.892419 
L 97.759963 77.563071 
L 97.867019 76.739679 
L 97.884862 77.079326 
L 98.033551 78.143395 
L 98.140608 78.584732 
L 98.15845 78.27647 
L 98.265507 77.25014 
L 98.295245 77.71891 
L 98.497462 78.82643 
L 98.663994 78.980004 
L 98.67589 78.97493 
L 98.776998 78.651539 
L 98.848369 78.899717 
L 99.044639 79.41217 
L 99.389599 79.433036 
L 99.395546 79.392871 
L 99.514498 79.085051 
L 99.532341 79.191788 
L 99.70482 79.450867 
L 100.281735 79.49366 
L 100.626695 79.440184 
L 101.114396 79.361274 
L 101.79242 79.357929 
L 101.917319 78.321837 
L 101.941109 78.56878 
L 102.131432 78.986459 
L 102.214698 79.058794 
L 102.220645 78.996581 
L 102.339597 77.683669 
L 102.375282 78.105164 
L 102.523972 78.514947 
L 102.55371 78.57632 
L 102.565605 78.451518 
L 102.678609 77.103242 
L 102.720242 77.676568 
L 102.857036 78.212947 
L 102.862984 78.141422 
L 102.981935 76.45369 
L 103.017621 77.068445 
L 103.124677 77.959986 
L 103.148467 77.569001 
L 103.255524 75.760226 
L 103.291209 76.517069 
L 103.374475 77.609755 
L 103.410161 76.887335 
L 103.505322 75.146761 
L 103.541007 75.961244 
L 103.612378 77.211614 
L 103.654011 76.141185 
L 103.737277 74.562371 
L 103.77891 75.570465 
L 103.832439 76.635035 
L 103.880019 75.458517 
L 103.95139 74.012119 
L 103.998971 75.19322 
L 104.034656 76.040404 
L 104.094132 74.713028 
L 104.153608 73.538625 
L 104.201188 74.701909 
L 104.224979 75.368508 
L 104.290402 74.242704 
L 104.349878 73.140598 
L 104.397458 74.332547 
L 104.415301 74.583075 
L 104.474777 73.792379 
L 104.522358 72.980721 
L 104.581833 73.808493 
L 104.617519 73.721388 
L 104.855422 71.995615 
L 104.873265 72.316693 
L 104.90895 72.955889 
L 104.980321 72.371992 
L 105.016006 71.941588 
L 105.063587 72.730568 
L 105.111168 72.811862 
L 105.140906 72.599559 
L 105.170643 72.256764 
L 105.259857 72.375125 
L 105.366913 72.561881 
L 105.319333 72.222155 
L 105.372861 72.473413 
L 105.462075 72.184603 
L 105.479917 72.416411 
L 105.509655 72.65274 
L 105.563184 72.338907 
L 105.598869 72.509133 
L 105.604817 72.475268 
L 105.640502 72.876172 
L 105.717821 72.744724 
L 105.801087 73.55818 
L 105.818929 73.473221 
L 105.878405 73.661063 
L 106.895441 85.94238 
L 107.525884 89.906064 
L 107.793525 90.58231 
L 108.02548 90.806624 
L 108.245541 90.899041 
L 108.519129 90.637752 
L 109.500479 88.918037 
L 110.214189 84.74266 
L 110.452092 82.699962 
L 110.517515 81.859982 
L 110.856527 78.179892 
L 111.790297 70.284496 
L 111.808139 70.563029 
L 111.814087 70.621171 
L 111.891405 70.296662 
L 111.927091 70.040334 
L 111.950881 70.551329 
L 111.986567 70.778613 
L 112.046042 70.395056 
L 112.07578 70.117237 
L 112.105518 70.860995 
L 112.135256 71.169232 
L 112.206627 70.739495 
L 112.230417 70.501235 
L 112.266103 71.374158 
L 112.331526 71.902169 
L 112.367211 71.296088 
L 112.396949 71.019171 
L 112.432635 71.81448 
L 112.480215 72.756012 
L 112.545639 72.017448 
L 112.575377 71.556712 
L 112.61701 72.635987 
L 112.658643 73.819706 
L 112.730014 73.0051 
L 112.771647 72.381158 
L 112.819227 73.520393 
L 112.872756 75.00392 
L 112.938179 74.056237 
L 112.985759 73.321068 
L 113.03334 74.334454 
L 113.116606 76.156216 
L 113.176082 75.295725 
L 113.235558 74.462373 
L 113.283138 75.238541 
L 113.419933 77.11255 
L 113.455618 76.752502 
L 113.544832 75.886676 
L 113.592412 76.402678 
L 113.800577 77.784905 
L 113.877896 77.897994 
L 113.901686 77.772364 
L 113.996848 77.540279 
L 114.026585 77.699813 
L 114.216908 78.212808 
L 114.389388 78.28899 
L 114.657029 78.273737 
L 114.888984 78.132086 
L 115.061464 77.999607 
L 115.180415 77.322295 
L 115.233944 77.480272 
L 115.370738 77.730183 
L 115.394528 77.708519 
L 115.507532 77.562971 
L 115.614588 76.716749 
L 115.656221 77.029074 
L 115.816806 77.651007 
L 115.828701 77.600313 
L 115.947653 76.600746 
L 115.989286 77.011193 
L 116.114185 77.813468 
L 116.143923 77.508132 
L 116.233136 76.84175 
L 116.274769 77.279979 
L 116.387773 78.278891 
L 116.429406 77.949965 
L 116.512673 77.41336 
L 116.54241 77.763616 
L 116.66731 79.081395 
L 116.702995 78.811466 
L 116.792209 78.491257 
L 116.815999 78.740042 
L 116.964688 80.181143 
L 117.018217 79.755126 
L 117.071745 79.547213 
L 117.10743 79.851194 
L 117.309648 81.352971 
L 117.315595 81.346886 
L 117.422652 80.976282 
L 117.458337 81.193205 
L 117.660555 82.197595 
L 117.779506 82.442096 
L 117.809244 82.362907 
L 117.856825 82.38813 
L 117.874668 82.42887 
L 118.136361 82.983514 
L 118.326683 82.933196 
L 118.951179 82.251626 
L 119.266401 81.654838 
L 119.432933 81.321864 
L 119.456723 81.356359 
L 119.551884 81.313375 
L 119.557832 81.307267 
L 119.748154 80.982655 
L 119.867106 80.213442 
L 119.932529 80.353468 
L 119.962267 80.409213 
L 120.015795 80.287036 
L 120.229908 79.577701 
L 120.283436 79.162547 
L 120.384545 79.244302 
L 120.491601 79.650807 
L 120.521339 79.347715 
L 120.640291 78.112319 
L 120.693819 78.372376 
L 120.794928 79.11958 
L 120.836561 78.576919 
L 120.919827 77.144079 
L 120.98525 77.730618 
L 121.074464 78.708795 
L 121.116097 77.986241 
L 121.205311 76.393492 
L 121.258839 77.244619 
L 121.348053 78.426472 
L 121.383738 77.639576 
L 121.472952 75.863234 
L 121.514585 76.712674 
L 121.621641 78.072434 
L 121.645431 77.537967 
L 121.74654 75.778374 
L 121.782226 76.560911 
L 121.91902 77.761909 
L 121.924967 77.661178 
L 122.043919 75.623748 
L 122.079604 76.47055 
L 122.252084 78.030242 
L 122.263979 77.997155 
L 122.323455 77.407023 
L 122.382931 77.910861 
L 122.573253 79.414887 
L 122.579201 79.372723 
L 122.698152 77.278008 
L 122.72789 77.976449 
L 122.805209 78.898933 
L 122.846842 78.211117 
L 122.930108 77.516225 
L 122.959846 78.061455 
L 123.07285 79.253714 
L 123.102588 78.879138 
L 123.197749 78.078912 
L 123.233434 78.575049 
L 123.388071 79.646377 
L 123.405914 79.560258 
L 123.512971 79.053828 
L 123.542708 79.268654 
L 123.744926 80.004257 
L 123.816297 80.094679 
L 123.851982 79.967368 
L 123.941196 79.831751 
L 123.970934 79.963217 
L 124.173152 80.332902 
L 124.405107 80.350888 
L 125.017707 79.995359 
L 125.297244 79.864983 
L 125.529199 79.68629 
L 125.707626 79.358367 
L 125.725469 79.323209 
L 125.802788 79.418482 
L 126.171537 79.321117 
L 126.403493 79.339146 
L 126.492707 79.245593 
L 126.60571 78.504601 
L 126.653291 78.744967 
L 126.825771 79.082294 
L 127.295629 79.055923 
L 127.372948 79.011788 
L 127.378895 78.994969 
L 127.408633 78.932801 
L 127.474057 79.059959 
L 127.706012 79.38497 
L 128.068814 79.39984 
L 128.074762 79.329957 
L 128.193714 78.761586 
L 128.211556 78.940621 
L 128.372141 79.329229 
L 128.645729 79.403239 
L 128.770628 78.977089 
L 128.806314 79.112929 
L 129.050165 79.441723 
L 129.442705 79.496496 
L 129.555709 79.402443 
L 129.585446 79.451669 
L 129.829297 79.573093 
L 130.400265 79.587743 
L 131.750364 79.356007 
L 132.273751 79.059389 
L 132.297542 79.098273 
L 132.54734 79.362402 
L 132.814981 79.342215 
L 132.933932 78.149742 
L 132.96367 78.518898 
L 133.11236 78.972403 
L 133.165888 79.019639 
L 133.171835 78.979192 
L 133.290787 77.599109 
L 133.33242 78.12373 
L 133.481109 78.808349 
L 133.493004 78.694622 
L 133.606008 77.176167 
L 133.647641 77.725969 
L 133.778488 78.584906 
L 133.796331 78.386243 
L 133.903387 76.907425 
L 133.956915 77.546624 
L 134.063972 78.377851 
L 134.09371 78.020173 
L 134.188871 76.733931 
L 134.242399 77.278741 
L 134.33756 78.203914 
L 134.379193 77.680294 
L 134.46246 76.639818 
L 134.521935 77.207573 
L 134.599254 77.978013 
L 134.652782 77.474857 
L 134.7301 76.651634 
L 134.783629 77.12448 
L 134.860947 77.803754 
L 134.908528 77.364132 
L 134.979899 76.733158 
L 135.039374 77.127934 
L 135.110745 77.751737 
L 135.176169 77.256396 
L 135.235645 76.727142 
L 135.289173 77.236596 
L 135.360544 77.786036 
L 135.414072 77.361973 
L 135.485443 76.946543 
L 135.527076 77.267226 
L 135.610342 77.947113 
L 135.66387 77.55516 
L 135.729293 77.174562 
L 135.770926 77.579516 
L 135.866088 78.388517 
L 135.931511 78.017257 
L 135.979092 77.782329 
L 136.014777 78.17053 
L 136.121833 79.137476 
L 136.169414 78.868481 
L 136.234837 78.671339 
L 136.264575 78.896216 
L 136.371632 80.101279 
L 136.42516 79.771251 
L 136.496531 79.540916 
L 136.526269 79.756792 
L 136.686853 81.317511 
L 136.740381 81.040388 
L 136.79391 80.830019 
L 136.84149 81.100242 
L 137.055603 82.41275 
L 137.103184 82.332768 
L 137.168607 82.137062 
L 137.216188 82.310568 
L 137.549252 83.326966 
L 137.82284 83.496496 
L 137.99532 83.61176 
L 138.352175 83.286111 
L 139.14915 82.080684 
L 139.333525 81.919094 
L 139.476267 81.72746 
L 139.624956 80.781024 
L 139.726065 80.928667 
L 139.839069 80.947591 
L 139.862859 80.892195 
L 139.928283 80.479987 
L 140.029391 79.693063 
L 140.08292 79.887744 
L 140.166186 80.097982 
L 140.225661 80.005909 
L 140.314875 79.399699 
L 140.392194 78.831531 
L 140.457617 79.114681 
L 140.49925 79.192171 
L 140.576569 79.142617 
L 140.594411 79.166785 
L 140.618202 79.040045 
L 140.725258 78.069983 
L 140.796629 78.344663 
L 140.91558 78.669002 
L 140.933423 78.538281 
L 141.046427 77.461572 
L 141.105903 77.853978 
L 141.230802 78.19555 
L 141.248645 78.094264 
L 141.367596 77.023917 
L 141.43302 77.455698 
L 141.528181 77.929313 
L 141.557919 78.070977 
L 141.593604 77.76207 
L 141.682818 76.918438 
L 141.742294 77.182497 
L 141.902878 78.015439 
L 141.950459 77.594819 
L 142.033725 76.938544 
L 142.093201 77.307723 
L 142.295418 78.118083 
L 142.331104 77.832514 
L 142.420317 77.290079 
L 142.473846 77.560313 
L 142.693906 78.241512 
L 142.78312 78.328305 
L 142.800962 78.20232 
L 142.908019 77.776934 
L 142.937757 77.95415 
L 143.116184 78.392576 
L 143.122131 78.390978 
L 144.264066 78.85802 
L 144.9183 78.842831 
L 145.179993 78.910912 
L 145.477372 78.785841 
L 145.542795 78.657391 
L 145.596323 78.783231 
L 145.941283 79.113427 
L 146.078077 79.185288 
L 146.107815 79.197836 
L 146.137553 79.105086 
L 146.238662 78.875403 
L 146.29219 78.99533 
L 146.500355 79.367562 
L 146.750153 79.536621 
L 146.815577 79.449311 
L 146.898843 79.328659 
L 146.934528 79.420089 
L 147.136746 79.732002 
L 147.83856 80.054586 
L 148.028882 80.140259 
L 148.62364 80.19867 
L 149.783418 79.847702 
L 151.353578 79.384044 
L 151.579586 79.336082 
L 151.817489 79.133138 
L 151.823436 79.136818 
L 152.08513 79.184701 
L 152.334928 79.191441 
L 152.786944 79.128378 
L 152.876157 79.028513 
L 152.941581 79.063732 
L 154.660431 79.231109 
L 155.183817 79.414913 
L 155.362245 79.570704 
L 157.432001 79.453207 
L 158.110025 79.434968 
L 158.847525 79.32342 
L 159.020004 79.308837 
L 159.287645 79.337747 
L 159.62071 79.316563 
L 160.471213 79.239736 
L 160.590165 79.280225 
L 160.792382 79.385038 
L 161.839156 79.36067 
L 161.95216 79.149223 
L 161.97595 79.224315 
L 162.142482 79.35964 
L 162.481494 79.39128 
L 162.885929 79.31477 
L 163.046514 79.31636 
L 163.682905 79.407461 
L 167.798628 79.449395 
L 173.80568 79.403143 
L 177.624025 79.448008 
L 193.224519 79.415348 
L 193.224519 79.415348 
" clip-path="url(#p3a6665bd95)" style="fill: none; stroke-dasharray: 3.552,1.536; stroke-dashoffset: 0; stroke: #4c78a8; stroke-opacity: 0.66; stroke-width: 0.96"/>
    <defs>
     <path id="meeb82fff3c" d="M -1 1 
L 1 1 
L 1 -1 
L -1 -1 
z
" style="stroke: #4c78a8; stroke-opacity: 0.66; stroke-width: 0.45; stroke-linejoin: miter"/>
    </defs>
    <g clip-path="url(#p3a6665bd95)">
     <use xlink:href="#meeb82fff3c" x="44.541045" y="90.133496" style="fill: #ffffff; fill-opacity: 0.66; stroke: #4c78a8; stroke-opacity: 0.66; stroke-width: 0.45; stroke-linejoin: miter"/>
     <use xlink:href="#meeb82fff3c" x="58.05394" y="79.635191" style="fill: #ffffff; fill-opacity: 0.66; stroke: #4c78a8; stroke-opacity: 0.66; stroke-width: 0.45; stroke-linejoin: miter"/>
     <use xlink:href="#meeb82fff3c" x="71.566834" y="78.082537" style="fill: #ffffff; fill-opacity: 0.66; stroke: #4c78a8; stroke-opacity: 0.66; stroke-width: 0.45; stroke-linejoin: miter"/>
     <use xlink:href="#meeb82fff3c" x="85.079729" y="77.453566" style="fill: #ffffff; fill-opacity: 0.66; stroke: #4c78a8; stroke-opacity: 0.66; stroke-width: 0.45; stroke-linejoin: miter"/>
     <use xlink:href="#meeb82fff3c" x="98.592623" y="78.963552" style="fill: #ffffff; fill-opacity: 0.66; stroke: #4c78a8; stroke-opacity: 0.66; stroke-width: 0.45; stroke-linejoin: miter"/>
     <use xlink:href="#meeb82fff3c" x="112.105518" y="70.860995" style="fill: #ffffff; fill-opacity: 0.66; stroke: #4c78a8; stroke-opacity: 0.66; stroke-width: 0.45; stroke-linejoin: miter"/>
     <use xlink:href="#meeb82fff3c" x="125.618413" y="79.590295" style="fill: #ffffff; fill-opacity: 0.66; stroke: #4c78a8; stroke-opacity: 0.66; stroke-width: 0.45; stroke-linejoin: miter"/>
     <use xlink:href="#meeb82fff3c" x="139.131307" y="82.125693" style="fill: #ffffff; fill-opacity: 0.66; stroke: #4c78a8; stroke-opacity: 0.66; stroke-width: 0.45; stroke-linejoin: miter"/>
     <use xlink:href="#meeb82fff3c" x="152.644202" y="79.193626" style="fill: #ffffff; fill-opacity: 0.66; stroke: #4c78a8; stroke-opacity: 0.66; stroke-width: 0.45; stroke-linejoin: miter"/>
     <use xlink:href="#meeb82fff3c" x="166.157097" y="79.474823" style="fill: #ffffff; fill-opacity: 0.66; stroke: #4c78a8; stroke-opacity: 0.66; stroke-width: 0.45; stroke-linejoin: miter"/>
     <use xlink:href="#meeb82fff3c" x="179.669991" y="79.425752" style="fill: #ffffff; fill-opacity: 0.66; stroke: #4c78a8; stroke-opacity: 0.66; stroke-width: 0.45; stroke-linejoin: miter"/>
     <use xlink:href="#meeb82fff3c" x="193.182886" y="79.414576" style="fill: #ffffff; fill-opacity: 0.66; stroke: #4c78a8; stroke-opacity: 0.66; stroke-width: 0.45; stroke-linejoin: miter"/>
    </g>
   </g>
   <g id="text_14">
    <text style="font-size: 11px; font-family: 'Times New Roman', 'Times', 'TeX Gyre Termes', 'Nimbus Roman', 'DejaVu Serif', serif; text-anchor: middle" x="118.879808" y="14.838125" transform="rotate(-0 118.879808 14.838125)">z acceleration</text>
   </g>
   <g id="line2d_25">
    <path d="M 44.535097 90.133496 
L 44.659996 90.133496 
L 44.784896 64.263653 
L 44.802738 75.297599 
L 44.832476 79.512809 
L 44.92169 79.402576 
L 44.939533 79.49051 
L 45.034694 79.384702 
L 45.11796 79.468175 
L 45.064432 79.360838 
L 45.147698 79.412627 
L 45.201226 79.480832 
L 45.177436 79.362521 
L 45.266649 79.437756 
L 45.278544 79.344623 
L 45.308282 79.496178 
L 45.379653 79.402964 
L 45.391548 79.371004 
L 45.564028 79.42108 
L 45.605661 79.373644 
L 45.581871 79.455755 
L 45.671085 79.434674 
L 46.021992 79.382678 
L 46.134996 88.546112 
L 46.146891 89.613857 
L 46.158786 82.628455 
L 46.27179 69.059439 
L 46.283685 75.39446 
L 46.331266 79.448584 
L 46.402636 79.427943 
L 46.450217 79.381981 
L 46.456165 79.349577 
L 46.545378 79.310035 
L 46.485903 79.45452 
L 46.557273 79.364479 
L 46.628644 79.464405 
L 46.658382 79.328699 
L 46.676225 79.411502 
L 46.759491 79.329832 
L 46.729753 79.430477 
L 46.795177 79.380328 
L 47.021184 79.398727 
L 47.098503 79.821392 
L 47.086608 79.37437 
L 47.128241 79.401345 
L 47.152031 79.146599 
L 47.157979 78.93461 
L 47.187717 79.453614 
L 47.25314 79.338996 
L 47.336406 79.654821 
L 47.288825 79.16236 
L 47.378039 79.412906 
L 47.389934 79.263085 
L 47.437515 79.618774 
L 47.44941 79.99036 
L 47.467253 79.274645 
L 47.544571 79.483242 
L 47.550519 79.509437 
L 47.562414 79.151116 
L 47.574309 78.820584 
L 47.639732 79.418777 
L 47.663523 79.225224 
L 47.782474 79.457299 
L 47.788422 79.439146 
L 47.901426 79.340488 
L 47.847898 79.46319 
L 47.907373 79.349135 
L 48.026325 79.448629 
L 48.032273 79.428733 
L 48.151224 79.35275 
L 48.109591 79.454268 
L 48.157172 79.364936 
L 48.276123 79.422153 
L 48.293966 79.409226 
L 48.371284 79.315846 
L 48.341547 79.449899 
L 48.40697 79.382678 
L 48.496184 79.457159 
L 48.543764 79.385907 
L 48.573502 79.337047 
L 48.585397 79.426731 
L 48.656768 79.375048 
L 48.77572 79.334769 
L 48.674611 79.421344 
L 48.787615 79.383204 
L 48.912514 78.576489 
L 49.037413 79.302421 
L 49.108784 79.375946 
L 49.079046 79.255929 
L 49.150417 79.298563 
L 49.239631 79.241175 
L 49.197998 79.366257 
L 49.257473 79.339218 
L 49.36453 79.433091 
L 49.382372 79.381508 
L 49.483481 79.395274 
L 49.501324 79.372907 
L 49.566747 79.321684 
L 49.596485 79.411806 
L 49.614328 79.379254 
L 49.887917 79.343992 
L 49.923602 79.281201 
L 49.965235 79.433356 
L 50.119872 79.260577 
L 50.155557 79.384357 
L 50.244771 79.414311 
L 50.209086 79.214075 
L 50.256666 79.330376 
L 50.375618 79.227006 
L 50.328037 79.416361 
L 50.381565 79.238362 
L 50.494569 79.369488 
L 50.512412 79.32581 
L 50.607573 79.158582 
L 50.577835 79.355897 
L 50.625416 79.271132 
L 50.631364 79.303424 
L 50.655154 78.831866 
L 50.678944 79.100821 
L 50.756263 78.462429 
L 50.797896 78.595526 
L 50.875214 79.404994 
L 50.946585 79.344265 
L 50.982271 79.199688 
L 51.000113 79.128954 
L 51.029851 79.324116 
L 51.083379 79.211014 
L 51.214226 79.364738 
L 51.220174 79.332704 
L 51.345073 79.117605 
L 51.35102 79.126813 
L 51.398601 79.422916 
L 51.505657 79.274989 
L 51.5235 79.151229 
L 51.594871 79.385042 
L 51.606766 79.383836 
L 51.725718 79.491077 
L 51.737613 79.434565 
L 51.850617 79.249378 
L 51.874407 79.313811 
L 52.011201 79.103919 
L 52.118258 78.845004 
L 52.070677 79.357901 
L 52.142048 78.942574 
L 52.147996 78.961558 
L 52.165838 78.660626 
L 52.195576 78.050278 
L 52.261 78.756578 
L 52.266947 78.746392 
L 52.30858 78.663131 
L 52.314528 78.843009 
L 52.385899 78.807676 
L 52.439427 79.326566 
L 52.463217 79.45359 
L 52.48106 79.244528 
L 52.546483 79.285458 
L 52.671382 79.042777 
L 52.611907 79.373412 
L 52.67733 79.06224 
L 52.772491 79.167274 
L 52.802229 79.486783 
L 52.891443 79.309829 
L 52.915233 79.121274 
L 53.02229 79.033359 
L 52.998499 79.276787 
L 53.034185 79.056353 
L 53.224507 79.465829 
L 53.099608 78.938593 
L 53.230455 79.460535 
L 53.355354 79.21591 
L 53.373197 79.400988 
L 53.391039 79.509681 
L 53.43862 79.227822 
L 53.480253 79.417341 
L 53.617047 78.887899 
L 53.622995 79.000156 
L 53.63489 79.042938 
L 53.682471 78.932163 
L 53.712208 78.184414 
L 53.795475 78.632855 
L 53.813317 79.531791 
L 53.837108 80.359525 
L 53.914426 78.841506 
L 53.926321 78.876582 
L 53.932269 78.639677 
L 53.967954 77.914387 
L 54.021482 79.441873 
L 54.039325 79.400619 
L 54.057168 79.15992 
L 54.110696 80.030387 
L 54.116644 80.033909 
L 54.241543 79.003315 
L 54.259386 79.596099 
L 54.295071 78.929775 
L 54.354547 79.156416 
L 54.586502 79.807286 
L 54.604345 79.745985 
L 54.723297 79.71284 
L 54.866038 79.850979 
L 54.919567 79.782195 
L 55.044466 77.865816 
L 55.050413 78.165733 
L 55.193155 79.979042 
L 55.199103 79.977771 
L 55.216945 79.945284 
L 55.228841 80.064545 
L 55.341845 80.356614 
L 55.35374 80.162776 
L 55.472691 79.595467 
L 55.502429 79.652236 
L 55.561905 79.685295 
L 55.698699 80.160429 
L 55.752227 80.239366 
L 55.799808 80.107591 
L 55.841441 80.020714 
L 55.865231 80.138119 
L 55.960392 80.518507 
L 55.99013 80.412339 
L 56.079344 80.204355 
L 56.109082 80.281135 
L 56.216138 80.31842 
L 56.233981 80.262895 
L 56.38267 80.285099 
L 56.477832 80.628974 
L 56.513517 80.428648 
L 56.590836 80.282936 
L 56.537307 80.4782 
L 56.620574 80.429002 
L 56.644364 80.457604 
L 56.668154 80.24223 
L 56.787106 79.819638 
L 56.912005 80.830912 
L 56.94769 80.219436 
L 57.036904 80.234813 
L 57.268859 80.089183 
L 57.346178 79.983412 
L 57.387811 80.051512 
L 57.482972 80.0713 
L 57.417549 80.041658 
L 57.494867 80.050544 
L 57.601924 80.025633 
L 57.613819 80.061335 
L 57.673295 80.210176 
L 57.726823 80.07237 
L 57.792246 79.958685 
L 57.893355 79.828854 
L 57.90525 79.915226 
L 57.946883 80.287317 
L 58.012307 79.907291 
L 58.018254 79.905969 
L 58.042044 79.438391 
L 58.107468 80.411953 
L 58.166944 80.862688 
L 58.184786 80.297121 
L 58.303738 79.351139 
L 58.321581 79.537913 
L 58.428637 79.987205 
L 58.44648 79.916046 
L 58.476218 79.789749 
L 58.535693 80.056535 
L 58.595169 80.077152 
L 58.624907 79.991826 
L 58.731963 79.264169 
L 58.833072 79.635402 
L 58.856862 79.906302 
L 58.904443 79.440425 
L 58.987709 78.946431 
L 59.047185 79.171407 
L 59.088818 79.195367 
L 59.124503 79.109041 
L 59.142346 79.081521 
L 59.201822 79.225794 
L 59.368354 79.720525 
L 59.421882 79.609966 
L 59.439725 79.733618 
L 59.457568 79.500589 
L 59.481358 79.333339 
L 59.546781 79.678502 
L 59.594362 79.831601 
L 59.618152 79.649539 
L 59.754947 79.1788 
L 59.766842 79.245653 
L 59.879846 79.728935 
L 59.915531 79.613593 
L 59.986902 77.984417 
L 60.046378 78.90034 
L 60.111801 80.174637 
L 60.147487 78.72833 
L 60.183172 77.950654 
L 60.266438 78.450274 
L 60.272386 78.443146 
L 60.278333 78.602591 
L 60.325914 79.185075 
L 60.397285 78.986744 
L 60.40918 79.005008 
L 60.43297 78.846739 
L 60.450813 78.497964 
L 60.528132 79.110137 
L 60.641135 80.434687 
L 60.653031 79.806649 
L 60.688716 79.006474 
L 60.766035 79.555608 
L 60.77793 79.698774 
L 60.831458 79.018969 
L 60.968252 78.528156 
L 60.9742 78.590121 
L 61.039623 78.849288 
L 61.093151 78.680667 
L 61.099099 78.685812 
L 61.110994 78.564711 
L 61.235893 78.270561 
L 61.360792 79.671681 
L 61.36674 79.454001 
L 61.39053 78.589987 
L 61.473796 79.347058 
L 61.521377 79.900299 
L 61.557062 79.445866 
L 61.676014 78.054604 
L 61.777123 80.291527 
L 61.800913 79.991359 
L 61.907969 77.745241 
L 61.95555 77.918952 
L 62.110187 80.643393 
L 62.015026 77.776007 
L 62.139925 79.948686 
L 62.163715 79.73159 
L 62.187505 77.541132 
L 62.211296 79.765565 
L 62.276719 79.11274 
L 62.288614 78.686176 
L 62.306457 79.999306 
L 62.383776 79.108023 
L 62.395671 79.276615 
L 62.472989 78.862932 
L 62.627626 78.489217 
L 62.514622 78.980779 
L 62.639521 78.499795 
L 62.74063 78.950595 
L 62.722787 78.350936 
L 62.758473 78.800527 
L 62.76442 78.803997 
L 62.776316 78.562761 
L 62.847687 79.546507 
L 62.865529 79.08491 
L 62.954743 79.539147 
L 62.996376 79.451781 
L 63.032061 79.620462 
L 63.151013 79.792392 
L 63.073694 79.529635 
L 63.156961 79.763009 
L 63.311597 79.531944 
L 63.192646 79.888948 
L 63.335388 79.582598 
L 63.377021 79.542578 
L 63.50192 78.202129 
L 63.507868 78.456773 
L 63.591134 77.694144 
L 63.626819 78.873163 
L 63.686295 79.515918 
L 63.716033 80.085192 
L 63.769561 79.038934 
L 63.834984 78.824642 
L 63.799299 79.086945 
L 63.846879 79.021572 
L 63.971779 79.512164 
L 64.11452 79.016804 
L 64.298895 80.248689 
L 64.328633 80.165944 
L 64.352423 80.226319 
L 64.364319 80.118173 
L 64.50706 79.535613 
L 64.513008 79.539324 
L 64.566536 79.535364 
L 64.542746 79.463521 
L 64.590327 79.473536 
L 64.614117 79.081584 
L 64.70333 78.360723 
L 64.637907 79.106909 
L 64.750911 78.736228 
L 64.768754 78.371542 
L 64.82823 78.916859 
L 64.857967 78.739145 
L 65.131556 80.493956 
L 65.137504 80.519334 
L 65.250508 77.363671 
L 65.262403 77.420875 
L 65.375407 79.943345 
L 65.387302 79.819701 
L 65.428935 79.381993 
L 65.446778 78.679985 
L 65.541939 79.222893 
L 65.559782 79.518266 
L 65.571677 79.864793 
L 65.654943 79.36199 
L 65.666838 79.415094 
L 65.672786 79.394244 
L 65.708471 79.664609 
L 65.738209 79.917922 
L 65.744156 79.853367 
L 65.779842 76.970331 
L 65.869056 77.172305 
L 65.904741 80.20559 
L 65.993955 80.076101 
L 66.011797 80.154493 
L 66.077221 80.055696 
L 66.106959 80.122224 
L 66.136697 79.951158 
L 66.166434 80.428994 
L 66.184277 80.76995 
L 66.208067 78.521322 
L 66.309176 76.376925 
L 66.321071 77.745788 
L 66.404337 80.293949 
L 66.451918 79.480195 
L 66.463813 79.356184 
L 66.553027 79.621655 
L 66.654136 80.083518 
L 66.666031 79.855147 
L 66.850406 77.050257 
L 66.701716 79.946164 
L 66.862301 77.084765 
L 67.016938 81.237997 
L 67.046676 79.203215 
L 67.15968 76.861072 
L 67.165627 77.744681 
L 67.284579 80.042317 
L 67.290526 80.030539 
L 67.367845 79.214582 
L 67.385688 78.771769 
L 67.468954 79.538124 
L 67.492744 79.670061 
L 67.504639 80.081164 
L 67.587905 79.441885 
L 67.593853 79.474367 
L 67.694962 77.239173 
L 67.754437 77.944807 
L 67.903127 80.394343 
L 67.915022 80.822877 
L 67.962603 78.636407 
L 68.039921 77.508928 
L 68.051816 79.056477 
L 68.081554 79.17666 
L 68.105344 78.583277 
L 68.146977 78.787079 
L 68.212401 78.032099 
L 68.176715 79.048515 
L 68.254034 78.75304 
L 68.396776 82.277351 
L 68.402723 80.633154 
L 68.521675 76.300429 
L 68.616836 81.41211 
L 68.634679 77.321141 
L 68.658469 76.802704 
L 68.741735 76.983483 
L 68.771473 81.251283 
L 68.854739 78.965936 
L 68.955848 78.072496 
L 68.967743 78.80775 
L 69.051009 80.031216 
L 69.068852 78.642741 
L 69.116433 77.583766 
L 69.181856 78.417029 
L 69.229436 80.964181 
L 69.27107 76.562662 
L 69.288912 75.95847 
L 69.354336 77.14338 
L 69.407864 84.724814 
L 69.473287 80.498778 
L 69.550606 76.183078 
L 69.592239 79.170419 
L 69.616029 80.554763 
L 69.669557 77.896055 
L 69.6874 78.265328 
L 69.693347 78.227335 
L 69.717138 78.428236 
L 69.752823 78.403021 
L 69.794456 81.062155 
L 69.853932 77.420638 
L 69.919355 75.302393 
L 69.972884 76.406296 
L 70.091835 82.219685 
L 70.121573 80.326875 
L 70.163206 76.766372 
L 70.25242 77.990118 
L 70.389214 80.660234 
L 70.418952 79.618693 
L 70.430847 79.623521 
L 70.442742 80.246936 
L 70.454637 76.760661 
L 70.484375 74.395413 
L 70.567641 74.492212 
L 70.609274 81.658 
L 70.69254 78.661909 
L 70.799597 79.28288 
L 70.752016 76.84396 
L 70.805544 79.231113 
L 70.829335 78.090664 
L 70.86502 79.958507 
L 70.882863 81.392573 
L 70.954234 77.627891 
L 71.025605 74.039091 
L 71.067238 76.635572 
L 71.168347 80.180963 
L 71.221875 77.870896 
L 71.334879 75.424314 
L 71.340826 75.941589 
L 71.45383 79.562617 
L 71.465725 78.595672 
L 71.543044 76.165153 
L 71.584677 76.819311 
L 71.697681 79.060684 
L 71.703628 78.859897 
L 71.828528 75.46517 
L 71.834475 75.896181 
L 71.905846 77.372469 
L 71.858265 75.840037 
L 71.947479 76.720249 
L 71.977217 77.575501 
L 72.024798 76.543694 
L 72.149697 74.686193 
L 72.078326 77.6414 
L 72.167539 75.528001 
L 72.274596 77.710433 
L 72.232963 75.245102 
L 72.298386 76.360364 
L 72.328124 75.300095 
L 72.357862 76.425661 
L 72.405443 76.250718 
L 72.417338 76.104148 
L 72.423285 76.755288 
L 72.429233 77.454619 
L 72.470866 73.362085 
L 72.506551 73.685051 
L 72.530342 73.317703 
L 72.554132 73.773534 
L 72.613608 76.85783 
L 72.566027 73.203183 
L 72.679031 75.880051 
L 72.684979 75.520292 
L 72.708769 78.891871 
L 72.762297 77.350952 
L 72.768245 77.477158 
L 72.792035 77.029609 
L 72.815825 71.795712 
L 72.905039 75.035841 
L 73.029938 71.627375 
L 72.946672 75.247238 
L 73.035886 72.058041 
L 73.113204 76.823045 
L 73.166732 75.16599 
L 73.267841 68.898704 
L 73.297579 70.42573 
L 73.351107 73.742147 
L 73.434373 73.252916 
L 73.452216 73.701278 
L 73.464111 72.867435 
L 73.583063 66.966122 
L 73.600905 68.00405 
L 73.713909 72.039811 
L 73.743647 63.663836 
L 73.826913 68.902499 
L 73.838809 66.268768 
L 73.868546 72.658648 
L 73.904232 75.521343 
L 73.928022 72.852862 
L 73.95776 58.109887 
L 74.046974 62.471844 
L 74.076712 73.16832 
L 74.15403 66.760817 
L 74.231349 71.045662 
L 74.272982 58.950907 
L 74.296772 65.416928 
L 74.415724 64.899876 
L 74.463304 61.164374 
L 74.49899 66.583482 
L 74.52278 69.702674 
L 74.564413 61.298378 
L 74.576308 62.802607 
L 74.724997 48.432671 
L 74.826106 66.986051 
L 74.873687 54.791971 
L 74.951005 49.981405 
L 74.968848 55.371182 
L 74.992638 66.273616 
L 75.028324 54.481267 
L 75.0878 58.545186 
L 75.093747 58.530177 
L 75.117538 51.44 
L 75.206751 57.088204 
L 75.218646 57.363165 
L 75.266227 66.814946 
L 75.337598 62.044622 
L 75.349493 60.901984 
L 75.373283 57.652955 
L 75.403021 68.498298 
L 75.420864 67.521539 
L 75.658767 83.731863 
L 75.664715 83.67968 
L 75.682557 84.476463 
L 75.843142 94.488935 
L 76.140521 105.056184 
L 76.158364 102.221163 
L 76.194049 105.302031 
L 76.253525 103.888308 
L 76.372476 106.510952 
L 76.313001 102.220985 
L 76.402214 106.266237 
L 76.414109 105.338398 
L 76.443847 101.421785 
L 76.515218 106.318313 
L 76.521166 105.939859 
L 76.63417 98.549319 
L 76.693645 101.073254 
L 76.759069 104.352027 
L 76.806649 101.58619 
L 76.818545 101.514415 
L 76.919653 100.583909 
L 76.85423 102.754918 
L 76.931549 100.702159 
L 76.949391 101.123533 
L 76.961286 99.431444 
L 77.056448 95.698284 
L 77.086186 96.929169 
L 77.181347 98.581496 
L 77.205137 97.357299 
L 77.335984 94.314242 
L 77.341931 94.315634 
L 77.508463 94.604743 
L 77.627415 94.902472 
L 77.657153 95.104126 
L 77.752314 103.605166 
L 77.776104 103.454805 
L 77.782052 103.453169 
L 77.841528 94.947752 
L 77.901004 95.022589 
L 79.685277 97.321943 
L 80.964006 98.680476 
L 81.088905 40.660572 
L 81.219751 93.809923 
L 81.249489 94.078951 
L 81.267332 84.174893 
L 81.380336 49.946291 
L 81.398179 61.217521 
L 81.410074 65.733222 
L 81.505235 61.695711 
L 81.594449 52.769141 
L 81.624187 55.081662 
L 81.671767 62.92904 
L 81.7134 49.920749 
L 81.802614 41.018883 
L 81.832352 47.134589 
L 82.094045 34.365338 
L 82.099993 35.822465 
L 82.123783 44.970199 
L 82.212997 39.25485 
L 82.224892 39.53015 
L 82.248682 37.162613 
L 82.284368 48.562989 
L 82.367634 44.076865 
L 82.444952 54.94046 
L 82.409267 42.218764 
L 82.492533 48.689039 
L 82.510376 44.9072 
L 82.587694 52.076326 
L 82.659065 61.977764 
L 82.724488 56.674035 
L 82.783964 54.862796 
L 82.81965 58.969005 
L 82.825597 58.779015 
L 82.84344 60.704973 
L 82.908863 67.193277 
L 82.992129 66.898393 
L 83.140819 73.001883 
L 83.01592 66.338883 
L 83.152714 71.823604 
L 83.218137 64.759465 
L 83.265718 70.438689 
L 83.271665 70.408127 
L 83.348984 78.680599 
L 83.444145 77.06286 
L 83.491726 76.738353 
L 83.509569 78.766671 
L 83.634468 82.426584 
L 83.557149 78.196939 
L 83.640415 82.165239 
L 83.658258 81.275551 
L 83.729629 83.748878 
L 83.783157 80.677725 
L 83.902109 81.833714 
L 83.925899 82.135116 
L 83.955637 81.011182 
L 83.979427 80.604095 
L 84.02106 82.351742 
L 84.104326 84.040783 
L 84.145959 83.809272 
L 84.187592 78.583222 
L 84.270858 79.469163 
L 84.4136 85.545232 
L 84.437391 86.023112 
L 84.502814 84.940603 
L 84.520657 85.255947 
L 84.580132 86.796814 
L 84.639608 86.008491 
L 84.681241 80.045891 
L 84.710979 74.966275 
L 84.78235 79.923889 
L 84.835878 87.493505 
L 84.907249 85.212935 
L 84.925092 84.787733 
L 85.049991 72.883838 
L 85.085676 79.04811 
L 85.115414 85.730009 
L 85.180838 76.128366 
L 85.246261 69.417632 
L 85.293842 74.574831 
L 85.323579 82.420109 
L 85.365213 71.899091 
L 85.466321 62.009378 
L 85.484164 68.091853 
L 85.507954 77.232941 
L 85.549587 62.68428 
L 85.59122 65.831821 
L 85.638801 58.097539 
L 85.674487 70.884482 
L 85.710172 60.955581 
L 85.823176 68.068459 
L 85.799386 60.193698 
L 85.835071 63.369598 
L 85.858861 58.702126 
L 85.924285 65.332667 
L 85.942127 63.385912 
L 85.965918 71.635601 
L 86.001603 60.090936 
L 86.013498 60.634755 
L 86.025394 60.856056 
L 86.043236 58.95532 
L 86.078922 57.220174 
L 86.096764 63.016106 
L 86.10866 71.10576 
L 86.209768 69.121157 
L 86.287087 64.1239 
L 86.334668 66.014087 
L 86.394143 75.577959 
L 86.447671 67.307585 
L 86.54878 81.803687 
L 86.596361 73.042552 
L 86.602308 72.305851 
L 86.679627 76.406962 
L 86.72126 85.619174 
L 86.792631 80.011255 
L 86.798579 80.108641 
L 86.840212 79.096645 
L 86.846159 78.951757 
L 86.852107 80.145891 
L 86.899687 88.350119 
L 86.959163 79.965591 
L 87.078115 86.971327 
L 87.101905 89.844263 
L 87.173276 83.674988 
L 87.220856 82.0923 
L 87.268437 84.828138 
L 87.357651 93.904571 
L 87.393336 87.623427 
L 87.48255 84.09335 
L 87.488497 86.420641 
L 87.619344 95.271598 
L 87.744243 85.977451 
L 87.785876 87.845043 
L 87.881038 94.332552 
L 87.928618 92.493453 
L 88.005937 88.77922 
L 88.04757 90.559352 
L 88.184364 93.209354 
L 88.190312 93.140862 
L 88.231945 93.422342 
L 88.309263 90.249345 
L 88.350896 88.386856 
L 88.422267 89.881403 
L 88.44011 93.782049 
L 88.535271 91.342474 
L 88.707751 88.14065 
L 88.618537 91.986361 
L 88.725593 88.482994 
L 88.796964 91.878963 
L 88.85644 89.228248 
L 88.921863 87.742811 
L 88.963497 89.290651 
L 89.130029 93.463463 
L 89.254928 83.662713 
L 89.260875 84.927032 
L 89.350089 84.737371 
L 89.39767 88.076612 
L 89.44525 90.326892 
L 89.474988 90.981312 
L 89.504726 89.557168 
L 89.605835 82.215796 
L 89.629625 83.894723 
L 89.730734 87.331537 
L 89.742629 84.985143 
L 89.855633 80.556151 
L 89.879423 81.708949 
L 89.885371 82.148236 
L 89.956742 79.990611 
L 90.087589 76.777879 
L 90.099484 77.728816 
L 90.105431 77.768125 
L 90.111379 77.52255 
L 90.164907 75.765982 
L 90.135169 78.162409 
L 90.200592 78.10469 
L 90.212488 80.137431 
L 90.271963 75.263274 
L 90.301701 75.802615 
L 90.40281 78.641061 
L 90.361177 74.337445 
L 90.438496 77.140314 
L 90.563395 73.546464 
L 90.503919 79.153999 
L 90.569342 73.66011 
L 90.593133 74.364287 
L 90.610975 72.537308 
L 90.628818 70.071982 
L 90.694241 76.064905 
L 90.700189 76.641088 
L 90.718032 68.883448 
L 90.753717 62.402782 
L 90.831036 64.642665 
L 90.878616 76.188578 
L 90.949987 67.723358 
L 90.955935 68.545261 
L 91.039201 65.137278 
L 91.045148 65.129091 
L 91.092729 69.597991 
L 91.134362 64.434363 
L 91.1641 65.841893 
L 91.175995 64.006524 
L 91.229523 74.473118 
L 91.241418 76.708341 
L 91.277104 65.080637 
L 91.306842 68.58749 
L 91.366318 55.123669 
L 91.443636 61.933569 
L 91.455531 65.600297 
L 91.509059 58.978287 
L 91.55664 64.271592 
L 91.58043 60.648841 
L 91.639906 68.024411 
L 91.669644 61.468506 
L 91.764805 55.504527 
L 91.782648 58.997357 
L 91.883757 66.246516 
L 91.895652 61.533329 
L 92.008656 56.495718 
L 92.091922 67.487761 
L 92.133555 62.173076 
L 92.216821 58.192672 
L 92.222769 60.639313 
L 92.347668 74.411744 
L 92.353615 71.516885 
L 92.472567 62.693543 
L 92.573676 75.414232 
L 92.597466 73.409271 
L 92.668837 68.974325 
L 92.728313 72.06609 
L 92.787788 78.851232 
L 92.888897 74.917736 
L 92.912688 74.495844 
L 92.924583 75.247758 
L 93.055429 82.571551 
L 93.138695 81.874272 
L 93.144643 81.887184 
L 93.150591 81.744428 
L 93.162486 81.406718 
L 93.216014 82.99548 
L 93.442022 86.416651 
L 93.876195 90.008662 
L 93.894038 89.960191 
L 93.899985 89.947134 
L 93.917828 90.129821 
L 94.024884 90.676961 
L 94.08436 90.626228 
L 94.090308 90.603895 
L 94.125993 90.901106 
L 94.215207 91.141207 
L 94.28063 91.040496 
L 94.357949 91.284832 
L 94.465005 91.387296 
L 94.482848 91.316666 
L 94.809965 91.588799 
L 94.934864 91.344298 
L 94.976497 91.414189 
L 95.131134 91.459874 
L 95.26198 91.665147 
L 95.374984 91.25586 
L 95.505831 90.904108 
L 95.642625 90.762326 
L 95.731839 90.540658 
L 95.963794 89.093063 
L 95.97569 89.121695 
L 95.993532 89.206907 
L 96.005428 89.274173 
L 96.053008 88.993636 
L 96.076798 89.149224 
L 96.463391 70.114041 
L 96.534762 73.467952 
L 96.546657 73.143402 
L 96.552605 73.929752 
L 96.58829 78.983502 
L 96.665609 75.39999 
L 96.677504 75.538538 
L 96.689399 73.924521 
L 96.754822 70.418027 
L 96.80835 71.633796 
L 96.95704 78.186191 
L 96.986778 78.33153 
L 97.052201 78.063514 
L 97.081939 77.406496 
L 97.111677 71.536118 
L 97.188995 68.987611 
L 97.218733 71.863991 
L 97.248471 76.719073 
L 97.337685 75.433652 
L 97.34958 75.172827 
L 97.391213 77.303562 
L 97.409056 77.871597 
L 97.444741 75.704359 
L 97.504217 73.728701 
L 97.533955 70.697165 
L 97.605326 74.119062 
L 97.617221 72.990859 
L 97.629116 72.146871 
L 97.664801 74.978109 
L 97.706434 74.849368 
L 97.813491 77.469589 
L 97.831334 76.37 
L 97.926495 70.820487 
L 97.956233 72.168495 
L 98.039499 78.191962 
L 98.098975 77.948056 
L 98.104922 78.000979 
L 98.13466 77.511408 
L 98.265507 76.4312 
L 98.283349 76.82255 
L 98.342825 75.807854 
L 98.449882 72.488403 
L 98.467724 73.535425 
L 98.574781 77.220468 
L 98.616414 76.578268 
L 98.628309 76.324704 
L 98.67589 77.55273 
L 98.69968 77.325408 
L 98.788893 77.920111 
L 98.848369 77.874769 
L 98.973268 74.20998 
L 98.991111 75.45815 
L 99.121958 78.874404 
L 99.181434 78.698247 
L 99.187381 78.701519 
L 99.193329 78.638981 
L 99.234962 77.154646 
L 99.318228 77.633251 
L 99.353913 78.092035 
L 99.395546 77.430193 
L 99.425284 77.541165 
L 99.520445 78.298236 
L 99.609659 78.219263 
L 99.734558 77.839182 
L 99.663187 78.280054 
L 99.770244 77.919649 
L 99.776191 77.926305 
L 99.788086 77.858253 
L 99.794034 77.892596 
L 99.918933 76.888944 
L 99.924881 76.992323 
L 100.037885 78.53234 
L 100.04978 78.37498 
L 100.115203 77.507183 
L 100.162784 77.829365 
L 100.192522 78.514119 
L 100.281735 78.21218 
L 100.406634 77.987097 
L 100.424477 78.068056 
L 100.561271 78.613714 
L 100.626695 78.461677 
L 100.650485 78.377683 
L 100.692118 78.678936 
L 100.763489 79.082124 
L 100.81107 78.796858 
L 100.959759 78.400056 
L 100.977602 78.455153 
L 101.025182 78.380939 
L 101.05492 78.582137 
L 101.060868 78.582302 
L 101.518831 78.480098 
L 101.524779 78.534718 
L 101.566412 79.036767 
L 101.649678 78.95713 
L 101.744839 77.917421 
L 101.804315 78.041718 
L 101.810263 78.033994 
L 101.869738 78.670757 
L 101.935162 78.650404 
L 102.23254 78.371214 
L 102.339597 77.950777 
L 102.268226 78.508319 
L 102.345544 78.014854 
L 102.422863 78.811662 
L 102.440706 78.206183 
L 102.529919 75.7606 
L 102.565605 76.605449 
L 102.642923 78.784292 
L 102.684556 77.593228 
L 102.767822 76.757538 
L 102.791613 77.499717 
L 102.916512 78.492017 
L 102.922459 78.359123 
L 102.934355 78.000856 
L 103.011673 78.421381 
L 103.029516 78.277692 
L 103.118729 78.482659 
L 103.154415 78.409027 
L 103.267419 75.840605 
L 103.207943 78.493001 
L 103.273366 75.843603 
L 103.332842 72.999046 
L 103.38637 75.181887 
L 103.398266 75.002303 
L 103.523165 77.352167 
L 103.624273 78.280951 
L 103.654011 77.886609 
L 103.790806 76.288038 
L 103.802701 76.77763 
L 103.844334 79.16181 
L 103.874072 74.672609 
L 103.969233 71.3949 
L 103.987076 74.354895 
L 104.028709 77.648044 
L 104.111975 75.322309 
L 104.14766 74.812361 
L 104.171451 76.915019 
L 104.183346 77.283686 
L 104.254717 76.081313 
L 104.260664 76.104516 
L 104.361773 71.007316 
L 104.403406 72.991889 
L 104.421249 73.11774 
L 104.510462 77.210531 
L 104.546148 77.094908 
L 104.575886 77.503168 
L 104.659152 77.213437 
L 104.766208 69.416524 
L 104.831632 74.24111 
L 104.861369 75.218074 
L 104.944636 76.972096 
L 104.968426 75.262226 
L 104.998164 72.507637 
L 105.075482 70.526443 
L 105.111168 71.671068 
L 105.265805 78.147766 
L 105.313385 78.560048 
L 105.366913 78.044063 
L 105.390704 76.043239 
L 105.49776 68.636347 
L 105.515603 70.062198 
L 105.64645 78.234184 
L 105.652397 78.158433 
L 105.735663 74.790419 
L 105.783244 71.865787 
L 105.854615 73.784157 
L 105.86651 74.216668 
L 105.985461 78.850593 
L 105.991409 77.735282 
L 106.03899 72.134307 
L 106.110361 74.133069 
L 106.169836 80.926071 
L 106.247155 79.771807 
L 106.28284 81.350091 
L 106.312578 78.671029 
L 106.360159 74.739999 
L 106.43153 76.255606 
L 106.580219 83.484767 
L 106.592114 83.644016 
L 106.609957 82.396064 
L 106.633747 79.807671 
L 106.722961 81.503372 
L 106.728909 81.410963 
L 106.740804 82.560587 
L 106.889493 86.417327 
L 106.931126 86.212881 
L 107.056025 82.105411 
L 107.061973 82.686719 
L 107.210662 87.600686 
L 107.424775 86.405764 
L 107.252295 87.755161 
L 107.43667 86.694894 
L 107.478303 86.589309 
L 107.591307 88.511536 
L 107.787577 89.327501 
L 107.811368 89.230224 
L 107.912476 88.656656 
L 107.942214 88.988414 
L 107.960057 89.370368 
L 107.995742 88.114646 
L 108.043323 88.819746 
L 108.055218 88.832261 
L 108.084956 88.716538 
L 108.120642 89.843295 
L 108.215803 89.807824 
L 108.293121 89.721205 
L 108.340702 89.780377 
L 108.608343 90.276765 
L 108.655924 90.185866 
L 108.822456 89.877881 
L 108.834351 89.923063 
L 108.858141 89.96991 
L 108.899774 89.781489 
L 109.018726 89.209513 
L 109.048464 89.318628 
L 109.137677 89.640632 
L 109.173363 89.419901 
L 109.316105 88.585737 
L 109.363685 88.728399 
L 109.458846 88.970589 
L 109.476689 88.761825 
L 109.536165 88.631302 
L 109.559955 88.8319 
L 109.583745 88.775326 
L 109.601588 88.949492 
L 109.607536 88.661825 
L 109.678907 87.798979 
L 109.726487 88.146165 
L 109.74433 88.794532 
L 109.803806 86.938005 
L 109.863282 85.634977 
L 109.922757 86.721289 
L 109.928705 86.771746 
L 109.952495 86.436382 
L 109.988181 86.437927 
L 110.053604 85.830589 
L 110.006023 86.497207 
L 110.11308 86.169929 
L 110.148765 86.833072 
L 110.178503 84.95401 
L 110.273664 81.699737 
L 110.214189 84.998623 
L 110.303402 83.27945 
L 110.410459 84.584543 
L 110.362878 82.352136 
L 110.422354 84.307327 
L 110.588886 80.874384 
L 110.594834 80.911188 
L 110.612676 80.968479 
L 110.624571 80.502417 
L 110.666204 78.535114 
L 110.749471 79.509801 
L 110.791104 81.136353 
L 110.856527 79.212573 
L 110.89816 77.12339 
L 110.981426 78.184246 
L 110.993321 78.576149 
L 111.029007 75.561927 
L 111.088482 74.602383 
L 111.052797 76.205811 
L 111.130115 75.744171 
L 111.159853 77.736694 
L 111.237172 76.454303 
L 111.362071 71.50517 
L 111.385861 72.25679 
L 111.498865 75.321415 
L 111.51076 74.526631 
L 111.623764 70.207522 
L 111.653502 71.281765 
L 111.837877 76.031979 
L 111.695135 69.771678 
L 111.85572 73.964431 
L 111.962776 68.220208 
L 112.016304 69.932493 
L 112.0282 70.265833 
L 112.141204 73.629271 
L 112.153099 72.310627 
L 112.266103 69.859964 
L 112.27205 70.442622 
L 112.408845 74.034192 
L 112.414792 73.715206 
L 112.456425 73.969557 
L 112.480215 72.310479 
L 112.515901 70.800694 
L 112.593219 72.04962 
L 112.622957 73.842457 
L 112.670538 71.466384 
L 112.694328 71.566411 
L 112.712171 71.612469 
L 112.730014 71.351773 
L 112.741909 71.135219 
L 112.777594 72.53844 
L 112.884651 75.201099 
L 112.914389 74.981812 
L 113.027392 74.81593 
L 113.039288 74.926549 
L 113.199872 76.493998 
L 113.247453 75.871325 
L 113.324771 73.877435 
L 113.384247 74.944975 
L 113.491303 77.309955 
L 113.40209 74.703528 
L 113.532937 76.482029 
L 113.544832 75.929339 
L 113.580517 76.905521 
L 113.64594 76.338321 
L 113.651888 76.33704 
L 113.657836 76.404539 
L 113.669731 76.976107 
L 113.693521 75.813354 
L 113.776787 76.807336 
L 113.79463 76.730796 
L 113.877896 78.133604 
L 113.937372 79.517651 
L 114.002795 79.007805 
L 114.056323 77.049756 
L 114.109851 79.158237 
L 114.234751 77.985495 
L 114.175275 79.459009 
L 114.252593 78.103455 
L 114.258541 77.981911 
L 114.288279 78.585723 
L 114.365597 77.990405 
L 114.431021 78.09473 
L 114.436968 77.520407 
L 114.460759 76.355267 
L 114.544025 77.74242 
L 114.567815 79.024304 
L 114.585658 79.803835 
L 114.680819 79.221938 
L 114.704609 79.184603 
L 114.728399 79.333201 
L 114.746242 80.131706 
L 114.75219 79.26402 
L 114.871141 75.608162 
L 114.877089 76.421542 
L 114.99604 78.340538 
L 115.043621 78.436783 
L 115.16852 78.953047 
L 115.19231 78.925501 
L 115.239891 75.490607 
L 115.311262 76.768979 
L 115.31721 76.766326 
L 115.36479 80.087026 
L 115.436161 78.317017 
L 115.442109 78.351142 
L 115.465899 78.051782 
L 115.567008 76.958587 
L 115.531322 78.266804 
L 115.590798 77.421946 
L 115.614588 75.876088 
L 115.638379 71.030076 
L 115.727592 73.966441 
L 115.769225 80.568477 
L 115.876282 76.681706 
L 116.001181 72.083275 
L 116.042814 74.617413 
L 116.132028 78.321408 
L 116.191503 75.908221 
L 116.292612 67.668931 
L 116.32235 70.563322 
L 116.447249 79.826338 
L 116.459144 79.46759 
L 116.465092 79.480318 
L 116.47104 79.456161 
L 116.578096 68.36226 
L 116.643519 74.492261 
L 116.732733 79.43922 
L 116.774366 77.17882 
L 116.875475 71.078136 
L 116.91116 74.135642 
L 116.929003 74.75018 
L 116.976584 79.566468 
L 117.05985 77.993175 
L 117.172854 74.249534 
L 117.131221 79.645347 
L 117.184749 75.026751 
L 117.297753 83.801197 
L 117.339386 82.534632 
L 117.345333 82.623093 
L 117.351281 82.001343 
L 117.470232 74.944537 
L 117.482128 76.806834 
L 117.601079 84.581685 
L 117.624869 83.96093 
L 117.714083 79.268187 
L 117.791402 80.086821 
L 117.946039 84.947294 
L 117.969829 84.660254 
L 118.035252 84.697949 
L 118.130413 82.331378 
L 118.45753 86.726493 
L 118.475373 86.536727 
L 118.612167 84.079068 
L 118.689486 84.602162 
L 118.814385 86.037759 
L 118.820332 86.037511 
L 118.832228 85.872575 
L 118.873861 86.826331 
L 118.957127 87.021593 
L 118.903598 85.942949 
L 118.969022 86.8129 
L 119.010655 85.692043 
L 119.099868 86.083891 
L 119.21882 86.662317 
L 119.24261 86.567899 
L 119.313981 86.139693 
L 119.355614 85.911993 
L 119.426985 86.049937 
L 119.474566 86.154281 
L 119.575675 85.677175 
L 119.676783 85.368101 
L 119.694626 85.442723 
L 119.706521 85.570542 
L 119.76005 85.024159 
L 119.777892 85.059072 
L 119.825473 84.864685 
L 119.867106 85.075982 
L 119.884949 85.183985 
L 119.938477 84.670264 
L 119.950372 84.799744 
L 119.986057 84.906211 
L 119.992005 84.692123 
L 120.015795 84.322054 
L 120.063376 84.829986 
L 120.105009 84.521331 
L 120.110957 84.514135 
L 120.140694 84.969001 
L 120.20017 83.950088 
L 120.229908 84.072954 
L 120.241803 84.139195 
L 120.271541 83.829187 
L 120.289384 83.95227 
L 120.414283 80.12689 
L 120.438073 80.752756 
L 120.521339 83.879838 
L 120.56892 83.460729 
L 120.723557 80.80342 
L 120.735452 81.16976 
L 120.7414 81.202971 
L 120.753295 80.64586 
L 120.806823 79.082537 
L 120.884142 79.497468 
L 120.901984 79.614856 
L 120.919827 78.620461 
L 120.925775 78.488961 
L 120.979303 79.505764 
L 121.050674 81.430277 
L 121.110149 80.075735 
L 121.270734 76.315203 
L 121.294524 76.505186 
L 121.336157 76.783952 
L 121.365895 76.144687 
L 121.383738 76.153981 
L 121.407528 75.869469 
L 121.419423 76.884188 
L 121.478899 78.184805 
L 121.532427 77.417188 
L 121.609746 73.488681 
L 121.693012 73.891613 
L 121.788173 75.496227 
L 121.823859 75.370865 
L 121.948758 72.22998 
L 122.037971 72.766559 
L 122.162871 74.79879 
L 122.055814 72.734299 
L 122.210451 74.029185 
L 122.28777 71.496297 
L 122.353193 73.400321 
L 122.359141 73.510498 
L 122.371036 72.404497 
L 122.48404 70.150879 
L 122.448354 73.188227 
L 122.489987 70.599595 
L 122.573253 70.569759 
L 122.608939 73.055704 
L 122.620834 72.90061 
L 122.715995 74.478958 
L 122.739786 75.027777 
L 122.775471 73.446011 
L 122.805209 73.625626 
L 122.864685 71.578628 
L 122.942003 73.07202 
L 123.102588 75.95459 
L 123.114483 75.865513 
L 123.126378 75.605963 
L 123.179906 76.655666 
L 123.185854 76.725014 
L 123.209644 76.567605 
L 123.251277 76.581803 
L 123.29291 74.667508 
L 123.376176 75.545205 
L 123.411862 77.035878 
L 123.530813 78.872816 
L 123.548656 78.578417 
L 123.733031 80.033308 
L 123.596237 78.524505 
L 123.774664 79.593383 
L 123.85793 78.353983 
L 123.88172 79.33582 
L 123.988777 81.062145 
L 124.024462 80.735134 
L 124.036357 80.665164 
L 124.0542 81.131198 
L 124.161256 82.453824 
L 124.208837 82.070178 
L 124.244522 81.328371 
L 124.333736 81.929626 
L 124.369422 82.559535 
L 124.476478 82.309329 
L 124.506216 81.998968 
L 124.541901 82.610114 
L 124.589482 82.2315 
L 124.607325 82.13093 
L 124.613272 81.968759 
L 124.631115 82.866885 
L 124.708433 82.371903 
L 124.86307 83.121762 
L 124.886861 83.086028 
L 124.964179 83.1651 
L 125.05934 83.652669 
L 125.071236 83.39626 
L 125.142607 82.55939 
L 125.196135 82.741426 
L 125.261558 83.33622 
L 125.23182 82.547598 
L 125.326981 83.154644 
L 125.344824 83.269686 
L 125.374562 82.616664 
L 125.410248 82.941448 
L 125.57678 81.891915 
L 125.451881 83.210275 
L 125.594622 82.145818 
L 125.701679 82.913493 
L 125.636255 81.960255 
L 125.743312 82.591874 
L 125.755207 82.621559 
L 125.790892 82.463597 
L 125.927687 79.76142 
L 126.010953 80.841408 
L 126.052586 81.896847 
L 126.088271 79.482698 
L 126.106114 79.015174 
L 126.123957 79.922509 
L 126.195328 79.446564 
L 126.242908 81.4099 
L 126.308332 80.760875 
L 126.427283 78.608613 
L 126.445126 78.748491 
L 126.457021 79.031835 
L 126.492707 78.47945 
L 126.53434 76.272611 
L 126.611658 77.253187 
L 126.671134 80.012703 
L 126.736557 78.748488 
L 126.855509 74.967933 
L 126.861456 75.652256 
L 126.867404 76.482409 
L 126.903089 74.689434 
L 126.962565 75.0943 
L 126.968513 75.083504 
L 126.97446 75.200682 
L 127.033936 78.316766 
L 127.111255 76.796659 
L 127.200468 74.325628 
L 127.242101 75.1653 
L 127.367 77.039166 
L 127.289682 75.089868 
L 127.378895 76.890738 
L 127.384843 76.513656 
L 127.468109 77.991351 
L 127.474057 78.005911 
L 127.480004 77.798549 
L 127.53948 75.555801 
L 127.616799 76.43295 
L 127.658432 77.410346 
L 127.73575 76.717314 
L 127.854702 78.592849 
L 127.920125 78.051001 
L 128.015286 75.704931 
L 128.045024 76.441755 
L 128.1045 78.636303 
L 128.169923 78.400761 
L 128.229399 77.549373 
L 128.259137 78.354777 
L 128.342403 79.244331 
L 128.395931 79.237672 
L 128.431617 78.492379 
L 128.485145 76.786303 
L 128.550568 77.199581 
L 128.633834 79.686127 
L 128.675467 78.402927 
L 128.687362 78.166219 
L 128.764681 78.548008 
L 128.776576 78.542299 
L 128.943108 79.956358 
L 129.032322 79.526946 
L 129.151273 77.775599 
L 129.169116 78.460974 
L 129.276172 80.089752 
L 129.311858 79.980876 
L 129.341596 80.148837 
L 129.347543 79.869285 
L 129.365386 79.480533 
L 129.448652 79.965799 
L 129.4546 79.924721 
L 129.460547 79.913165 
L 129.466495 79.920225 
L 129.490285 80.611914 
L 129.579499 80.321004 
L 129.597342 80.229084 
L 129.644922 80.427832 
L 129.680608 80.366442 
L 129.775769 80.33031 
L 129.781717 80.309321 
L 129.817402 79.525792 
L 129.89472 79.9906 
L 129.906616 80.057227 
L 129.942301 80.878514 
L 130.01962 80.41172 
L 130.102886 80.364485 
L 130.227785 80.762771 
L 130.667905 80.924283 
L 131.030708 80.938823 
L 131.143712 80.678122 
L 131.155607 80.691098 
L 131.185345 80.90098 
L 131.268611 80.824293 
L 131.357824 80.694551 
L 131.399457 80.764609 
L 131.482724 80.633478 
L 131.554094 80.471 
L 131.58978 80.630732 
L 131.708731 80.748405 
L 131.714679 80.723255 
L 131.839578 80.637782 
L 131.905001 80.555537 
L 132.023953 79.922714 
L 132.101272 79.981025 
L 132.226171 80.121523 
L 132.339175 80.06413 
L 132.434336 79.229494 
L 132.481916 79.718636 
L 132.505707 79.939909 
L 132.59492 79.806835 
L 132.666291 79.308525 
L 132.779295 79.545894 
L 132.803086 79.451425 
L 132.957723 78.50313 
L 132.981513 78.948074 
L 133.070727 79.245245 
L 133.100464 79.149543 
L 133.130202 79.225884 
L 133.255101 76.940305 
L 133.261049 77.391346 
L 133.385948 79.002718 
L 133.415686 78.849549 
L 133.481109 77.155548 
L 133.55248 78.03504 
L 133.588166 78.801429 
L 133.641694 77.206772 
L 133.683327 76.18559 
L 133.754698 77.086157 
L 133.808226 79.184357 
L 133.873649 78.804609 
L 134.052077 77.17268 
L 134.058024 77.271171 
L 134.14129 77.713182 
L 134.159133 77.076712 
L 134.254294 75.710174 
L 134.278085 76.560767 
L 134.391089 79.270925 
L 134.408931 78.902423 
L 134.426774 79.087038 
L 134.450564 78.226082 
L 134.551673 76.605556 
L 134.569516 76.975764 
L 134.599254 78.875081 
L 134.68252 77.364404 
L 134.694415 77.439345 
L 134.712258 76.727085 
L 134.741996 76.556863 
L 134.765786 77.399671 
L 134.795524 78.460893 
L 134.890685 78.309739 
L 135.063165 76.739583 
L 134.938266 78.53212 
L 135.086955 77.103013 
L 135.116693 78.172453 
L 135.158326 76.576804 
L 135.229697 74.237781 
L 135.277278 75.460871 
L 135.396229 78.798358 
L 135.408124 78.336914 
L 135.521128 76.502722 
L 135.533023 76.804175 
L 135.550866 77.986227 
L 135.622237 75.106844 
L 135.634132 74.894529 
L 135.681713 75.514535 
L 135.818507 78.968074 
L 135.925563 76.366331 
L 136.008829 77.301271 
L 136.05641 75.421612 
L 136.109938 74.239937 
L 136.139676 75.211945 
L 136.22889 78.234679 
L 136.270523 77.889568 
L 136.27647 77.939301 
L 136.306208 77.293922 
L 136.419212 74.350807 
L 136.454898 75.029359 
L 136.657115 79.453861 
L 136.484636 74.685409 
L 136.663063 79.448278 
L 136.704696 78.468134 
L 136.8177 74.794154 
L 136.883123 74.8217 
L 136.889071 74.811603 
L 136.906914 74.86297 
L 137.002075 80.619411 
L 137.03776 79.27209 
L 137.126974 77.790865 
L 137.150764 79.066511 
L 137.174555 79.426731 
L 137.192397 77.349576 
L 137.21024 77.002932 
L 137.251873 77.495956 
L 137.299454 77.34979 
L 137.436248 81.069131 
L 137.561147 81.602082 
L 137.668203 79.148841 
L 137.686046 79.297454 
L 137.709836 81.267004 
L 137.810945 81.255539 
L 137.894211 82.174547 
L 137.989373 82.947222 
L 137.959635 82.158573 
L 138.013163 82.823581 
L 138.060744 82.597078 
L 138.084534 82.937126 
L 138.114272 81.156838 
L 138.203485 81.572463 
L 138.209433 81.564349 
L 138.34028 83.423049 
L 138.381913 84.340194 
L 138.471126 83.878305 
L 138.548445 83.4511 
L 138.613868 83.07012 
L 138.631711 83.610297 
L 138.697134 84.465407 
L 138.661449 83.602428 
L 138.75661 84.279775 
L 138.762558 84.231854 
L 138.792295 84.551671 
L 138.833929 84.41662 
L 138.857719 84.746454 
L 138.92909 84.119837 
L 138.97667 83.744225 
L 139.036146 84.189141 
L 139.238364 85.058011 
L 139.250259 84.981139 
L 139.274049 84.679573 
L 139.36921 84.797105 
L 139.464372 84.779316 
L 139.470319 84.76154 
L 139.601166 84.609017 
L 139.607114 84.617655 
L 139.726065 84.660018 
L 139.73796 84.616538 
L 139.91044 84.272282 
L 139.958021 84.379145 
L 139.969916 84.398892 
L 139.993706 84.14442 
L 140.094815 83.858459 
L 140.118605 83.969511 
L 140.1305 84.057644 
L 140.195924 83.78458 
L 140.207819 83.802579 
L 140.219714 83.817913 
L 140.314875 83.36201 
L 140.505198 82.601873 
L 140.52304 82.841191 
L 140.528988 82.861372 
L 140.564673 82.596651 
L 140.570621 82.540054 
L 140.618202 83.070112 
L 140.689572 83.353002 
L 140.707415 83.073312 
L 140.844209 82.33947 
L 140.998846 80.235258 
L 141.04048 80.693595 
L 141.082113 81.311764 
L 141.135641 80.588144 
L 141.207012 79.900006 
L 141.254592 80.350995 
L 141.272435 80.573904 
L 141.320016 80.30639 
L 141.355701 80.320836 
L 141.581709 78.106596 
L 141.605499 78.241608 
L 141.647132 78.32072 
L 141.670923 77.583242 
L 141.742294 76.484063 
L 141.789874 77.314221 
L 141.908826 79.093596 
L 141.932616 78.982797 
L 141.974249 78.531821 
L 142.093201 75.427646 
L 142.105096 76.161552 
L 142.128886 77.24763 
L 142.206205 75.747172 
L 142.259733 74.846269 
L 142.319209 75.438474 
L 142.420317 77.336159 
L 142.456003 76.214824 
L 142.545216 74.989093 
L 142.569007 76.114065 
L 142.598745 76.639084 
L 142.63443 75.258337 
L 142.652273 75.295555 
L 142.664168 75.13536 
L 142.723644 74.586428 
L 142.735539 75.379193 
L 142.85449 75.788175 
L 142.884228 76.274637 
L 142.925861 75.417728 
L 142.949652 75.447699 
L 142.961547 75.609624 
L 143.009127 74.712416 
L 143.032918 75.282148 
L 143.092394 75.037531 
L 143.151869 75.766155 
L 143.163764 75.752902 
L 143.193502 76.064674 
L 143.22324 76.688941 
L 143.330297 76.573343 
L 143.348139 76.727092 
L 143.431405 77.577102 
L 143.39572 76.666413 
L 143.467091 76.927076 
L 143.556305 76.630404 
L 143.526567 77.35705 
L 143.574147 76.987778 
L 143.597938 77.196145 
L 143.627675 76.091257 
L 143.651466 75.77197 
L 143.728784 76.360254 
L 143.782312 77.856478 
L 143.871526 77.669438 
L 143.901264 77.569215 
L 143.936949 77.735059 
L 143.96074 77.734759 
L 144.287856 79.79892 
L 144.323542 80.177479 
L 144.394913 79.757998 
L 144.430598 78.628369 
L 144.519812 78.907974 
L 144.591183 79.200948 
L 144.650659 78.961048 
L 144.710134 78.878077 
L 144.733925 78.995095 
L 144.823138 79.496448 
L 144.882614 79.436951 
L 144.912352 79.368053 
L 144.953985 79.489164 
L 145.132412 79.870628 
L 145.257312 79.791538 
L 145.364368 79.873081 
L 145.411949 79.972229 
L 145.429791 79.775228 
L 145.519005 78.715718 
L 145.572533 79.229891 
L 145.584428 79.700223 
L 145.685537 79.353984 
L 145.745013 79.17815 
L 145.852069 79.124129 
L 145.863964 79.153458 
L 146.024549 79.742851 
L 146.084025 79.642851 
L 146.131605 79.194319 
L 146.232714 77.604247 
L 146.155396 79.419881 
L 146.286242 78.04052 
L 146.321928 79.323645 
L 146.387351 77.617785 
L 146.440879 76.748279 
L 146.500355 77.158256 
L 146.541988 78.790896 
L 146.613359 77.873676 
L 146.631202 77.770188 
L 146.643097 78.230446 
L 146.690678 78.006324 
L 146.773944 79.38688 
L 146.821524 78.229105 
L 147.017794 75.336334 
L 147.041585 75.251623 
L 147.059427 76.162945 
L 147.166484 79.017702 
L 147.190274 78.916824 
L 147.267593 79.304328 
L 147.208117 78.913493 
L 147.279488 79.254183 
L 147.410334 76.056692 
L 147.42223 76.256871 
L 147.66608 79.586654 
L 147.719608 78.568134 
L 147.832612 77.486735 
L 147.83856 77.815245 
L 147.921826 79.081161 
L 147.945616 77.656609 
L 147.975354 77.6858 
L 148.046725 77.375569 
L 148.124044 79.056786 
L 148.171624 78.907937 
L 148.189467 78.915335 
L 148.225152 78.997973 
L 148.320314 79.290116 
L 148.373842 79.247051 
L 148.433318 77.819701 
L 148.498741 77.944719 
L 148.558217 79.531855 
L 148.611745 78.529286 
L 148.635535 78.239899 
L 148.712854 78.530051 
L 148.861543 80.779199 
L 148.926966 80.603918 
L 148.938862 80.626555 
L 148.956704 80.518099 
L 148.986442 78.859577 
L 149.075656 79.164 
L 149.081603 79.177728 
L 149.141079 80.917971 
L 149.200555 80.268655 
L 149.349244 81.174083 
L 149.224345 80.064152 
L 149.367087 80.974535 
L 149.378982 80.840693 
L 149.450353 81.30207 
L 149.462248 81.384463 
L 149.480091 81.08352 
L 149.551462 81.277317 
L 149.610938 81.509227 
L 149.688256 81.057904 
L 149.926159 81.692573 
L 149.944002 81.481575 
L 149.991583 81.320704 
L 150.045111 81.502814 
L 150.051058 81.481902 
L 150.134325 81.981518 
L 150.1938 81.869486 
L 150.199748 81.855056 
L 150.271119 81.972358 
L 150.491179 82.030973 
L 150.520917 81.674108 
L 150.610131 81.760482 
L 150.616078 81.761269 
L 150.645816 82.149336 
L 150.717187 81.615543 
L 150.729082 81.600754 
L 150.73503 81.71556 
L 150.842086 82.256718 
L 150.859929 82.133329 
L 150.895614 81.742196 
L 150.972933 82.040359 
L 151.056199 82.258649 
L 151.020514 82.004458 
L 151.091884 82.112502 
L 151.139465 81.94641 
L 151.15136 81.967793 
L 151.187046 81.609557 
L 151.294102 81.677096 
L 151.305997 81.701554 
L 151.371421 81.602022 
L 151.395211 81.570649 
L 151.448739 81.700883 
L 151.454687 81.706999 
L 151.472529 81.593118 
L 151.579586 81.318086 
L 151.603376 81.396263 
L 151.645009 81.428031 
L 151.674747 81.326857 
L 151.882912 80.133444 
L 152.097025 80.899295 
L 152.102972 80.842644 
L 152.257609 80.309603 
L 152.263557 80.338562 
L 152.293295 80.582692 
L 152.32898 80.216296 
L 152.340876 80.238987 
L 152.465775 79.20202 
L 152.513355 80.05606 
L 152.584726 79.657225 
L 152.679887 78.328885 
L 152.715573 78.789559 
L 152.739363 79.166361 
L 152.834524 79.065923 
L 152.923738 79.222626 
L 152.953476 79.070402 
L 153.209222 76.989951 
L 153.256802 76.351729 
L 153.304383 76.975305 
L 153.45902 78.81642 
L 153.643395 78.586736 
L 153.756399 76.603716 
L 153.780189 77.141669 
L 153.803979 78.121641 
L 153.887246 77.193174 
L 153.928879 76.7365 
L 153.976459 77.345209 
L 153.994302 77.175993 
L 154.232205 78.719618 
L 154.255995 77.951117 
L 154.363052 77.101408 
L 154.374947 77.549046 
L 154.452265 78.282298 
L 154.487951 77.775269 
L 154.559322 77.64691 
L 154.577164 77.392066 
L 154.648535 77.883757 
L 154.713959 78.499367 
L 154.791277 78.150802 
L 154.838858 78.097306 
L 154.850753 78.220033 
L 154.969705 79.010146 
L 155.017285 78.640607 
L 155.094604 78.452079 
L 155.124342 78.657774 
L 155.231398 78.562152 
L 155.249241 78.531004 
L 155.296821 78.64088 
L 155.481196 79.308471 
L 155.487144 79.29327 
L 155.516882 79.507607 
L 155.534724 79.594642 
L 155.623938 79.514342 
L 155.659623 79.403902 
L 155.74289 79.495175 
L 155.820208 79.76466 
L 155.885631 79.593054 
L 155.909422 79.526935 
L 155.968897 79.725874 
L 156.034321 79.797704 
L 156.064059 79.701661 
L 156.212748 79.433565 
L 156.224643 79.449381 
L 156.35549 79.403178 
L 156.450651 79.472871 
L 156.474441 79.43666 
L 156.498232 79.376429 
L 156.587445 79.434683 
L 156.706397 79.413795 
L 156.813453 79.391156 
L 156.777768 79.45717 
L 156.825349 79.402038 
L 156.932405 79.449335 
L 156.950248 79.441683 
L 157.092989 79.364526 
L 157.104885 79.394229 
L 157.146518 79.354395 
L 157.223836 79.427783 
L 157.247626 79.384759 
L 157.324945 79.466853 
L 157.330893 79.45604 
L 157.53311 79.350342 
L 157.545005 79.365964 
L 157.568796 79.340554 
L 157.628271 79.417764 
L 157.735328 79.450299 
L 157.669904 79.394422 
L 157.741275 79.442219 
L 157.872122 79.407943 
L 157.997021 79.474367 
L 158.002969 79.461781 
L 158.12192 79.400291 
L 158.139763 79.440331 
L 158.246819 79.459706 
L 158.169501 79.413433 
L 158.258715 79.44148 
L 158.365771 79.3986 
L 158.377666 79.425035 
L 158.508513 79.432845 
L 158.51446 79.423222 
L 158.68694 79.415478 
L 158.692888 79.428386 
L 158.752363 79.410597 
L 158.811839 79.458677 
L 158.948633 79.42179 
L 159.002162 79.458323 
L 158.984319 79.40009 
L 159.049742 79.388899 
L 159.133008 79.432785 
L 159.07948 79.451205 
L 159.138956 79.444114 
L 159.204379 79.413882 
L 159.257907 79.450618 
L 160.096516 79.402086 
L 160.179782 79.413852 
L 160.126254 79.452975 
L 160.185729 79.434877 
L 160.268996 79.495226 
L 160.215467 79.421267 
L 160.298733 79.441331 
L 160.340366 79.466781 
L 160.387947 79.377369 
L 160.40579 79.428397 
L 160.417685 79.438925 
L 160.423633 79.345621 
L 160.524741 79.172279 
L 160.542584 79.218899 
L 160.64964 79.483857 
L 160.661536 79.457896 
L 160.786435 79.466769 
L 160.679378 79.406712 
L 160.79833 79.43864 
L 160.839963 79.448875 
L 160.82212 79.510254 
L 160.857806 79.502489 
L 160.958914 79.648778 
L 160.917281 79.440762 
L 160.976757 79.616092 
L 160.982705 79.621291 
L 161.000547 79.490479 
L 161.083814 79.273721 
L 161.054076 79.629626 
L 161.119499 79.420922 
L 161.208713 79.632558 
L 161.178975 79.329666 
L 161.232503 79.468519 
L 161.303874 79.605095 
L 161.262241 79.42003 
L 161.369297 79.455487 
L 161.488249 79.354573 
L 161.494196 79.358823 
L 161.613148 79.520399 
L 161.630991 79.50004 
L 161.732099 79.415396 
L 161.75589 79.43892 
L 161.839156 79.438297 
L 161.845103 79.477361 
L 161.892684 79.588285 
L 161.964055 79.56551 
L 162.12464 79.33054 
L 162.285224 79.686447 
L 162.14843 79.319788 
L 162.303067 79.65786 
L 162.416071 79.412854 
L 162.433914 79.430414 
L 162.54097 79.50553 
L 162.558813 79.442317 
L 162.636131 79.487017 
L 162.677764 79.391029 
L 162.772925 79.347177 
L 162.802663 79.446411 
L 162.820506 79.385071 
L 162.885929 79.49448 
L 162.897824 79.538228 
L 162.975143 79.410234 
L 163.159518 79.437783 
L 163.248732 79.466685 
L 163.266574 79.434386 
L 163.385526 79.427424 
L 163.52232 79.414521 
L 163.528268 79.429839 
L 163.558006 79.398908 
L 163.647219 79.45656 
L 163.855384 79.397589 
L 163.861332 79.404836 
L 163.968388 79.465668 
L 163.980283 79.438594 
L 164.093287 79.409467 
L 164.11113 79.445566 
L 164.224134 79.447375 
L 164.140868 79.414562 
L 164.236029 79.423293 
L 164.402561 79.394279 
L 164.408509 79.40991 
L 164.515565 79.464619 
L 164.527461 79.442251 
L 164.640465 79.39925 
L 164.604779 79.464266 
L 164.646412 79.41028 
L 164.67615 79.393916 
L 164.765364 79.452433 
L 164.931896 79.365718 
L 164.949739 79.403315 
L 164.979476 79.320591 
L 165.027057 79.312006 
L 165.259013 79.452814 
L 165.270908 79.416766 
L 165.354174 79.443389 
L 165.389859 79.365302 
L 165.425545 79.459391 
L 165.48502 79.346645 
L 165.538549 78.873145 
L 165.615867 79.017033 
L 165.752661 79.401587 
L 165.972722 79.296158 
L 165.782399 79.432473 
L 165.978669 79.310175 
L 166.121411 79.434005 
L 166.204677 79.466101 
L 166.234415 79.420282 
L 166.484213 79.412594 
L 166.490161 79.430195 
L 166.603165 79.43191 
L 166.537742 79.384747 
L 166.61506 79.415629 
L 166.942177 79.394227 
L 166.948124 79.377736 
L 166.98381 79.426528 
L 167.043286 79.429913 
L 167.251451 79.440092 
L 167.322822 79.457387 
L 167.364455 79.431251 
L 167.501249 79.410443 
L 167.507197 79.414567 
L 167.798628 79.431601 
L 167.923527 79.430061 
L 167.983003 79.432391 
L 168.030583 79.39478 
L 168.268486 79.430584 
L 168.488547 79.406035 
L 168.637236 79.41403 
L 172.687536 79.401589 
L 173.056286 79.398487 
L 173.520197 79.409336 
L 173.972213 79.404585 
L 174.251749 79.401352 
L 174.477757 79.413925 
L 175.89328 79.400052 
L 176.018179 79.175089 
L 176.125235 79.42139 
L 176.149026 79.399487 
L 176.351243 79.283873 
L 176.369086 79.300598 
L 176.541566 79.579174 
L 176.583199 79.416847 
L 176.672413 79.299413 
L 176.70215 79.381367 
L 176.844892 79.466173 
L 176.862735 79.41765 
L 176.946001 79.371992 
L 176.987634 79.388465 
L 177.493178 79.369685 
L 177.594287 79.358812 
L 177.540759 79.387924 
L 177.606182 79.369361 
L 177.695396 79.388533 
L 177.719186 79.348236 
L 177.826242 79.332442 
L 177.85598 79.378806 
L 177.957089 79.498664 
L 178.00467 79.474942 
L 178.111726 79.456046 
L 178.087936 79.500136 
L 178.117674 79.461223 
L 178.141464 79.485092 
L 178.189045 79.382786 
L 178.206887 79.357224 
L 178.24852 79.444025 
L 178.296101 79.403755 
L 178.83733 79.393781 
L 178.855173 79.37226 
L 178.920597 79.475629 
L 178.944387 79.40527 
L 180.996301 79.421309 
L 181.103357 79.406445 
L 181.043882 79.450887 
L 181.109305 79.409311 
L 181.263942 79.453873 
L 181.269889 79.391529 
L 181.365051 79.200783 
L 181.388841 79.222831 
L 181.53753 79.599223 
L 181.543478 79.576857 
L 181.68622 79.2484 
L 181.727853 79.437116 
L 181.834909 79.478136 
L 181.757591 79.406547 
L 181.846804 79.456644 
L 181.965756 79.453059 
L 181.971704 79.47207 
L 181.989546 79.504142 
L 182.05497 79.409011 
L 182.060917 79.390332 
L 182.12634 79.524786 
L 182.185816 79.529255 
L 182.162026 79.459909 
L 182.233397 79.513809 
L 182.304768 79.328419 
L 182.358296 79.383649 
L 182.429667 79.608553 
L 182.483195 79.492349 
L 182.536723 79.484639 
L 182.548618 79.404856 
L 182.554566 79.378657 
L 182.637832 79.506362 
L 182.715151 79.421302 
L 182.762731 79.476636 
L 182.845997 79.565736 
L 182.881683 79.525739 
L 182.953054 79.429114 
L 183.006582 79.449871 
L 183.488336 79.488615 
L 183.60134 79.529113 
L 183.553759 79.460361 
L 183.607287 79.513218 
L 183.732186 79.405438 
L 183.8214 79.500588 
L 183.868981 79.463418 
L 183.934404 79.429561 
L 183.880876 79.471959 
L 183.970089 79.48179 
L 184.053355 79.511192 
L 184.005775 79.41363 
L 184.071198 79.454653 
L 184.160412 79.414714 
L 184.130674 79.512376 
L 184.19015 79.462173 
L 184.207992 79.510887 
L 184.23773 79.412925 
L 184.309101 79.457611 
L 184.338839 79.416467 
L 184.362629 79.502088 
L 184.41021 79.503868 
L 184.790855 79.464336 
L 184.891964 79.48577 
L 184.82654 79.389461 
L 184.897911 79.475616 
L 184.921702 79.397817 
L 184.987125 79.524019 
L 185.004968 79.502786 
L 185.082286 79.509019 
L 185.02281 79.479438 
L 185.106077 79.478395 
L 185.236923 79.320141 
L 185.242871 79.337343 
L 185.361822 79.456349 
L 185.272609 79.318731 
L 185.36777 79.443865 
L 185.451036 79.387019 
L 185.403455 79.462874 
L 185.486721 79.40799 
L 185.54025 79.390771 
L 185.605673 79.469583 
L 185.742467 79.383402 
L 185.867366 79.469851 
L 185.885209 79.435037 
L 185.914947 79.458406 
L 186.004161 79.394738 
L 186.12906 79.463171 
L 186.135007 79.458053 
L 186.265854 79.425736 
L 186.396701 79.441866 
L 186.402648 79.433454 
L 186.444281 79.458378 
L 186.533495 79.410029 
L 186.658394 79.436406 
L 186.848717 79.40943 
L 186.854664 79.390724 
L 186.926035 79.382083 
L 186.902245 79.425197 
L 186.967668 79.413275 
L 187.389946 79.478857 
L 187.461317 79.453097 
L 187.425631 79.426446 
L 187.473212 79.412685 
L 187.586216 78.916234 
L 187.627849 79.118172 
L 187.758696 79.417307 
L 187.776539 79.401008 
L 188.180974 79.442272 
L 188.28803 79.46179 
L 188.299925 79.450115 
L 188.722203 79.400137 
L 189.887928 79.417935 
L 190.00688 79.393726 
L 190.024723 79.415744 
L 190.601638 79.415189 
L 190.774117 79.408499 
L 190.922807 79.402718 
L 191.119077 79.385187 
L 191.303452 79.40658 
L 191.511617 79.403755 
L 191.690044 79.408672 
L 191.886314 79.403663 
L 192.100427 79.4091 
L 192.921193 79.379242 
L 192.992563 79.391658 
L 193.07583 78.957403 
L 193.105567 79.281425 
L 193.12341 79.431311 
L 193.200729 79.861143 
L 193.224519 79.445364 
" clip-path="url(#p3a6665bd95)" style="fill: none; stroke-dasharray: 6.144,1.536,0.96,1.536; stroke-dashoffset: 0; stroke: #d95f02; stroke-opacity: 0.72; stroke-width: 0.96"/>
    <defs>
     <path id="me9efe8822a" d="M 0 -1 
L -1 1 
L 1 1 
z
" style="stroke: #d95f02; stroke-opacity: 0.72; stroke-width: 0.45; stroke-linejoin: miter"/>
    </defs>
    <g clip-path="url(#p3a6665bd95)">
     <use xlink:href="#me9efe8822a" x="44.535097" y="90.133496" style="fill: #ffffff; fill-opacity: 0.72; stroke: #d95f02; stroke-opacity: 0.72; stroke-width: 0.45; stroke-linejoin: miter"/>
     <use xlink:href="#me9efe8822a" x="58.047992" y="79.551718" style="fill: #ffffff; fill-opacity: 0.72; stroke: #d95f02; stroke-opacity: 0.72; stroke-width: 0.45; stroke-linejoin: miter"/>
     <use xlink:href="#me9efe8822a" x="71.560887" y="77.342967" style="fill: #ffffff; fill-opacity: 0.72; stroke: #d95f02; stroke-opacity: 0.72; stroke-width: 0.45; stroke-linejoin: miter"/>
     <use xlink:href="#me9efe8822a" x="85.073781" y="77.348464" style="fill: #ffffff; fill-opacity: 0.72; stroke: #d95f02; stroke-opacity: 0.72; stroke-width: 0.45; stroke-linejoin: miter"/>
     <use xlink:href="#me9efe8822a" x="98.586676" y="76.667333" style="fill: #ffffff; fill-opacity: 0.72; stroke: #d95f02; stroke-opacity: 0.72; stroke-width: 0.45; stroke-linejoin: miter"/>
     <use xlink:href="#me9efe8822a" x="112.099571" y="71.177724" style="fill: #ffffff; fill-opacity: 0.72; stroke: #d95f02; stroke-opacity: 0.72; stroke-width: 0.45; stroke-linejoin: miter"/>
     <use xlink:href="#me9efe8822a" x="125.612465" y="82.097553" style="fill: #ffffff; fill-opacity: 0.72; stroke: #d95f02; stroke-opacity: 0.72; stroke-width: 0.45; stroke-linejoin: miter"/>
     <use xlink:href="#me9efe8822a" x="139.12536" y="84.788341" style="fill: #ffffff; fill-opacity: 0.72; stroke: #d95f02; stroke-opacity: 0.72; stroke-width: 0.45; stroke-linejoin: miter"/>
     <use xlink:href="#me9efe8822a" x="152.638254" y="78.59597" style="fill: #ffffff; fill-opacity: 0.72; stroke: #d95f02; stroke-opacity: 0.72; stroke-width: 0.45; stroke-linejoin: miter"/>
     <use xlink:href="#me9efe8822a" x="166.151149" y="79.441159" style="fill: #ffffff; fill-opacity: 0.72; stroke: #d95f02; stroke-opacity: 0.72; stroke-width: 0.45; stroke-linejoin: miter"/>
     <use xlink:href="#me9efe8822a" x="179.664044" y="79.450346" style="fill: #ffffff; fill-opacity: 0.72; stroke: #d95f02; stroke-opacity: 0.72; stroke-width: 0.45; stroke-linejoin: miter"/>
     <use xlink:href="#me9efe8822a" x="193.176938" y="79.744167" style="fill: #ffffff; fill-opacity: 0.72; stroke: #d95f02; stroke-opacity: 0.72; stroke-width: 0.45; stroke-linejoin: miter"/>
    </g>
   </g>
  </g>
 </g>
 <defs>
  <clipPath id="p3a6665bd95">
   <rect x="43.048203" y="20.838125" width="151.66321" height="109.141629"/>
  </clipPath>
 </defs>
</svg>
