<?xml version="1.0"?>
<VTKFile type="PolyData" version="0.1" byte_order="LittleEndian">
  <PolyData>
    <Piece NumberOfPoints="112" NumberOfVerts="0" NumberOfLines="56" NumberOfStrips="0" NumberOfPolys="0">
      <FieldData>
        <DataArray type="Int32" Name="step" NumberOfTuples="1" format="ascii">5000</DataArray>
        <DataArray type="Float64" Name="time" NumberOfTuples="1" format="ascii">2.5</DataArray>
        <DataArray type="Int32" Name="candidate_pairs" NumberOfTuples="1" format="ascii">64</DataArray>
        <DataArray type="Int32" Name="contacts" NumberOfTuples="1" format="ascii">56</DataArray>
      </FieldData>
      <CellData Scalars="part_id">
        <DataArray type="Int32" Name="part_id" format="ascii">7 7 7 7 7 7 7 7 7 7 7 7 7 7 7 7 7 7 7 7 7 7 7 7 7 7 7 7 7 7 7 7 7 7 7 7 7 7 7 7 7 7 7 7 7 7 7 7 7 7 7 7 7 7 7 7</DataArray>
        <DataArray type="Int32" Name="candidate_pair" format="ascii">0 1 2 3 4 6 7 8 9 10 11 12 14 15 16 17 18 19 20 21 22 23 24 25 26 27 28 29 34 35 36 37 38 39 40 41 42 43 44 45 46 47 48 49 51 52 53 54 55 56 57 59 60 61 62 63</DataArray>
      </CellData>
      <Points>
        <DataArray type="Float64" NumberOfComponents="3" format="ascii">1.1164918371216732 0.31838181110212826 0 1.1166040306743981 0.31839335038832273 1.8804403423773932e-05 1.1164918371216732 0.31838181110212826 0 1.1165423926645084 0.31861555727820329 0.00025020118414843595 1.1052114516414833 0.31516506608017458 -0.055033947640722031 1.1070527076989565 0.31529514214711923 -0.055418955450359408 1.1164918371216732 0.31838181110212826 0 1.1166036381224442 0.31839331001372695 -1.9917839472373657e-05 1.1164918371216732 0.31838181110212826 0 1.1165510517680171 0.31887844221780109 3.5015597639180551e-05 1.1164918371216732 0.31838181110212826 0 1.1165510517680171 0.31887844221780109 -3.5015597639176201e-05 1.1164918371216732 0.31838181110212826 0 1.1165571103263785 0.31888018865828766 -4.1138618641362098e-21 1.1166926721332844 0.31756215559504047 0 1.1166926721332844 0.31756215559504047 -4.1138618641362098e-21 1.1164918371216732 0.31838181110212826 0 1.1165423926645084 0.31861555727820329 0.00025020118414843595 1.1191085479976248 0.28577516253609381 -0.024500044077790557 1.1157254518788187 0.28520861634136446 -0.024107367712435879 1.1166926721332844 0.31756215559504036 0 1.1166926721332844 0.31756215559504036 -4.1138618641362098e-21 1.1164918371216732 0.31838181110212826 0 1.1165510517680171 0.31887844221780109 3.5015597639173612e-05 1.1164918371216732 0.31838181110212826 0 1.1165510517680171 0.31887844221780109 -3.5015597639180151e-05 1.1164918371216732 0.31838181110212826 0 1.1165571103263785 0.31888018865828766 -4.1138618641362098e-21 1.1166926721332844 0.3175621555950402 0 1.1166926721332844 0.3175621555950402 -4.1138618641362098e-21 1.1163994886380519 0.31835547676049641 0.00045054325681016555 1.1165289814537127 0.31837441658256621 0.00047819261727150703 1.1295256548771624 0.26378972497273967 0.0015620021992938352 1.1224027572511874 0.26204444635867929 -4.1138618641362098e-21 1.1166926721332846 0.31756215559503959 0 1.1166926721332844 0.31756215559503959 -4.1138618641362098e-21 1.1164918371216732 0.31838181110212826 0 1.1165510517680171 0.31887844221780109 3.5015597639180551e-05 1.1050521043975894 0.31511962619210893 0.05581135971520728 1.1068277335034722 0.31607559776735772 0.056231189630750508 1.1164918371216732 0.31838181110212826 0 1.1165510517680171 0.31887844221780109 -3.5015597639180151e-05 1.1164918371216732 0.31838181110212826 0 1.1165571103263785 0.31888018865828766 -4.1138618641362098e-21 1.117503776818765 0.28037173502461904 0.037855407666885388 1.1143803672893544 0.27974119232425976 0.037004769525191265 1.1084097677674338 0.3018511399365752 0.055325389117025253 1.1085868792914437 0.30186893562510353 0.055395704761398386 1.12927778061841 0.25256237244096641 0.015237041354222906 1.1224027572511874 0.26204444635867929 -4.1138618641362098e-21 1.12927778061841 0.25256237244096641 0.015237041354222906 1.1224027572511874 0.26204444635867929 -4.1138618641362098e-21 1.1048145916328211 0.31034269118633401 0.062231876676819058 1.1068277335034722 0.31607559776735772 0.056231189630750508 1.1048145916328211 0.31034269118633401 0.062231876676819065 1.1068277335034722 0.31607559776735772 0.056231189630750508 1.1022458621482938 0.31959605603199143 -0.061820060450609338 1.1068277335034722 0.31607559776735772 -0.056231189630750508 1.1022458621482938 0.31959605603199143 -0.061820060450609338 1.1068277335034722 0.31607559776735772 -0.056231189630750508 1.092558174312573 0.38156374740527843 -0.014844129338572692 1.0912527097557572 0.37010674917603614 -4.1138618641362098e-21 1.092558174312573 0.38156374740527843 -0.014844129338572692 1.0912527097557572 0.37010674917603614 -4.1138618641362098e-21 1.1009114091288805 0.32813193933680207 -0.055349251917632063 1.1011290135813747 0.3282401912125229 -0.055447175145739047 1.097230803611374 0.3516750830304583 -0.037501869325116573 1.094125660595219 0.35051021497368762 -0.036605611879865031 1.1164918371216732 0.31838181110212826 0 1.1166040306743981 0.31839335038832273 1.8804403423773932e-05 1.1163733760407635 0.31874499943662732 0 1.1165528473209301 0.3188035375553423 7.2471362682291485e-05 1.1052114516414833 0.31516506608017458 -0.055033947640722031 1.1070527076989565 0.31529514214711923 -0.055418955450359408 1.1164918371216732 0.31838181110212826 0 1.1166036381224442 0.31839331001372695 -1.9917839472373657e-05 1.1158864285150001 0.32023792571682158 0 1.1158864285150003 0.32023792571682164 -4.1138618641362098e-21 1.0984878515483227 0.37246663421602472 -0.0016209329096488452 1.0912527097557572 0.37010674917603614 -4.1138618641362098e-21 1.1163317383754618 0.31887265582974145 0 1.1165191106713988 0.31893377102150505 -6.2011177985897559e-05 1.1158864285150001 0.32023792571682164 0 1.1158864285150003 0.32023792571682169 -4.1138618641362098e-21 1.1164918371216732 0.31838181110212826 0 1.1166040306743981 0.31839335038832273 1.8804403423773932e-05 1.1163818233751126 0.31859546963852564 0.00017999231803558779 1.1165434880462621 0.31863525282412392 0.00023157962494325252 1.1164918371216732 0.31838181110212826 0 1.1166036381224442 0.31839331001372695 -1.9917839472373657e-05 1.1158864285150001 0.32023792571682219 0 1.1158864285150001 0.32023792571682219 -4.1138618641362098e-21 1.1012839016759883 0.3479172585396782 0.02488154107081908 1.098036181501763 0.34657427854088241 0.02449066481586875 1.1163317383754618 0.31887265582974145 0 1.1165191106713988 0.31893377102150511 -6.2011177985911436e-05 1.1158864285150001 0.32023792571682219 0 1.1158864285149999 0.32023792571682219 -4.1138618641362098e-21 1.1164918371216732 0.31838181110212826 0 1.1166040306743981 0.31839335038832273 1.8804403423773932e-05 1.1163994886380519 0.31835547676049641 0.00045054325681015417 1.1165289814537127 0.31837441658256621 0.00047819261727150703 1.1164918371216732 0.31838181110212826 0 1.1166036381224442 0.31839331001372695 -1.9917839472373657e-05 1.1162829813746353 0.31878743144163441 0.00034170666139126055 1.1164911192408056 0.31886116606302289 0.0003813972173484434 1.1049415714888255 0.31546038860505315 0.055808621259580263 1.1068277335034722 0.31607559776735772 0.056231189630750508 1.1163706555251898 0.31861715880505093 0.0001982639182485469 1.1165571103263785 0.31888018865828766 0 1.1163706555251898 0.31861715880505093 0.0001982639182485469 1.1165571103263785 0.31888018865828766 -4.1138618641362098e-21</DataArray>
      </Points>
      <Lines>
        <DataArray type="Int32" Name="connectivity" format="ascii">0 1 2 3 4 5 6 7 8 9 10 11 12 13 14 15 16 17 18 19 20 21 22 23 24 25 26 27 28 29 30 31 32 33 34 35 36 37 38 39 40 41 42 43 44 45 46 47 48 49 50 51 52 53 54 55 56 57 58 59 60 61 62 63 64 65 66 67 68 69 70 71 72 73 74 75 76 77 78 79 80 81 82 83 84 85 86 87 88 89 90 91 92 93 94 95 96 97 98 99 100 101 102 103 104 105 106 107 108 109 110 111</DataArray>
        <DataArray type="Int32" Name="offsets" format="ascii">2 4 6 8 10 12 14 16 18 20 22 24 26 28 30 32 34 36 38 40 42 44 46 48 50 52 54 56 58 60 62 64 66 68 70 72 74 76 78 80 82 84 86 88 90 92 94 96 98 100 102 104 106 108 110 112</DataArray>
      </Lines>
      <Polys>
        <DataArray type="Int32" Name="connectivity" format="ascii"></DataArray>
        <DataArray type="Int32" Name="offsets" format="ascii"></DataArray>
      </Polys>
    </Piece>
  </PolyData>
</VTKFile>
