<?xml version="1.0"?>
<VTKFile type="PolyData" version="0.1" byte_order="LittleEndian">
  <PolyData>
    <Piece NumberOfPoints="24" NumberOfVerts="0" NumberOfLines="0" NumberOfStrips="0" NumberOfPolys="8">
      <FieldData>
        <DataArray type="Int32" Name="step" NumberOfTuples="1" format="ascii">5000</DataArray>
        <DataArray type="Float64" Name="time" NumberOfTuples="1" format="ascii">2.5</DataArray>
        <DataArray type="Int32" Name="candidate_pairs" NumberOfTuples="1" format="ascii">4</DataArray>
        <DataArray type="Int32" Name="contacts" NumberOfTuples="1" format="ascii">4</DataArray>
      </FieldData>
      <CellData Scalars="part_id">
        <DataArray type="Int32" Name="part_id" format="ascii">15 15 15 15 15 15 15 15</DataArray>
        <DataArray type="Int32" Name="candidate_pair" format="ascii">0 0 1 1 2 2 3 3</DataArray>
      </CellData>
      <Points>
        <DataArray type="Float64" NumberOfComponents="3" format="ascii">1.1174521927535548 0.3157436340127141 -0.0027985996498248902 1.1174521927535548 0.3157436340127141 0.0027985996498248902 1.1159173290977649 0.32112627588805143 0.0027985996498248902 1.1174521927535548 0.3157436340127141 -0.0027985996498248902 1.1159173290977649 0.32112627588805143 0.0027985996498248902 1.1159173290977649 0.32112627588805143 -0.0027985996498248902 1.1163104913213429 0.31976324637781284 -0.0015 1.1163104913213429 0.31976324637781284 0.0015 1.1154795236759145 0.32264586545987195 0.0015 1.1163104913213429 0.31976324637781284 -0.0015 1.1154795236759145 0.32264586545987195 0.0015 1.1154795236759145 0.32264586545987195 -0.0015 1.1175128389332631 0.31560705347055612 -0.0039732501984958675 1.1174647676212748 0.31560705347055612 -0.00097363536506079804 1.1166464363450876 0.31849325546174984 -0.00098674980150413203 1.1175128389332631 0.31560705347055612 -0.0039732501984958675 1.1166464363450876 0.31849325546174984 -0.00098674980150413203 1.116694507657076 0.31849325546174984 -0.003986364634939202 1.1174647676212748 0.31560705347055612 0.00097363536506079814 1.1175128389332631 0.31560705347055612 0.0039732501984958675 1.116694507657076 0.31849325546174984 0.003986364634939202 1.1174647676212748 0.31560705347055612 0.00097363536506079814 1.116694507657076 0.31849325546174984 0.003986364634939202 1.1166464363450876 0.31849325546174984 0.00098674980150413203</DataArray>
      </Points>
      <Lines>
        <DataArray type="Int32" Name="connectivity" format="ascii"></DataArray>
        <DataArray type="Int32" Name="offsets" format="ascii"></DataArray>
      </Lines>
      <Polys>
        <DataArray type="Int32" Name="connectivity" format="ascii">0 1 2 3 4 5 6 7 8 9 10 11 12 13 14 15 16 17 18 19 20 21 22 23</DataArray>
        <DataArray type="Int32" Name="offsets" format="ascii">3 6 9 12 15 18 21 24</DataArray>
      </Polys>
    </Piece>
  </PolyData>
</VTKFile>
