<?xml version="1.0"?>
<VTKFile type="PolyData" version="0.1" byte_order="LittleEndian">
  <PolyData>
    <Piece NumberOfPoints="24" NumberOfVerts="0" NumberOfLines="0" NumberOfStrips="0" NumberOfPolys="8">
      <FieldData>
        <DataArray type="Int32" Name="step" NumberOfTuples="1" format="ascii">5000</DataArray>
        <DataArray type="Float64" Name="time" NumberOfTuples="1" format="ascii">2.5</DataArray>
        <DataArray type="Int32" Name="candidate_pairs" NumberOfTuples="1" format="ascii">64</DataArray>
        <DataArray type="Int32" Name="contacts" NumberOfTuples="1" format="ascii">56</DataArray>
      </FieldData>
      <CellData Scalars="part_id">
        <DataArray type="Int32" Name="part_id" format="ascii">1 1 1 1 1 1 1 1</DataArray>
        <DataArray type="Int32" Name="candidate_pair" format="ascii">-1 -1 -1 -1 -1 -1 -1 -1</DataArray>
      </CellData>
      <Points>
        <DataArray type="Float64" NumberOfComponents="3" format="ascii">0.83551362730658918 0.17179491191167148 0.065649432942590819 0.82029230407001297 0.23391675668336037 0.065649432942590819 0.80683604767018413 0.23007953446570681 1.9716813466272386e-17 0.83551362730658918 0.17179491191167148 0.065649432942590819 0.80683604767018413 0.23007953446570681 1.9716813466272386e-17 0.82180767695351975 0.16897675017664179 1.9716813466272386e-17 0.82180767695351975 0.16897675017664179 1.9716813466272386e-17 0.80683604767018413 0.23007953446570681 1.9716813466272386e-17 0.82029230407001297 0.23391675668336037 -0.065649432942590763 0.82180767695351975 0.16897675017664179 1.9716813466272386e-17 0.82029230407001297 0.23391675668336037 -0.065649432942590763 0.83551362730658918 0.17179491191167148 -0.065649432942590763 0.82029230407001297 0.23391675668336037 0.065649432942590819 0.80045899909764218 0.29472343635577031 0.065649432942590819 0.78732809261959125 0.28988872791468834 1.9716813466272386e-17 0.82029230407001297 0.23391675668336037 0.065649432942590819 0.78732809261959125 0.28988872791468834 1.9716813466272386e-17 0.80683604767018413 0.23007953446570681 1.9716813466272386e-17 0.80683604767018413 0.23007953446570681 1.9716813466272386e-17 0.78732809261959125 0.28988872791468834 1.9716813466272386e-17 0.80045899909764218 0.29472343635577031 -0.065649432942590763 0.80683604767018413 0.23007953446570681 1.9716813466272386e-17 0.80045899909764218 0.29472343635577031 -0.065649432942590763 0.82029230407001297 0.23391675668336037 -0.065649432942590763</DataArray>
      </Points>
      <Lines>
        <DataArray type="Int32" Name="connectivity" format="ascii"></DataArray>
        <DataArray type="Int32" Name="offsets" format="ascii"></DataArray>
      </Lines>
      <Polys>
        <DataArray type="Int32" Name="connectivity" format="ascii">0 1 2 3 4 5 6 7 8 9 10 11 12 13 14 15 16 17 18 19 20 21 22 23</DataArray>
        <DataArray type="Int32" Name="offsets" format="ascii">3 6 9 12 15 18 21 24</DataArray>
      </Polys>
    </Piece>
  </PolyData>
</VTKFile>
