<?xml version="1.0"?>
<VTKFile type="PolyData" version="0.1" byte_order="LittleEndian">
  <PolyData>
    <Piece NumberOfPoints="112" NumberOfVerts="0" NumberOfLines="56" NumberOfStrips="0" NumberOfPolys="0">
      <FieldData>
        <DataArray type="Int32" Name="step" NumberOfTuples="1" format="ascii">5000</DataArray>
        <DataArray type="Float64" Name="time" NumberOfTuples="1" format="ascii">2.5</DataArray>
        <DataArray type="Int32" Name="candidate_pairs" NumberOfTuples="1" format="ascii">64</DataArray>
        <DataArray type="Int32" Name="contacts" NumberOfTuples="1" format="ascii">56</DataArray>
      </FieldData>
      <CellData Scalars="part_id">
        <DataArray type="Int32" Name="part_id" format="ascii">8 8 8 8 8 8 8 8 8 8 8 8 8 8 8 8 8 8 8 8 8 8 8 8 8 8 8 8 8 8 8 8 8 8 8 8 8 8 8 8 8 8 8 8 8 8 8 8 8 8 8 8 8 8 8 8</DataArray>
        <DataArray type="Int32" Name="candidate_pair" format="ascii">0 1 2 3 4 6 7 8 9 10 11 12 14 15 16 17 18 19 20 21 22 23 24 25 26 27 28 29 34 35 36 37 38 39 40 41 42 43 44 45 46 47 48 49 51 52 53 54 55 56 57 59 60 61 62 63</DataArray>
      </CellData>
      <Points>
        <DataArray type="Float64" NumberOfComponents="3" format="ascii">0.80681766090332152 0.23007502927236109 4.032090840748704e-06 0.80665368907688895 0.22999010731517922 -3.3863237159943537e-05 0.80681766090332152 0.23007502927236109 4.032090840748704e-06 0.80665296832307298 0.22999263487018529 -3.6491562029655664e-05 0.81669065437885791 0.23272397514659729 0.05644764732764182 0.81642317794615105 0.23264794301905742 0.05622639057836553 0.80681766090332152 0.23007502927236109 4.032090840748704e-06 0.80664298946290935 0.230027602615897 1.9755092485907667e-18 0.80681766090332152 0.23007502927236109 4.032090840748704e-06 0.80663394804089783 0.23005933637672432 -3.5994421515883512e-05 0.80681766090332152 0.23007502927236109 4.032090840748704e-06 0.80664298946290935 0.230027602615897 3.2332906295133149e-18 0.80681766090332152 0.23007502927236109 4.032090840748704e-06 0.80663116110290911 0.23006910529022903 1.2742062352540623e-06 0.80707717631361964 0.2291646967776067 -3.5109975645507425e-06 0.80690606873606097 0.22911487458709603 -2.7621215468883365e-05 0.80683772945302601 0.23000704839623207 3.3263173094845327e-06 0.80666254534115878 0.22995912832060919 -7.1462273026107867e-05 0.81666285276354322 0.20370890522481672 0.029543529357727839 0.81947975975383458 0.20398393356163355 0.029326969343656549 0.8070623954186803 0.22922310602129872 0.00095461157797955469 0.80688421779895136 0.22919922553042651 0.00095417672032207883 0.80681831848573859 0.23007519039562713 3.8878875634248289e-06 0.80663394804089783 0.23005933637672432 -3.5994421515883512e-05 0.80681831848573859 0.23007519039562713 3.8878875634248289e-06 0.80664285142905645 0.23002808992416748 1.7146217688558645e-05 0.80681831848573859 0.23007519039562713 3.8878875634248289e-06 0.80664298946290935 0.230027602615897 5.7370667345179866e-18 0.80709325138963695 0.22917074405348045 -2.6544379871923378e-05 0.80689797432601729 0.22914266759304477 -2.6792638865637818e-05 0.81766952725454367 0.22518874517269127 -0.053370619174651357 0.81766952725523223 0.22518874517339782 -0.05337061917455211 0.82034668111677322 0.17592209495068198 -0.0025115711997023985 0.8317997152699359 0.17872835956702643 -2.4467589143749238e-18 0.80709470593320765 0.22916549614600065 7.1779237933924326e-06 0.80690722388446401 0.22911090973597184 2.9485005013392587e-05 0.80683543745858111 0.23007938494941207 -1.3381518531976099e-07 0.80663394804089783 0.23005933637672432 -3.5994421515883512e-05 0.81663992384883088 0.23290289876466486 -0.056369627995061254 0.8163228612066703 0.23299829308650913 -0.056225185422583417 0.80683543136653846 0.23007942081443436 -4.8799247385393485e-06 0.80663449232561268 0.23005742279970015 3.1116183196744848e-05 0.80683543365255039 0.23007940726271195 -3.087088771450741e-06 0.80663378688874054 0.23005989803782906 3.0332690663879363e-05 0.81820526074006139 0.20066263045061664 -0.033361441476349792 0.82162681403431126 0.20094597889969282 -0.032027762845267954 0.81908150749472419 0.2238346962829186 -0.056128694693726368 0.81912333487183564 0.22380968484391556 -0.055920169457223425 0.82091675115298091 0.17349160876307568 -0.0049289516765602948 0.8317997152699359 0.17872835956702643 -2.4467589143749238e-18 0.82090448488891865 0.17356011783837152 -0.0050031625495089707 0.83175766488422709 0.1787855653515675 2.2271796541542313e-06 0.81958839469639644 0.2285019277807743 -0.060560974341441184 0.81638040517812105 0.23280415418515366 -0.056231189630750508 0.81958839469639644 0.2285019277807743 -0.060560974341441184 0.81638040517812105 0.23280415418515366 -0.056231189630750508 0.81683653684079516 0.23814809579560517 0.060558339352712036 0.81638040517812105 0.23280415418515368 0.056231189630750529 0.81683653684079516 0.23814809579560517 0.060558339352712036 0.81638040517812105 0.23280415418515366 0.056231189630750522 0.78900302866229854 0.28545590632091672 0.0050748124553693496 0.80095001150902356 0.28673836467745922 -4.4497314546374184e-06 0.78895158415612476 0.28558523262671898 0.0049264133235424161 0.80096109508630609 0.28687994880328088 7.7417443829727744e-18 0.81394602163435481 0.2418437548701117 0.056128758797178796 0.81396841710140178 0.24188710129883129 0.055920386983857116 0.8009783680105852 0.26107087354116582 0.033358678457157766 0.8040353220414288 0.26263502289508217 0.032024709932345741 0.80683545885319452 0.23007931882712515 3.0666441075596791e-06 0.80665371442261946 0.229990016432226 -3.0843771454444532e-05 0.80683545037720905 0.23007933964675281 1.3381518534784617e-07 0.80665296832307298 0.22999263487018529 -3.6491562029655664e-05 0.81665254794676079 0.23285100454246008 0.056364060758290063 0.81643543266354623 0.23260329769051161 0.056225013686367599 0.80683545037720905 0.23007933964675281 1.3381518534784617e-07 0.80665368944771632 0.22999010749702997 3.5994195121265372e-05 0.80657236356854489 0.23099719679783445 -7.2147763605303194e-06 0.80638424545680965 0.23094498678423883 -2.9459441257452934e-05 0.78974819393065177 0.28322263862875335 0.002512094581825029 0.80096109508630609 0.28687994880328088 7.7417443829727744e-18 0.81345983265255728 0.23994834169641188 0.053368416754620972 0.81345983265351574 0.23994834169617457 0.0533684167545216 0.80657391572698822 0.23099190156641239 2.6528669478662527e-05 0.80639323317155065 0.23091277953635234 2.675824063494841e-05 0.80681869382560023 0.23007387416499758 -3.8878875634127833e-06 0.80664298946290935 0.23002760261589703 1.8943050255113622e-17 0.80681869382560023 0.23007387416499758 -3.8878875634127833e-06 0.80664315091498129 0.23002704069319888 -1.9793637493965516e-05 0.80681869382560023 0.23007387416499758 -3.8878875634127833e-06 0.80665368944771632 0.22999010749702997 3.5994195121265372e-05 0.80657551386532489 0.23093054485400802 -0.00095906343558528227 0.80641156656596591 0.23085687917651918 -0.00095861584241494304 0.80127570838706086 0.25766973319510267 -0.029546441171838276 0.80381458736462119 0.25892202269460046 -0.029329907926947507 0.80679761622155077 0.23014770926034578 -3.2793588106249085e-06 0.80662351137311106 0.23009602091146822 7.138682541643e-05 0.80655702512553973 0.2309887229988592 3.5491705965311361e-06 0.80638557656607879 0.23094021520602837 2.7573585074838141e-05 0.80681805016468611 0.23007366422222031 -4.0320908407212576e-06 0.80665635271856306 0.229980763435467 -1.4380263359999008e-06 0.80681805016468611 0.23007366422222031 -4.0320908407212576e-06 0.80664298946290935 0.230027602615897 -2.3148579484599103e-18 0.80681805016468611 0.23007366422222031 -4.0320908407212576e-06 0.80665368944771632 0.22999010749702997 3.5994195121265372e-05 0.80681805016468611 0.23007366422222031 -4.0320908407212576e-06 0.80664298946290935 0.230027602615897 1.7076857938848081e-18 0.81660532063790103 0.23303087794979607 -0.056453217109276033 0.8163360131438524 0.23295384478926073 -0.056226563713667028 0.80681805016468611 0.23007366422222031 -4.0320908407212576e-06 0.80663453202285396 0.23005728697973443 3.59944887624804e-05 0.80681805016468611 0.23007366422222031 -4.0320908407212576e-06 0.80663381270479217 0.23005980949892896 3.3371427544914073e-05</DataArray>
      </Points>
      <Lines>
        <DataArray type="Int32" Name="connectivity" format="ascii">0 1 2 3 4 5 6 7 8 9 10 11 12 13 14 15 16 17 18 19 20 21 22 23 24 25 26 27 28 29 30 31 32 33 34 35 36 37 38 39 40 41 42 43 44 45 46 47 48 49 50 51 52 53 54 55 56 57 58 59 60 61 62 63 64 65 66 67 68 69 70 71 72 73 74 75 76 77 78 79 80 81 82 83 84 85 86 87 88 89 90 91 92 93 94 95 96 97 98 99 100 101 102 103 104 105 106 107 108 109 110 111</DataArray>
        <DataArray type="Int32" Name="offsets" format="ascii">2 4 6 8 10 12 14 16 18 20 22 24 26 28 30 32 34 36 38 40 42 44 46 48 50 52 54 56 58 60 62 64 66 68 70 72 74 76 78 80 82 84 86 88 90 92 94 96 98 100 102 104 106 108 110 112</DataArray>
      </Lines>
      <Polys>
        <DataArray type="Int32" Name="connectivity" format="ascii"></DataArray>
        <DataArray type="Int32" Name="offsets" format="ascii"></DataArray>
      </Polys>
    </Piece>
  </PolyData>
</VTKFile>
