<?xml version="1.0"?>
<VTKFile type="PolyData" version="0.1" byte_order="LittleEndian">
  <PolyData>
    <Piece NumberOfPoints="24" NumberOfVerts="0" NumberOfLines="0" NumberOfStrips="0" NumberOfPolys="8">
      <FieldData>
        <DataArray type="Int32" Name="step" NumberOfTuples="1" format="ascii">5000</DataArray>
        <DataArray type="Float64" Name="time" NumberOfTuples="1" format="ascii">2.5</DataArray>
        <DataArray type="Int32" Name="candidate_pairs" NumberOfTuples="1" format="ascii">64</DataArray>
        <DataArray type="Int32" Name="contacts" NumberOfTuples="1" format="ascii">56</DataArray>
      </FieldData>
      <CellData Scalars="part_id">
        <DataArray type="Int32" Name="part_id" format="ascii">4 4 4 4 4 4 4 4</DataArray>
        <DataArray type="Int32" Name="candidate_pair" format="ascii">-1 -1 -1 -1 -1 -1 -1 -1</DataArray>
      </CellData>
      <Points>
        <DataArray type="Float64" NumberOfComponents="3" format="ascii">1.1134339666924002 0.26272440675762088 0.053093639627504116 1.1224027572511874 0.26204444635867929 -4.1138618641362098e-21 1.1165571103263785 0.31888018865828766 -4.1138618641362098e-21 1.1134339666924002 0.26272440675762088 0.053093639627504116 1.1165571103263785 0.31888018865828766 -4.1138618641362098e-21 1.1068277335034722 0.31607559776735772 0.056231189630750508 1.1224027572511874 0.26204444635867929 -4.1138618641362098e-21 1.1134339666924002 0.26272440675762088 -0.053093639627504116 1.1068277335034722 0.31607559776735772 -0.056231189630750508 1.1224027572511874 0.26204444635867929 -4.1138618641362098e-21 1.1068277335034722 0.31607559776735772 -0.056231189630750508 1.1165571103263785 0.31888018865828766 -4.1138618641362098e-21 1.1068277335034722 0.31607559776735772 0.056231189630750508 1.1165571103263785 0.31888018865828766 -4.1138618641362098e-21 1.0912527097557572 0.37010674917603614 -4.1138618641362098e-21 1.1068277335034722 0.31607559776735772 0.056231189630750508 1.0912527097557572 0.37010674917603614 -4.1138618641362098e-21 1.0840220085431531 0.36475712206701583 0.053093639627504095 1.1165571103263785 0.31888018865828766 -4.1138618641362098e-21 1.1068277335034722 0.31607559776735772 -0.056231189630750508 1.0840220085431531 0.36475712206701583 -0.053093639627504095 1.1165571103263785 0.31888018865828766 -4.1138618641362098e-21 1.0840220085431531 0.36475712206701583 -0.053093639627504095 1.0912527097557572 0.37010674917603614 -4.1138618641362098e-21</DataArray>
      </Points>
      <Lines>
        <DataArray type="Int32" Name="connectivity" format="ascii"></DataArray>
        <DataArray type="Int32" Name="offsets" format="ascii"></DataArray>
      </Lines>
      <Polys>
        <DataArray type="Int32" Name="connectivity" format="ascii">0 1 2 3 4 5 6 7 8 9 10 11 12 13 14 15 16 17 18 19 20 21 22 23</DataArray>
        <DataArray type="Int32" Name="offsets" format="ascii">3 6 9 12 15 18 21 24</DataArray>
      </Polys>
    </Piece>
  </PolyData>
</VTKFile>
