<?xml version="1.0"?>
<VTKFile type="PolyData" version="0.1" byte_order="LittleEndian">
  <PolyData>
    <Piece NumberOfPoints="674" NumberOfVerts="0" NumberOfLines="313" NumberOfStrips="0" NumberOfPolys="16">
      <FieldData>
        <DataArray type="Int32" Name="step" NumberOfTuples="1" format="ascii">5000</DataArray>
        <DataArray type="Float64" Name="time" NumberOfTuples="1" format="ascii">2.5</DataArray>
        <DataArray type="Int32" Name="candidate_pairs" NumberOfTuples="1" format="ascii">64</DataArray>
        <DataArray type="Int32" Name="contacts" NumberOfTuples="1" format="ascii">56</DataArray>
      </FieldData>
      <CellData Scalars="part_id">
        <DataArray type="Int32" Name="part_id" format="ascii">5 5 5 5 5 5 5 5 5 5 5 5 5 5 5 5 5 5 5 5 5 5 5 5 5 5 5 5 5 5 5 5 5 5 5 5 5 5 5 5 5 5 5 5 5 5 5 5 5 5 5 5 5 5 5 5 5 5 5 5 5 5 5 5 5 5 5 5 5 5 5 5 5 5 5 5 5 5 5 5 5 5 5 5 5 5 5 5 5 5 5 5 5 5 5 5 6 6 6 6 6 6 6 6 6 6 6 6 6 6 6 6 6 6 6 6 6 6 6 6 6 6 6 6 6 6 6 6 6 6 6 6 6 6 6 6 6 6 6 6 6 6 6 6 6 6 6 6 6 6 6 6 6 6 6 6 6 6 6 6 6 6 6 6 6 6 6 6 6 6 6 6 6 6 6 6 6 6 6 6 6 6 6 6 6 6 6 6 6 6 6 6 7 8 7 8 7 8 7 8 7 8 7 7 8 7 8 7 8 7 8 7 8 7 8 7 8 7 7 8 7 8 7 8 7 8 7 8 7 8 7 8 7 8 7 8 7 8 7 8 7 8 7 8 7 8 7 8 7 8 7 7 7 7 7 8 7 8 7 8 7 8 7 8 7 8 7 8 7 8 7 8 7 8 7 8 7 8 7 8 7 8 7 8 7 8 7 7 8 7 8 7 8 7 8 7 8 7 8 7 8 7 7 8 7 8 7 8 7 8 7 8 9 3 3 3 3 3 3 3 3 4 4 4 4 4 4 4 4</DataArray>
        <DataArray type="Int32" Name="candidate_pair" format="ascii">-1 -1 -1 -1 -1 -1 -1 -1 -1 -1 -1 -1 -1 -1 -1 -1 -1 -1 -1 -1 -1 -1 -1 -1 -1 -1 -1 -1 -1 -1 -1 -1 -1 -1 -1 -1 -1 -1 -1 -1 -1 -1 -1 -1 -1 -1 -1 -1 -1 -1 -1 -1 -1 -1 -1 -1 -1 -1 -1 -1 -1 -1 -1 -1 -1 -1 -1 -1 -1 -1 -1 -1 -1 -1 -1 -1 -1 -1 -1 -1 -1 -1 -1 -1 -1 -1 -1 -1 -1 -1 -1 -1 -1 -1 -1 -1 -1 -1 -1 -1 -1 -1 -1 -1 -1 -1 -1 -1 -1 -1 -1 -1 -1 -1 -1 -1 -1 -1 -1 -1 -1 -1 -1 -1 -1 -1 -1 -1 -1 -1 -1 -1 -1 -1 -1 -1 -1 -1 -1 -1 -1 -1 -1 -1 -1 -1 -1 -1 -1 -1 -1 -1 -1 -1 -1 -1 -1 -1 -1 -1 -1 -1 -1 -1 -1 -1 -1 -1 -1 -1 -1 -1 -1 -1 -1 -1 -1 -1 -1 -1 -1 -1 -1 -1 -1 -1 -1 -1 -1 -1 -1 -1 0 0 1 1 2 2 3 3 4 4 5 6 6 7 7 8 8 9 9 10 10 11 11 12 12 13 14 14 15 15 16 16 17 17 18 18 19 19 20 20 21 21 22 22 23 23 24 24 25 25 26 26 27 27 28 28 29 29 30 31 32 33 34 34 35 35 36 36 37 37 38 38 39 39 40 40 41 41 42 42 43 43 44 44 45 45 46 46 47 47 48 48 49 49 50 51 51 52 52 53 53 54 54 55 55 56 56 57 57 58 59 59 60 60 61 61 62 62 63 63 0 -1 -1 -1 -1 -1 -1 -1 -1 -1 -1 -1 -1 -1 -1 -1 -1</DataArray>
      </CellData>
      <Points>
        <DataArray type="Float64" NumberOfComponents="3" format="ascii">1.1235034810450673 0.23101021365839239 -0.065649432942590791 1.1030355807218444 0.31454458888447473 -0.065649432942590791 1.1164918371216732 0.31838181110212826 0 1.1235034810450673 0.23101021365839239 -0.065649432942590791 1.1164918371216732 0.31838181110212826 0 1.1372094313981365 0.23382837539342208 0 1.1372094313981365 0.23382837539342208 0 1.1164918371216732 0.31838181110212826 0 1.1030355807218444 0.31454458888447473 0.065649432942590791 1.1372094313981365 0.23382837539342208 0 1.1030355807218444 0.31454458888447473 0.065649432942590791 1.1235034810450673 0.23101021365839239 0.065649432942590791 1.1030355807218444 0.31454458888447473 -0.065649432942590791 1.0763660131063895 0.39631048000820662 -0.065649432942590791 1.0894969195844404 0.40114518844928859 0 1.1030355807218444 0.31454458888447473 -0.065649432942590791 1.0894969195844404 0.40114518844928859 0 1.1164918371216732 0.31838181110212826 0 1.1164918371216732 0.31838181110212826 0 1.0894969195844404 0.40114518844928859 0 1.0763660131063895 0.39631048000820662 0.065649432942590791 1.1164918371216732 0.31838181110212826 0 1.0763660131063895 0.39631048000820662 0.065649432942590791 1.1030355807218444 0.31454458888447473 0.065649432942590791 1.1134339666924002 0.26272440675762088 0.053093639627504116 1.1224027572511874 0.26204444635867929 -4.1138618641362098e-21 1.1165571103263785 0.31888018865828766 -4.1138618641362098e-21 1.1134339666924002 0.26272440675762088 0.053093639627504116 1.1165571103263785 0.31888018865828766 -4.1138618641362098e-21 1.1068277335034722 0.31607559776735772 0.056231189630750508 1.1224027572511874 0.26204444635867929 -4.1138618641362098e-21 1.1134339666924002 0.26272440675762088 -0.053093639627504116 1.1068277335034722 0.31607559776735772 -0.056231189630750508 1.1224027572511874 0.26204444635867929 -4.1138618641362098e-21 1.1068277335034722 0.31607559776735772 -0.056231189630750508 1.1165571103263785 0.31888018865828766 -4.1138618641362098e-21 1.1068277335034722 0.31607559776735772 0.056231189630750508 1.1165571103263785 0.31888018865828766 -4.1138618641362098e-21 1.0912527097557572 0.37010674917603614 -4.1138618641362098e-21 1.1068277335034722 0.31607559776735772 0.056231189630750508 1.0912527097557572 0.37010674917603614 -4.1138618641362098e-21 1.0840220085431531 0.36475712206701583 0.053093639627504095 1.1165571103263785 0.31888018865828766 -4.1138618641362098e-21 1.1068277335034722 0.31607559776735772 -0.056231189630750508 1.0840220085431531 0.36475712206701583 -0.053093639627504095 1.1165571103263785 0.31888018865828766 -4.1138618641362098e-21 1.0840220085431531 0.36475712206701583 -0.053093639627504095 1.0912527097557572 0.37010674917603614 -4.1138618641362098e-21 1.0789656156542944 0.20694024859084229 -0.089719398010140894 1.1475734461126175 0.20694024859084229 -0.089719398010140894 1.1475734461126175 0.20694024859084229 -0.089719398010140894 1.1475734461126175 0.34245177616967837 -0.089719398010140894 1.1475734461126175 0.34245177616967837 -0.089719398010140894 1.0789656156542944 0.34245177616967837 -0.089719398010140894 1.0789656156542944 0.34245177616967837 -0.089719398010140894 1.0789656156542944 0.20694024859084229 -0.089719398010140894 1.0789656156542944 0.20694024859084229 0.024069965067550103 1.1475734461126175 0.20694024859084229 0.024069965067550103 1.1475734461126175 0.20694024859084229 0.024069965067550103 1.1475734461126175 0.34245177616967837 0.024069965067550103 1.1475734461126175 0.34245177616967837 0.024069965067550103 1.0789656156542944 0.34245177616967837 0.024069965067550103 1.0789656156542944 0.34245177616967837 0.024069965067550103 1.0789656156542944 0.20694024859084229 0.024069965067550103 1.0789656156542944 0.20694024859084229 -0.089719398010140894 1.0789656156542944 0.20694024859084229 0.024069965067550103 1.1475734461126175 0.20694024859084229 -0.089719398010140894 1.1475734461126175 0.20694024859084229 0.024069965067550103 1.1475734461126175 0.34245177616967837 -0.089719398010140894 1.1475734461126175 0.34245177616967837 0.024069965067550103 1.0789656156542944 0.34245177616967837 -0.089719398010140894 1.0789656156542944 0.34245177616967837 0.024069965067550103 1.092421872054123 0.20694024859084226 -0.089719398010140908 1.1612793964656867 0.20694024859084226 -0.089719398010140908 1.1612793964656867 0.20694024859084226 -0.089719398010140908 1.1612793964656867 0.34245177616967837 -0.089719398010140908 1.1612793964656867 0.34245177616967837 -0.089719398010140908 1.092421872054123 0.34245177616967837 -0.089719398010140908 1.092421872054123 0.34245177616967837 -0.089719398010140908 1.092421872054123 0.20694024859084226 -0.089719398010140908 1.092421872054123 0.20694024859084226 0.02406996506755012 1.1612793964656867 0.20694024859084226 0.02406996506755012 1.1612793964656867 0.20694024859084226 0.02406996506755012 1.1612793964656867 0.34245177616967837 0.02406996506755012 1.1612793964656867 0.34245177616967837 0.02406996506755012 1.092421872054123 0.34245177616967837 0.02406996506755012 1.092421872054123 0.34245177616967837 0.02406996506755012 1.092421872054123 0.20694024859084226 0.02406996506755012 1.092421872054123 0.20694024859084226 -0.089719398010140908 1.092421872054123 0.20694024859084226 0.02406996506755012 1.1612793964656867 0.20694024859084226 -0.089719398010140908 1.1612793964656867 0.20694024859084226 0.02406996506755012 1.1612793964656867 0.34245177616967837 -0.089719398010140908 1.1612793964656867 0.34245177616967837 0.02406996506755012 1.092421872054123 0.34245177616967837 -0.089719398010140908 1.092421872054123 0.34245177616967837 0.02406996506755012 1.0789656156542944 0.20975841032587197 -0.0240699650675501 1.1612793964656865 0.20975841032587197 -0.0240699650675501 1.1612793964656865 0.20975841032587197 -0.0240699650675501 1.1612793964656865 0.34245177616967837 -0.0240699650675501 1.1612793964656865 0.34245177616967837 -0.0240699650675501 1.0789656156542944 0.34245177616967837 -0.0240699650675501 1.0789656156542944 0.34245177616967837 -0.0240699650675501 1.0789656156542944 0.20975841032587197 -0.0240699650675501 1.0789656156542944 0.20975841032587197 0.089719398010140894 1.1612793964656865 0.20975841032587197 0.089719398010140894 1.1612793964656865 0.20975841032587197 0.089719398010140894 1.1612793964656865 0.34245177616967837 0.089719398010140894 1.1612793964656865 0.34245177616967837 0.089719398010140894 1.0789656156542944 0.34245177616967837 0.089719398010140894 1.0789656156542944 0.34245177616967837 0.089719398010140894 1.0789656156542944 0.20975841032587197 0.089719398010140894 1.0789656156542944 0.20975841032587197 -0.0240699650675501 1.0789656156542944 0.20975841032587197 0.089719398010140894 1.1612793964656865 0.20975841032587197 -0.0240699650675501 1.1612793964656865 0.20975841032587197 0.089719398010140894 1.1612793964656865 0.34245177616967837 -0.0240699650675501 1.1612793964656865 0.34245177616967837 0.089719398010140894 1.0789656156542944 0.34245177616967837 -0.0240699650675501 1.0789656156542944 0.34245177616967837 0.089719398010140894 1.0789656156542942 0.20694024859084226 -0.024069965067550117 1.1612793964656867 0.20694024859084226 -0.024069965067550117 1.1612793964656867 0.20694024859084226 -0.024069965067550117 1.1612793964656867 0.33861455395202483 -0.024069965067550117 1.1612793964656867 0.33861455395202483 -0.024069965067550117 1.0789656156542942 0.33861455395202483 -0.024069965067550117 1.0789656156542942 0.33861455395202483 -0.024069965067550117 1.0789656156542942 0.20694024859084226 -0.024069965067550117 1.0789656156542942 0.20694024859084226 0.089719398010140908 1.1612793964656867 0.20694024859084226 0.089719398010140908 1.1612793964656867 0.20694024859084226 0.089719398010140908 1.1612793964656867 0.33861455395202483 0.089719398010140908 1.1612793964656867 0.33861455395202483 0.089719398010140908 1.0789656156542942 0.33861455395202483 0.089719398010140908 1.0789656156542942 0.33861455395202483 0.089719398010140908 1.0789656156542942 0.20694024859084226 0.089719398010140908 1.0789656156542942 0.20694024859084226 -0.024069965067550117 1.0789656156542942 0.20694024859084226 0.089719398010140908 1.1612793964656867 0.20694024859084226 -0.024069965067550117 1.1612793964656867 0.20694024859084226 0.089719398010140908 1.1612793964656867 0.33861455395202483 -0.024069965067550117 1.1612793964656867 0.33861455395202483 0.089719398010140908 1.0789656156542942 0.33861455395202483 -0.024069965067550117 1.0789656156542942 0.33861455395202483 0.089719398010140908 1.0522960480388395 0.29047462381692463 -0.08971939801014088 1.1271055457893944 0.29047462381692463 -0.08971939801014088 1.1271055457893944 0.29047462381692463 -0.08971939801014088 1.1271055457893944 0.4252151535168387 -0.08971939801014088 1.1271055457893944 0.4252151535168387 -0.08971939801014088 1.0522960480388395 0.4252151535168387 -0.08971939801014088 1.0522960480388395 0.4252151535168387 -0.08971939801014088 1.0522960480388395 0.29047462381692463 -0.08971939801014088 1.0522960480388395 0.29047462381692463 0.024069965067550093 1.1271055457893944 0.29047462381692463 0.024069965067550093 1.1271055457893944 0.29047462381692463 0.024069965067550093 1.1271055457893944 0.4252151535168387 0.024069965067550093 1.1271055457893944 0.4252151535168387 0.024069965067550093 1.0522960480388395 0.4252151535168387 0.024069965067550093 1.0522960480388395 0.4252151535168387 0.024069965067550093 1.0522960480388395 0.29047462381692463 0.024069965067550093 1.0522960480388395 0.29047462381692463 -0.08971939801014088 1.0522960480388395 0.29047462381692463 0.024069965067550093 1.1271055457893944 0.29047462381692463 -0.08971939801014088 1.1271055457893944 0.29047462381692463 0.024069965067550093 1.1271055457893944 0.4252151535168387 -0.08971939801014088 1.1271055457893944 0.4252151535168387 0.024069965067550093 1.0522960480388395 0.4252151535168387 -0.08971939801014088 1.0522960480388395 0.4252151535168387 0.024069965067550093 1.0654269545168904 0.29047462381692463 -0.08971939801014088 1.1405618021892232 0.29047462381692463 -0.08971939801014088 1.1405618021892232 0.29047462381692463 -0.08971939801014088 1.1405618021892232 0.4252151535168387 -0.08971939801014088 1.1405618021892232 0.4252151535168387 -0.08971939801014088 1.0654269545168904 0.4252151535168387 -0.08971939801014088 1.0654269545168904 0.4252151535168387 -0.08971939801014088 1.0654269545168904 0.29047462381692463 -0.08971939801014088 1.0654269545168904 0.29047462381692463 0.024069965067550093 1.1405618021892232 0.29047462381692463 0.024069965067550093 1.1405618021892232 0.29047462381692463 0.024069965067550093 1.1405618021892232 0.4252151535168387 0.024069965067550093 1.1405618021892232 0.4252151535168387 0.024069965067550093 1.0654269545168904 0.4252151535168387 0.024069965067550093 1.0654269545168904 0.4252151535168387 0.024069965067550093 1.0654269545168904 0.29047462381692463 0.024069965067550093 1.0654269545168904 0.29047462381692463 -0.08971939801014088 1.0654269545168904 0.29047462381692463 0.024069965067550093 1.1405618021892232 0.29047462381692463 -0.08971939801014088 1.1405618021892232 0.29047462381692463 0.024069965067550093 1.1405618021892232 0.4252151535168387 -0.08971939801014088 1.1405618021892232 0.4252151535168387 0.024069965067550093 1.0654269545168904 0.4252151535168387 -0.08971939801014088 1.0654269545168904 0.4252151535168387 0.024069965067550093 1.0522960480388392 0.29431184603457816 -0.02406996506755011 1.1405618021892234 0.29431184603457816 -0.02406996506755011 1.1405618021892234 0.29431184603457816 -0.02406996506755011 1.1405618021892234 0.4252151535168387 -0.02406996506755011 1.1405618021892234 0.4252151535168387 -0.02406996506755011 1.0522960480388392 0.4252151535168387 -0.02406996506755011 1.0522960480388392 0.4252151535168387 -0.02406996506755011 1.0522960480388392 0.29431184603457816 -0.02406996506755011 1.0522960480388392 0.29431184603457816 0.089719398010140894 1.1405618021892234 0.29431184603457816 0.089719398010140894 1.1405618021892234 0.29431184603457816 0.089719398010140894 1.1405618021892234 0.4252151535168387 0.089719398010140894 1.1405618021892234 0.4252151535168387 0.089719398010140894 1.0522960480388392 0.4252151535168387 0.089719398010140894 1.0522960480388392 0.4252151535168387 0.089719398010140894 1.0522960480388392 0.29431184603457816 0.089719398010140894 1.0522960480388392 0.29431184603457816 -0.02406996506755011 1.0522960480388392 0.29431184603457816 0.089719398010140894 1.1405618021892234 0.29431184603457816 -0.02406996506755011 1.1405618021892234 0.29431184603457816 0.089719398010140894 1.1405618021892234 0.4252151535168387 -0.02406996506755011 1.1405618021892234 0.4252151535168387 0.089719398010140894 1.0522960480388392 0.4252151535168387 -0.02406996506755011 1.0522960480388392 0.4252151535168387 0.089719398010140894 1.0522960480388392 0.29047462381692463 -0.02406996506755011 1.1405618021892234 0.29047462381692463 -0.02406996506755011 1.1405618021892234 0.29047462381692463 -0.02406996506755011 1.1405618021892234 0.42038044507575673 -0.02406996506755011 1.1405618021892234 0.42038044507575673 -0.02406996506755011 1.0522960480388392 0.42038044507575673 -0.02406996506755011 1.0522960480388392 0.42038044507575673 -0.02406996506755011 1.0522960480388392 0.29047462381692463 -0.02406996506755011 1.0522960480388392 0.29047462381692463 0.089719398010140894 1.1405618021892234 0.29047462381692463 0.089719398010140894 1.1405618021892234 0.29047462381692463 0.089719398010140894 1.1405618021892234 0.42038044507575673 0.089719398010140894 1.1405618021892234 0.42038044507575673 0.089719398010140894 1.0522960480388392 0.42038044507575673 0.089719398010140894 1.0522960480388392 0.42038044507575673 0.089719398010140894 1.0522960480388392 0.29047462381692463 0.089719398010140894 1.0522960480388392 0.29047462381692463 -0.02406996506755011 1.0522960480388392 0.29047462381692463 0.089719398010140894 1.1405618021892234 0.29047462381692463 -0.02406996506755011 1.1405618021892234 0.29047462381692463 0.089719398010140894 1.1405618021892234 0.42038044507575673 -0.02406996506755011 1.1405618021892234 0.42038044507575673 0.089719398010140894 1.0522960480388392 0.42038044507575673 -0.02406996506755011 1.0522960480388392 0.42038044507575673 0.089719398010140894 1.0964072745735436 0.24501775423982258 -0.017026692118856719 1.1394294493700441 0.24501775423982258 -0.017026692118856719 1.1394294493700441 0.24501775423982258 -0.017026692118856719 1.1394294493700441 0.33590688077714437 -0.017026692118856719 1.1394294493700441 0.33590688077714437 -0.017026692118856719 1.0964072745735436 0.33590688077714437 -0.017026692118856719 1.0964072745735436 0.33590688077714437 -0.017026692118856719 1.0964072745735436 0.24501775423982258 -0.017026692118856719 1.0964072745735436 0.24501775423982258 0.070120331746360842 1.1394294493700441 0.24501775423982258 0.070120331746360842 1.1394294493700441 0.24501775423982258 0.070120331746360842 1.1394294493700441 0.33590688077714437 0.070120331746360842 1.1394294493700441 0.33590688077714437 0.070120331746360842 1.0964072745735436 0.33590688077714437 0.070120331746360842 1.0964072745735436 0.33590688077714437 0.070120331746360842 1.0964072745735436 0.24501775423982258 0.070120331746360842 1.0964072745735436 0.24501775423982258 -0.017026692118856719 1.0964072745735436 0.24501775423982258 0.070120331746360842 1.1394294493700441 0.24501775423982258 -0.017026692118856719 1.1394294493700441 0.24501775423982258 0.070120331746360842 1.1394294493700441 0.33590688077714437 -0.017026692118856719 1.1394294493700441 0.33590688077714437 0.070120331746360842 1.0964072745735436 0.33590688077714437 -0.017026692118856719 1.0964072745735436 0.33590688077714437 0.070120331746360842 1.0898010413846155 0.24569771463876416 -0.017026692118856719 1.1335838024452352 0.24569771463876416 -0.017026692118856719 1.1335838024452352 0.24569771463876416 -0.017026692118856719 1.1335838024452352 0.33590688077714437 -0.017026692118856719 1.1335838024452352 0.33590688077714437 -0.017026692118856719 1.0898010413846155 0.33590688077714437 -0.017026692118856719 1.0898010413846155 0.33590688077714437 -0.017026692118856719 1.0898010413846155 0.24569771463876416 -0.017026692118856719 1.0898010413846155 0.24569771463876416 0.073257881749607234 1.1335838024452352 0.24569771463876416 0.073257881749607234 1.1335838024452352 0.24569771463876416 0.073257881749607234 1.1335838024452352 0.33590688077714437 0.073257881749607234 1.1335838024452352 0.33590688077714437 0.073257881749607234 1.0898010413846155 0.33590688077714437 0.073257881749607234 1.0898010413846155 0.33590688077714437 0.073257881749607234 1.0898010413846155 0.24569771463876416 0.073257881749607234 1.0898010413846155 0.24569771463876416 -0.017026692118856719 1.0898010413846155 0.24569771463876416 0.073257881749607234 1.1335838024452352 0.24569771463876416 -0.017026692118856719 1.1335838024452352 0.24569771463876416 0.073257881749607234 1.1335838024452352 0.33590688077714437 -0.017026692118856719 1.1335838024452352 0.33590688077714437 0.073257881749607234 1.0898010413846155 0.33590688077714437 -0.017026692118856719 1.0898010413846155 0.33590688077714437 0.073257881749607234 1.0893953819163964 0.24461209477160351 -0.073663541217826284 1.1398351088382632 0.24461209477160351 -0.073663541217826284 1.1398351088382632 0.24461209477160351 -0.073663541217826284 1.1398351088382632 0.33350794935443351 -0.073663541217826284 1.1398351088382632 0.33350794935443351 -0.073663541217826284 1.0893953819163964 0.33350794935443351 -0.073663541217826284 1.0893953819163964 0.33350794935443351 -0.073663541217826284 1.0893953819163964 0.24461209477160351 -0.073663541217826284 1.0893953819163964 0.24461209477160351 0.017432351587075783 1.1398351088382632 0.24461209477160351 0.017432351587075783 1.1398351088382632 0.24461209477160351 0.017432351587075783 1.1398351088382632 0.33350794935443351 0.017432351587075783 1.1398351088382632 0.33350794935443351 0.017432351587075783 1.0893953819163964 0.33350794935443351 0.017432351587075783 1.0893953819163964 0.33350794935443351 0.017432351587075783 1.0893953819163964 0.24461209477160351 0.017432351587075783 1.0893953819163964 0.24461209477160351 -0.073663541217826284 1.0893953819163964 0.24461209477160351 0.017432351587075783 1.1398351088382632 0.24461209477160351 -0.073663541217826284 1.1398351088382632 0.24461209477160351 0.017432351587075783 1.1398351088382632 0.33350794935443351 -0.073663541217826284 1.1398351088382632 0.33350794935443351 0.017432351587075783 1.0893953819163964 0.33350794935443351 -0.073663541217826284 1.0893953819163964 0.33350794935443351 0.017432351587075783 1.0893953819163964 0.24461209477160351 -0.073663541217826284 1.1398351088382632 0.24461209477160351 -0.073663541217826284 1.1398351088382632 0.24461209477160351 -0.073663541217826284 1.1398351088382632 0.33631254024536344 -0.073663541217826284 1.1398351088382632 0.33631254024536344 -0.073663541217826284 1.0893953819163964 0.33631254024536344 -0.073663541217826284 1.0893953819163964 0.33631254024536344 -0.073663541217826284 1.0893953819163964 0.24461209477160351 -0.073663541217826284 1.0893953819163964 0.24461209477160351 0.017432351587075783 1.1398351088382632 0.24461209477160351 0.017432351587075783 1.1398351088382632 0.24461209477160351 0.017432351587075783 1.1398351088382632 0.33631254024536344 0.017432351587075783 1.1398351088382632 0.33631254024536344 0.017432351587075783 1.0893953819163964 0.33631254024536344 0.017432351587075783 1.0893953819163964 0.33631254024536344 0.017432351587075783 1.0893953819163964 0.24461209477160351 0.017432351587075783 1.0893953819163964 0.24461209477160351 -0.073663541217826284 1.0893953819163964 0.24461209477160351 0.017432351587075783 1.1398351088382632 0.24461209477160351 -0.073663541217826284 1.1398351088382632 0.24461209477160351 0.017432351587075783 1.1398351088382632 0.33631254024536344 -0.073663541217826284 1.1398351088382632 0.33631254024536344 0.017432351587075783 1.0893953819163964 0.33631254024536344 -0.073663541217826284 1.0893953819163964 0.33631254024536344 0.017432351587075783 1.0738203581686814 0.29864324618028193 -0.017432351587075779 1.1339894619134543 0.29864324618028193 -0.017432351587075779 1.1339894619134543 0.29864324618028193 -0.017432351587075779 1.1339894619134543 0.38753910076311193 -0.017432351587075779 1.1339894619134543 0.38753910076311193 -0.017432351587075779 1.0738203581686814 0.38753910076311193 -0.017432351587075779 1.0738203581686814 0.38753910076311193 -0.017432351587075779 1.0738203581686814 0.29864324618028193 -0.017432351587075779 1.0738203581686814 0.29864324618028193 0.073663541217826284 1.1339894619134543 0.29864324618028193 0.073663541217826284 1.1339894619134543 0.29864324618028193 0.073663541217826284 1.1339894619134543 0.38753910076311193 0.073663541217826284 1.1339894619134543 0.38753910076311193 0.073663541217826284 1.0738203581686814 0.38753910076311193 0.073663541217826284 1.0738203581686814 0.38753910076311193 0.073663541217826284 1.0738203581686814 0.29864324618028193 0.073663541217826284 1.0738203581686814 0.29864324618028193 -0.017432351587075779 1.0738203581686814 0.29864324618028193 0.073663541217826284 1.1339894619134543 0.29864324618028193 -0.017432351587075779 1.1339894619134543 0.29864324618028193 0.073663541217826284 1.1339894619134543 0.38753910076311193 -0.017432351587075779 1.1339894619134543 0.38753910076311193 0.073663541217826284 1.0738203581686814 0.38753910076311193 -0.017432351587075779 1.0738203581686814 0.38753910076311193 0.073663541217826284 1.0665896569560773 0.29864324618028193 -0.017432351587075779 1.124260085090548 0.29864324618028193 -0.017432351587075779 1.124260085090548 0.29864324618028193 -0.017432351587075779 1.124260085090548 0.38753910076311193 -0.017432351587075779 1.124260085090548 0.38753910076311193 -0.017432351587075779 1.0665896569560773 0.38753910076311193 -0.017432351587075779 1.0665896569560773 0.38753910076311193 -0.017432351587075779 1.0665896569560773 0.29864324618028193 -0.017432351587075779 1.0665896569560773 0.29864324618028193 0.073663541217826284 1.124260085090548 0.29864324618028193 0.073663541217826284 1.124260085090548 0.29864324618028193 0.073663541217826284 1.124260085090548 0.38753910076311193 0.073663541217826284 1.124260085090548 0.38753910076311193 0.073663541217826284 1.0665896569560773 0.38753910076311193 0.073663541217826284 1.0665896569560773 0.38753910076311193 0.073663541217826284 1.0665896569560773 0.29864324618028193 0.073663541217826284 1.0665896569560773 0.29864324618028193 -0.017432351587075779 1.0665896569560773 0.29864324618028193 0.073663541217826284 1.124260085090548 0.29864324618028193 -0.017432351587075779 1.124260085090548 0.29864324618028193 0.073663541217826284 1.124260085090548 0.38753910076311193 -0.017432351587075779 1.124260085090548 0.38753910076311193 0.073663541217826284 1.0665896569560773 0.38753910076311193 -0.017432351587075779 1.0665896569560773 0.38753910076311193 0.073663541217826284 1.0669953164242965 0.29904890564850101 -0.073257881749607234 1.1335838024452352 0.29904890564850101 -0.073257881749607234 1.1335838024452352 0.29904890564850101 -0.073257881749607234 1.1335838024452352 0.38178381418587254 -0.073257881749607234 1.1335838024452352 0.38178381418587254 -0.073257881749607234 1.0669953164242965 0.38178381418587254 -0.073257881749607234 1.0669953164242965 0.38178381418587254 -0.073257881749607234 1.0669953164242965 0.29904890564850101 -0.073257881749607234 1.0669953164242965 0.29904890564850101 0.01702669211885673 1.1335838024452352 0.29904890564850101 0.01702669211885673 1.1335838024452352 0.29904890564850101 0.01702669211885673 1.1335838024452352 0.38178381418587254 0.01702669211885673 1.1335838024452352 0.38178381418587254 0.01702669211885673 1.0669953164242965 0.38178381418587254 0.01702669211885673 1.0669953164242965 0.38178381418587254 0.01702669211885673 1.0669953164242965 0.29904890564850101 0.01702669211885673 1.0669953164242965 0.29904890564850101 -0.073257881749607234 1.0669953164242965 0.29904890564850101 0.01702669211885673 1.1335838024452352 0.29904890564850101 -0.073257881749607234 1.1335838024452352 0.29904890564850101 0.01702669211885673 1.1335838024452352 0.38178381418587254 -0.073257881749607234 1.1335838024452352 0.38178381418587254 0.01702669211885673 1.0669953164242965 0.38178381418587254 -0.073257881749607234 1.0669953164242965 0.38178381418587254 0.01702669211885673 1.0669953164242965 0.30185349653943094 -0.070120331746360828 1.1335838024452352 0.30185349653943094 -0.070120331746360828 1.1335838024452352 0.30185349653943094 -0.070120331746360828 1.1335838024452352 0.38713344129489285 -0.070120331746360828 1.1335838024452352 0.38713344129489285 -0.070120331746360828 1.0669953164242965 0.38713344129489285 -0.070120331746360828 1.0669953164242965 0.38713344129489285 -0.070120331746360828 1.0669953164242965 0.30185349653943094 -0.070120331746360828 1.0669953164242965 0.30185349653943094 0.01702669211885673 1.1335838024452352 0.30185349653943094 0.01702669211885673 1.1335838024452352 0.30185349653943094 0.01702669211885673 1.1335838024452352 0.38713344129489285 0.01702669211885673 1.1335838024452352 0.38713344129489285 0.01702669211885673 1.0669953164242965 0.38713344129489285 0.01702669211885673 1.0669953164242965 0.38713344129489285 0.01702669211885673 1.0669953164242965 0.30185349653943094 0.01702669211885673 1.0669953164242965 0.30185349653943094 -0.070120331746360828 1.0669953164242965 0.30185349653943094 0.01702669211885673 1.1335838024452352 0.30185349653943094 -0.070120331746360828 1.1335838024452352 0.30185349653943094 0.01702669211885673 1.1335838024452352 0.38713344129489285 -0.070120331746360828 1.1335838024452352 0.38713344129489285 0.01702669211885673 1.0669953164242965 0.38713344129489285 -0.070120331746360828 1.0669953164242965 0.38713344129489285 0.01702669211885673 1.1164918371216732 0.31838181110212826 0 1.1166040306743981 0.31839335038832273 1.8804403423773932e-05 1.1164837152206966 0.31835557822474281 -1.5664856072020321e-05 1.1166994780660358 0.31838340387108999 1.5137780108396615e-05 1.1164918371216732 0.31838181110212826 0 1.1165423926645084 0.31861555727820329 0.00025020118414843595 1.1164772816862174 0.31837824467571679 3.1919063543447715e-06 1.1166300992245912 0.31862549597204454 0.00026587227609738335 1.1052114516414833 0.31516506608017458 -0.055033947640722031 1.1070527076989565 0.31529514214711923 -0.055418955450359408 1.1069497972511813 0.31558637706557469 -0.055712409633772074 1.1071220311222874 0.31564324983086528 -0.05578926146894117 1.1164918371216732 0.31838181110212826 0 1.1166036381224442 0.31839331001372695 -1.9917839472373657e-05 1.1165373560081218 0.31813190381861323 -0.0017530502315110821 1.116744465849046 0.31819199804145837 -0.0017557735528687388 1.1164918371216732 0.31838181110212826 0 1.1165510517680171 0.31887844221780109 3.5015597639180551e-05 1.1164773514027972 0.31837795464270424 -3.5829839987248803e-05 1.1165571103263785 0.31888018865828766 5.0313670666956273e-18 1.1164918371216732 0.31838181110212826 0 1.0991040381427204 0.34286978827589598 0.028345994364560565 1.1164918371216732 0.31838181110212826 0 1.1165510517680171 0.31887844221780109 -3.5015597639176201e-05 1.1164774018342372 0.31837771615088384 -6.77009932553564e-05 1.1165565425187698 0.31888210852097537 -6.7833189282401967e-05 1.1164918371216732 0.31838181110212826 0 1.1165571103263785 0.31888018865828766 -4.1138618641362098e-21 1.1164772816862174 0.31837824467571679 3.1919063543447715e-06 1.1165571103263785 0.31888018865828766 -7.0671453901523701e-18 1.1166926721332844 0.31756215559504047 0 1.1166926721332844 0.31756215559504047 -4.1138618641362098e-21 1.1167063773089603 0.31756551368766861 -3.0054502635737703e-06 1.1169245061223609 0.31758600009131122 3.885695525325632e-05 1.1164918371216732 0.31838181110212826 0 1.1165423926645084 0.31861555727820329 0.00025020118414843595 1.116475322451582 0.31837776461682948 3.6215529630772718e-06 1.1166300992245912 0.31862549597204454 0.00026587227609738335 1.1191085479976248 0.28577516253609381 -0.024500044077790557 1.1157254518788187 0.28520861634136446 -0.024107367712435879 1.1229688044189714 0.28691250346693853 -0.025208771483605164 1.1205481961411472 0.28592015910196866 -0.025085663716000683 1.1166926721332844 0.31756215559504036 0 1.1166926721332844 0.31756215559504036 -4.1138618641362098e-21 1.1166831459320659 0.31764159117088564 -0.0006082322884714389 1.1169006209800116 0.31766729321137416 -0.00064257896569482205 1.1164918371216732 0.31838181110212826 0 1.1165510517680171 0.31887844221780109 3.5015597639173612e-05 1.116475322451582 0.31837776461682948 3.6215529630772718e-06 1.1165567922683663 0.31888127785460446 3.6150275610918017e-05 1.1164918371216732 0.31838181110212826 0 1.0991040381427204 0.34286978827589598 0.028345994364560565 1.1164918371216732 0.31838181110212826 0 1.1165510517680171 0.31887844221780109 -3.5015597639180151e-05 1.116475322451582 0.31837776461682948 3.6215529630772718e-06 1.1165568108755446 0.31888121330463753 -3.6150275610916615e-05 1.1164918371216732 0.31838181110212826 0 1.1165571103263785 0.31888018865828766 -4.1138618641362098e-21 1.116475322451582 0.31837776461682948 3.6215529630772718e-06 1.1165571103263785 0.31888018865828766 -7.0671453901523701e-18 1.1166926721332844 0.3175621555950402 0 1.1166926721332844 0.3175621555950402 -4.1138618641362098e-21 1.1165293033846768 0.31825724558877078 2.3671424845313488e-05 1.116719886206484 0.31831170946107434 1.7299542045117556e-05 1.1163994886380519 0.31835547676049641 0.00045054325681016555 1.1165289814537127 0.31837441658256621 0.00047819261727150703 1.1164944646612829 0.31837839616069591 0.00046141407085805271 1.1166945449076817 0.31839808728379437 0.00050305461964860658 1.1295256548771624 0.26378972497273967 0.0015620021992938352 1.1224027572511874 0.26204444635867929 -4.1138618641362098e-21 1.1305474333905954 0.26404008490790115 0.0017860711623733331 1.1224027572511874 0.26204444635867929 7.1008749491192531e-18 1.1166926721332846 0.31756215559503959 0 1.1166926721332844 0.31756215559503959 -4.1138618641362098e-21 1.1167244402054834 0.31756993952510992 6.966518578199065e-06 1.1169245061223612 0.31758600009131038 -4.1302243690295223e-05 1.1164918371216732 0.31838181110212826 0 1.1165510517680171 0.31887844221780109 3.5015597639180551e-05 1.1164937424730861 0.31838227795835 4.1783039063208792e-07 1.1165571103263785 0.31888018865828766 5.0313670666956273e-18 1.1050521043975894 0.31511962619210893 0.05581135971520728 1.1068277335034722 0.31607559776735772 0.056231189630750508 1.1068007120639842 0.31554807648366051 0.056194817285992842 1.1068277335034722 0.31607559776735772 0.056231189630750515 1.1164918371216732 0.31838181110212826 0 1.1165510517680171 0.31887844221780109 -3.5015597639180151e-05 1.1164937424730861 0.31838227795835 4.1783039063208792e-07 1.1165568108755446 0.31888121330463753 -3.6150275610916615e-05 1.1164918371216732 0.31838181110212826 0 1.1165571103263785 0.31888018865828766 -4.1138618641362098e-21 1.1164937424730861 0.31838227795835 4.1783039063208792e-07 1.1165571103263785 0.31888018865828766 -7.0671453901523701e-18 1.117503776818765 0.28037173502461904 0.037855407666885388 1.1143803672893544 0.27974119232425976 0.037004769525191265 1.1215606725521974 0.28136577056111367 0.038745056850501142 1.1183413736652812 0.28014858816011468 0.037668661166448625 1.1084097677674338 0.3018511399365752 0.055325389117025253 1.1085868792914437 0.30186893562510353 0.055395704761398386 1.1104208952794807 0.30273657558669487 0.056088794969917144 1.1102285920263728 0.30269387675947673 0.055740033820086674 1.12927778061841 0.25256237244096641 0.015237041354222906 1.1224027572511874 0.26204444635867929 -4.1138618641362098e-21 1.1322297840198778 0.25328568318832678 0.015884395289031777 1.1224027572511874 0.26204444635867929 7.1008749491192531e-18 1.12927778061841 0.25256237244096641 0.015237041354222906 1.1224027572511874 0.26204444635867929 -4.1138618641362098e-21 1.1322297840198778 0.25328568318832678 0.015884395289031777 1.1224027572511874 0.26204444635867929 9.2496579838698944e-18 1.1048145916328211 0.31034269118633401 0.062231876676819058 1.1068277335034722 0.31607559776735772 0.056231189630750508 1.1056487612105923 0.31054708248900764 0.062414804297498468 1.1068277335034722 0.31607559776735772 0.056231189630750515 1.1048145916328211 0.31034269118633401 0.062231876676819065 1.1068277335034722 0.31607559776735772 0.056231189630750508 1.1056487612105923 0.31054708248900764 0.062414804297498488 1.1068277335034722 0.31607559776735772 0.056231189630750515 1.1156361335881249 0.28478297598067698 0.041443230420370195 1.1165571103263785 0.31888018865828766 -4.1138618641362098e-21 1.1156361335881249 0.28478297598067698 0.041443230420370188 1.1165571103263785 0.31888018865828766 -4.1138618641362098e-21 1.0979529976102695 0.34705553958582114 -0.041003812834954703 1.1165571103263785 0.31888018865828766 -4.1138618641362098e-21 1.0979529976102695 0.34705553958582114 -0.041003812834954703 1.1165571103263785 0.31888018865828766 0 1.1022458621482938 0.31959605603199143 -0.061820060450609338 1.1068277335034722 0.31607559776735772 -0.056231189630750508 1.1031528810737792 0.31989189824968495 -0.062023265428223472 1.1068277335034722 0.31607559776735772 -0.056231189630750522 1.1022458621482938 0.31959605603199143 -0.061820060450609338 1.1068277335034722 0.31607559776735772 -0.056231189630750508 1.1031528810737792 0.31989189824968495 -0.062023265428223472 1.1068277335034722 0.31607559776735772 -0.056231189630750515 1.092558174312573 0.38156374740527843 -0.014844129338572692 1.0912527097557572 0.37010674917603614 -4.1138618641362098e-21 1.0953947983355643 0.38248896860865672 -0.015479635505969723 1.0912527097557572 0.37010674917603614 -7.3995813146037105e-18 1.092558174312573 0.38156374740527843 -0.014844129338572692 1.0912527097557572 0.37010674917603614 -4.1138618641362098e-21 1.0953947983355643 0.38248896860865672 -0.015479635505969723 1.0912527097557572 0.37010674917603614 -1.4536427142563846e-17 1.1009114091288805 0.32813193933680207 -0.055349251917632063 1.1011290135813747 0.3282401912125229 -0.055447175145739047 1.1030782763164946 0.32862283532981407 -0.055983220161828287 1.1028699733568799 0.32857160005169239 -0.055644872272141523 1.097230803611374 0.3516750830304583 -0.037501869325116573 1.094125660595219 0.35051021497368762 -0.036605611879865031 1.1012145915678837 0.35297447451034797 -0.03839438161981746 1.0977448585148639 0.3522979913337913 -0.037278635539908039 1.1164918371216732 0.31838181110212826 0 1.1166040306743981 0.31839335038832273 1.8804403423773932e-05 1.1164937021353967 0.31838241941335588 -4.1783039061721694e-07 1.1166940054601506 0.31840260443882629 3.3884790203306288e-05 1.1163733760407635 0.31874499943662732 0 1.1165528473209301 0.3188035375553423 7.2471362682291485e-05 1.1163885445052302 0.31874994693225367 -3.3982835371791407e-06 1.116578337176144 0.31880642600367259 7.7025798113868602e-05 1.1052114516414833 0.31516506608017458 -0.055033947640722031 1.1070527076989565 0.31529514214711923 -0.055418955450359408 1.1067700320313874 0.31567980881543728 -0.056177129383232494 1.1070150275111343 0.31544719953591216 -0.056211589517957496 1.1164918371216732 0.31838181110212826 0 1.1166036381224442 0.31839331001372695 -1.9917839472373657e-05 1.1164399303758401 0.31857040885054644 -1.9455879456708025e-06 1.1166304587784119 0.31862497123342337 -8.3030482724282249e-06 1.1158864285150001 0.32023792571682158 0 1.1158864285150003 0.32023792571682164 -4.1138618641362098e-21 1.115955043155626 0.32026030574316794 -1.5372156104591528e-05 1.1161244358812423 0.3203554942920544 4.7044978513263796e-05 1.0984878515483227 0.37246663421602472 -0.0016209329096488452 1.0912527097557572 0.37010674917603614 -4.1138618641362098e-21 1.0994898965200812 0.37279347106401561 -0.0018454271515364938 1.0912527097557572 0.37010674917603614 -1.4536427142563846e-17 1.1163317383754618 0.31887265582974145 0 1.1165191106713988 0.31893377102150505 -6.2011177985897559e-05 1.1163790683498656 0.31878304411284175 -3.6654021347803549e-06 1.1165571103263785 0.31888018865828766 -2.2437114439588452e-18 1.1158864285150001 0.32023792571682164 0 1.1158864285150003 0.32023792571682169 -4.1138618641362098e-21 1.1159507333630669 0.32027532876685055 -4.2443103948361563e-05 1.1161283527272026 0.32034236251598397 -4.387553926264941e-05 1.1164918371216732 0.31838181110212826 0 1.1166040306743981 0.31839335038832273 1.8804403423773932e-05 1.1164756720792823 0.31837653855283998 -3.6215529630827915e-06 1.1166940054601506 0.31840260443882629 3.3884790203306288e-05 1.1163818233751126 0.31859546963852564 0.00017999231803558779 1.1165434880462621 0.31863525282412392 0.00023157962494325252 1.1164102414128532 0.31860473874534523 0.00018635898422154706 1.1166246955345198 0.31864445505896982 0.00024608948616945193 1.1164918371216732 0.31838181110212826 0 1.1146790618904356 0.28883863686721756 -0.027885195266189915 1.1164918371216732 0.31838181110212826 0 1.1166036381224442 0.31839331001372695 -1.9917839472373657e-05 1.116473204800277 0.31838516055356136 3.5561978598818095e-06 1.1166935902461959 0.31840406521711151 -1.7844089586793991e-05 1.1158864285150001 0.32023792571682219 0 1.1158864285150001 0.32023792571682219 -4.1138618641362098e-21 1.1159338548911624 0.32026839512394428 4.5127819875465469e-05 1.1161278467330089 0.3203440591557119 4.6689416893689519e-05 1.1012839016759883 0.3479172585396782 0.02488154107081908 1.098036181501763 0.34657427854088241 0.02449066481586875 1.1051910876393392 0.3489868618001099 0.025588940875276349 1.1025128045080677 0.3485491186036353 0.025469288047459425 1.1163317383754618 0.31887265582974145 0 1.1165191106713988 0.31893377102150511 -6.2011177985911436e-05 1.1163337386308252 0.31887330825271298 4.4812939938988839e-07 1.1165388943176353 0.31894329023978674 -6.5909015884869248e-05 1.1158864285150001 0.32023792571682219 0 1.1158864285149999 0.32023792571682219 -4.1138618641362098e-21 1.1159378218110874 0.32025468865997786 1.1513953333824934e-05 1.1161244358812423 0.32035549429205507 -4.4259692976741051e-05 1.1164918371216732 0.31838181110212826 0 1.1166040306743981 0.31839335038832273 1.8804403423773932e-05 1.1164643334513884 0.31842127564664596 0.00041618580749353673 1.1166778181880157 0.31845737179216332 0.00043817814950740586 1.1163994886380519 0.31835547676049641 0.00045054325681015417 1.1165289814537127 0.31837441658256621 0.00047819261727150703 1.1164404497918095 0.31849034694892842 0.0012026171365585366 1.1166474655959016 0.31854995483849552 0.0012042912662126434 1.1164918371216732 0.31838181110212826 0 1.1146790618904356 0.28883863686721756 -0.027885195266189915 1.1164918371216732 0.31838181110212826 0 1.1166036381224442 0.31839331001372695 -1.9917839472373657e-05 1.1164737512780585 0.31839055608043287 1.5335756858825346e-05 1.116689409361596 0.31841873060042414 -1.4955933608021589e-05 1.1162829813746353 0.31878743144163441 0.00034170666139126055 1.1164911192408056 0.31886116606302289 0.0003813972173484434 1.1163530481648265 0.31881028511537191 0.00035740415141294948 1.116553260570081 0.31889186203542635 0.00039368018802580341 1.1049415714888255 0.31546038860505315 0.055808621259580263 1.1068277335034722 0.31607559776735772 0.056231189630750508 1.1066520292936803 0.31601809492987881 0.056164383778531501 1.1068282834894076 0.3160898250848268 0.056219179542482282 1.1163706555251898 0.31861715880505093 0.0001982639182485469 1.1165571103263785 0.31888018865828766 0 1.116405435924402 0.31862850312229296 0.00020605598304978322 1.1165571103263785 0.31888018865828766 -2.2438371525571275e-18 1.1163706555251898 0.31861715880505093 0.0001982639182485469 1.1165571103263785 0.31888018865828766 -4.1138618641362098e-21 1.116405435924402 0.31862850312229296 0.00020605598304978322 1.1165571103263785 0.31888018865828766 -7.0671453901523701e-18 1.1159507333630669 0.32027532876685055 -4.2443103948361563e-05 1.1907956861512767 0.34852189869194156 -0.00064604031865392417</DataArray>
      </Points>
      <Lines>
        <DataArray type="Int32" Name="connectivity" format="ascii">48 49 50 51 52 53 54 55 56 57 58 59 60 61 62 63 64 65 66 67 68 69 70 71 72 73 74 75 76 77 78 79 80 81 82 83 84 85 86 87 88 89 90 91 92 93 94 95 96 97 98 99 100 101 102 103 104 105 106 107 108 109 110 111 112 113 114 115 116 117 118 119 120 121 122 123 124 125 126 127 128 129 130 131 132 133 134 135 136 137 138 139 140 141 142 143 144 145 146 147 148 149 150 151 152 153 154 155 156 157 158 159 160 161 162 163 164 165 166 167 168 169 170 171 172 173 174 175 176 177 178 179 180 181 182 183 184 185 186 187 188 189 190 191 192 193 194 195 196 197 198 199 200 201 202 203 204 205 206 207 208 209 210 211 212 213 214 215 216 217 218 219 220 221 222 223 224 225 226 227 228 229 230 231 232 233 234 235 236 237 238 239 240 241 242 243 244 245 246 247 248 249 250 251 252 253 254 255 256 257 258 259 260 261 262 263 264 265 266 267 268 269 270 271 272 273 274 275 276 277 278 279 280 281 282 283 284 285 286 287 288 289 290 291 292 293 294 295 296 297 298 299 300 301 302 303 304 305 306 307 308 309 310 311 312 313 314 315 316 317 318 319 320 321 322 323 324 325 326 327 328 329 330 331 332 333 334 335 336 337 338 339 340 341 342 343 344 345 346 347 348 349 350 351 352 353 354 355 356 357 358 359 360 361 362 363 364 365 366 367 368 369 370 371 372 373 374 375 376 377 378 379 380 381 382 383 384 385 386 387 388 389 390 391 392 393 394 395 396 397 398 399 400 401 402 403 404 405 406 407 408 409 410 411 412 413 414 415 416 417 418 419 420 421 422 423 424 425 426 427 428 429 430 431 432 433 434 435 436 437 438 439 440 441 442 443 444 445 446 447 448 449 450 451 452 453 454 455 456 457 458 459 460 461 462 463 464 465 466 467 468 469 470 471 472 473 474 475 476 477 478 479 480 481 482 483 484 485 486 487 488 489 490 491 492 493 494 495 496 497 498 499 500 501 502 503 504 505 506 507 508 509 510 511 512 513 514 515 516 517 518 519 520 521 522 523 524 525 526 527 528 529 530 531 532 533 534 535 536 537 538 539 540 541 542 543 544 545 546 547 548 549 550 551 552 553 554 555 556 557 558 559 560 561 562 563 564 565 566 567 568 569 570 571 572 573 574 575 576 577 578 579 580 581 582 583 584 585 586 587 588 589 590 591 592 593 594 595 596 597 598 599 600 601 602 603 604 605 606 607 608 609 610 611 612 613 614 615 616 617 618 619 620 621 622 623 624 625 626 627 628 629 630 631 632 633 634 635 636 637 638 639 640 641 642 643 644 645 646 647 648 649 650 651 652 653 654 655 656 657 658 659 660 661 662 663 664 665 666 667 668 669 670 671 672 673</DataArray>
        <DataArray type="Int32" Name="offsets" format="ascii">2 4 6 8 10 12 14 16 18 20 22 24 26 28 30 32 34 36 38 40 42 44 46 48 50 52 54 56 58 60 62 64 66 68 70 72 74 76 78 80 82 84 86 88 90 92 94 96 98 100 102 104 106 108 110 112 114 116 118 120 122 124 126 128 130 132 134 136 138 140 142 144 146 148 150 152 154 156 158 160 162 164 166 168 170 172 174 176 178 180 182 184 186 188 190 192 194 196 198 200 202 204 206 208 210 212 214 216 218 220 222 224 226 228 230 232 234 236 238 240 242 244 246 248 250 252 254 256 258 260 262 264 266 268 270 272 274 276 278 280 282 284 286 288 290 292 294 296 298 300 302 304 306 308 310 312 314 316 318 320 322 324 326 328 330 332 334 336 338 340 342 344 346 348 350 352 354 356 358 360 362 364 366 368 370 372 374 376 378 380 382 384 386 388 390 392 394 396 398 400 402 404 406 408 410 412 414 416 418 420 422 424 426 428 430 432 434 436 438 440 442 444 446 448 450 452 454 456 458 460 462 464 466 468 470 472 474 476 478 480 482 484 486 488 490 492 494 496 498 500 502 504 506 508 510 512 514 516 518 520 522 524 526 528 530 532 534 536 538 540 542 544 546 548 550 552 554 556 558 560 562 564 566 568 570 572 574 576 578 580 582 584 586 588 590 592 594 596 598 600 602 604 606 608 610 612 614 616 618 620 622 624 626</DataArray>
      </Lines>
      <Polys>
        <DataArray type="Int32" Name="connectivity" format="ascii">0 1 2 3 4 5 6 7 8 9 10 11 12 13 14 15 16 17 18 19 20 21 22 23 24 25 26 27 28 29 30 31 32 33 34 35 36 37 38 39 40 41 42 43 44 45 46 47</DataArray>
        <DataArray type="Int32" Name="offsets" format="ascii">3 6 9 12 15 18 21 24 27 30 33 36 39 42 45 48</DataArray>
      </Polys>
    </Piece>
  </PolyData>
</VTKFile>
