<?xml version="1.0"?>
<VTKFile type="PolyData" version="0.1" byte_order="LittleEndian">
  <PolyData>
    <Piece NumberOfPoints="674" NumberOfVerts="0" NumberOfLines="313" NumberOfStrips="0" NumberOfPolys="16">
      <FieldData>
        <DataArray type="Int32" Name="step" NumberOfTuples="1" format="ascii">5000</DataArray>
        <DataArray type="Float64" Name="time" NumberOfTuples="1" format="ascii">2.5</DataArray>
        <DataArray type="Int32" Name="candidate_pairs" NumberOfTuples="1" format="ascii">64</DataArray>
        <DataArray type="Int32" Name="contacts" NumberOfTuples="1" format="ascii">56</DataArray>
      </FieldData>
      <CellData Scalars="part_id">
        <DataArray type="Int32" Name="part_id" format="ascii">5 5 5 5 5 5 5 5 5 5 5 5 5 5 5 5 5 5 5 5 5 5 5 5 5 5 5 5 5 5 5 5 5 5 5 5 5 5 5 5 5 5 5 5 5 5 5 5 5 5 5 5 5 5 5 5 5 5 5 5 5 5 5 5 5 5 5 5 5 5 5 5 5 5 5 5 5 5 5 5 5 5 5 5 5 5 5 5 5 5 5 5 5 5 5 5 6 6 6 6 6 6 6 6 6 6 6 6 6 6 6 6 6 6 6 6 6 6 6 6 6 6 6 6 6 6 6 6 6 6 6 6 6 6 6 6 6 6 6 6 6 6 6 6 6 6 6 6 6 6 6 6 6 6 6 6 6 6 6 6 6 6 6 6 6 6 6 6 6 6 6 6 6 6 6 6 6 6 6 6 6 6 6 6 6 6 6 6 6 6 6 6 7 8 7 8 7 8 7 8 7 8 7 7 8 7 8 7 8 7 8 7 8 7 8 7 8 7 7 8 7 8 7 8 7 8 7 8 7 8 7 8 7 8 7 8 7 8 7 8 7 8 7 8 7 8 7 8 7 8 7 7 7 7 7 8 7 8 7 8 7 8 7 8 7 8 7 8 7 8 7 8 7 8 7 8 7 8 7 8 7 8 7 8 7 8 7 7 8 7 8 7 8 7 8 7 8 7 8 7 8 7 7 8 7 8 7 8 7 8 7 8 9 3 3 3 3 3 3 3 3 4 4 4 4 4 4 4 4</DataArray>
        <DataArray type="Int32" Name="candidate_pair" format="ascii">-1 -1 -1 -1 -1 -1 -1 -1 -1 -1 -1 -1 -1 -1 -1 -1 -1 -1 -1 -1 -1 -1 -1 -1 -1 -1 -1 -1 -1 -1 -1 -1 -1 -1 -1 -1 -1 -1 -1 -1 -1 -1 -1 -1 -1 -1 -1 -1 -1 -1 -1 -1 -1 -1 -1 -1 -1 -1 -1 -1 -1 -1 -1 -1 -1 -1 -1 -1 -1 -1 -1 -1 -1 -1 -1 -1 -1 -1 -1 -1 -1 -1 -1 -1 -1 -1 -1 -1 -1 -1 -1 -1 -1 -1 -1 -1 -1 -1 -1 -1 -1 -1 -1 -1 -1 -1 -1 -1 -1 -1 -1 -1 -1 -1 -1 -1 -1 -1 -1 -1 -1 -1 -1 -1 -1 -1 -1 -1 -1 -1 -1 -1 -1 -1 -1 -1 -1 -1 -1 -1 -1 -1 -1 -1 -1 -1 -1 -1 -1 -1 -1 -1 -1 -1 -1 -1 -1 -1 -1 -1 -1 -1 -1 -1 -1 -1 -1 -1 -1 -1 -1 -1 -1 -1 -1 -1 -1 -1 -1 -1 -1 -1 -1 -1 -1 -1 -1 -1 -1 -1 -1 -1 0 0 1 1 2 2 3 3 4 4 5 6 6 7 7 8 8 9 9 10 10 11 11 12 12 13 14 14 15 15 16 16 17 17 18 18 19 19 20 20 21 21 22 22 23 23 24 24 25 25 26 26 27 27 28 28 29 29 30 31 32 33 34 34 35 35 36 36 37 37 38 38 39 39 40 40 41 41 42 42 43 43 44 44 45 45 46 46 47 47 48 48 49 49 50 51 51 52 52 53 53 54 54 55 55 56 56 57 57 58 59 59 60 60 61 61 62 62 63 63 0 -1 -1 -1 -1 -1 -1 -1 -1 -1 -1 -1 -1 -1 -1 -1 -1</DataArray>
      </CellData>
      <Points>
        <DataArray type="Float64" NumberOfComponents="3" format="ascii">0.83551362730658918 0.17179491191167148 0.065649432942590819 0.82029230407001297 0.23391675668336037 0.065649432942590819 0.80683604767018413 0.23007953446570681 1.9716813466272386e-17 0.83551362730658918 0.17179491191167148 0.065649432942590819 0.80683604767018413 0.23007953446570681 1.9716813466272386e-17 0.82180767695351975 0.16897675017664179 1.9716813466272386e-17 0.82180767695351975 0.16897675017664179 1.9716813466272386e-17 0.80683604767018413 0.23007953446570681 1.9716813466272386e-17 0.82029230407001297 0.23391675668336037 -0.065649432942590763 0.82180767695351975 0.16897675017664179 1.9716813466272386e-17 0.82029230407001297 0.23391675668336037 -0.065649432942590763 0.83551362730658918 0.17179491191167148 -0.065649432942590763 0.82029230407001297 0.23391675668336037 0.065649432942590819 0.80045899909764218 0.29472343635577031 0.065649432942590819 0.78732809261959125 0.28988872791468834 1.9716813466272386e-17 0.82029230407001297 0.23391675668336037 0.065649432942590819 0.78732809261959125 0.28988872791468834 1.9716813466272386e-17 0.80683604767018413 0.23007953446570681 1.9716813466272386e-17 0.80683604767018413 0.23007953446570681 1.9716813466272386e-17 0.78732809261959125 0.28988872791468834 1.9716813466272386e-17 0.80045899909764218 0.29472343635577031 -0.065649432942590763 0.80683604767018413 0.23007953446570681 1.9716813466272386e-17 0.80045899909764218 0.29472343635577031 -0.065649432942590763 0.82029230407001297 0.23391675668336037 -0.065649432942590763 0.83904579729874695 0.18405713479809588 -0.053093639627504095 0.8317997152699359 0.17872835956702643 -4.1138618641362098e-21 0.80664298946290935 0.230027602615897 -4.1138618641362098e-21 0.83904579729874695 0.18405713479809588 -0.053093639627504095 0.80664298946290935 0.230027602615897 -4.1138618641362098e-21 0.81638040517812105 0.23280415418515366 -0.056231189630750508 0.8317997152699359 0.17872835956702643 -4.1138618641362098e-21 0.83904579729874695 0.18405713479809588 0.053093639627504095 0.81638040517812105 0.23280415418515366 0.056231189630750508 0.8317997152699359 0.17872835956702643 -4.1138618641362098e-21 0.81638040517812105 0.23280415418515366 0.056231189630750508 0.80664298946290935 0.230027602615897 -4.1138618641362098e-21 0.81638040517812105 0.23280415418515366 -0.056231189630750508 0.80664298946290935 0.230027602615897 -4.1138618641362098e-21 0.80096109508630609 0.28687994880328088 -4.1138618641362098e-21 0.81638040517812105 0.23280415418515366 -0.056231189630750508 0.80096109508630609 0.28687994880328088 -4.1138618641362098e-21 0.80992788965014684 0.28617415458299111 -0.053093639627504116 0.80664298946290935 0.230027602615897 -4.1138618641362098e-21 0.81638040517812105 0.23280415418515366 0.056231189630750508 0.80992788965014684 0.28617415458299111 0.053093639627504116 0.80664298946290935 0.230027602615897 -4.1138618641362098e-21 0.80992788965014684 0.28617415458299111 0.053093639627504116 0.80096109508630609 0.28687994880328088 -4.1138618641362098e-21 0.78682941303106291 0.15178827727255029 -0.020006634639121185 0.8555202619457104 0.15178827727255029 -0.020006634639121185 0.8555202619457104 0.15178827727255029 -0.020006634639121185 0.8555202619457104 0.2539233913224816 -0.020006634639121185 0.8555202619457104 0.2539233913224816 -0.020006634639121185 0.78682941303106291 0.2539233913224816 -0.020006634639121185 0.78682941303106291 0.2539233913224816 -0.020006634639121185 0.78682941303106291 0.15178827727255029 -0.020006634639121185 0.78682941303106291 0.15178827727255029 0.085656067581712028 0.8555202619457104 0.15178827727255029 0.085656067581712028 0.8555202619457104 0.15178827727255029 0.085656067581712028 0.8555202619457104 0.2539233913224816 0.085656067581712028 0.8555202619457104 0.2539233913224816 0.085656067581712028 0.78682941303106291 0.2539233913224816 0.085656067581712028 0.78682941303106291 0.2539233913224816 0.085656067581712028 0.78682941303106291 0.15178827727255029 0.085656067581712028 0.78682941303106291 0.15178827727255029 -0.020006634639121185 0.78682941303106291 0.15178827727255029 0.085656067581712028 0.8555202619457104 0.15178827727255029 -0.020006634639121185 0.8555202619457104 0.15178827727255029 0.085656067581712028 0.8555202619457104 0.2539233913224816 -0.020006634639121185 0.8555202619457104 0.2539233913224816 0.085656067581712028 0.78682941303106291 0.2539233913224816 -0.020006634639121185 0.78682941303106291 0.2539233913224816 0.085656067581712028 0.78682941303106291 0.1489701155375206 -0.020006634639121185 0.8555202619457104 0.1489701155375206 -0.020006634639121185 0.8555202619457104 0.1489701155375206 -0.020006634639121185 0.8555202619457104 0.250086169104828 -0.020006634639121185 0.8555202619457104 0.250086169104828 -0.020006634639121185 0.78682941303106291 0.250086169104828 -0.020006634639121185 0.78682941303106291 0.250086169104828 -0.020006634639121185 0.78682941303106291 0.1489701155375206 -0.020006634639121185 0.78682941303106291 0.1489701155375206 0.085656067581712028 0.8555202619457104 0.1489701155375206 0.085656067581712028 0.8555202619457104 0.1489701155375206 0.085656067581712028 0.8555202619457104 0.250086169104828 0.085656067581712028 0.8555202619457104 0.250086169104828 0.085656067581712028 0.78682941303106291 0.250086169104828 0.085656067581712028 0.78682941303106291 0.250086169104828 0.085656067581712028 0.78682941303106291 0.1489701155375206 0.085656067581712028 0.78682941303106291 0.1489701155375206 -0.020006634639121185 0.78682941303106291 0.1489701155375206 0.085656067581712028 0.8555202619457104 0.1489701155375206 -0.020006634639121185 0.8555202619457104 0.1489701155375206 0.085656067581712028 0.8555202619457104 0.250086169104828 -0.020006634639121185 0.8555202619457104 0.250086169104828 0.085656067581712028 0.78682941303106291 0.250086169104828 -0.020006634639121185 0.78682941303106291 0.250086169104828 0.085656067581712028 0.78682941303106291 0.1489701155375206 -0.085656067581711959 0.84181431159264097 0.1489701155375206 -0.085656067581711959 0.84181431159264097 0.1489701155375206 -0.085656067581711959 0.84181431159264097 0.2539233913224816 -0.085656067581711959 0.84181431159264097 0.2539233913224816 -0.085656067581711959 0.78682941303106291 0.2539233913224816 -0.085656067581711959 0.78682941303106291 0.2539233913224816 -0.085656067581711959 0.78682941303106291 0.1489701155375206 -0.085656067581711959 0.78682941303106291 0.1489701155375206 0.020006634639121224 0.84181431159264097 0.1489701155375206 0.020006634639121224 0.84181431159264097 0.1489701155375206 0.020006634639121224 0.84181431159264097 0.2539233913224816 0.020006634639121224 0.84181431159264097 0.2539233913224816 0.020006634639121224 0.78682941303106291 0.2539233913224816 0.020006634639121224 0.78682941303106291 0.2539233913224816 0.020006634639121224 0.78682941303106291 0.1489701155375206 0.020006634639121224 0.78682941303106291 0.1489701155375206 -0.085656067581711959 0.78682941303106291 0.1489701155375206 0.020006634639121224 0.84181431159264097 0.1489701155375206 -0.085656067581711959 0.84181431159264097 0.1489701155375206 0.020006634639121224 0.84181431159264097 0.2539233913224816 -0.085656067581711959 0.84181431159264097 0.2539233913224816 0.020006634639121224 0.78682941303106291 0.2539233913224816 -0.085656067581711959 0.78682941303106291 0.2539233913224816 0.020006634639121224 0.80028566943089174 0.1489701155375206 -0.085656067581711959 0.8555202619457104 0.1489701155375206 -0.085656067581711959 0.8555202619457104 0.1489701155375206 -0.085656067581711959 0.8555202619457104 0.2539233913224816 -0.085656067581711959 0.8555202619457104 0.2539233913224816 -0.085656067581711959 0.80028566943089174 0.2539233913224816 -0.085656067581711959 0.80028566943089174 0.2539233913224816 -0.085656067581711959 0.80028566943089174 0.1489701155375206 -0.085656067581711959 0.80028566943089174 0.1489701155375206 0.020006634639121224 0.8555202619457104 0.1489701155375206 0.020006634639121224 0.8555202619457104 0.1489701155375206 0.020006634639121224 0.8555202619457104 0.2539233913224816 0.020006634639121224 0.8555202619457104 0.2539233913224816 0.020006634639121224 0.80028566943089174 0.2539233913224816 0.020006634639121224 0.80028566943089174 0.2539233913224816 0.020006634639121224 0.80028566943089174 0.1489701155375206 0.020006634639121224 0.80028566943089174 0.1489701155375206 -0.085656067581711959 0.80028566943089174 0.1489701155375206 0.020006634639121224 0.8555202619457104 0.1489701155375206 -0.085656067581711959 0.8555202619457104 0.1489701155375206 0.020006634639121224 0.8555202619457104 0.2539233913224816 -0.085656067581711959 0.8555202619457104 0.2539233913224816 0.020006634639121224 0.80028566943089174 0.2539233913224816 -0.085656067581711959 0.80028566943089174 0.2539233913224816 0.020006634639121224 0.76732145798047002 0.21391012204423918 -0.020006634639121182 0.84029893870913419 0.21391012204423918 -0.020006634639121182 0.84029893870913419 0.21391012204423918 -0.020006634639121182 0.84029893870913419 0.31473007099489153 -0.020006634639121182 0.84029893870913419 0.31473007099489153 -0.020006634639121182 0.76732145798047002 0.31473007099489153 -0.020006634639121182 0.76732145798047002 0.31473007099489153 -0.020006634639121182 0.76732145798047002 0.21391012204423918 -0.020006634639121182 0.76732145798047002 0.21391012204423918 0.085656067581712014 0.84029893870913419 0.21391012204423918 0.085656067581712014 0.84029893870913419 0.21391012204423918 0.085656067581712014 0.84029893870913419 0.31473007099489153 0.085656067581712014 0.84029893870913419 0.31473007099489153 0.085656067581712014 0.76732145798047002 0.31473007099489153 0.085656067581712014 0.76732145798047002 0.31473007099489153 0.085656067581712014 0.76732145798047002 0.21391012204423918 0.085656067581712014 0.76732145798047002 0.21391012204423918 -0.020006634639121182 0.76732145798047002 0.21391012204423918 0.085656067581712014 0.84029893870913419 0.21391012204423918 -0.020006634639121182 0.84029893870913419 0.21391012204423918 0.085656067581712014 0.84029893870913419 0.31473007099489153 -0.020006634639121182 0.84029893870913419 0.31473007099489153 0.085656067581712014 0.76732145798047002 0.31473007099489153 -0.020006634639121182 0.76732145798047002 0.31473007099489153 0.085656067581712014 0.76732145798047002 0.21007289982658561 -0.020006634639121189 0.84029893870913419 0.21007289982658561 -0.020006634639121189 0.84029893870913419 0.21007289982658561 -0.020006634639121189 0.84029893870913419 0.30989536255380956 -0.020006634639121189 0.84029893870913419 0.30989536255380956 -0.020006634639121189 0.76732145798047002 0.30989536255380956 -0.020006634639121189 0.76732145798047002 0.30989536255380956 -0.020006634639121189 0.76732145798047002 0.21007289982658561 -0.020006634639121189 0.76732145798047002 0.21007289982658561 0.085656067581712028 0.84029893870913419 0.21007289982658561 0.085656067581712028 0.84029893870913419 0.21007289982658561 0.085656067581712028 0.84029893870913419 0.30989536255380956 0.085656067581712028 0.84029893870913419 0.30989536255380956 0.085656067581712028 0.76732145798047002 0.30989536255380956 0.085656067581712028 0.76732145798047002 0.30989536255380956 0.085656067581712028 0.76732145798047002 0.21007289982658561 0.085656067581712028 0.76732145798047002 0.21007289982658561 -0.020006634639121189 0.76732145798047002 0.21007289982658561 0.085656067581712028 0.84029893870913419 0.21007289982658561 -0.020006634639121189 0.84029893870913419 0.21007289982658561 0.085656067581712028 0.84029893870913419 0.30989536255380956 -0.020006634639121189 0.84029893870913419 0.30989536255380956 0.085656067581712028 0.76732145798047002 0.30989536255380956 -0.020006634639121189 0.76732145798047002 0.30989536255380956 0.085656067581712028 0.76732145798047002 0.21007289982658561 -0.085656067581711959 0.82684268230930535 0.21007289982658561 -0.085656067581711959 0.82684268230930535 0.21007289982658561 -0.085656067581711959 0.82684268230930535 0.31473007099489148 -0.085656067581711959 0.82684268230930535 0.31473007099489148 -0.085656067581711959 0.76732145798047002 0.31473007099489148 -0.085656067581711959 0.76732145798047002 0.31473007099489148 -0.085656067581711959 0.76732145798047002 0.21007289982658561 -0.085656067581711959 0.76732145798047002 0.21007289982658561 0.02000663463912121 0.82684268230930535 0.21007289982658561 0.02000663463912121 0.82684268230930535 0.21007289982658561 0.02000663463912121 0.82684268230930535 0.31473007099489148 0.02000663463912121 0.82684268230930535 0.31473007099489148 0.02000663463912121 0.76732145798047002 0.31473007099489148 0.02000663463912121 0.76732145798047002 0.31473007099489148 0.02000663463912121 0.76732145798047002 0.21007289982658561 0.02000663463912121 0.76732145798047002 0.21007289982658561 -0.085656067581711959 0.76732145798047002 0.21007289982658561 0.02000663463912121 0.82684268230930535 0.21007289982658561 -0.085656067581711959 0.82684268230930535 0.21007289982658561 0.02000663463912121 0.82684268230930535 0.31473007099489148 -0.085656067581711959 0.82684268230930535 0.31473007099489148 0.02000663463912121 0.76732145798047002 0.31473007099489148 -0.085656067581711959 0.76732145798047002 0.31473007099489148 0.02000663463912121 0.78045236445852095 0.21007289982658561 -0.085656067581711959 0.84029893870913419 0.21007289982658561 -0.085656067581711959 0.84029893870913419 0.21007289982658561 -0.085656067581711959 0.84029893870913419 0.31473007099489148 -0.085656067581711959 0.84029893870913419 0.31473007099489148 -0.085656067581711959 0.78045236445852095 0.31473007099489148 -0.085656067581711959 0.78045236445852095 0.31473007099489148 -0.085656067581711959 0.78045236445852095 0.21007289982658561 -0.085656067581711959 0.78045236445852095 0.21007289982658561 0.020006634639121217 0.84029893870913419 0.21007289982658561 0.020006634639121217 0.84029893870913419 0.21007289982658561 0.020006634639121217 0.84029893870913419 0.31473007099489148 0.020006634639121217 0.84029893870913419 0.31473007099489148 0.020006634639121217 0.78045236445852095 0.31473007099489148 0.020006634639121217 0.78045236445852095 0.31473007099489148 0.020006634639121217 0.78045236445852095 0.21007289982658561 0.020006634639121217 0.78045236445852095 0.21007289982658561 -0.085656067581711959 0.78045236445852095 0.21007289982658561 0.020006634639121217 0.84029893870913419 0.21007289982658561 -0.085656067581711959 0.84029893870913419 0.21007289982658561 0.020006634639121217 0.84029893870913419 0.31473007099489148 -0.085656067581711959 0.84029893870913419 0.31473007099489148 0.020006634639121217 0.78045236445852095 0.31473007099489148 -0.085656067581711959 0.78045236445852095 0.31473007099489148 0.020006634639121217 0.78961629734405259 0.16170166744816972 -0.070120331746360814 0.85607248941760372 0.16170166744816972 -0.070120331746360814 0.85607248941760372 0.16170166744816972 -0.070120331746360814 0.85607248941760372 0.24705429473475371 -0.070120331746360814 0.85607248941760372 0.24705429473475371 -0.070120331746360814 0.78961629734405259 0.24705429473475371 -0.070120331746360814 0.78961629734405259 0.24705429473475371 -0.070120331746360814 0.78961629734405259 0.16170166744816972 -0.070120331746360814 0.78961629734405259 0.16170166744816972 0.017026692118856719 0.85607248941760372 0.16170166744816972 0.017026692118856719 0.85607248941760372 0.16170166744816972 0.017026692118856719 0.85607248941760372 0.24705429473475371 0.017026692118856719 0.85607248941760372 0.24705429473475371 0.017026692118856719 0.78961629734405259 0.24705429473475371 0.017026692118856719 0.78961629734405259 0.24705429473475371 0.017026692118856719 0.78961629734405259 0.16170166744816972 0.017026692118856719 0.78961629734405259 0.16170166744816972 -0.070120331746360814 0.78961629734405259 0.16170166744816972 0.017026692118856719 0.85607248941760372 0.16170166744816972 -0.070120331746360814 0.85607248941760372 0.16170166744816972 0.017026692118856719 0.85607248941760372 0.24705429473475371 -0.070120331746360814 0.85607248941760372 0.24705429473475371 0.017026692118856719 0.78961629734405259 0.24705429473475371 -0.070120331746360814 0.78961629734405259 0.24705429473475371 0.017026692118856719 0.78961629734405259 0.16703044267923917 -0.073257881749607234 0.85607248941760372 0.16703044267923917 -0.073257881749607234 0.85607248941760372 0.16703044267923917 -0.073257881749607234 0.85607248941760372 0.24983084630401037 -0.073257881749607234 0.85607248941760372 0.24983084630401037 -0.073257881749607234 0.78961629734405259 0.24983084630401037 -0.073257881749607234 0.78961629734405259 0.24983084630401037 -0.073257881749607234 0.78961629734405259 0.16703044267923917 -0.073257881749607234 0.78961629734405259 0.16703044267923917 0.017026692118856719 0.85607248941760372 0.16703044267923917 0.017026692118856719 0.85607248941760372 0.16703044267923917 0.017026692118856719 0.85607248941760372 0.24983084630401037 0.017026692118856719 0.85607248941760372 0.24983084630401037 0.017026692118856719 0.78961629734405259 0.24983084630401037 0.017026692118856719 0.78961629734405259 0.24983084630401037 0.017026692118856719 0.78961629734405259 0.16703044267923917 0.017026692118856719 0.78961629734405259 0.16703044267923917 -0.073257881749607234 0.78961629734405259 0.16703044267923917 0.017026692118856719 0.85607248941760372 0.16703044267923917 -0.073257881749607234 0.85607248941760372 0.16703044267923917 0.017026692118856719 0.85607248941760372 0.24983084630401037 -0.073257881749607234 0.85607248941760372 0.24983084630401037 0.017026692118856719 0.78961629734405259 0.24983084630401037 -0.073257881749607234 0.78961629734405259 0.24983084630401037 0.017026692118856719 0.79894805359104526 0.16129600797995064 -0.017432351587075783 0.85647814888582274 0.16129600797995064 -0.017432351587075783 0.85647814888582274 0.16129600797995064 -0.017432351587075783 0.85647814888582274 0.25023650577222945 -0.017432351587075783 0.85647814888582274 0.25023650577222945 -0.017432351587075783 0.79894805359104526 0.25023650577222945 -0.017432351587075783 0.79894805359104526 0.25023650577222945 -0.017432351587075783 0.79894805359104526 0.16129600797995064 -0.017432351587075783 0.79894805359104526 0.16129600797995064 0.073663541217826284 0.85647814888582274 0.16129600797995064 0.073663541217826284 0.85647814888582274 0.16129600797995064 0.073663541217826284 0.85647814888582274 0.25023650577222945 0.073663541217826284 0.85647814888582274 0.25023650577222945 0.073663541217826284 0.79894805359104526 0.25023650577222945 0.073663541217826284 0.79894805359104526 0.25023650577222945 0.073663541217826284 0.79894805359104526 0.16129600797995064 0.073663541217826284 0.79894805359104526 0.16129600797995064 -0.017432351587075783 0.79894805359104526 0.16129600797995064 0.073663541217826284 0.85647814888582274 0.16129600797995064 -0.017432351587075783 0.85647814888582274 0.16129600797995064 0.073663541217826284 0.85647814888582274 0.25023650577222945 -0.017432351587075783 0.85647814888582274 0.25023650577222945 0.073663541217826284 0.79894805359104526 0.25023650577222945 -0.017432351587075783 0.79894805359104526 0.25023650577222945 0.073663541217826284 0.78921063787583356 0.16129600797995064 -0.017432351587075783 0.84923206685701169 0.16129600797995064 -0.017432351587075783 0.84923206685701169 0.16129600797995064 -0.017432351587075783 0.84923206685701169 0.25023650577222945 -0.017432351587075783 0.84923206685701169 0.25023650577222945 -0.017432351587075783 0.78921063787583356 0.25023650577222945 -0.017432351587075783 0.78921063787583356 0.25023650577222945 -0.017432351587075783 0.78921063787583356 0.16129600797995064 -0.017432351587075783 0.78921063787583356 0.16129600797995064 0.073663541217826284 0.84923206685701169 0.16129600797995064 0.073663541217826284 0.84923206685701169 0.16129600797995064 0.073663541217826284 0.84923206685701169 0.25023650577222945 0.073663541217826284 0.84923206685701169 0.25023650577222945 0.073663541217826284 0.78921063787583356 0.25023650577222945 0.073663541217826284 0.78921063787583356 0.25023650577222945 0.073663541217826284 0.78921063787583356 0.16129600797995064 0.073663541217826284 0.78921063787583356 0.16129600797995064 -0.017432351587075783 0.78921063787583356 0.16129600797995064 0.073663541217826284 0.84923206685701169 0.16129600797995064 -0.017432351587075783 0.84923206685701169 0.16129600797995064 0.073663541217826284 0.84923206685701169 0.25023650577222945 -0.017432351587075783 0.84923206685701169 0.25023650577222945 0.073663541217826284 0.78921063787583356 0.25023650577222945 -0.017432351587075783 0.78921063787583356 0.25023650577222945 0.073663541217826284 0.7835287434992303 0.21259525102882121 -0.073663541217826284 0.83381275676519684 0.21259525102882121 -0.073663541217826284 0.83381275676519684 0.21259525102882121 -0.073663541217826284 0.83381275676519684 0.30431230039035667 -0.073663541217826284 0.83381275676519684 0.30431230039035667 -0.073663541217826284 0.7835287434992303 0.30431230039035667 -0.073663541217826284 0.7835287434992303 0.30431230039035667 -0.073663541217826284 0.7835287434992303 0.21259525102882121 -0.073663541217826284 0.7835287434992303 0.21259525102882121 0.017432351587075783 0.83381275676519684 0.21259525102882121 0.017432351587075783 0.83381275676519684 0.21259525102882121 0.017432351587075783 0.83381275676519684 0.30431230039035667 0.017432351587075783 0.83381275676519684 0.30431230039035667 0.017432351587075783 0.7835287434992303 0.30431230039035667 0.017432351587075783 0.7835287434992303 0.30431230039035667 0.017432351587075783 0.7835287434992303 0.21259525102882121 0.017432351587075783 0.7835287434992303 0.21259525102882121 -0.073663541217826284 0.7835287434992303 0.21259525102882121 0.017432351587075783 0.83381275676519684 0.21259525102882121 -0.073663541217826284 0.83381275676519684 0.21259525102882121 0.017432351587075783 0.83381275676519684 0.30431230039035667 -0.073663541217826284 0.83381275676519684 0.30431230039035667 0.017432351587075783 0.7835287434992303 0.30431230039035667 -0.073663541217826284 0.7835287434992303 0.30431230039035667 0.017432351587075783 0.7835287434992303 0.21537180259807787 -0.073663541217826284 0.83381275676519684 0.21537180259807787 -0.073663541217826284 0.83381275676519684 0.21537180259807787 -0.073663541217826284 0.83381275676519684 0.30431230039035667 -0.073663541217826284 0.83381275676519684 0.30431230039035667 -0.073663541217826284 0.7835287434992303 0.30431230039035667 -0.073663541217826284 0.7835287434992303 0.30431230039035667 -0.073663541217826284 0.7835287434992303 0.21537180259807787 -0.073663541217826284 0.7835287434992303 0.21537180259807787 0.017432351587075783 0.83381275676519684 0.21537180259807787 0.017432351587075783 0.83381275676519684 0.21537180259807787 0.017432351587075783 0.83381275676519684 0.30431230039035667 0.017432351587075783 0.83381275676519684 0.30431230039035667 0.017432351587075783 0.7835287434992303 0.30431230039035667 0.017432351587075783 0.7835287434992303 0.30431230039035667 0.017432351587075783 0.7835287434992303 0.21537180259807787 0.017432351587075783 0.7835287434992303 0.21537180259807787 -0.073663541217826284 0.7835287434992303 0.21537180259807787 0.017432351587075783 0.83381275676519684 0.21537180259807787 -0.073663541217826284 0.83381275676519684 0.21537180259807787 0.017432351587075783 0.83381275676519684 0.30431230039035667 -0.073663541217826284 0.83381275676519684 0.30431230039035667 0.017432351587075783 0.7835287434992303 0.30431230039035667 -0.073663541217826284 0.7835287434992303 0.30431230039035667 0.017432351587075783 0.78961629734405259 0.21300091049704029 -0.017026692118856726 0.83340709729697782 0.21300091049704029 -0.017026692118856726 0.83340709729697782 0.21300091049704029 -0.017026692118856726 0.83340709729697782 0.30320084670184783 -0.017026692118856726 0.83340709729697782 0.30320084670184783 -0.017026692118856726 0.78961629734405259 0.30320084670184783 -0.017026692118856726 0.78961629734405259 0.30320084670184783 -0.017026692118856726 0.78961629734405259 0.21300091049704029 -0.017026692118856726 0.78961629734405259 0.21300091049704029 0.073257881749607234 0.83340709729697782 0.21300091049704029 0.073257881749607234 0.83340709729697782 0.21300091049704029 0.073257881749607234 0.83340709729697782 0.30320084670184783 0.073257881749607234 0.83340709729697782 0.30320084670184783 0.073257881749607234 0.78961629734405259 0.30320084670184783 0.073257881749607234 0.78961629734405259 0.30320084670184783 0.073257881749607234 0.78961629734405259 0.21300091049704029 0.073257881749607234 0.78961629734405259 0.21300091049704029 -0.017026692118856726 0.78961629734405259 0.21300091049704029 0.073257881749607234 0.83340709729697782 0.21300091049704029 -0.017026692118856726 0.83340709729697782 0.21300091049704029 0.073257881749607234 0.83340709729697782 0.30320084670184783 -0.017026692118856726 0.83340709729697782 0.30320084670184783 0.073257881749607234 0.78961629734405259 0.30320084670184783 -0.017026692118856726 0.78961629734405259 0.30320084670184783 0.073257881749607234 0.78393440296744932 0.21300091049704029 -0.017026692118856726 0.8269545817690036 0.21300091049704029 -0.017026692118856726 0.8269545817690036 0.21300091049704029 -0.017026692118856726 0.8269545817690036 0.30390664092213759 -0.017026692118856726 0.8269545817690036 0.30390664092213759 -0.017026692118856726 0.78393440296744932 0.30390664092213759 -0.017026692118856726 0.78393440296744932 0.30390664092213759 -0.017026692118856726 0.78393440296744932 0.21300091049704029 -0.017026692118856726 0.78393440296744932 0.21300091049704029 0.070120331746360842 0.8269545817690036 0.21300091049704029 0.070120331746360842 0.8269545817690036 0.21300091049704029 0.070120331746360842 0.8269545817690036 0.30390664092213759 0.070120331746360842 0.8269545817690036 0.30390664092213759 0.070120331746360842 0.78393440296744932 0.30390664092213759 0.070120331746360842 0.78393440296744932 0.30390664092213759 0.070120331746360842 0.78393440296744932 0.21300091049704029 0.070120331746360842 0.78393440296744932 0.21300091049704029 -0.017026692118856726 0.78393440296744932 0.21300091049704029 0.070120331746360842 0.8269545817690036 0.21300091049704029 -0.017026692118856726 0.8269545817690036 0.21300091049704029 0.070120331746360842 0.8269545817690036 0.30390664092213759 -0.017026692118856726 0.8269545817690036 0.30390664092213759 0.070120331746360842 0.78393440296744932 0.30390664092213759 -0.017026692118856726 0.78393440296744932 0.30390664092213759 0.070120331746360842 0.80683604767018413 0.23007953446570681 1.9716813466272386e-17 0.80666465095685669 0.22999548293073002 -3.1827661351005778e-05 0.80681766090332152 0.23007502927236109 4.032090840748704e-06 0.80665368907688895 0.22999010731517922 -3.3863237159943537e-05 0.80683604767018413 0.23007953446570681 1.3877787807814457e-17 0.80666394237305983 0.22999787633147614 -3.4332403115004684e-05 0.80681766090332152 0.23007502927236109 4.032090840748704e-06 0.80665296832307298 0.22999263487018529 -3.6491562029655664e-05 0.81819633892222088 0.23331906563218233 0.055423786274492903 0.81649148618845091 0.23241459110711665 0.055826099045047033 0.81669065437885791 0.23272397514659729 0.05644764732764182 0.81642317794615105 0.23264794301905742 0.05622639057836553 0.80683604767018413 0.23007953446570681 1.9716813466272386e-17 0.80666525065365791 0.22999577701709661 3.3712223423661427e-05 0.80681766090332152 0.23007502927236109 4.032090840748704e-06 0.80664298946290935 0.230027602615897 1.9755092485907667e-18 0.80683604767018413 0.23007953446570681 1.9716813466272386e-17 0.80664573694296793 0.23006051457429874 -3.3894790201289403e-05 0.80681766090332152 0.23007502927236109 4.032090840748704e-06 0.80663394804089783 0.23005933637672432 -3.5994421515883512e-05 0.80683604767018413 0.23007953446570681 1.3877787807814457e-17 0.80867116114597248 0.25984061006165776 -0.028117093701672986 0.80683604767018413 0.23007953446570681 1.9716813466272386e-17 0.80664565129682908 0.23005851455632745 3.4008377076133132e-05 0.80681766090332152 0.23007502927236109 4.032090840748704e-06 0.80664298946290935 0.230027602615897 3.2332906295133149e-18 0.80683604767018413 0.23007953446570681 1.9716813466272386e-17 0.80664493880902488 0.23006092145566095 3.1507161335055262e-05 0.80681766090332152 0.23007502927236109 4.032090840748704e-06 0.80663116110290911 0.23006910529022903 1.2742062352540623e-06 0.80705426611647302 0.22918893302219354 1.9716813466272386e-17 0.80705426611647302 0.22918893302219354 -4.1138618641362098e-21 0.80707717631361964 0.2291646967776067 -3.5109975645507425e-06 0.80690606873606097 0.22911487458709603 -2.7621215468883365e-05 0.80685289781685909 0.23001076500461226 1.9716813466272386e-17 0.80668402353890112 0.22996938680696555 -6.7236409085090487e-05 0.80683772945302601 0.23000704839623207 3.3263173094845327e-06 0.80666254534115878 0.22995912832060919 -7.1462273026107867e-05 0.81947238449462867 0.20439730703869455 0.028927418475137356 0.82398564375767391 0.20613244727992239 0.028496381120676345 0.81666285276354322 0.20370890522481672 0.029543529357727839 0.81947975975383458 0.20398393356163355 0.029326969343656549 0.80705426611647302 0.22918893302219356 1.9716813466272386e-17 0.80705426611647302 0.22918893302219356 -4.1138618641362098e-21 0.8070623954186803 0.22922310602129872 0.00095461157797955469 0.80688421779895136 0.22919922553042651 0.00095417672032207883 0.80683604767018413 0.23007953446570681 1.9716813466272386e-17 0.80664573694296793 0.23006051457429874 -3.3894790201289403e-05 0.80681831848573859 0.23007519039562713 3.8878875634248289e-06 0.80663394804089783 0.23005933637672432 -3.5994421515883512e-05 0.80683604767018413 0.23007953446570681 1.3877787807814457e-17 0.80867116114597248 0.25984061006165782 -0.028117093701672983 0.80683604767018413 0.23007953446570681 1.9716813466272386e-17 0.80664565129682908 0.23005851455632745 3.4008377076133132e-05 0.80681831848573859 0.23007519039562713 3.8878875634248289e-06 0.80664285142905645 0.23002808992416748 1.7146217688558645e-05 0.80683604767018413 0.23007953446570681 1.9716813466272386e-17 0.80664493880902488 0.23006092145566095 3.1507161335055262e-05 0.80681831848573859 0.23007519039562713 3.8878875634248289e-06 0.80664298946290935 0.230027602615897 5.7370667345179866e-18 0.80705426611647302 0.22918893302219343 1.9716813466272386e-17 0.80705426611647302 0.22918893302219343 -4.1138618641362098e-21 0.80709325138963695 0.22917074405348045 -2.6544379871923378e-05 0.80689797432601729 0.22914266759304477 -2.6792638865637818e-05 0.82052329601001861 0.22401779501509086 -0.055642331693299983 0.820476481193678 0.22399462219565355 -0.055664173483511076 0.81766952725454367 0.22518874517269127 -0.053370619174651357 0.81766952725523223 0.22518874517339782 -0.05337061917455211 0.82062642552954534 0.17599063895715952 -0.0024502251842273789 0.8317997152699359 0.17872835956702643 -4.1138618641362098e-21 0.82034668111677322 0.17592209495068198 -0.0025115711997023985 0.8317997152699359 0.17872835956702643 -2.4467589143749238e-18 0.80705426611647302 0.2291889330221934 1.9716813466272386e-17 0.80705426611647313 0.22918893302219343 -4.1138618641362098e-21 0.80709470593320765 0.22916549614600065 7.1779237933924326e-06 0.80690722388446401 0.22911090973597184 2.9485005013392587e-05 0.80683604767018413 0.23007953446570681 1.9716813466272386e-17 0.80664573694296793 0.23006051457429874 -3.3894790201289403e-05 0.80683543745858111 0.23007938494941207 -1.3381518531976099e-07 0.80663394804089783 0.23005933637672432 -3.5994421515883512e-05 0.81819738401622633 0.23331936365399594 -0.055428885005282813 0.8162707849459333 0.23318859428827612 -0.055831426215473802 0.81663992384883088 0.23290289876466486 -0.056369627995061254 0.8163228612066703 0.23299829308650913 -0.056225185422583417 0.80683604767018413 0.23007953446570681 1.9716813466272386e-17 0.80664565129682908 0.23005851455632745 3.4008377076133132e-05 0.80683543136653846 0.23007942081443436 -4.8799247385393485e-06 0.80663449232561268 0.23005742279970015 3.1116183196744848e-05 0.80683604767018413 0.23007953446570681 1.9716813466272386e-17 0.80664493880902488 0.23006092145566095 3.1507161335052341e-05 0.80683543365255039 0.23007940726271195 -3.087088771450741e-06 0.80663378688874054 0.23005989803782906 3.0332690663879363e-05 0.82105201135853201 0.20136015177338021 -0.032737168749099467 0.82572494912003758 0.20295567055486122 -0.031266756095797744 0.81820526074006139 0.20066263045061664 -0.033361441476349792 0.82162681403431126 0.20094597889969282 -0.032027762845267954 0.82052329601001861 0.22401779501509089 -0.055642331693299983 0.820476481193678 0.22399462219565358 -0.055664173483511076 0.81908150749472419 0.2238346962829186 -0.056128694693726368 0.81912333487183564 0.22380968484391556 -0.055920169457223425 0.82169785681421437 0.17368299814945418 -0.0047576606058760433 0.8317997152699359 0.17872835956702643 -4.1138618641362098e-21 0.82091675115298091 0.17349160876307568 -0.0049289516765602948 0.8317997152699359 0.17872835956702643 -2.4467589143749238e-18 0.82169785681421437 0.17368299814945418 -0.0047576606058760398 0.8317997152699359 0.17872835956702643 -4.1138618641362098e-21 0.82090448488891865 0.17356011783837152 -0.0050031625495089707 0.83175766488422709 0.1787855653515675 2.2271796541542313e-06 0.82041393877475544 0.22870420563180921 -0.060379938233143277 0.81638040517812105 0.23280415418515366 -0.056231189630750508 0.81958839469639644 0.2285019277807743 -0.060560974341441184 0.81638040517812105 0.23280415418515366 -0.056231189630750508 0.82041393877475544 0.22870420563180921 -0.060379938233143277 0.81638040517812105 0.23280415418515366 -0.056231189630750508 0.81958839469639644 0.2285019277807743 -0.060560974341441184 0.81638040517812105 0.23280415418515366 -0.056231189630750508 0.82109921306746692 0.19933736298078242 -0.030692282332543074 0.80664298946290935 0.230027602615897 -4.1138618641362098e-21 0.82109921306746692 0.19933736298078242 -0.030692282332543074 0.80664298946290935 0.230027602615897 -4.1138618641362098e-21 0.80273799166659132 0.26372330826151102 0.030689377650050947 0.80664298946290935 0.230027602615897 -4.1138618641362098e-21 0.80273799166659132 0.26372330826151102 0.030689377650050947 0.80664298946290935 0.230027602615897 -4.1138618641362098e-21 0.81764499294807125 0.23841178979466518 0.060377216003942726 0.81638040517812105 0.23280415418515366 0.056231189630750508 0.81683653684079516 0.23814809579560517 0.060558339352712036 0.81638040517812105 0.23280415418515368 0.056231189630750529 0.81764499294807125 0.23841178979466518 0.060377216003942726 0.81638040517812105 0.23280415418515366 0.056231189630750508 0.81683653684079516 0.23814809579560517 0.060558339352712036 0.81638040517812105 0.23280415418515366 0.056231189630750522 0.78971579765278976 0.2858344960205601 0.0047552019164605486 0.80096109508630609 0.28687994880328088 -4.1138618641362098e-21 0.78900302866229854 0.28545590632091672 0.0050748124553693496 0.80095001150902356 0.28673836467745922 -4.4497314546374184e-06 0.78971579765278976 0.2858344960205601 0.0047552019164605486 0.80096109508630609 0.28687994880328088 -4.1138618641362098e-21 0.78895158415612476 0.28558523262671898 0.0049264133235424161 0.80096109508630609 0.28687994880328088 7.7417443829727744e-18 0.81526753672564256 0.24244861959979047 0.055642424969034654 0.81521498563940775 0.24244356395877126 0.05566450179224465 0.81394602163435481 0.2418437548701117 0.056128758797178796 0.81396841710140178 0.24188710129883129 0.055920386983857116 0.80376485105226081 0.26197974026869686 0.032734405679384231 0.80857727082895769 0.26308895092101836 0.031263670715527908 0.8009783680105852 0.26107087354116582 0.033358678457157766 0.8040353220414288 0.26263502289508217 0.032024709932345741 0.80683604767018413 0.23007953446570681 1.9716813466272386e-17 0.80666465095685669 0.22999548293073002 -3.1827661351005778e-05 0.80683545885319452 0.23007931882712515 3.0666441075596791e-06 0.80665371442261946 0.229990016432226 -3.0843771454444532e-05 0.80683604767018413 0.23007953446570681 1.9716813466272386e-17 0.80666394237305983 0.22999787633147614 -3.4332403115001926e-05 0.80683545037720905 0.23007933964675281 1.3381518534784617e-07 0.80665296832307298 0.22999263487018529 -3.6491562029655664e-05 0.81819633892222088 0.23331906563218233 0.055423786274492924 0.81649148618845091 0.23241459110711665 0.055826099045047047 0.81665254794676079 0.23285100454246008 0.056364060758290063 0.81643543266354623 0.23260329769051161 0.056225013686367599 0.80683604767018413 0.23007953446570681 1.9716813466272386e-17 0.80666525065365791 0.22999577701709661 3.3712223423661427e-05 0.80683545037720905 0.23007933964675281 1.3381518534784617e-07 0.80665368944771632 0.22999010749702997 3.5994195121265372e-05 0.80655021894769086 0.23095585314249997 1.9716813466272386e-17 0.80655021894769086 0.23095585314249997 -4.1138618641362098e-21 0.80657236356854489 0.23099719679783445 -7.2147763605303194e-06 0.80638424545680965 0.23094498678423883 -2.9459441257452934e-05 0.7900222572158796 0.28331202980661302 0.0024506945137837159 0.80096109508630609 0.28687994880328088 -4.1138618641362098e-21 0.78974819393065177 0.28322263862875335 0.002512094581825029 0.80096109508630609 0.28687994880328088 7.7417443829727744e-18 0.81526753672564267 0.24244861959979047 0.055642424969034668 0.81521498563940775 0.24244356395877123 0.05566450179224465 0.81345983265255728 0.23994834169641188 0.053368416754620972 0.81345983265351574 0.23994834169617457 0.0533684167545216 0.80655021894769074 0.23095585314250011 1.9716813466272386e-17 0.80655021894769086 0.23095585314250014 -4.1138618641362098e-21 0.80657391572698822 0.23099190156641239 2.6528669478662527e-05 0.80639323317155065 0.23091277953635234 2.675824063494841e-05 0.80683604767018413 0.23007953446570681 1.9716813466272386e-17 0.80666465095685669 0.22999548293073002 -3.1827661351005778e-05 0.80681869382560023 0.23007387416499758 -3.8878875634127833e-06 0.80664298946290935 0.23002760261589703 1.8943050255113622e-17 0.80683604767018413 0.23007953446570681 1.3877787807814457e-17 0.80666394237305983 0.22999787633147614 -3.4332403115004684e-05 0.80681869382560023 0.23007387416499758 -3.8878875634127833e-06 0.80664315091498129 0.23002704069319888 -1.9793637493965516e-05 0.80683604767018413 0.23007953446570681 1.9716813466272386e-17 0.82409047123778734 0.20576481544353056 0.028114095929077512 0.80683604767018413 0.23007953446570681 1.9716813466272386e-17 0.80666525065365791 0.22999577701709661 3.3712223423661427e-05 0.80681869382560023 0.23007387416499758 -3.8878875634127833e-06 0.80665368944771632 0.22999010749702997 3.5994195121265372e-05 0.80655021894769086 0.23095585314249997 1.9716813466272386e-17 0.80655021894769086 0.23095585314249997 -4.1138618641362098e-21 0.80657551386532489 0.23093054485400802 -0.00095906343558528227 0.80641156656596591 0.23085687917651918 -0.00095861584241494304 0.80402581714816124 0.25856673572936273 -0.028930317545821475 0.80877597304355697 0.25947303287347173 -0.028499322066855414 0.80127570838706086 0.25766973319510267 -0.029546441171838276 0.80381458736462119 0.25892202269460046 -0.029329907926947507 0.80681225385759503 0.23015248361575055 1.9716813466272386e-17 0.80664714498313173 0.23009863008060411 6.7165417691639195e-05 0.80679761622155077 0.23014770926034578 -3.2793588106249085e-06 0.80662351137311106 0.23009602091146822 7.138682541643e-05 0.80655021894769086 0.2309558531425 1.9716813466272386e-17 0.80655021894769086 0.2309558531425 -4.1138618641362098e-21 0.80655702512553973 0.2309887229988592 3.5491705965311361e-06 0.80638557656607879 0.23094021520602837 2.7573585074838141e-05 0.80683604767018413 0.23007953446570681 1.9716813466272386e-17 0.80666465095685669 0.22999548293073002 -3.1827661351005778e-05 0.80681805016468611 0.23007366422222031 -4.0320908407212576e-06 0.80665635271856306 0.229980763435467 -1.4380263359999008e-06 0.80683604767018413 0.23007953446570681 1.3877787807814457e-17 0.80666394237305983 0.22999787633147614 -3.4332403115004684e-05 0.80681805016468611 0.23007366422222031 -4.0320908407212576e-06 0.80664298946290935 0.230027602615897 -2.3148579484599103e-18 0.80683604767018413 0.23007953446570681 1.9716813466272386e-17 0.82409047123778734 0.20576481544353056 0.028114095929077512 0.80683604767018413 0.23007953446570681 1.9716813466272386e-17 0.80666525065365791 0.22999577701709661 3.3712223423661427e-05 0.80681805016468611 0.23007366422222031 -4.0320908407212576e-06 0.80665368944771632 0.22999010749702997 3.5994195121265372e-05 0.80683604767018413 0.23007953446570681 1.9716813466272386e-17 0.80664573694296793 0.23006051457429874 -3.3894790201289403e-05 0.80681805016468611 0.23007366422222031 -4.0320908407212576e-06 0.80664298946290935 0.230027602615897 1.7076857938848081e-18 0.81819738401622633 0.23331936365399594 -0.05542888500528282 0.8162707849459333 0.23318859428827612 -0.055831426215473802 0.81660532063790103 0.23303087794979607 -0.056453217109276033 0.8163360131438524 0.23295384478926073 -0.056226563713667028 0.80683604767018413 0.23007953446570681 1.9716813466272386e-17 0.80664565129682908 0.23005851455632745 3.4008377076133132e-05 0.80681805016468611 0.23007366422222031 -4.0320908407212576e-06 0.80663453202285396 0.23005728697973443 3.59944887624804e-05 0.80683604767018413 0.23007953446570681 1.9716813466272386e-17 0.80664493880902488 0.23006092145566095 3.1507161335055262e-05 0.80681805016468611 0.23007366422222031 -4.0320908407212576e-06 0.80663381270479217 0.23005980949892896 3.3371427544914073e-05 0.81766952725454367 0.22518874517269127 -0.053370619174651357 0.79457051852287663 0.30177321409051122 -0.054490849592841589</DataArray>
      </Points>
      <Lines>
        <DataArray type="Int32" Name="connectivity" format="ascii">48 49 50 51 52 53 54 55 56 57 58 59 60 61 62 63 64 65 66 67 68 69 70 71 72 73 74 75 76 77 78 79 80 81 82 83 84 85 86 87 88 89 90 91 92 93 94 95 96 97 98 99 100 101 102 103 104 105 106 107 108 109 110 111 112 113 114 115 116 117 118 119 120 121 122 123 124 125 126 127 128 129 130 131 132 133 134 135 136 137 138 139 140 141 142 143 144 145 146 147 148 149 150 151 152 153 154 155 156 157 158 159 160 161 162 163 164 165 166 167 168 169 170 171 172 173 174 175 176 177 178 179 180 181 182 183 184 185 186 187 188 189 190 191 192 193 194 195 196 197 198 199 200 201 202 203 204 205 206 207 208 209 210 211 212 213 214 215 216 217 218 219 220 221 222 223 224 225 226 227 228 229 230 231 232 233 234 235 236 237 238 239 240 241 242 243 244 245 246 247 248 249 250 251 252 253 254 255 256 257 258 259 260 261 262 263 264 265 266 267 268 269 270 271 272 273 274 275 276 277 278 279 280 281 282 283 284 285 286 287 288 289 290 291 292 293 294 295 296 297 298 299 300 301 302 303 304 305 306 307 308 309 310 311 312 313 314 315 316 317 318 319 320 321 322 323 324 325 326 327 328 329 330 331 332 333 334 335 336 337 338 339 340 341 342 343 344 345 346 347 348 349 350 351 352 353 354 355 356 357 358 359 360 361 362 363 364 365 366 367 368 369 370 371 372 373 374 375 376 377 378 379 380 381 382 383 384 385 386 387 388 389 390 391 392 393 394 395 396 397 398 399 400 401 402 403 404 405 406 407 408 409 410 411 412 413 414 415 416 417 418 419 420 421 422 423 424 425 426 427 428 429 430 431 432 433 434 435 436 437 438 439 440 441 442 443 444 445 446 447 448 449 450 451 452 453 454 455 456 457 458 459 460 461 462 463 464 465 466 467 468 469 470 471 472 473 474 475 476 477 478 479 480 481 482 483 484 485 486 487 488 489 490 491 492 493 494 495 496 497 498 499 500 501 502 503 504 505 506 507 508 509 510 511 512 513 514 515 516 517 518 519 520 521 522 523 524 525 526 527 528 529 530 531 532 533 534 535 536 537 538 539 540 541 542 543 544 545 546 547 548 549 550 551 552 553 554 555 556 557 558 559 560 561 562 563 564 565 566 567 568 569 570 571 572 573 574 575 576 577 578 579 580 581 582 583 584 585 586 587 588 589 590 591 592 593 594 595 596 597 598 599 600 601 602 603 604 605 606 607 608 609 610 611 612 613 614 615 616 617 618 619 620 621 622 623 624 625 626 627 628 629 630 631 632 633 634 635 636 637 638 639 640 641 642 643 644 645 646 647 648 649 650 651 652 653 654 655 656 657 658 659 660 661 662 663 664 665 666 667 668 669 670 671 672 673</DataArray>
        <DataArray type="Int32" Name="offsets" format="ascii">2 4 6 8 10 12 14 16 18 20 22 24 26 28 30 32 34 36 38 40 42 44 46 48 50 52 54 56 58 60 62 64 66 68 70 72 74 76 78 80 82 84 86 88 90 92 94 96 98 100 102 104 106 108 110 112 114 116 118 120 122 124 126 128 130 132 134 136 138 140 142 144 146 148 150 152 154 156 158 160 162 164 166 168 170 172 174 176 178 180 182 184 186 188 190 192 194 196 198 200 202 204 206 208 210 212 214 216 218 220 222 224 226 228 230 232 234 236 238 240 242 244 246 248 250 252 254 256 258 260 262 264 266 268 270 272 274 276 278 280 282 284 286 288 290 292 294 296 298 300 302 304 306 308 310 312 314 316 318 320 322 324 326 328 330 332 334 336 338 340 342 344 346 348 350 352 354 356 358 360 362 364 366 368 370 372 374 376 378 380 382 384 386 388 390 392 394 396 398 400 402 404 406 408 410 412 414 416 418 420 422 424 426 428 430 432 434 436 438 440 442 444 446 448 450 452 454 456 458 460 462 464 466 468 470 472 474 476 478 480 482 484 486 488 490 492 494 496 498 500 502 504 506 508 510 512 514 516 518 520 522 524 526 528 530 532 534 536 538 540 542 544 546 548 550 552 554 556 558 560 562 564 566 568 570 572 574 576 578 580 582 584 586 588 590 592 594 596 598 600 602 604 606 608 610 612 614 616 618 620 622 624 626</DataArray>
      </Lines>
      <Polys>
        <DataArray type="Int32" Name="connectivity" format="ascii">0 1 2 3 4 5 6 7 8 9 10 11 12 13 14 15 16 17 18 19 20 21 22 23 24 25 26 27 28 29 30 31 32 33 34 35 36 37 38 39 40 41 42 43 44 45 46 47</DataArray>
        <DataArray type="Int32" Name="offsets" format="ascii">3 6 9 12 15 18 21 24 27 30 33 36 39 42 45 48</DataArray>
      </Polys>
    </Piece>
  </PolyData>
</VTKFile>
