<?xml version="1.0"?>
<VTKFile type="PolyData" version="0.1" byte_order="LittleEndian">
  <PolyData>
    <Piece NumberOfPoints="192" NumberOfVerts="0" NumberOfLines="96" NumberOfStrips="0" NumberOfPolys="0">
      <FieldData>
        <DataArray type="Int32" Name="step" NumberOfTuples="1" format="ascii">5000</DataArray>
        <DataArray type="Float64" Name="time" NumberOfTuples="1" format="ascii">2.5</DataArray>
        <DataArray type="Int32" Name="candidate_pairs" NumberOfTuples="1" format="ascii">64</DataArray>
        <DataArray type="Int32" Name="contacts" NumberOfTuples="1" format="ascii">56</DataArray>
      </FieldData>
      <CellData Scalars="part_id">
        <DataArray type="Int32" Name="part_id" format="ascii">5 5 5 5 5 5 5 5 5 5 5 5 5 5 5 5 5 5 5 5 5 5 5 5 5 5 5 5 5 5 5 5 5 5 5 5 5 5 5 5 5 5 5 5 5 5 5 5 5 5 5 5 5 5 5 5 5 5 5 5 5 5 5 5 5 5 5 5 5 5 5 5 5 5 5 5 5 5 5 5 5 5 5 5 5 5 5 5 5 5 5 5 5 5 5 5</DataArray>
        <DataArray type="Int32" Name="candidate_pair" format="ascii">-1 -1 -1 -1 -1 -1 -1 -1 -1 -1 -1 -1 -1 -1 -1 -1 -1 -1 -1 -1 -1 -1 -1 -1 -1 -1 -1 -1 -1 -1 -1 -1 -1 -1 -1 -1 -1 -1 -1 -1 -1 -1 -1 -1 -1 -1 -1 -1 -1 -1 -1 -1 -1 -1 -1 -1 -1 -1 -1 -1 -1 -1 -1 -1 -1 -1 -1 -1 -1 -1 -1 -1 -1 -1 -1 -1 -1 -1 -1 -1 -1 -1 -1 -1 -1 -1 -1 -1 -1 -1 -1 -1 -1 -1 -1 -1</DataArray>
      </CellData>
      <Points>
        <DataArray type="Float64" NumberOfComponents="3" format="ascii">1.0789656156542944 0.20694024859084229 -0.089719398010140894 1.1475734461126175 0.20694024859084229 -0.089719398010140894 1.1475734461126175 0.20694024859084229 -0.089719398010140894 1.1475734461126175 0.34245177616967837 -0.089719398010140894 1.1475734461126175 0.34245177616967837 -0.089719398010140894 1.0789656156542944 0.34245177616967837 -0.089719398010140894 1.0789656156542944 0.34245177616967837 -0.089719398010140894 1.0789656156542944 0.20694024859084229 -0.089719398010140894 1.0789656156542944 0.20694024859084229 0.024069965067550103 1.1475734461126175 0.20694024859084229 0.024069965067550103 1.1475734461126175 0.20694024859084229 0.024069965067550103 1.1475734461126175 0.34245177616967837 0.024069965067550103 1.1475734461126175 0.34245177616967837 0.024069965067550103 1.0789656156542944 0.34245177616967837 0.024069965067550103 1.0789656156542944 0.34245177616967837 0.024069965067550103 1.0789656156542944 0.20694024859084229 0.024069965067550103 1.0789656156542944 0.20694024859084229 -0.089719398010140894 1.0789656156542944 0.20694024859084229 0.024069965067550103 1.1475734461126175 0.20694024859084229 -0.089719398010140894 1.1475734461126175 0.20694024859084229 0.024069965067550103 1.1475734461126175 0.34245177616967837 -0.089719398010140894 1.1475734461126175 0.34245177616967837 0.024069965067550103 1.0789656156542944 0.34245177616967837 -0.089719398010140894 1.0789656156542944 0.34245177616967837 0.024069965067550103 1.092421872054123 0.20694024859084226 -0.089719398010140908 1.1612793964656867 0.20694024859084226 -0.089719398010140908 1.1612793964656867 0.20694024859084226 -0.089719398010140908 1.1612793964656867 0.34245177616967837 -0.089719398010140908 1.1612793964656867 0.34245177616967837 -0.089719398010140908 1.092421872054123 0.34245177616967837 -0.089719398010140908 1.092421872054123 0.34245177616967837 -0.089719398010140908 1.092421872054123 0.20694024859084226 -0.089719398010140908 1.092421872054123 0.20694024859084226 0.02406996506755012 1.1612793964656867 0.20694024859084226 0.02406996506755012 1.1612793964656867 0.20694024859084226 0.02406996506755012 1.1612793964656867 0.34245177616967837 0.02406996506755012 1.1612793964656867 0.34245177616967837 0.02406996506755012 1.092421872054123 0.34245177616967837 0.02406996506755012 1.092421872054123 0.34245177616967837 0.02406996506755012 1.092421872054123 0.20694024859084226 0.02406996506755012 1.092421872054123 0.20694024859084226 -0.089719398010140908 1.092421872054123 0.20694024859084226 0.02406996506755012 1.1612793964656867 0.20694024859084226 -0.089719398010140908 1.1612793964656867 0.20694024859084226 0.02406996506755012 1.1612793964656867 0.34245177616967837 -0.089719398010140908 1.1612793964656867 0.34245177616967837 0.02406996506755012 1.092421872054123 0.34245177616967837 -0.089719398010140908 1.092421872054123 0.34245177616967837 0.02406996506755012 1.0789656156542944 0.20975841032587197 -0.0240699650675501 1.1612793964656865 0.20975841032587197 -0.0240699650675501 1.1612793964656865 0.20975841032587197 -0.0240699650675501 1.1612793964656865 0.34245177616967837 -0.0240699650675501 1.1612793964656865 0.34245177616967837 -0.0240699650675501 1.0789656156542944 0.34245177616967837 -0.0240699650675501 1.0789656156542944 0.34245177616967837 -0.0240699650675501 1.0789656156542944 0.20975841032587197 -0.0240699650675501 1.0789656156542944 0.20975841032587197 0.089719398010140894 1.1612793964656865 0.20975841032587197 0.089719398010140894 1.1612793964656865 0.20975841032587197 0.089719398010140894 1.1612793964656865 0.34245177616967837 0.089719398010140894 1.1612793964656865 0.34245177616967837 0.089719398010140894 1.0789656156542944 0.34245177616967837 0.089719398010140894 1.0789656156542944 0.34245177616967837 0.089719398010140894 1.0789656156542944 0.20975841032587197 0.089719398010140894 1.0789656156542944 0.20975841032587197 -0.0240699650675501 1.0789656156542944 0.20975841032587197 0.089719398010140894 1.1612793964656865 0.20975841032587197 -0.0240699650675501 1.1612793964656865 0.20975841032587197 0.089719398010140894 1.1612793964656865 0.34245177616967837 -0.0240699650675501 1.1612793964656865 0.34245177616967837 0.089719398010140894 1.0789656156542944 0.34245177616967837 -0.0240699650675501 1.0789656156542944 0.34245177616967837 0.089719398010140894 1.0789656156542942 0.20694024859084226 -0.024069965067550117 1.1612793964656867 0.20694024859084226 -0.024069965067550117 1.1612793964656867 0.20694024859084226 -0.024069965067550117 1.1612793964656867 0.33861455395202483 -0.024069965067550117 1.1612793964656867 0.33861455395202483 -0.024069965067550117 1.0789656156542942 0.33861455395202483 -0.024069965067550117 1.0789656156542942 0.33861455395202483 -0.024069965067550117 1.0789656156542942 0.20694024859084226 -0.024069965067550117 1.0789656156542942 0.20694024859084226 0.089719398010140908 1.1612793964656867 0.20694024859084226 0.089719398010140908 1.1612793964656867 0.20694024859084226 0.089719398010140908 1.1612793964656867 0.33861455395202483 0.089719398010140908 1.1612793964656867 0.33861455395202483 0.089719398010140908 1.0789656156542942 0.33861455395202483 0.089719398010140908 1.0789656156542942 0.33861455395202483 0.089719398010140908 1.0789656156542942 0.20694024859084226 0.089719398010140908 1.0789656156542942 0.20694024859084226 -0.024069965067550117 1.0789656156542942 0.20694024859084226 0.089719398010140908 1.1612793964656867 0.20694024859084226 -0.024069965067550117 1.1612793964656867 0.20694024859084226 0.089719398010140908 1.1612793964656867 0.33861455395202483 -0.024069965067550117 1.1612793964656867 0.33861455395202483 0.089719398010140908 1.0789656156542942 0.33861455395202483 -0.024069965067550117 1.0789656156542942 0.33861455395202483 0.089719398010140908 1.0522960480388395 0.29047462381692463 -0.08971939801014088 1.1271055457893944 0.29047462381692463 -0.08971939801014088 1.1271055457893944 0.29047462381692463 -0.08971939801014088 1.1271055457893944 0.4252151535168387 -0.08971939801014088 1.1271055457893944 0.4252151535168387 -0.08971939801014088 1.0522960480388395 0.4252151535168387 -0.08971939801014088 1.0522960480388395 0.4252151535168387 -0.08971939801014088 1.0522960480388395 0.29047462381692463 -0.08971939801014088 1.0522960480388395 0.29047462381692463 0.024069965067550093 1.1271055457893944 0.29047462381692463 0.024069965067550093 1.1271055457893944 0.29047462381692463 0.024069965067550093 1.1271055457893944 0.4252151535168387 0.024069965067550093 1.1271055457893944 0.4252151535168387 0.024069965067550093 1.0522960480388395 0.4252151535168387 0.024069965067550093 1.0522960480388395 0.4252151535168387 0.024069965067550093 1.0522960480388395 0.29047462381692463 0.024069965067550093 1.0522960480388395 0.29047462381692463 -0.08971939801014088 1.0522960480388395 0.29047462381692463 0.024069965067550093 1.1271055457893944 0.29047462381692463 -0.08971939801014088 1.1271055457893944 0.29047462381692463 0.024069965067550093 1.1271055457893944 0.4252151535168387 -0.08971939801014088 1.1271055457893944 0.4252151535168387 0.024069965067550093 1.0522960480388395 0.4252151535168387 -0.08971939801014088 1.0522960480388395 0.4252151535168387 0.024069965067550093 1.0654269545168904 0.29047462381692463 -0.08971939801014088 1.1405618021892232 0.29047462381692463 -0.08971939801014088 1.1405618021892232 0.29047462381692463 -0.08971939801014088 1.1405618021892232 0.4252151535168387 -0.08971939801014088 1.1405618021892232 0.4252151535168387 -0.08971939801014088 1.0654269545168904 0.4252151535168387 -0.08971939801014088 1.0654269545168904 0.4252151535168387 -0.08971939801014088 1.0654269545168904 0.29047462381692463 -0.08971939801014088 1.0654269545168904 0.29047462381692463 0.024069965067550093 1.1405618021892232 0.29047462381692463 0.024069965067550093 1.1405618021892232 0.29047462381692463 0.024069965067550093 1.1405618021892232 0.4252151535168387 0.024069965067550093 1.1405618021892232 0.4252151535168387 0.024069965067550093 1.0654269545168904 0.4252151535168387 0.024069965067550093 1.0654269545168904 0.4252151535168387 0.024069965067550093 1.0654269545168904 0.29047462381692463 0.024069965067550093 1.0654269545168904 0.29047462381692463 -0.08971939801014088 1.0654269545168904 0.29047462381692463 0.024069965067550093 1.1405618021892232 0.29047462381692463 -0.08971939801014088 1.1405618021892232 0.29047462381692463 0.024069965067550093 1.1405618021892232 0.4252151535168387 -0.08971939801014088 1.1405618021892232 0.4252151535168387 0.024069965067550093 1.0654269545168904 0.4252151535168387 -0.08971939801014088 1.0654269545168904 0.4252151535168387 0.024069965067550093 1.0522960480388392 0.29431184603457816 -0.02406996506755011 1.1405618021892234 0.29431184603457816 -0.02406996506755011 1.1405618021892234 0.29431184603457816 -0.02406996506755011 1.1405618021892234 0.4252151535168387 -0.02406996506755011 1.1405618021892234 0.4252151535168387 -0.02406996506755011 1.0522960480388392 0.4252151535168387 -0.02406996506755011 1.0522960480388392 0.4252151535168387 -0.02406996506755011 1.0522960480388392 0.29431184603457816 -0.02406996506755011 1.0522960480388392 0.29431184603457816 0.089719398010140894 1.1405618021892234 0.29431184603457816 0.089719398010140894 1.1405618021892234 0.29431184603457816 0.089719398010140894 1.1405618021892234 0.4252151535168387 0.089719398010140894 1.1405618021892234 0.4252151535168387 0.089719398010140894 1.0522960480388392 0.4252151535168387 0.089719398010140894 1.0522960480388392 0.4252151535168387 0.089719398010140894 1.0522960480388392 0.29431184603457816 0.089719398010140894 1.0522960480388392 0.29431184603457816 -0.02406996506755011 1.0522960480388392 0.29431184603457816 0.089719398010140894 1.1405618021892234 0.29431184603457816 -0.02406996506755011 1.1405618021892234 0.29431184603457816 0.089719398010140894 1.1405618021892234 0.4252151535168387 -0.02406996506755011 1.1405618021892234 0.4252151535168387 0.089719398010140894 1.0522960480388392 0.4252151535168387 -0.02406996506755011 1.0522960480388392 0.4252151535168387 0.089719398010140894 1.0522960480388392 0.29047462381692463 -0.02406996506755011 1.1405618021892234 0.29047462381692463 -0.02406996506755011 1.1405618021892234 0.29047462381692463 -0.02406996506755011 1.1405618021892234 0.42038044507575673 -0.02406996506755011 1.1405618021892234 0.42038044507575673 -0.02406996506755011 1.0522960480388392 0.42038044507575673 -0.02406996506755011 1.0522960480388392 0.42038044507575673 -0.02406996506755011 1.0522960480388392 0.29047462381692463 -0.02406996506755011 1.0522960480388392 0.29047462381692463 0.089719398010140894 1.1405618021892234 0.29047462381692463 0.089719398010140894 1.1405618021892234 0.29047462381692463 0.089719398010140894 1.1405618021892234 0.42038044507575673 0.089719398010140894 1.1405618021892234 0.42038044507575673 0.089719398010140894 1.0522960480388392 0.42038044507575673 0.089719398010140894 1.0522960480388392 0.42038044507575673 0.089719398010140894 1.0522960480388392 0.29047462381692463 0.089719398010140894 1.0522960480388392 0.29047462381692463 -0.02406996506755011 1.0522960480388392 0.29047462381692463 0.089719398010140894 1.1405618021892234 0.29047462381692463 -0.02406996506755011 1.1405618021892234 0.29047462381692463 0.089719398010140894 1.1405618021892234 0.42038044507575673 -0.02406996506755011 1.1405618021892234 0.42038044507575673 0.089719398010140894 1.0522960480388392 0.42038044507575673 -0.02406996506755011 1.0522960480388392 0.42038044507575673 0.089719398010140894</DataArray>
      </Points>
      <Lines>
        <DataArray type="Int32" Name="connectivity" format="ascii">0 1 2 3 4 5 6 7 8 9 10 11 12 13 14 15 16 17 18 19 20 21 22 23 24 25 26 27 28 29 30 31 32 33 34 35 36 37 38 39 40 41 42 43 44 45 46 47 48 49 50 51 52 53 54 55 56 57 58 59 60 61 62 63 64 65 66 67 68 69 70 71 72 73 74 75 76 77 78 79 80 81 82 83 84 85 86 87 88 89 90 91 92 93 94 95 96 97 98 99 100 101 102 103 104 105 106 107 108 109 110 111 112 113 114 115 116 117 118 119 120 121 122 123 124 125 126 127 128 129 130 131 132 133 134 135 136 137 138 139 140 141 142 143 144 145 146 147 148 149 150 151 152 153 154 155 156 157 158 159 160 161 162 163 164 165 166 167 168 169 170 171 172 173 174 175 176 177 178 179 180 181 182 183 184 185 186 187 188 189 190 191</DataArray>
        <DataArray type="Int32" Name="offsets" format="ascii">2 4 6 8 10 12 14 16 18 20 22 24 26 28 30 32 34 36 38 40 42 44 46 48 50 52 54 56 58 60 62 64 66 68 70 72 74 76 78 80 82 84 86 88 90 92 94 96 98 100 102 104 106 108 110 112 114 116 118 120 122 124 126 128 130 132 134 136 138 140 142 144 146 148 150 152 154 156 158 160 162 164 166 168 170 172 174 176 178 180 182 184 186 188 190 192</DataArray>
      </Lines>
      <Polys>
        <DataArray type="Int32" Name="connectivity" format="ascii"></DataArray>
        <DataArray type="Int32" Name="offsets" format="ascii"></DataArray>
      </Polys>
    </Piece>
  </PolyData>
</VTKFile>
