<?xml version="1.0"?>
<VTKFile type="PolyData" version="0.1" byte_order="LittleEndian">
  <PolyData>
    <Piece NumberOfPoints="192" NumberOfVerts="0" NumberOfLines="96" NumberOfStrips="0" NumberOfPolys="0">
      <FieldData>
        <DataArray type="Int32" Name="step" NumberOfTuples="1" format="ascii">5000</DataArray>
        <DataArray type="Float64" Name="time" NumberOfTuples="1" format="ascii">2.5</DataArray>
        <DataArray type="Int32" Name="candidate_pairs" NumberOfTuples="1" format="ascii">64</DataArray>
        <DataArray type="Int32" Name="contacts" NumberOfTuples="1" format="ascii">56</DataArray>
      </FieldData>
      <CellData Scalars="part_id">
        <DataArray type="Int32" Name="part_id" format="ascii">6 6 6 6 6 6 6 6 6 6 6 6 6 6 6 6 6 6 6 6 6 6 6 6 6 6 6 6 6 6 6 6 6 6 6 6 6 6 6 6 6 6 6 6 6 6 6 6 6 6 6 6 6 6 6 6 6 6 6 6 6 6 6 6 6 6 6 6 6 6 6 6 6 6 6 6 6 6 6 6 6 6 6 6 6 6 6 6 6 6 6 6 6 6 6 6</DataArray>
        <DataArray type="Int32" Name="candidate_pair" format="ascii">-1 -1 -1 -1 -1 -1 -1 -1 -1 -1 -1 -1 -1 -1 -1 -1 -1 -1 -1 -1 -1 -1 -1 -1 -1 -1 -1 -1 -1 -1 -1 -1 -1 -1 -1 -1 -1 -1 -1 -1 -1 -1 -1 -1 -1 -1 -1 -1 -1 -1 -1 -1 -1 -1 -1 -1 -1 -1 -1 -1 -1 -1 -1 -1 -1 -1 -1 -1 -1 -1 -1 -1 -1 -1 -1 -1 -1 -1 -1 -1 -1 -1 -1 -1 -1 -1 -1 -1 -1 -1 -1 -1 -1 -1 -1 -1</DataArray>
      </CellData>
      <Points>
        <DataArray type="Float64" NumberOfComponents="3" format="ascii">0.78961629734405259 0.16170166744816972 -0.070120331746360814 0.85607248941760372 0.16170166744816972 -0.070120331746360814 0.85607248941760372 0.16170166744816972 -0.070120331746360814 0.85607248941760372 0.24705429473475371 -0.070120331746360814 0.85607248941760372 0.24705429473475371 -0.070120331746360814 0.78961629734405259 0.24705429473475371 -0.070120331746360814 0.78961629734405259 0.24705429473475371 -0.070120331746360814 0.78961629734405259 0.16170166744816972 -0.070120331746360814 0.78961629734405259 0.16170166744816972 0.017026692118856719 0.85607248941760372 0.16170166744816972 0.017026692118856719 0.85607248941760372 0.16170166744816972 0.017026692118856719 0.85607248941760372 0.24705429473475371 0.017026692118856719 0.85607248941760372 0.24705429473475371 0.017026692118856719 0.78961629734405259 0.24705429473475371 0.017026692118856719 0.78961629734405259 0.24705429473475371 0.017026692118856719 0.78961629734405259 0.16170166744816972 0.017026692118856719 0.78961629734405259 0.16170166744816972 -0.070120331746360814 0.78961629734405259 0.16170166744816972 0.017026692118856719 0.85607248941760372 0.16170166744816972 -0.070120331746360814 0.85607248941760372 0.16170166744816972 0.017026692118856719 0.85607248941760372 0.24705429473475371 -0.070120331746360814 0.85607248941760372 0.24705429473475371 0.017026692118856719 0.78961629734405259 0.24705429473475371 -0.070120331746360814 0.78961629734405259 0.24705429473475371 0.017026692118856719 0.78961629734405259 0.16703044267923917 -0.073257881749607234 0.85607248941760372 0.16703044267923917 -0.073257881749607234 0.85607248941760372 0.16703044267923917 -0.073257881749607234 0.85607248941760372 0.24983084630401037 -0.073257881749607234 0.85607248941760372 0.24983084630401037 -0.073257881749607234 0.78961629734405259 0.24983084630401037 -0.073257881749607234 0.78961629734405259 0.24983084630401037 -0.073257881749607234 0.78961629734405259 0.16703044267923917 -0.073257881749607234 0.78961629734405259 0.16703044267923917 0.017026692118856719 0.85607248941760372 0.16703044267923917 0.017026692118856719 0.85607248941760372 0.16703044267923917 0.017026692118856719 0.85607248941760372 0.24983084630401037 0.017026692118856719 0.85607248941760372 0.24983084630401037 0.017026692118856719 0.78961629734405259 0.24983084630401037 0.017026692118856719 0.78961629734405259 0.24983084630401037 0.017026692118856719 0.78961629734405259 0.16703044267923917 0.017026692118856719 0.78961629734405259 0.16703044267923917 -0.073257881749607234 0.78961629734405259 0.16703044267923917 0.017026692118856719 0.85607248941760372 0.16703044267923917 -0.073257881749607234 0.85607248941760372 0.16703044267923917 0.017026692118856719 0.85607248941760372 0.24983084630401037 -0.073257881749607234 0.85607248941760372 0.24983084630401037 0.017026692118856719 0.78961629734405259 0.24983084630401037 -0.073257881749607234 0.78961629734405259 0.24983084630401037 0.017026692118856719 0.79894805359104526 0.16129600797995064 -0.017432351587075783 0.85647814888582274 0.16129600797995064 -0.017432351587075783 0.85647814888582274 0.16129600797995064 -0.017432351587075783 0.85647814888582274 0.25023650577222945 -0.017432351587075783 0.85647814888582274 0.25023650577222945 -0.017432351587075783 0.79894805359104526 0.25023650577222945 -0.017432351587075783 0.79894805359104526 0.25023650577222945 -0.017432351587075783 0.79894805359104526 0.16129600797995064 -0.017432351587075783 0.79894805359104526 0.16129600797995064 0.073663541217826284 0.85647814888582274 0.16129600797995064 0.073663541217826284 0.85647814888582274 0.16129600797995064 0.073663541217826284 0.85647814888582274 0.25023650577222945 0.073663541217826284 0.85647814888582274 0.25023650577222945 0.073663541217826284 0.79894805359104526 0.25023650577222945 0.073663541217826284 0.79894805359104526 0.25023650577222945 0.073663541217826284 0.79894805359104526 0.16129600797995064 0.073663541217826284 0.79894805359104526 0.16129600797995064 -0.017432351587075783 0.79894805359104526 0.16129600797995064 0.073663541217826284 0.85647814888582274 0.16129600797995064 -0.017432351587075783 0.85647814888582274 0.16129600797995064 0.073663541217826284 0.85647814888582274 0.25023650577222945 -0.017432351587075783 0.85647814888582274 0.25023650577222945 0.073663541217826284 0.79894805359104526 0.25023650577222945 -0.017432351587075783 0.79894805359104526 0.25023650577222945 0.073663541217826284 0.78921063787583356 0.16129600797995064 -0.017432351587075783 0.84923206685701169 0.16129600797995064 -0.017432351587075783 0.84923206685701169 0.16129600797995064 -0.017432351587075783 0.84923206685701169 0.25023650577222945 -0.017432351587075783 0.84923206685701169 0.25023650577222945 -0.017432351587075783 0.78921063787583356 0.25023650577222945 -0.017432351587075783 0.78921063787583356 0.25023650577222945 -0.017432351587075783 0.78921063787583356 0.16129600797995064 -0.017432351587075783 0.78921063787583356 0.16129600797995064 0.073663541217826284 0.84923206685701169 0.16129600797995064 0.073663541217826284 0.84923206685701169 0.16129600797995064 0.073663541217826284 0.84923206685701169 0.25023650577222945 0.073663541217826284 0.84923206685701169 0.25023650577222945 0.073663541217826284 0.78921063787583356 0.25023650577222945 0.073663541217826284 0.78921063787583356 0.25023650577222945 0.073663541217826284 0.78921063787583356 0.16129600797995064 0.073663541217826284 0.78921063787583356 0.16129600797995064 -0.017432351587075783 0.78921063787583356 0.16129600797995064 0.073663541217826284 0.84923206685701169 0.16129600797995064 -0.017432351587075783 0.84923206685701169 0.16129600797995064 0.073663541217826284 0.84923206685701169 0.25023650577222945 -0.017432351587075783 0.84923206685701169 0.25023650577222945 0.073663541217826284 0.78921063787583356 0.25023650577222945 -0.017432351587075783 0.78921063787583356 0.25023650577222945 0.073663541217826284 0.7835287434992303 0.21259525102882121 -0.073663541217826284 0.83381275676519684 0.21259525102882121 -0.073663541217826284 0.83381275676519684 0.21259525102882121 -0.073663541217826284 0.83381275676519684 0.30431230039035667 -0.073663541217826284 0.83381275676519684 0.30431230039035667 -0.073663541217826284 0.7835287434992303 0.30431230039035667 -0.073663541217826284 0.7835287434992303 0.30431230039035667 -0.073663541217826284 0.7835287434992303 0.21259525102882121 -0.073663541217826284 0.7835287434992303 0.21259525102882121 0.017432351587075783 0.83381275676519684 0.21259525102882121 0.017432351587075783 0.83381275676519684 0.21259525102882121 0.017432351587075783 0.83381275676519684 0.30431230039035667 0.017432351587075783 0.83381275676519684 0.30431230039035667 0.017432351587075783 0.7835287434992303 0.30431230039035667 0.017432351587075783 0.7835287434992303 0.30431230039035667 0.017432351587075783 0.7835287434992303 0.21259525102882121 0.017432351587075783 0.7835287434992303 0.21259525102882121 -0.073663541217826284 0.7835287434992303 0.21259525102882121 0.017432351587075783 0.83381275676519684 0.21259525102882121 -0.073663541217826284 0.83381275676519684 0.21259525102882121 0.017432351587075783 0.83381275676519684 0.30431230039035667 -0.073663541217826284 0.83381275676519684 0.30431230039035667 0.017432351587075783 0.7835287434992303 0.30431230039035667 -0.073663541217826284 0.7835287434992303 0.30431230039035667 0.017432351587075783 0.7835287434992303 0.21537180259807787 -0.073663541217826284 0.83381275676519684 0.21537180259807787 -0.073663541217826284 0.83381275676519684 0.21537180259807787 -0.073663541217826284 0.83381275676519684 0.30431230039035667 -0.073663541217826284 0.83381275676519684 0.30431230039035667 -0.073663541217826284 0.7835287434992303 0.30431230039035667 -0.073663541217826284 0.7835287434992303 0.30431230039035667 -0.073663541217826284 0.7835287434992303 0.21537180259807787 -0.073663541217826284 0.7835287434992303 0.21537180259807787 0.017432351587075783 0.83381275676519684 0.21537180259807787 0.017432351587075783 0.83381275676519684 0.21537180259807787 0.017432351587075783 0.83381275676519684 0.30431230039035667 0.017432351587075783 0.83381275676519684 0.30431230039035667 0.017432351587075783 0.7835287434992303 0.30431230039035667 0.017432351587075783 0.7835287434992303 0.30431230039035667 0.017432351587075783 0.7835287434992303 0.21537180259807787 0.017432351587075783 0.7835287434992303 0.21537180259807787 -0.073663541217826284 0.7835287434992303 0.21537180259807787 0.017432351587075783 0.83381275676519684 0.21537180259807787 -0.073663541217826284 0.83381275676519684 0.21537180259807787 0.017432351587075783 0.83381275676519684 0.30431230039035667 -0.073663541217826284 0.83381275676519684 0.30431230039035667 0.017432351587075783 0.7835287434992303 0.30431230039035667 -0.073663541217826284 0.7835287434992303 0.30431230039035667 0.017432351587075783 0.78961629734405259 0.21300091049704029 -0.017026692118856726 0.83340709729697782 0.21300091049704029 -0.017026692118856726 0.83340709729697782 0.21300091049704029 -0.017026692118856726 0.83340709729697782 0.30320084670184783 -0.017026692118856726 0.83340709729697782 0.30320084670184783 -0.017026692118856726 0.78961629734405259 0.30320084670184783 -0.017026692118856726 0.78961629734405259 0.30320084670184783 -0.017026692118856726 0.78961629734405259 0.21300091049704029 -0.017026692118856726 0.78961629734405259 0.21300091049704029 0.073257881749607234 0.83340709729697782 0.21300091049704029 0.073257881749607234 0.83340709729697782 0.21300091049704029 0.073257881749607234 0.83340709729697782 0.30320084670184783 0.073257881749607234 0.83340709729697782 0.30320084670184783 0.073257881749607234 0.78961629734405259 0.30320084670184783 0.073257881749607234 0.78961629734405259 0.30320084670184783 0.073257881749607234 0.78961629734405259 0.21300091049704029 0.073257881749607234 0.78961629734405259 0.21300091049704029 -0.017026692118856726 0.78961629734405259 0.21300091049704029 0.073257881749607234 0.83340709729697782 0.21300091049704029 -0.017026692118856726 0.83340709729697782 0.21300091049704029 0.073257881749607234 0.83340709729697782 0.30320084670184783 -0.017026692118856726 0.83340709729697782 0.30320084670184783 0.073257881749607234 0.78961629734405259 0.30320084670184783 -0.017026692118856726 0.78961629734405259 0.30320084670184783 0.073257881749607234 0.78393440296744932 0.21300091049704029 -0.017026692118856726 0.8269545817690036 0.21300091049704029 -0.017026692118856726 0.8269545817690036 0.21300091049704029 -0.017026692118856726 0.8269545817690036 0.30390664092213759 -0.017026692118856726 0.8269545817690036 0.30390664092213759 -0.017026692118856726 0.78393440296744932 0.30390664092213759 -0.017026692118856726 0.78393440296744932 0.30390664092213759 -0.017026692118856726 0.78393440296744932 0.21300091049704029 -0.017026692118856726 0.78393440296744932 0.21300091049704029 0.070120331746360842 0.8269545817690036 0.21300091049704029 0.070120331746360842 0.8269545817690036 0.21300091049704029 0.070120331746360842 0.8269545817690036 0.30390664092213759 0.070120331746360842 0.8269545817690036 0.30390664092213759 0.070120331746360842 0.78393440296744932 0.30390664092213759 0.070120331746360842 0.78393440296744932 0.30390664092213759 0.070120331746360842 0.78393440296744932 0.21300091049704029 0.070120331746360842 0.78393440296744932 0.21300091049704029 -0.017026692118856726 0.78393440296744932 0.21300091049704029 0.070120331746360842 0.8269545817690036 0.21300091049704029 -0.017026692118856726 0.8269545817690036 0.21300091049704029 0.070120331746360842 0.8269545817690036 0.30390664092213759 -0.017026692118856726 0.8269545817690036 0.30390664092213759 0.070120331746360842 0.78393440296744932 0.30390664092213759 -0.017026692118856726 0.78393440296744932 0.30390664092213759 0.070120331746360842</DataArray>
      </Points>
      <Lines>
        <DataArray type="Int32" Name="connectivity" format="ascii">0 1 2 3 4 5 6 7 8 9 10 11 12 13 14 15 16 17 18 19 20 21 22 23 24 25 26 27 28 29 30 31 32 33 34 35 36 37 38 39 40 41 42 43 44 45 46 47 48 49 50 51 52 53 54 55 56 57 58 59 60 61 62 63 64 65 66 67 68 69 70 71 72 73 74 75 76 77 78 79 80 81 82 83 84 85 86 87 88 89 90 91 92 93 94 95 96 97 98 99 100 101 102 103 104 105 106 107 108 109 110 111 112 113 114 115 116 117 118 119 120 121 122 123 124 125 126 127 128 129 130 131 132 133 134 135 136 137 138 139 140 141 142 143 144 145 146 147 148 149 150 151 152 153 154 155 156 157 158 159 160 161 162 163 164 165 166 167 168 169 170 171 172 173 174 175 176 177 178 179 180 181 182 183 184 185 186 187 188 189 190 191</DataArray>
        <DataArray type="Int32" Name="offsets" format="ascii">2 4 6 8 10 12 14 16 18 20 22 24 26 28 30 32 34 36 38 40 42 44 46 48 50 52 54 56 58 60 62 64 66 68 70 72 74 76 78 80 82 84 86 88 90 92 94 96 98 100 102 104 106 108 110 112 114 116 118 120 122 124 126 128 130 132 134 136 138 140 142 144 146 148 150 152 154 156 158 160 162 164 166 168 170 172 174 176 178 180 182 184 186 188 190 192</DataArray>
      </Lines>
      <Polys>
        <DataArray type="Int32" Name="connectivity" format="ascii"></DataArray>
        <DataArray type="Int32" Name="offsets" format="ascii"></DataArray>
      </Polys>
    </Piece>
  </PolyData>
</VTKFile>
