<?xml version="1.0"?>
<VTKFile type="PolyData" version="0.1" byte_order="LittleEndian">
  <PolyData>
    <Piece NumberOfPoints="8" NumberOfVerts="0" NumberOfLines="4" NumberOfStrips="0" NumberOfPolys="0">
      <FieldData>
        <DataArray type="Int32" Name="step" NumberOfTuples="1" format="ascii">5000</DataArray>
        <DataArray type="Float64" Name="time" NumberOfTuples="1" format="ascii">2.5</DataArray>
        <DataArray type="Int32" Name="candidate_pairs" NumberOfTuples="1" format="ascii">4</DataArray>
        <DataArray type="Int32" Name="contacts" NumberOfTuples="1" format="ascii">4</DataArray>
      </FieldData>
      <CellData Scalars="part_id">
        <DataArray type="Int32" Name="part_id" format="ascii">16 16 16 16</DataArray>
        <DataArray type="Int32" Name="candidate_pair" format="ascii">0 1 2 3</DataArray>
      </CellData>
      <Points>
        <DataArray type="Float64" NumberOfComponents="3" format="ascii">0.80664331917865284 0.2300264463132761 -4.1138618641362098e-21 0.81010358895565537 0.23101314437771253 -4.1138618641362098e-21 0.80585356575162159 0.2327960472817357 -4.1138618641362098e-21 0.80657422052213634 0.23300378919309275 -4.1138618641362098e-21 0.80703819589216841 0.22864164582904628 0.00248 0.80775965374632464 0.2288462548729267 0.0024915630376029447 0.80703819589216841 0.22864164582904628 -0.00248 0.80775965374632464 0.2288462548729267 -0.0024915630376029451</DataArray>
      </Points>
      <Lines>
        <DataArray type="Int32" Name="connectivity" format="ascii">0 1 2 3 4 5 6 7</DataArray>
        <DataArray type="Int32" Name="offsets" format="ascii">2 4 6 8</DataArray>
      </Lines>
      <Polys>
        <DataArray type="Int32" Name="connectivity" format="ascii"></DataArray>
        <DataArray type="Int32" Name="offsets" format="ascii"></DataArray>
      </Polys>
    </Piece>
  </PolyData>
</VTKFile>
