<?xml version="1.0"?>
<VTKFile type="PolyData" version="0.1" byte_order="LittleEndian">
  <PolyData>
    <Piece NumberOfPoints="4" NumberOfVerts="4" NumberOfLines="0" NumberOfStrips="0" NumberOfPolys="0">
      <FieldData>
        <DataArray type="Int32" Name="step" NumberOfTuples="1" format="ascii">5000</DataArray>
        <DataArray type="Float64" Name="time" NumberOfTuples="1" format="ascii">2.5</DataArray>
        <DataArray type="Int32" Name="sdf_contact_points" NumberOfTuples="1" format="ascii">4</DataArray>
      </FieldData>
      <PointData>
        <DataArray type="Float64" Name="gap" format="ascii">-0.00019986619644258633 -0.00019573522252265557 -0.00017970986161693848 -0.00017970986161693786</DataArray>
        <DataArray type="Float64" Name="normal_lambda" format="ascii">0.13976643117230056 4.5671551921952955e-05 4.3675986381016861e-05 4.3675986381016712e-05</DataArray>
        <DataArray type="Float64" Name="normal_force" format="ascii">0.13976643117230056 4.5671551921952955e-05 4.3675986381016861e-05 4.3675986381016719e-05</DataArray>
        <DataArray type="Float64" Name="area_weight" format="ascii">6.3935999999999992e-05 2.1333333333333332e-08 2.1333333333333332e-08 2.1333333333333332e-08</DataArray>
        <DataArray type="Float64" Name="normal" NumberOfComponents="3" format="ascii">0.96166700293736573 0.27421993994139943 0 0.96087302735304303 0.27698921514275299 0 0.96194380554165992 0.27281205850722567 0.015417383470592957 0.96194380554165992 0.27281205850722567 -0.015417383470593186</DataArray>
      </PointData>
      <Points>
        <DataArray type="Float64" NumberOfComponents="3" format="ascii">0.80673942154171363 0.23005384996146849 -4.1138618641362098e-21 0.80594966811468227 0.23282345092992809 -4.1138618641362098e-21 0.8071342982552292 0.22866904947723868 0.00248 0.8071342982552292 0.22866904947723868 -0.00248</DataArray>
      </Points>
      <Verts>
        <DataArray type="Int32" Name="connectivity" format="ascii">0 1 2 3</DataArray>
        <DataArray type="Int32" Name="offsets" format="ascii">1 2 3 4</DataArray>
      </Verts>
    </Piece>
  </PolyData>
</VTKFile>
