<?xml version="1.0"?>
<VTKFile type="PolyData" version="0.1" byte_order="LittleEndian">
  <PolyData>
    <Piece NumberOfPoints="24" NumberOfVerts="0" NumberOfLines="0" NumberOfStrips="0" NumberOfPolys="8">
      <FieldData>
        <DataArray type="Int32" Name="step" NumberOfTuples="1" format="ascii">5000</DataArray>
        <DataArray type="Float64" Name="time" NumberOfTuples="1" format="ascii">2.5</DataArray>
        <DataArray type="Int32" Name="candidate_pairs" NumberOfTuples="1" format="ascii">4</DataArray>
        <DataArray type="Int32" Name="contacts" NumberOfTuples="1" format="ascii">4</DataArray>
      </FieldData>
      <CellData Scalars="part_id">
        <DataArray type="Int32" Name="part_id" format="ascii">13 13 13 13 13 13 13 13</DataArray>
        <DataArray type="Int32" Name="candidate_pair" format="ascii">0 0 1 1 2 2 3 3</DataArray>
      </CellData>
      <Points>
        <DataArray type="Float64" NumberOfComponents="3" format="ascii">0.8074107510065478 0.22733512537560743 0.0027985996498248902 0.8074107510065478 0.22733512537560743 -0.0027985996498248902 0.80587588735075788 0.23271776725094476 -0.0027985996498248902 0.8074107510065478 0.22733512537560743 0.0027985996498248902 0.80587588735075788 0.23271776725094476 -0.0027985996498248902 0.80587588735075788 0.23271776725094476 0.0027985996498248902 0.80626904957433576 0.23135473774070614 0.0015 0.80626904957433576 0.23135473774070614 -0.0015 0.80543808192890742 0.23423735682276525 -0.0015 0.80626904957433576 0.23135473774070614 0.0015 0.80543808192890742 0.23423735682276525 -0.0015 0.80543808192890742 0.23423735682276525 0.0015 0.80742332353471091 0.22719854480810237 0.0039863652088057049 0.80747139932747303 0.22719854480810237 0.00098675044718208975 0.8066530682496259 0.2300847468499902 0.00097363479119429554 0.80742332353471091 0.22719854480810237 0.0039863652088057049 0.8066530682496259 0.2300847468499902 0.00097363479119429554 0.80660499245686379 0.2300847468499902 0.0039732495528179103 0.80747139932747303 0.22719854480810237 -0.00098675044718208975 0.80742332353471091 0.22719854480810237 -0.0039863652088057049 0.80660499245686379 0.2300847468499902 -0.0039732495528179103 0.80747139932747303 0.22719854480810237 -0.00098675044718208975 0.80660499245686379 0.2300847468499902 -0.0039732495528179103 0.8066530682496259 0.2300847468499902 -0.00097363479119429554</DataArray>
      </Points>
      <Lines>
        <DataArray type="Int32" Name="connectivity" format="ascii"></DataArray>
        <DataArray type="Int32" Name="offsets" format="ascii"></DataArray>
      </Lines>
      <Polys>
        <DataArray type="Int32" Name="connectivity" format="ascii">0 1 2 3 4 5 6 7 8 9 10 11 12 13 14 15 16 17 18 19 20 21 22 23</DataArray>
        <DataArray type="Int32" Name="offsets" format="ascii">3 6 9 12 15 18 21 24</DataArray>
      </Polys>
    </Piece>
  </PolyData>
</VTKFile>
