<?xml version="1.0"?>
<VTKFile type="PolyData" version="0.1" byte_order="LittleEndian">
  <PolyData>
    <Piece NumberOfPoints="112" NumberOfVerts="0" NumberOfLines="56" NumberOfStrips="0" NumberOfPolys="0">
      <FieldData>
        <DataArray type="Int32" Name="step" NumberOfTuples="1" format="ascii">5000</DataArray>
        <DataArray type="Float64" Name="time" NumberOfTuples="1" format="ascii">2.5</DataArray>
        <DataArray type="Int32" Name="candidate_pairs" NumberOfTuples="1" format="ascii">64</DataArray>
        <DataArray type="Int32" Name="contacts" NumberOfTuples="1" format="ascii">56</DataArray>
      </FieldData>
      <CellData Scalars="part_id">
        <DataArray type="Int32" Name="part_id" format="ascii">8 8 8 8 8 8 8 8 8 8 8 8 8 8 8 8 8 8 8 8 8 8 8 8 8 8 8 8 8 8 8 8 8 8 8 8 8 8 8 8 8 8 8 8 8 8 8 8 8 8 8 8 8 8 8 8</DataArray>
        <DataArray type="Int32" Name="candidate_pair" format="ascii">0 1 2 3 4 6 7 8 9 10 11 12 14 15 16 17 18 19 20 21 22 23 24 25 26 27 28 29 34 35 36 37 38 39 40 41 42 43 44 45 46 47 48 49 51 52 53 54 55 56 57 59 60 61 62 63</DataArray>
      </CellData>
      <Points>
        <DataArray type="Float64" NumberOfComponents="3" format="ascii">1.1164837152206966 0.31835557822474281 -1.5664856072020321e-05 1.1166994780660358 0.31838340387108999 1.5137780108396615e-05 1.1164772816862174 0.31837824467571679 3.1919063543447715e-06 1.1166300992245912 0.31862549597204454 0.00026587227609738335 1.1069497972511813 0.31558637706557469 -0.055712409633772074 1.1071220311222874 0.31564324983086528 -0.05578926146894117 1.1165373560081218 0.31813190381861323 -0.0017530502315110821 1.116744465849046 0.31819199804145837 -0.0017557735528687388 1.1164773514027972 0.31837795464270424 -3.5829839987248803e-05 1.1165571103263785 0.31888018865828766 5.0313670666956273e-18 1.1164774018342372 0.31837771615088384 -6.77009932553564e-05 1.1165565425187698 0.31888210852097537 -6.7833189282401967e-05 1.1164772816862174 0.31837824467571679 3.1919063543447715e-06 1.1165571103263785 0.31888018865828766 -7.0671453901523701e-18 1.1167063773089603 0.31756551368766861 -3.0054502635737703e-06 1.1169245061223609 0.31758600009131122 3.885695525325632e-05 1.116475322451582 0.31837776461682948 3.6215529630772718e-06 1.1166300992245912 0.31862549597204454 0.00026587227609738335 1.1229688044189714 0.28691250346693853 -0.025208771483605164 1.1205481961411472 0.28592015910196866 -0.025085663716000683 1.1166831459320659 0.31764159117088564 -0.0006082322884714389 1.1169006209800116 0.31766729321137416 -0.00064257896569482205 1.116475322451582 0.31837776461682948 3.6215529630772718e-06 1.1165567922683663 0.31888127785460446 3.6150275610918017e-05 1.116475322451582 0.31837776461682948 3.6215529630772718e-06 1.1165568108755446 0.31888121330463753 -3.6150275610916615e-05 1.116475322451582 0.31837776461682948 3.6215529630772718e-06 1.1165571103263785 0.31888018865828766 -7.0671453901523701e-18 1.1165293033846768 0.31825724558877078 2.3671424845313488e-05 1.116719886206484 0.31831170946107434 1.7299542045117556e-05 1.1164944646612829 0.31837839616069591 0.00046141407085805271 1.1166945449076817 0.31839808728379437 0.00050305461964860658 1.1305474333905954 0.26404008490790115 0.0017860711623733331 1.1224027572511874 0.26204444635867929 7.1008749491192531e-18 1.1167244402054834 0.31756993952510992 6.966518578199065e-06 1.1169245061223612 0.31758600009131038 -4.1302243690295223e-05 1.1164937424730861 0.31838227795835 4.1783039063208792e-07 1.1165571103263785 0.31888018865828766 5.0313670666956273e-18 1.1068007120639842 0.31554807648366051 0.056194817285992842 1.1068277335034722 0.31607559776735772 0.056231189630750515 1.1164937424730861 0.31838227795835 4.1783039063208792e-07 1.1165568108755446 0.31888121330463753 -3.6150275610916615e-05 1.1164937424730861 0.31838227795835 4.1783039063208792e-07 1.1165571103263785 0.31888018865828766 -7.0671453901523701e-18 1.1215606725521974 0.28136577056111367 0.038745056850501142 1.1183413736652812 0.28014858816011468 0.037668661166448625 1.1104208952794807 0.30273657558669487 0.056088794969917144 1.1102285920263728 0.30269387675947673 0.055740033820086674 1.1322297840198778 0.25328568318832678 0.015884395289031777 1.1224027572511874 0.26204444635867929 7.1008749491192531e-18 1.1322297840198778 0.25328568318832678 0.015884395289031777 1.1224027572511874 0.26204444635867929 9.2496579838698944e-18 1.1056487612105923 0.31054708248900764 0.062414804297498468 1.1068277335034722 0.31607559776735772 0.056231189630750515 1.1056487612105923 0.31054708248900764 0.062414804297498488 1.1068277335034722 0.31607559776735772 0.056231189630750515 1.1031528810737792 0.31989189824968495 -0.062023265428223472 1.1068277335034722 0.31607559776735772 -0.056231189630750522 1.1031528810737792 0.31989189824968495 -0.062023265428223472 1.1068277335034722 0.31607559776735772 -0.056231189630750515 1.0953947983355643 0.38248896860865672 -0.015479635505969723 1.0912527097557572 0.37010674917603614 -7.3995813146037105e-18 1.0953947983355643 0.38248896860865672 -0.015479635505969723 1.0912527097557572 0.37010674917603614 -1.4536427142563846e-17 1.1030782763164946 0.32862283532981407 -0.055983220161828287 1.1028699733568799 0.32857160005169239 -0.055644872272141523 1.1012145915678837 0.35297447451034797 -0.03839438161981746 1.0977448585148639 0.3522979913337913 -0.037278635539908039 1.1164937021353967 0.31838241941335588 -4.1783039061721694e-07 1.1166940054601506 0.31840260443882629 3.3884790203306288e-05 1.1163885445052302 0.31874994693225367 -3.3982835371791407e-06 1.116578337176144 0.31880642600367259 7.7025798113868602e-05 1.1067700320313874 0.31567980881543728 -0.056177129383232494 1.1070150275111343 0.31544719953591216 -0.056211589517957496 1.1164399303758401 0.31857040885054644 -1.9455879456708025e-06 1.1166304587784119 0.31862497123342337 -8.3030482724282249e-06 1.115955043155626 0.32026030574316794 -1.5372156104591528e-05 1.1161244358812423 0.3203554942920544 4.7044978513263796e-05 1.0994898965200812 0.37279347106401561 -0.0018454271515364938 1.0912527097557572 0.37010674917603614 -1.4536427142563846e-17 1.1163790683498656 0.31878304411284175 -3.6654021347803549e-06 1.1165571103263785 0.31888018865828766 -2.2437114439588452e-18 1.1159507333630669 0.32027532876685055 -4.2443103948361563e-05 1.1161283527272026 0.32034236251598397 -4.387553926264941e-05 1.1164756720792823 0.31837653855283998 -3.6215529630827915e-06 1.1166940054601506 0.31840260443882629 3.3884790203306288e-05 1.1164102414128532 0.31860473874534523 0.00018635898422154706 1.1166246955345198 0.31864445505896982 0.00024608948616945193 1.116473204800277 0.31838516055356136 3.5561978598818095e-06 1.1166935902461959 0.31840406521711151 -1.7844089586793991e-05 1.1159338548911624 0.32026839512394428 4.5127819875465469e-05 1.1161278467330089 0.3203440591557119 4.6689416893689519e-05 1.1051910876393392 0.3489868618001099 0.025588940875276349 1.1025128045080677 0.3485491186036353 0.025469288047459425 1.1163337386308252 0.31887330825271298 4.4812939938988839e-07 1.1165388943176353 0.31894329023978674 -6.5909015884869248e-05 1.1159378218110874 0.32025468865997786 1.1513953333824934e-05 1.1161244358812423 0.32035549429205507 -4.4259692976741051e-05 1.1164643334513884 0.31842127564664596 0.00041618580749353673 1.1166778181880157 0.31845737179216332 0.00043817814950740586 1.1164404497918095 0.31849034694892842 0.0012026171365585366 1.1166474655959016 0.31854995483849552 0.0012042912662126434 1.1164737512780585 0.31839055608043287 1.5335756858825346e-05 1.116689409361596 0.31841873060042414 -1.4955933608021589e-05 1.1163530481648265 0.31881028511537191 0.00035740415141294948 1.116553260570081 0.31889186203542635 0.00039368018802580341 1.1066520292936803 0.31601809492987881 0.056164383778531501 1.1068282834894076 0.3160898250848268 0.056219179542482282 1.116405435924402 0.31862850312229296 0.00020605598304978322 1.1165571103263785 0.31888018865828766 -2.2438371525571275e-18 1.116405435924402 0.31862850312229296 0.00020605598304978322 1.1165571103263785 0.31888018865828766 -7.0671453901523701e-18</DataArray>
      </Points>
      <Lines>
        <DataArray type="Int32" Name="connectivity" format="ascii">0 1 2 3 4 5 6 7 8 9 10 11 12 13 14 15 16 17 18 19 20 21 22 23 24 25 26 27 28 29 30 31 32 33 34 35 36 37 38 39 40 41 42 43 44 45 46 47 48 49 50 51 52 53 54 55 56 57 58 59 60 61 62 63 64 65 66 67 68 69 70 71 72 73 74 75 76 77 78 79 80 81 82 83 84 85 86 87 88 89 90 91 92 93 94 95 96 97 98 99 100 101 102 103 104 105 106 107 108 109 110 111</DataArray>
        <DataArray type="Int32" Name="offsets" format="ascii">2 4 6 8 10 12 14 16 18 20 22 24 26 28 30 32 34 36 38 40 42 44 46 48 50 52 54 56 58 60 62 64 66 68 70 72 74 76 78 80 82 84 86 88 90 92 94 96 98 100 102 104 106 108 110 112</DataArray>
      </Lines>
      <Polys>
        <DataArray type="Int32" Name="connectivity" format="ascii"></DataArray>
        <DataArray type="Int32" Name="offsets" format="ascii"></DataArray>
      </Polys>
    </Piece>
  </PolyData>
</VTKFile>
