<?xml version="1.0"?>
<VTKFile type="PolyData" version="0.1" byte_order="LittleEndian">
  <PolyData>
    <Piece NumberOfPoints="24" NumberOfVerts="0" NumberOfLines="0" NumberOfStrips="0" NumberOfPolys="8">
      <FieldData>
        <DataArray type="Int32" Name="step" NumberOfTuples="1" format="ascii">5000</DataArray>
        <DataArray type="Float64" Name="time" NumberOfTuples="1" format="ascii">2.5</DataArray>
        <DataArray type="Int32" Name="candidate_pairs" NumberOfTuples="1" format="ascii">4</DataArray>
        <DataArray type="Int32" Name="contacts" NumberOfTuples="1" format="ascii">4</DataArray>
      </FieldData>
      <CellData Scalars="part_id">
        <DataArray type="Int32" Name="part_id" format="ascii">12 12 12 12 12 12 12 12</DataArray>
        <DataArray type="Int32" Name="candidate_pair" format="ascii">0 0 1 1 2 2 3 3</DataArray>
      </CellData>
      <Points>
        <DataArray type="Float64" NumberOfComponents="3" format="ascii">0.80760295573266927 0.22738993267199223 0.0027985996498248902 0.80760295573266927 0.22738993267199223 -0.0027985996498248902 0.80606809207687935 0.23277257454732955 -0.0027985996498248902 0.80760295573266927 0.22738993267199223 0.0027985996498248902 0.80606809207687935 0.23277257454732955 -0.0027985996498248902 0.80606809207687935 0.23277257454732955 0.0027985996498248902 0.80646125430045723 0.23140954503709094 0.0015 0.80646125430045723 0.23140954503709094 -0.0015 0.80563028665502889 0.23429216411915005 -0.0015 0.80646125430045723 0.23140954503709094 0.0015 0.80563028665502889 0.23429216411915005 -0.0015 0.80563028665502889 0.23429216411915005 0.0015 0.80761552826083238 0.22725335210448716 0.0039863652088057049 0.8076636040535945 0.22725335210448716 0.00098675044718208975 0.80684527297574737 0.23013955414637499 0.00097363479119429554 0.80761552826083238 0.22725335210448716 0.0039863652088057049 0.80684527297574737 0.23013955414637499 0.00097363479119429554 0.80679719718298526 0.23013955414637499 0.0039732495528179103 0.8076636040535945 0.22725335210448716 -0.00098675044718208975 0.80761552826083238 0.22725335210448716 -0.0039863652088057049 0.80679719718298526 0.23013955414637499 -0.0039732495528179103 0.8076636040535945 0.22725335210448716 -0.00098675044718208975 0.80679719718298526 0.23013955414637499 -0.0039732495528179103 0.80684527297574737 0.23013955414637499 -0.00097363479119429554</DataArray>
      </Points>
      <Lines>
        <DataArray type="Int32" Name="connectivity" format="ascii"></DataArray>
        <DataArray type="Int32" Name="offsets" format="ascii"></DataArray>
      </Lines>
      <Polys>
        <DataArray type="Int32" Name="connectivity" format="ascii">0 1 2 3 4 5 6 7 8 9 10 11 12 13 14 15 16 17 18 19 20 21 22 23</DataArray>
        <DataArray type="Int32" Name="offsets" format="ascii">3 6 9 12 15 18 21 24</DataArray>
      </Polys>
    </Piece>
  </PolyData>
</VTKFile>
