<?xml version="1.0"?>
<VTKFile type="PolyData" version="0.1" byte_order="LittleEndian">
  <PolyData>
    <Piece NumberOfPoints="112" NumberOfVerts="0" NumberOfLines="56" NumberOfStrips="0" NumberOfPolys="0">
      <FieldData>
        <DataArray type="Int32" Name="step" NumberOfTuples="1" format="ascii">5000</DataArray>
        <DataArray type="Float64" Name="time" NumberOfTuples="1" format="ascii">2.5</DataArray>
        <DataArray type="Int32" Name="candidate_pairs" NumberOfTuples="1" format="ascii">64</DataArray>
        <DataArray type="Int32" Name="contacts" NumberOfTuples="1" format="ascii">56</DataArray>
      </FieldData>
      <CellData Scalars="part_id">
        <DataArray type="Int32" Name="part_id" format="ascii">7 7 7 7 7 7 7 7 7 7 7 7 7 7 7 7 7 7 7 7 7 7 7 7 7 7 7 7 7 7 7 7 7 7 7 7 7 7 7 7 7 7 7 7 7 7 7 7 7 7 7 7 7 7 7 7</DataArray>
        <DataArray type="Int32" Name="candidate_pair" format="ascii">0 1 2 3 4 6 7 8 9 10 11 12 14 15 16 17 18 19 20 21 22 23 24 25 26 27 28 29 34 35 36 37 38 39 40 41 42 43 44 45 46 47 48 49 51 52 53 54 55 56 57 59 60 61 62 63</DataArray>
      </CellData>
      <Points>
        <DataArray type="Float64" NumberOfComponents="3" format="ascii">0.80683604767018413 0.23007953446570681 1.9716813466272386e-17 0.80666465095685669 0.22999548293073002 -3.1827661351005778e-05 0.80683604767018413 0.23007953446570681 1.3877787807814457e-17 0.80666394237305983 0.22999787633147614 -3.4332403115004684e-05 0.81819633892222088 0.23331906563218233 0.055423786274492903 0.81649148618845091 0.23241459110711665 0.055826099045047033 0.80683604767018413 0.23007953446570681 1.9716813466272386e-17 0.80666525065365791 0.22999577701709661 3.3712223423661427e-05 0.80683604767018413 0.23007953446570681 1.9716813466272386e-17 0.80664573694296793 0.23006051457429874 -3.3894790201289403e-05 0.80683604767018413 0.23007953446570681 1.9716813466272386e-17 0.80664565129682908 0.23005851455632745 3.4008377076133132e-05 0.80683604767018413 0.23007953446570681 1.9716813466272386e-17 0.80664493880902488 0.23006092145566095 3.1507161335055262e-05 0.80705426611647302 0.22918893302219354 1.9716813466272386e-17 0.80705426611647302 0.22918893302219354 -4.1138618641362098e-21 0.80685289781685909 0.23001076500461226 1.9716813466272386e-17 0.80668402353890112 0.22996938680696555 -6.7236409085090487e-05 0.81947238449462867 0.20439730703869455 0.028927418475137356 0.82398564375767391 0.20613244727992239 0.028496381120676345 0.80705426611647302 0.22918893302219356 1.9716813466272386e-17 0.80705426611647302 0.22918893302219356 -4.1138618641362098e-21 0.80683604767018413 0.23007953446570681 1.9716813466272386e-17 0.80664573694296793 0.23006051457429874 -3.3894790201289403e-05 0.80683604767018413 0.23007953446570681 1.9716813466272386e-17 0.80664565129682908 0.23005851455632745 3.4008377076133132e-05 0.80683604767018413 0.23007953446570681 1.9716813466272386e-17 0.80664493880902488 0.23006092145566095 3.1507161335055262e-05 0.80705426611647302 0.22918893302219343 1.9716813466272386e-17 0.80705426611647302 0.22918893302219343 -4.1138618641362098e-21 0.82052329601001861 0.22401779501509086 -0.055642331693299983 0.820476481193678 0.22399462219565355 -0.055664173483511076 0.82062642552954534 0.17599063895715952 -0.0024502251842273789 0.8317997152699359 0.17872835956702643 -4.1138618641362098e-21 0.80705426611647302 0.2291889330221934 1.9716813466272386e-17 0.80705426611647313 0.22918893302219343 -4.1138618641362098e-21 0.80683604767018413 0.23007953446570681 1.9716813466272386e-17 0.80664573694296793 0.23006051457429874 -3.3894790201289403e-05 0.81819738401622633 0.23331936365399594 -0.055428885005282813 0.8162707849459333 0.23318859428827612 -0.055831426215473802 0.80683604767018413 0.23007953446570681 1.9716813466272386e-17 0.80664565129682908 0.23005851455632745 3.4008377076133132e-05 0.80683604767018413 0.23007953446570681 1.9716813466272386e-17 0.80664493880902488 0.23006092145566095 3.1507161335052341e-05 0.82105201135853201 0.20136015177338021 -0.032737168749099467 0.82572494912003758 0.20295567055486122 -0.031266756095797744 0.82052329601001861 0.22401779501509089 -0.055642331693299983 0.820476481193678 0.22399462219565358 -0.055664173483511076 0.82169785681421437 0.17368299814945418 -0.0047576606058760433 0.8317997152699359 0.17872835956702643 -4.1138618641362098e-21 0.82169785681421437 0.17368299814945418 -0.0047576606058760398 0.8317997152699359 0.17872835956702643 -4.1138618641362098e-21 0.82041393877475544 0.22870420563180921 -0.060379938233143277 0.81638040517812105 0.23280415418515366 -0.056231189630750508 0.82041393877475544 0.22870420563180921 -0.060379938233143277 0.81638040517812105 0.23280415418515366 -0.056231189630750508 0.81764499294807125 0.23841178979466518 0.060377216003942726 0.81638040517812105 0.23280415418515366 0.056231189630750508 0.81764499294807125 0.23841178979466518 0.060377216003942726 0.81638040517812105 0.23280415418515366 0.056231189630750508 0.78971579765278976 0.2858344960205601 0.0047552019164605486 0.80096109508630609 0.28687994880328088 -4.1138618641362098e-21 0.78971579765278976 0.2858344960205601 0.0047552019164605486 0.80096109508630609 0.28687994880328088 -4.1138618641362098e-21 0.81526753672564256 0.24244861959979047 0.055642424969034654 0.81521498563940775 0.24244356395877126 0.05566450179224465 0.80376485105226081 0.26197974026869686 0.032734405679384231 0.80857727082895769 0.26308895092101836 0.031263670715527908 0.80683604767018413 0.23007953446570681 1.9716813466272386e-17 0.80666465095685669 0.22999548293073002 -3.1827661351005778e-05 0.80683604767018413 0.23007953446570681 1.9716813466272386e-17 0.80666394237305983 0.22999787633147614 -3.4332403115001926e-05 0.81819633892222088 0.23331906563218233 0.055423786274492924 0.81649148618845091 0.23241459110711665 0.055826099045047047 0.80683604767018413 0.23007953446570681 1.9716813466272386e-17 0.80666525065365791 0.22999577701709661 3.3712223423661427e-05 0.80655021894769086 0.23095585314249997 1.9716813466272386e-17 0.80655021894769086 0.23095585314249997 -4.1138618641362098e-21 0.7900222572158796 0.28331202980661302 0.0024506945137837159 0.80096109508630609 0.28687994880328088 -4.1138618641362098e-21 0.81526753672564267 0.24244861959979047 0.055642424969034668 0.81521498563940775 0.24244356395877123 0.05566450179224465 0.80655021894769074 0.23095585314250011 1.9716813466272386e-17 0.80655021894769086 0.23095585314250014 -4.1138618641362098e-21 0.80683604767018413 0.23007953446570681 1.9716813466272386e-17 0.80666465095685669 0.22999548293073002 -3.1827661351005778e-05 0.80683604767018413 0.23007953446570681 1.3877787807814457e-17 0.80666394237305983 0.22999787633147614 -3.4332403115004684e-05 0.80683604767018413 0.23007953446570681 1.9716813466272386e-17 0.80666525065365791 0.22999577701709661 3.3712223423661427e-05 0.80655021894769086 0.23095585314249997 1.9716813466272386e-17 0.80655021894769086 0.23095585314249997 -4.1138618641362098e-21 0.80402581714816124 0.25856673572936273 -0.028930317545821475 0.80877597304355697 0.25947303287347173 -0.028499322066855414 0.80681225385759503 0.23015248361575055 1.9716813466272386e-17 0.80664714498313173 0.23009863008060411 6.7165417691639195e-05 0.80655021894769086 0.2309558531425 1.9716813466272386e-17 0.80655021894769086 0.2309558531425 -4.1138618641362098e-21 0.80683604767018413 0.23007953446570681 1.9716813466272386e-17 0.80666465095685669 0.22999548293073002 -3.1827661351005778e-05 0.80683604767018413 0.23007953446570681 1.3877787807814457e-17 0.80666394237305983 0.22999787633147614 -3.4332403115004684e-05 0.80683604767018413 0.23007953446570681 1.9716813466272386e-17 0.80666525065365791 0.22999577701709661 3.3712223423661427e-05 0.80683604767018413 0.23007953446570681 1.9716813466272386e-17 0.80664573694296793 0.23006051457429874 -3.3894790201289403e-05 0.81819738401622633 0.23331936365399594 -0.05542888500528282 0.8162707849459333 0.23318859428827612 -0.055831426215473802 0.80683604767018413 0.23007953446570681 1.9716813466272386e-17 0.80664565129682908 0.23005851455632745 3.4008377076133132e-05 0.80683604767018413 0.23007953446570681 1.9716813466272386e-17 0.80664493880902488 0.23006092145566095 3.1507161335055262e-05</DataArray>
      </Points>
      <Lines>
        <DataArray type="Int32" Name="connectivity" format="ascii">0 1 2 3 4 5 6 7 8 9 10 11 12 13 14 15 16 17 18 19 20 21 22 23 24 25 26 27 28 29 30 31 32 33 34 35 36 37 38 39 40 41 42 43 44 45 46 47 48 49 50 51 52 53 54 55 56 57 58 59 60 61 62 63 64 65 66 67 68 69 70 71 72 73 74 75 76 77 78 79 80 81 82 83 84 85 86 87 88 89 90 91 92 93 94 95 96 97 98 99 100 101 102 103 104 105 106 107 108 109 110 111</DataArray>
        <DataArray type="Int32" Name="offsets" format="ascii">2 4 6 8 10 12 14 16 18 20 22 24 26 28 30 32 34 36 38 40 42 44 46 48 50 52 54 56 58 60 62 64 66 68 70 72 74 76 78 80 82 84 86 88 90 92 94 96 98 100 102 104 106 108 110 112</DataArray>
      </Lines>
      <Polys>
        <DataArray type="Int32" Name="connectivity" format="ascii"></DataArray>
        <DataArray type="Int32" Name="offsets" format="ascii"></DataArray>
      </Polys>
    </Piece>
  </PolyData>
</VTKFile>
