<?xml version="1.0"?>
<VTKFile type="PolyData" version="0.1" byte_order="LittleEndian">
  <PolyData>
    <Piece NumberOfPoints="24" NumberOfVerts="0" NumberOfLines="0" NumberOfStrips="0" NumberOfPolys="8">
      <FieldData>
        <DataArray type="Int32" Name="step" NumberOfTuples="1" format="ascii">5000</DataArray>
        <DataArray type="Float64" Name="time" NumberOfTuples="1" format="ascii">2.5</DataArray>
        <DataArray type="Int32" Name="candidate_pairs" NumberOfTuples="1" format="ascii">64</DataArray>
        <DataArray type="Int32" Name="contacts" NumberOfTuples="1" format="ascii">56</DataArray>
      </FieldData>
      <CellData Scalars="part_id">
        <DataArray type="Int32" Name="part_id" format="ascii">2 2 2 2 2 2 2 2</DataArray>
        <DataArray type="Int32" Name="candidate_pair" format="ascii">-1 -1 -1 -1 -1 -1 -1 -1</DataArray>
      </CellData>
      <Points>
        <DataArray type="Float64" NumberOfComponents="3" format="ascii">0.83904579729874695 0.18405713479809588 -0.053093639627504095 0.8317997152699359 0.17872835956702643 -4.1138618641362098e-21 0.80664298946290935 0.230027602615897 -4.1138618641362098e-21 0.83904579729874695 0.18405713479809588 -0.053093639627504095 0.80664298946290935 0.230027602615897 -4.1138618641362098e-21 0.81638040517812105 0.23280415418515366 -0.056231189630750508 0.8317997152699359 0.17872835956702643 -4.1138618641362098e-21 0.83904579729874695 0.18405713479809588 0.053093639627504095 0.81638040517812105 0.23280415418515366 0.056231189630750508 0.8317997152699359 0.17872835956702643 -4.1138618641362098e-21 0.81638040517812105 0.23280415418515366 0.056231189630750508 0.80664298946290935 0.230027602615897 -4.1138618641362098e-21 0.81638040517812105 0.23280415418515366 -0.056231189630750508 0.80664298946290935 0.230027602615897 -4.1138618641362098e-21 0.80096109508630609 0.28687994880328088 -4.1138618641362098e-21 0.81638040517812105 0.23280415418515366 -0.056231189630750508 0.80096109508630609 0.28687994880328088 -4.1138618641362098e-21 0.80992788965014684 0.28617415458299111 -0.053093639627504116 0.80664298946290935 0.230027602615897 -4.1138618641362098e-21 0.81638040517812105 0.23280415418515366 0.056231189630750508 0.80992788965014684 0.28617415458299111 0.053093639627504116 0.80664298946290935 0.230027602615897 -4.1138618641362098e-21 0.80992788965014684 0.28617415458299111 0.053093639627504116 0.80096109508630609 0.28687994880328088 -4.1138618641362098e-21</DataArray>
      </Points>
      <Lines>
        <DataArray type="Int32" Name="connectivity" format="ascii"></DataArray>
        <DataArray type="Int32" Name="offsets" format="ascii"></DataArray>
      </Lines>
      <Polys>
        <DataArray type="Int32" Name="connectivity" format="ascii">0 1 2 3 4 5 6 7 8 9 10 11 12 13 14 15 16 17 18 19 20 21 22 23</DataArray>
        <DataArray type="Int32" Name="offsets" format="ascii">3 6 9 12 15 18 21 24</DataArray>
      </Polys>
    </Piece>
  </PolyData>
</VTKFile>
