<?xml version="1.0"?>
<VTKFile type="PolyData" version="0.1" byte_order="LittleEndian">
  <PolyData>
    <Piece NumberOfPoints="24" NumberOfVerts="0" NumberOfLines="0" NumberOfStrips="0" NumberOfPolys="8">
      <FieldData>
        <DataArray type="Int32" Name="step" NumberOfTuples="1" format="ascii">6184</DataArray>
        <DataArray type="Float64" Name="time" NumberOfTuples="1" format="ascii">1.2368000000000001</DataArray>
        <DataArray type="Int32" Name="candidate_pairs" NumberOfTuples="1" format="ascii">4</DataArray>
        <DataArray type="Int32" Name="contacts" NumberOfTuples="1" format="ascii">4</DataArray>
      </FieldData>
      <CellData Scalars="part_id">
        <DataArray type="Int32" Name="part_id" format="ascii">15 15 15 15 15 15 15 15</DataArray>
        <DataArray type="Int32" Name="candidate_pair" format="ascii">0 0 1 1 2 2 3 3</DataArray>
      </CellData>
      <Points>
        <DataArray type="Float64" NumberOfComponents="3" format="ascii">0.32660603063784427 0.15671579989428322 -0.21350181528701836 0.32660603063784427 0.15216890739548841 -0.21676592444640683 0.33010230522666045 0.14961994129510178 -0.21321522369603682 0.32660603063784427 0.15671579989428322 -0.21350181528701836 0.33010230522666045 0.14961994129510178 -0.21321522369603682 0.33010230522666045 0.15416683379389659 -0.20995111453664836 0.3366855774111836 0.14817958146108132 -0.20379470603031097 0.3366855774111836 0.14574274242635879 -0.20554451045334016 0.33847452076942713 0.14433808527902339 -0.20358833562489664 0.3366855774111836 0.14817958146108132 -0.20379470603031097 0.33847452076942713 0.14433808527902339 -0.20358833562489664 0.33847452076942713 0.14677492431374592 -0.20183853120186745 0.32256795771746483 0.16896077326691869 -0.21035283014597703 0.32256795771746483 0.1666115561545474 -0.21221862192400101 0.3244844302293326 0.16517610408876673 -0.21041124523993612 0.32256795771746483 0.16896077326691869 -0.21035283014597703 0.3244844302293326 0.16517610408876673 -0.21041124523993612 0.3244844302293326 0.16752532120113803 -0.20854545346191214 0.3225840073798909 0.14791625779180734 -0.2256244191720731 0.3225840073798909 0.14539835481682128 -0.22725542027831325 0.32450031023024462 0.14414346301959274 -0.22531814643009906 0.3225840073798909 0.14791625779180734 -0.2256244191720731 0.32450031023024462 0.14414346301959274 -0.22531814643009906 0.32450031023024462 0.1466613659945788 -0.22368714532385892</DataArray>
      </Points>
      <Lines>
        <DataArray type="Int32" Name="connectivity" format="ascii"></DataArray>
        <DataArray type="Int32" Name="offsets" format="ascii"></DataArray>
      </Lines>
      <Polys>
        <DataArray type="Int32" Name="connectivity" format="ascii">0 1 2 3 4 5 6 7 8 9 10 11 12 13 14 15 16 17 18 19 20 21 22 23</DataArray>
        <DataArray type="Int32" Name="offsets" format="ascii">3 6 9 12 15 18 21 24</DataArray>
      </Polys>
    </Piece>
  </PolyData>
</VTKFile>
