<?xml version="1.0"?>
<VTKFile type="PolyData" version="0.1" byte_order="LittleEndian">
  <PolyData>
    <Piece NumberOfPoints="412" NumberOfVerts="0" NumberOfLines="206" NumberOfStrips="0" NumberOfPolys="0">
      <FieldData>
        <DataArray type="Int32" Name="step" NumberOfTuples="1" format="ascii">6184</DataArray>
        <DataArray type="Float64" Name="time" NumberOfTuples="1" format="ascii">1.2368000000000001</DataArray>
        <DataArray type="Int32" Name="candidate_pairs" NumberOfTuples="1" format="ascii">206</DataArray>
        <DataArray type="Int32" Name="contacts" NumberOfTuples="1" format="ascii">148</DataArray>
      </FieldData>
      <CellData Scalars="part_id">
        <DataArray type="Int32" Name="part_id" format="ascii">7 7 7 7 7 7 7 7 7 7 7 7 7 7 7 7 7 7 7 7 7 7 7 7 7 7 7 7 7 7 7 7 7 7 7 7 7 7 7 7 7 7 7 7 7 7 7 7 7 7 7 7 7 7 7 7 7 7 7 7 7 7 7 7 7 7 7 7 7 7 7 7 7 7 7 7 7 7 7 7 7 7 7 7 7 7 7 7 7 7 7 7 7 7 7 7 7 7 7 7 7 7 7 7 7 7 7 7 7 7 7 7 7 7 7 7 7 7 7 7 7 7 7 7 7 7 7 7 7 7 7 7 7 7 7 7 7 7 7 7 7 7 7 7 7 7 7 7 7 7 7 7 7 7 7 7 7 7 7 7 7 7 7 7 7 7 7 7 7 7 7 7 7 7 7 7 7 7 7 7 7 7 7 7 7 7 7 7 7 7 7 7 7 7 7 7 7 7 7 7 7 7 7 7 7 7</DataArray>
        <DataArray type="Int32" Name="candidate_pair" format="ascii">0 1 2 3 4 5 6 7 8 9 10 11 12 13 14 15 16 17 18 19 20 21 22 23 24 25 26 27 28 29 30 31 32 33 34 35 36 37 38 39 40 41 42 43 44 45 46 47 48 49 50 51 52 53 54 55 56 57 58 59 60 61 62 63 64 65 66 67 68 69 70 71 72 73 74 75 76 77 78 79 80 81 82 83 84 85 86 87 88 89 90 91 92 93 94 95 96 97 98 99 100 101 102 103 104 105 106 107 108 109 110 111 112 113 114 115 116 117 118 119 120 121 122 123 124 125 126 127 128 129 130 131 132 133 134 135 136 137 138 139 140 141 142 143 144 145 146 147 148 149 150 151 152 153 154 155 156 157 158 159 160 161 162 163 164 165 166 167 168 169 170 171 172 173 174 175 176 177 178 179 180 181 182 183 184 185 186 187 188 189 190 191 192 193 194 195 196 197 198 199 200 201 202 203 204 205</DataArray>
      </CellData>
      <Points>
        <DataArray type="Float64" NumberOfComponents="3" format="ascii">0.30769116976538435 0.1415674667090599 -0.24836424142373764 0.3076638947708229 0.14155520657027418 -0.24833506644443459 0.30769116976538435 0.1415674667090599 -0.24836424142373764 0.3076638947708229 0.14155520657027418 -0.24833506644443459 0.26571711003610898 0.16510185944143899 -0.28015540716168114 0.26445036325148452 0.1646192519753735 -0.278840179154555 0.30769116976538435 0.1415674667090599 -0.24836424142373764 0.30767296644156389 0.14161945451376429 -0.24829932823496872 0.26529642891487892 0.16533773071016977 -0.28047403117217973 0.26445036325148452 0.21156555326886756 -0.24513539177751098 0.30769116976538435 0.1415674667090599 -0.24836424142373764 0.30771916019083473 0.14152569409758931 -0.24829554353493255 0.28383218377931557 0.12858935944801828 -0.27866960786395556 0.30054781416879434 0.091351503106973514 -0.27588267893105295 0.30769116976538435 0.1415674667090599 -0.24836424142373764 0.30772834908981078 0.14158998406084031 -0.24826019516387163 0.30769116976538435 0.1415674667090599 -0.24836424142373764 0.30772834908981078 0.14158998406084031 -0.24826019516387163 0.30769116976538435 0.1415674667090599 -0.24836424142373764 0.34477655367232135 0.11363839950206304 -0.21097560957536146 0.3073254162426387 0.14136851489895075 -0.24882881668020829 0.33664526508610421 0.065030055532067588 -0.23922039133050688 0.30769116976538435 0.1415674667090599 -0.24836424142373764 0.3076638947708229 0.14155520657027418 -0.24833506644443459 0.30769116976538435 0.1415674667090599 -0.24836424142373764 0.3076638947708229 0.14155520657027418 -0.24833506644443459 0.28383218377931557 0.12858935944801828 -0.27866960786395556 0.26445036325148452 0.1646192519753735 -0.278840179154555 0.30769116976538435 0.1415674667090599 -0.24836424142373764 0.30767296644156394 0.14161945451376429 -0.24829932823496872 0.30769116976538435 0.1415674667090599 -0.24836424142373764 0.30771916019083473 0.14152569409758931 -0.24829554353493255 0.30174455954035284 0.091976193900881159 -0.27720364222389943 0.30054781416879434 0.091351503106973514 -0.27588267893105295 0.30769116976538435 0.1415674667090599 -0.24836424142373764 0.30772834908981078 0.14158998406084031 -0.24826019516387163 0.30769116976538435 0.1415674667090599 -0.24836424142373764 0.30772834908981078 0.14158998406084031 -0.24826019516387163 0.30168496019082319 0.091479169967939478 -0.27749268244403696 0.33664526508610421 0.065030055532067588 -0.23922039133050688 0.30168496019082319 0.091479169967939478 -0.27749268244403696 0.33664526508610421 0.065030055532067588 -0.23922039133050688 0.26554121790752727 0.16570050926857355 -0.27992963535616899 0.26445036325148452 0.1646192519753735 -0.278840179154555 0.26510206391940683 0.16544670902121167 -0.28062124327948035 0.2822235600085366 0.12782841500552286 -0.27788701069755006 0.30763330533513439 0.19002678772690393 -0.21364031097079214 0.30761254334706462 0.19001227356700728 -0.21362180134011455 0.3076898160527729 0.19005944696376212 -0.21355131426091808 0.30772834908981078 0.18995444531183198 -0.21353724919888536 0.26571984008296262 0.2123512921474997 -0.24622982188684908 0.26445036325148452 0.21156555326886756 -0.24513539177751098 0.30763330533513439 0.19002678772690396 -0.21364031097079214 0.30761254334706462 0.19001227356700728 -0.21362180134011455 0.28602467335921161 0.17753851188518088 -0.24767097331415422 0.30772834908981078 0.14158998406084031 -0.24826019516387163 0.3076898160527729 0.19005944696376212 -0.21355131426091808 0.30772834908981078 0.18995444531183198 -0.21353724919888536 0.28602467335921161 0.17753851188518088 -0.24767097331415422 0.30772834908981078 0.14158998406084031 -0.24826019516387163 0.30769116976538435 0.19006022931483929 -0.21354918234729942 0.30771916019083473 0.19000849448633811 -0.21348763676650506 0.3076898160527729 0.19005944696376212 -0.21355131426091808 0.30772834908981078 0.18995444531183198 -0.21353724919888536 0.30769116976538435 0.14163253964493075 -0.2483175227386209 0.30767205996798475 0.14161993687038299 -0.24829996874415608 0.30769116976538435 0.14157831120008221 -0.24835645569293355 0.30766953591580276 0.14155825035181435 -0.24832851359033395 0.30769116976538435 0.18999515637896838 -0.21359590103241621 0.30767205996798475 0.1899825536044206 -0.21357834703795139 0.30769116976538435 0.18993409609574116 -0.21363973886003312 0.30767205996798475 0.18992149332119337 -0.2136221848655683 0.28657108757112487 0.17785430102952904 -0.24681044509719194 0.26445036325148452 0.21156555326886756 -0.24513539177751098 0.30769116976538435 0.18999515637896838 -0.21359590103241621 0.30767205996798475 0.1899825536044206 -0.21357834703795139 0.30769116976538435 0.14163161738645372 -0.24831818486801166 0.30772834908981078 0.14158998406084031 -0.24826019516387163 0.30769116976538435 0.1415674667090599 -0.24836424142373764 0.32199808869858021 0.10252997931217063 -0.24426825404877914 0.30769116976538435 0.14163161738645372 -0.24831818486801166 0.30772834908981078 0.14158998406084031 -0.24826019516387163 0.30769116976538435 0.14163161738645372 -0.24831818486801166 0.30772834908981078 0.14158998406084031 -0.24826019516387163 0.30769116976538435 0.18999607863744541 -0.21359523890302543 0.30772834908981078 0.18995444531183198 -0.21353724919888536 0.30769116976538435 0.18999607863744541 -0.21359523890302543 0.30772834908981078 0.18995444531183198 -0.21353724919888536 0.30769116976538435 0.1415674667090599 -0.24836424142373764 0.34477655367232135 0.11363839950206303 -0.21097560957536146 0.26533101841586332 0.21311935762947834 -0.24604258302052442 0.26445036325148452 0.21156555326886756 -0.24513539177751098 0.27222680660915849 0.21705937608360357 -0.23260018106425503 0.29435686027937735 0.1821266952988308 -0.23371372877103463 0.3011455149950526 0.23358254087869884 -0.17622708907205928 0.29989436401002983 0.23250353196937762 -0.17526900232183873 0.30142846933317308 0.23374421134806644 -0.17567550804293428 0.30054781416879434 0.23219040698745574 -0.17476831679992089 0.2833797438745182 0.22343178448877238 -0.21085904553172938 0.30772834908981078 0.18995444531183198 -0.21353724919888536 0.30142846933317308 0.23374421134806644 -0.17567550804293428 0.30054781416879434 0.23219040698745574 -0.17476831679992089 0.29453268113987857 0.22980419289394158 -0.18911790999920239 0.31666273481009727 0.19487151210916878 -0.1902314577059819 0.26529642891487887 0.21288390230626295 -0.24633857086785857 0.26445036325148452 0.1646192519753735 -0.278840179154555 0.30769116976538435 0.19006022931483929 -0.21354918234729942 0.30767296644156389 0.18998210095169196 -0.21357768520305212 0.30769116976538435 0.19006022931483929 -0.21354918234729942 0.30772834908981078 0.18995444531183198 -0.21353724919888536 0.30175611839567329 0.23315834524388165 -0.17585599615026265 0.30047779888583631 0.23215040263999137 -0.17490480207908282 0.30769116976538435 0.19006022931483929 -0.21354918234729942 0.30766374849307254 0.19003618688364557 -0.21352806864237067 0.30769116976538435 0.19006022931483929 -0.21354918234729942 0.30772834908981078 0.18995444531183198 -0.21353724919888536 0.30769116976538435 0.19006022931483929 -0.21354918234729942 0.32632229278768998 0.15221393004802147 -0.21201382881199338 0.30769116976538435 0.19006022931483929 -0.21354918234729942 0.30771916019083473 0.19000849448633814 -0.21348763676650506 0.30769116976538435 0.19006022931483929 -0.21354918234729942 0.30772834908981078 0.18995444531183198 -0.21353724919888536 0.30168496019082303 0.23367506942551036 -0.17540407428846458 0.3366452650861041 0.20586895941254979 -0.13810602919937479 0.30769950819613645 0.14156138651330311 -0.24835577251696994 0.30766953591580276 0.14155825035181435 -0.24832851359033392 0.30774120495546159 0.14153098217624521 -0.24831342330550091 0.30771900979184863 0.14152464183383995 -0.24829612209817298 0.30769116976538435 0.1415674667090599 -0.24836424142373764 0.2853734573993984 0.17686775719496903 -0.24726894668774524 0.30774049582227775 0.14153149926017908 -0.24831414353488204 0.30772834908981078 0.14158998406084031 -0.24826019516387163 0.30774120495546159 0.14153098217624521 -0.24831342330550091 0.30771900979184863 0.14152464183383995 -0.24829612209817298 0.34492767408485225 0.11441544706748355 -0.21054507702549297 0.34490547892123929 0.11440910672507829 -0.21052777581816501 0.30774049582227775 0.14153149926017908 -0.24831414353488204 0.30772834908981078 0.14158998406084031 -0.24826019516387163 0.30774049582227775 0.14153149926017908 -0.24831414353488204 0.30772834908981078 0.14158998406084031 -0.24826019516387163 0.30774049582227769 0.14153149926017911 -0.24831414353488204 0.30772834908981078 0.18995444531183198 -0.21353724919888536 0.34492767408485225 0.11441544706748355 -0.21054507702549297 0.34490547892123929 0.11440910672507827 -0.21052777581816501 0.32349503263474999 0.10290899975743853 -0.24378522938242014 0.33664526508610421 0.065030055532067588 -0.23922039133050688 0.34492838321803615 0.11441492998354968 -0.21054435679611183 0.34491623648556918 0.11447341478421094 -0.21049040842510139 0.34492838321803615 0.11441492998354968 -0.21054435679611183 0.34491623648556918 0.11447341478421094 -0.21049040842510139 0.30165742382962968 0.091249532721102172 -0.27762622611463006 0.2822235600085366 0.12782841500552286 -0.27788701069755006 0.30210411731478104 0.091488029894118986 -0.27693400047279321 0.30054781416879434 0.091351503106973514 -0.27588267893105295 0.32293923745752656 0.102612251354002 -0.24464652619124405 0.30772834908981078 0.14158998406084031 -0.24826019516387163 0.34497633232146752 0.11437822735603073 -0.21049639272502099 0.34491623648556918 0.11447341478421094 -0.21049040842510139 0.34491885141478518 0.11434753733210629 -0.21058546892345287 0.34489410454094205 0.11434111137796069 -0.21056728577844852 0.32293923745752656 0.10261225135400201 -0.24464652619124402 0.30772834908981078 0.14158998406084031 -0.24826019516387163 0.34497633232146752 0.11437822735603073 -0.21049639272502099 0.34491623648556918 0.11447341478421094 -0.21049040842510139 0.34491885141478518 0.1143475373321063 -0.21058546892345287 0.34489410454094205 0.1143411113779607 -0.21056728577844852 0.33807665479118343 0.065487156474775876 -0.24030155575632173 0.33664526508610421 0.065030055532067588 -0.23922039133050688 0.34497633232146752 0.11437822735603073 -0.21049639272502099 0.34491623648556918 0.11447341478421094 -0.21049040842510139 0.34497770927492954 0.11437896253466885 -0.2104942589072562 0.34495184590909556 0.11443653586935273 -0.21043712562139441 0.30774049582227775 0.14159564993757293 -0.24826808697915606 0.30772834908981078 0.14158998406084031 -0.24826019516387163 0.30774049582227775 0.14159564993757293 -0.24826808697915603 0.30772834908981078 0.14158998406084031 -0.24826019516387163 0.30774049582227775 0.1899601111885646 -0.2135451410141698 0.30772834908981078 0.18995444531183198 -0.21353724919888536 0.30774049582227775 0.1899601111885646 -0.2135451410141698 0.30772834908981078 0.18995444531183198 -0.21353724919888536 0.30769116976538435 0.19006022931483929 -0.21354918234729942 0.2824990887101394 0.22187798012816165 -0.20995185428871596 0.30774049582227775 0.1899601111885646 -0.2135451410141698 0.30772834908981078 0.18995444531183198 -0.21353724919888536 0.30774049582227775 0.14159564993757293 -0.24826808697915606 0.30772834908981078 0.14158998406084031 -0.24826019516387163 0.30769116976538435 0.1415674667090599 -0.24836424142373764 0.32199808869858015 0.10252997931217062 -0.24426825404877917 0.34492838321803615 0.1628435419119352 -0.17577535427539959 0.34491623648556918 0.16283787603520264 -0.17576746246011515 0.34492838321803615 0.16284354191193523 -0.17577535427539959 0.34491623648556918 0.16283787603520264 -0.17576746246011515 0.30774049582227775 0.1899601111885646 -0.2135451410141698 0.30772834908981078 0.18995444531183198 -0.21353724919888536 0.34492838321803615 0.1628435419119352 -0.17577535427539959 0.34491623648556918 0.16283787603520264 -0.17576746246011515 0.32633443952015695 0.15221959592475406 -0.21202172062727781 0.34491623648556918 0.11447341478421094 -0.21049040842510139 0.34492838321803615 0.1628435419119352 -0.17577535427539959 0.34491623648556918 0.16283787603520264 -0.17576746246011515 0.34497770927492954 0.16287172514044826 -0.17567919983081795 0.35928977822271757 0.12383718028645091 -0.17157317320229062 0.34492838321803615 0.1628435419119352 -0.17577535427539959 0.34491623648556918 0.16283787603520264 -0.17576746246011515 0.34492838321803615 0.1628435419119352 -0.17577535427539959 0.34491623648556918 0.16283787603520264 -0.17576746246011515 0.30774049582227775 0.14159564993757293 -0.24826808697915603 0.30772834908981078 0.14158998406084031 -0.24826019516387163 0.30774049582227775 0.14159564993757293 -0.24826808697915603 0.30772834908981078 0.14158998406084031 -0.24826019516387163 0.30769116976538435 0.1415674667090599 -0.24836424142373764 0.2853734573993984 0.17686775719496903 -0.24726894668774524 0.30774049582227775 0.14159564993757293 -0.24826808697915603 0.30772834908981078 0.14158998406084031 -0.24826019516387163 0.32633443952015695 0.15221959592475406 -0.21202172062727784 0.30772834908981078 0.18995444531183198 -0.21353724919888536 0.30774049582227775 0.14159564993757293 -0.24826808697915603 0.30772834908981078 0.14158998406084031 -0.24826019516387163 0.34492838321803615 0.11447908066094355 -0.21049830024038582 0.34491623648556918 0.11447341478421094 -0.21049040842510139 0.34492838321803615 0.1628435419119352 -0.17577535427539959 0.34491623648556918 0.16283787603520264 -0.17576746246011515 0.30828454313772929 0.14190650003950628 -0.24720754067284109 0.30827239640526238 0.14190083416277366 -0.24719964885755666 0.34497770927492954 0.16287172514044826 -0.17567919983081795 0.32266514692353576 0.19817495816924935 -0.17457386584125673 0.34492838321803615 0.1628435419119352 -0.17577535427539959 0.34491623648556918 0.16283787603520264 -0.17576746246011515 0.34492838321803615 0.11447908066094355 -0.21049830024038582 0.34491623648556918 0.11447341478421094 -0.21049040842510139 0.34497770927492954 0.11437896253466885 -0.2104942589072562 0.35469399054475909 0.07534248239136164 -0.20403685384171183 0.34492838321803615 0.1628435419119352 -0.17577535427539959 0.34491623648556918 0.16283787603520264 -0.17576746246011515 0.34492838321803615 0.11447908066094355 -0.21049830024038582 0.34491623648556918 0.11447341478421094 -0.21049040842510139 0.34492838321803615 0.1628435419119352 -0.17577535427539959 0.34491623648556918 0.16283787603520264 -0.17576746246011515 0.34492838321803615 0.1628435419119352 -0.17577535427539959 0.34491623648556918 0.16283787603520264 -0.17576746246011515 0.30769116976538435 0.19006022931483929 -0.21354918234729942 0.30767296644156389 0.18998210095169196 -0.21357768520305212 0.30769213990769984 0.19006077473530036 -0.21354678422154622 0.30772834908981078 0.18995444531183198 -0.21353724919888536 0.30197920387387356 0.23306865736616109 -0.17554711976587326 0.30054781416879434 0.23219040698745574 -0.17476831679992089 0.30773263848767518 0.19008354330627303 -0.21344667448913013 0.30770913499831054 0.19006746274593153 -0.21343350904266112 0.30769213990769984 0.19006077473530036 -0.21354678422154622 0.30772834908981078 0.18995444531183198 -0.21353724919888536 0.3232185311962622 0.19878981516630195 -0.17516660204647194 0.34491623648556918 0.16283787603520264 -0.17576746246011515 0.30773263848767518 0.19008354330627303 -0.21344667448913013 0.30770913499831054 0.19006746274593153 -0.21343350904266112 0.30769213990769984 0.19006077473530036 -0.21354678422154622 0.30772834908981078 0.18995444531183198 -0.21353724919888536 0.3232185311962622 0.19878981516630195 -0.17516660204647194 0.34491623648556918 0.16283787603520264 -0.17576746246011515 0.33789806268068689 0.20704274538390494 -0.13887979965009065 0.3366452650861041 0.20586895941254979 -0.13810602919937479 0.33821278373985247 0.20721968365622373 -0.13810183061912817 0.35496065138139321 0.16938791107402112 -0.13609593592026586 0.30774049582227775 0.19002426186595847 -0.21349908445844379 0.30772834908981078 0.18995444531183198 -0.21353724919888536 0.30774049582227775 0.19002426186595847 -0.21349908445844379 0.30772834908981078 0.18995444531183198 -0.21353724919888536 0.32282694176711352 0.19856966098521356 -0.17613458445456898 0.30054781416879434 0.23219040698745574 -0.17476831679992089 0.30774120495546164 0.19002374478202458 -0.21349836422906265 0.30771900979184863 0.19000937913433197 -0.21348682473673447 0.34492838321803615 0.16290769258932908 -0.17572929771967358 0.34491623648556918 0.11447341478421094 -0.21049040842510139 0.34492838321803615 0.16290769258932911 -0.17572929771967358 0.34491623648556918 0.16283787603520264 -0.17576746246011515 0.34492838321803615 0.16290769258932911 -0.17572929771967361 0.34491623648556918 0.16283787603520264 -0.17576746246011515 0.30778815477932558 0.18998951002870873 -0.21345067975546264 0.30776595961571257 0.18997514438101612 -0.21343914026313443 0.34492767408485225 0.16290820967326297 -0.17573001794905471 0.34490547892123929 0.16289384402557036 -0.17571847845672653 0.34492838321803615 0.16290769258932911 -0.17572929771967358 0.34491623648556918 0.16283787603520264 -0.17576746246011515 0.34497770927492954 0.16287172514044826 -0.17567919983081795 0.35928977822271757 0.12383718028645091 -0.17157317320229062 0.34492767408485225 0.16290820967326297 -0.17573001794905471 0.34490547892123929 0.16289384402557036 -0.17571847845672653 0.34496937084417745 0.16287780533620505 -0.17568766873758568 0.34493939856384376 0.16285298019267161 -0.1756759812725579 0.34491756469557516 0.11393634357407668 -0.21076101932682334 0.30772834908981078 0.14158998406084031 -0.24826019516387163 0.33824365700415038 0.064821392282107579 -0.24036193157905986 0.30054781416879434 0.091351503106973514 -0.27588267893105295 0.34491756469557516 0.11393634357407668 -0.21076101932682334 0.30772834908981078 0.14158998406084031 -0.24826019516387163 0.34497770927492954 0.11437896253466885 -0.2104942589072562 0.34491623648556918 0.11447341478421094 -0.21049040842510139 0.34497770927492954 0.11437896253466885 -0.2104942589072562 0.34490565215982472 0.11441014233470659 -0.21052717405794144 0.34497770927492954 0.11437896253466885 -0.2104942589072562 0.32632229278768998 0.15221393004802147 -0.21201382881199338 0.34497770927492954 0.11437896253466885 -0.2104942589072562 0.34491623648556918 0.11447341478421094 -0.21049040842510139 0.34497770927492954 0.11437896253466885 -0.2104942589072562 0.34494127284166831 0.11437321836364769 -0.21047388382347232 0.33832343828134487 0.065408522599845392 -0.24000807613262623 0.33671528036906223 0.065070059879531961 -0.23908390605134494 0.34497770927492954 0.11437896253466885 -0.2104942589072562 0.34491623648556918 0.11447341478421094 -0.21049040842510139 0.34497770927492954 0.11437896253466885 -0.2104942589072562 0.34495184590909556 0.11443653586935273 -0.21043712562139441 0.37463218828009465 0.08561255940135501 -0.16942743499966592 0.37274271600341397 0.13260121054414975 -0.13514852897587273 0.33821278373985247 0.064594188229800453 -0.2404988643671169 0.30695412276984158 0.14117223628285444 -0.24915955019440927 0.33821278373985247 0.064594188229800453 -0.2404988643671169 0.30054781416879434 0.091351503106973514 -0.27588267893105295 0.34533752642960369 0.068665023483384352 -0.22661014673455543 0.33120783829990375 0.10732949675570085 -0.23069449131901598 0.33844173823630902 0.064725005029259403 -0.2400525486908239 0.33664526508610421 0.065030055532067588 -0.23922039133050688 0.3564904636949639 0.075037431888553441 -0.20486901120202888 0.34491623648556918 0.11447341478421094 -0.21049040842510139 0.33844173823630902 0.064725005029259403 -0.2400525486908239 0.33664526508610421 0.065030055532067588 -0.23922039133050688 0.3387246925744295 0.064886675498626992 -0.23950096766169887 0.33707660918479881 0.064613328568185135 -0.2385754019800167 0.36764340096032355 0.081409840293722238 -0.18312787566950331 0.35351371283062372 0.12007431356603877 -0.18721222025396392 0.37453918915361883 0.085349858747847507 -0.16968547371323378 0.37274271600341397 0.085654909250655692 -0.16885331635291673 0.34497770927492954 0.11444311321206273 -0.21044820235153019 0.34491623648556918 0.11447341478421094 -0.21049040842510139 0.34497770927492954 0.11444311321206273 -0.21044820235153019 0.34491623648556918 0.11447341478421094 -0.21049040842510139 0.34497770927492954 0.16280757446305441 -0.17572525638654396 0.34491623648556918 0.16283787603520264 -0.17576746246011515 0.34497770927492954 0.11444311321206273 -0.21044820235153019 0.34491623648556918 0.11447341478421094 -0.21049040842510139 0.34497770927492954 0.16287172514044826 -0.17567919983081795 0.32266514692353576 0.19817495816924935 -0.17457386584125673 0.34497770927492954 0.16280757446305441 -0.17572525638654396 0.34491623648556918 0.16283787603520264 -0.17576746246011515 0.34497770927492954 0.11444403547053976 -0.21044754022213941 0.34495242874510323 0.11443593225498966 -0.21043625351694809 0.35975088683073864 0.12362435971312302 -0.17310936873979718 0.37274271600341397 0.085654909250655692 -0.16885331635291673 0.34497770927492954 0.16280665220457738 -0.17572591851593472 0.34495242874510323 0.16279854898902729 -0.1757146318107434 0.34497770927492954 0.11450509575376699 -0.2104037023945225 0.34495242874510323 0.11449699253821689 -0.21039241568933117 0.34497770927492954 0.162860880649426 -0.17568698556162202 0.34493939856384376 0.16285298019267164 -0.17567598127255779 0.34497770927492954 0.16280665220457738 -0.17572591851593472 0.34495242874510323 0.16279854898902729 -0.17571463181074343 0.34497865617639445 0.11437955512756898 -0.21049186268564912 0.34491623648556918 0.11447341478421094 -0.21049040842510139 0.34497770927492954 0.11437896253466885 -0.2104942589072562 0.34490565215982472 0.11441014233470659 -0.21052717405794144 0.36013309529457715 0.12386355463512305 -0.17214215492356177 0.34491623648556918 0.16283787603520264 -0.17576746246011515 0.34497865617639445 0.11437955512756898 -0.21049186268564912 0.34491623648556918 0.11447341478421094 -0.21049040842510139 0.36013309529457715 0.12386355463512305 -0.17214215492356177 0.34491623648556918 0.16283787603520264 -0.17576746246011515 0.34501818456732591 0.11440429291147539 -0.21039183244179083 0.34499069619218803 0.11439630055688495 -0.21037899348099509 0.37433601858209448 0.086204521693437272 -0.16961885363534596 0.37274271600341397 0.085654909250655692 -0.16885331635291673 0.34497865617639445 0.11437955512756898 -0.21049186268564912 0.34491623648556918 0.11447341478421094 -0.21049040842510139 0.34501818456732591 0.11440429291147539 -0.2103918324417908 0.34499069619218803 0.11439630055688493 -0.21037899348099509 0.37476814365007532 0.13302250735611421 -0.13510681345427789 0.35496065138139321 0.16938791107402115 -0.13609593592026581 0.37446096208794066 0.13283026600945036 -0.13588416476671489 0.37274271600341397 0.13260121054414975 -0.13514852897587273 0.33824365700415038 0.20701729173967853 -0.13827332342348747 0.30054781416879434 0.23219040698745574 -0.17476831679992089 0.34497770927492954 0.16287172514044826 -0.17567919983081795 0.34491623648556918 0.16283787603520264 -0.17576746246011515 0.34497770927492954 0.16287172514044826 -0.17567919983081795 0.34491623648556918 0.16283787603520264 -0.17576746246011515 0.33831047870426839 0.20657923725268942 -0.13864450026551892 0.3366452650861041 0.20586895941254979 -0.13810602919937479 0.34497770927492954 0.16287172514044826 -0.17567919983081795 0.34490565215982472 0.16289294272345547 -0.17571926728951401 0.34497770927492954 0.16287172514044826 -0.17567919983081795 0.34495184590909561 0.16279918230728041 -0.17571548258947778 0.3563672516438669 0.17003342616622644 -0.13727235046144168 0.37274271600341397 0.13260121054414975 -0.13514852897587273 0.34497770927492954 0.16287172514044826 -0.17567919983081795 0.34494162018584912 0.16285442892832513 -0.1756672067309582 0.34497770927492954 0.16287172514044826 -0.17567919983081795 0.34494162018584912 0.16285442892832513 -0.1756672067309582 0.34497770927492954 0.16287172514044826 -0.17567919983081795 0.34491623648556918 0.16283787603520264 -0.17576746246011515 0.34497770927492954 0.16287172514044826 -0.17567919983081795 0.34491623648556918 0.16283787603520264 -0.17576746246011515 0.3563672516438669 0.17003342616622644 -0.13727235046144165 0.3366452650861041 0.20586895941254979 -0.13810602919937479 0.34497770927492954 0.16287172514044826 -0.17567919983081795 0.34490565215982472 0.16289294272345547 -0.17571926728951401 0.37463218828009465 0.13315873099744818 -0.13529197469534474 0.37274271600341397 0.085654909250655692 -0.16885331635291673 0.34497770927492954 0.16287172514044826 -0.17567919983081795 0.34495184590909561 0.16279918230728041 -0.17571548258947778 0.37433792820851225 0.1334535717121316 -0.13569273532773718 0.37274271600341397 0.13260121054414975 -0.13514852897587273 0.34497770927492954 0.16287172514044826 -0.17567919983081795 0.34494162018584912 0.16285442892832513 -0.1756672067309582 0.34497770927492954 0.16287172514044826 -0.17567919983081795 0.34494162018584912 0.16285442892832513 -0.1756672067309582</DataArray>
      </Points>
      <Lines>
        <DataArray type="Int32" Name="connectivity" format="ascii">0 1 2 3 4 5 6 7 8 9 10 11 12 13 14 15 16 17 18 19 20 21 22 23 24 25 26 27 28 29 30 31 32 33 34 35 36 37 38 39 40 41 42 43 44 45 46 47 48 49 50 51 52 53 54 55 56 57 58 59 60 61 62 63 64 65 66 67 68 69 70 71 72 73 74 75 76 77 78 79 80 81 82 83 84 85 86 87 88 89 90 91 92 93 94 95 96 97 98 99 100 101 102 103 104 105 106 107 108 109 110 111 112 113 114 115 116 117 118 119 120 121 122 123 124 125 126 127 128 129 130 131 132 133 134 135 136 137 138 139 140 141 142 143 144 145 146 147 148 149 150 151 152 153 154 155 156 157 158 159 160 161 162 163 164 165 166 167 168 169 170 171 172 173 174 175 176 177 178 179 180 181 182 183 184 185 186 187 188 189 190 191 192 193 194 195 196 197 198 199 200 201 202 203 204 205 206 207 208 209 210 211 212 213 214 215 216 217 218 219 220 221 222 223 224 225 226 227 228 229 230 231 232 233 234 235 236 237 238 239 240 241 242 243 244 245 246 247 248 249 250 251 252 253 254 255 256 257 258 259 260 261 262 263 264 265 266 267 268 269 270 271 272 273 274 275 276 277 278 279 280 281 282 283 284 285 286 287 288 289 290 291 292 293 294 295 296 297 298 299 300 301 302 303 304 305 306 307 308 309 310 311 312 313 314 315 316 317 318 319 320 321 322 323 324 325 326 327 328 329 330 331 332 333 334 335 336 337 338 339 340 341 342 343 344 345 346 347 348 349 350 351 352 353 354 355 356 357 358 359 360 361 362 363 364 365 366 367 368 369 370 371 372 373 374 375 376 377 378 379 380 381 382 383 384 385 386 387 388 389 390 391 392 393 394 395 396 397 398 399 400 401 402 403 404 405 406 407 408 409 410 411</DataArray>
        <DataArray type="Int32" Name="offsets" format="ascii">2 4 6 8 10 12 14 16 18 20 22 24 26 28 30 32 34 36 38 40 42 44 46 48 50 52 54 56 58 60 62 64 66 68 70 72 74 76 78 80 82 84 86 88 90 92 94 96 98 100 102 104 106 108 110 112 114 116 118 120 122 124 126 128 130 132 134 136 138 140 142 144 146 148 150 152 154 156 158 160 162 164 166 168 170 172 174 176 178 180 182 184 186 188 190 192 194 196 198 200 202 204 206 208 210 212 214 216 218 220 222 224 226 228 230 232 234 236 238 240 242 244 246 248 250 252 254 256 258 260 262 264 266 268 270 272 274 276 278 280 282 284 286 288 290 292 294 296 298 300 302 304 306 308 310 312 314 316 318 320 322 324 326 328 330 332 334 336 338 340 342 344 346 348 350 352 354 356 358 360 362 364 366 368 370 372 374 376 378 380 382 384 386 388 390 392 394 396 398 400 402 404 406 408 410 412</DataArray>
      </Lines>
      <Polys>
        <DataArray type="Int32" Name="connectivity" format="ascii"></DataArray>
        <DataArray type="Int32" Name="offsets" format="ascii"></DataArray>
      </Polys>
    </Piece>
  </PolyData>
</VTKFile>
