<?xml version="1.0"?>
<VTKFile type="PolyData" version="0.1" byte_order="LittleEndian">
  <PolyData>
    <Piece NumberOfPoints="4" NumberOfVerts="4" NumberOfLines="0" NumberOfStrips="0" NumberOfPolys="0">
      <FieldData>
        <DataArray type="Int32" Name="step" NumberOfTuples="1" format="ascii">6184</DataArray>
        <DataArray type="Float64" Name="time" NumberOfTuples="1" format="ascii">1.2368000000000001</DataArray>
        <DataArray type="Int32" Name="sdf_contact_points" NumberOfTuples="1" format="ascii">4</DataArray>
      </FieldData>
      <PointData>
        <DataArray type="Float64" Name="gap" format="ascii">-0.00047445129619430376 -0.00052606354959762848 -0.00052546132046672278 -0.00052534966317195305</DataArray>
        <DataArray type="Float64" Name="normal_lambda" format="ascii">109.04221269864185 0.035070903306508562 0.036778379521068626 0.052387456817402769</DataArray>
        <DataArray type="Float64" Name="normal_force" format="ascii">109.04221269864185 0.035070903306508562 0.036778379521068626 0.052387456817402769</DataArray>
        <DataArray type="Float64" Name="area_weight" format="ascii">6.3935999999999992e-05 2.1333333333333332e-08 2.1333333333333332e-08 2.1333333333333332e-08</DataArray>
        <DataArray type="Float64" Name="normal" NumberOfComponents="3" format="ascii">-0.78090712531935769 -0.36427441181908798 0.50743296554255779 -0.80275094110442746 -0.34781122231146855 0.48437411180838136 -0.7693527663096843 -0.39730429505020975 0.50024555780765534 -0.76939972169694637 -0.34727689653534327 0.53611829420888268</DataArray>
      </PointData>
      <Points>
        <DataArray type="Float64" NumberOfComponents="3" format="ascii">0.32816891673334481 0.1530814553612635 -0.2132381433774109 0.33736890008554526 0.14616734796695283 -0.20356411504530825 0.32332406141315384 0.16696405465809061 -0.21025060784727495 0.32334005686274869 0.14593863950538893 -0.22533045801844459</DataArray>
      </Points>
      <Verts>
        <DataArray type="Int32" Name="connectivity" format="ascii">0 1 2 3</DataArray>
        <DataArray type="Int32" Name="offsets" format="ascii">1 2 3 4</DataArray>
      </Verts>
    </Piece>
  </PolyData>
</VTKFile>
