<?xml version="1.0"?>
<VTKFile type="PolyData" version="0.1" byte_order="LittleEndian">
  <PolyData>
    <Piece NumberOfPoints="432" NumberOfVerts="0" NumberOfLines="216" NumberOfStrips="0" NumberOfPolys="0">
      <FieldData>
        <DataArray type="Int32" Name="step" NumberOfTuples="1" format="ascii">6184</DataArray>
        <DataArray type="Float64" Name="time" NumberOfTuples="1" format="ascii">1.2368000000000001</DataArray>
        <DataArray type="Int32" Name="candidate_pairs" NumberOfTuples="1" format="ascii">206</DataArray>
        <DataArray type="Int32" Name="contacts" NumberOfTuples="1" format="ascii">148</DataArray>
      </FieldData>
      <CellData Scalars="part_id">
        <DataArray type="Int32" Name="part_id" format="ascii">6 6 6 6 6 6 6 6 6 6 6 6 6 6 6 6 6 6 6 6 6 6 6 6 6 6 6 6 6 6 6 6 6 6 6 6 6 6 6 6 6 6 6 6 6 6 6 6 6 6 6 6 6 6 6 6 6 6 6 6 6 6 6 6 6 6 6 6 6 6 6 6 6 6 6 6 6 6 6 6 6 6 6 6 6 6 6 6 6 6 6 6 6 6 6 6 6 6 6 6 6 6 6 6 6 6 6 6 6 6 6 6 6 6 6 6 6 6 6 6 6 6 6 6 6 6 6 6 6 6 6 6 6 6 6 6 6 6 6 6 6 6 6 6 6 6 6 6 6 6 6 6 6 6 6 6 6 6 6 6 6 6 6 6 6 6 6 6 6 6 6 6 6 6 6 6 6 6 6 6 6 6 6 6 6 6 6 6 6 6 6 6 6 6 6 6 6 6 6 6 6 6 6 6 6 6 6 6 6 6 6 6 6 6 6 6</DataArray>
        <DataArray type="Int32" Name="candidate_pair" format="ascii">-1 -1 -1 -1 -1 -1 -1 -1 -1 -1 -1 -1 -1 -1 -1 -1 -1 -1 -1 -1 -1 -1 -1 -1 -1 -1 -1 -1 -1 -1 -1 -1 -1 -1 -1 -1 -1 -1 -1 -1 -1 -1 -1 -1 -1 -1 -1 -1 -1 -1 -1 -1 -1 -1 -1 -1 -1 -1 -1 -1 -1 -1 -1 -1 -1 -1 -1 -1 -1 -1 -1 -1 -1 -1 -1 -1 -1 -1 -1 -1 -1 -1 -1 -1 -1 -1 -1 -1 -1 -1 -1 -1 -1 -1 -1 -1 -1 -1 -1 -1 -1 -1 -1 -1 -1 -1 -1 -1 -1 -1 -1 -1 -1 -1 -1 -1 -1 -1 -1 -1 -1 -1 -1 -1 -1 -1 -1 -1 -1 -1 -1 -1 -1 -1 -1 -1 -1 -1 -1 -1 -1 -1 -1 -1 -1 -1 -1 -1 -1 -1 -1 -1 -1 -1 -1 -1 -1 -1 -1 -1 -1 -1 -1 -1 -1 -1 -1 -1 -1 -1 -1 -1 -1 -1 -1 -1 -1 -1 -1 -1 -1 -1 -1 -1 -1 -1 -1 -1 -1 -1 -1 -1 -1 -1 -1 -1 -1 -1 -1 -1 -1 -1 -1 -1 -1 -1 -1 -1 -1 -1 -1 -1 -1 -1 -1 -1</DataArray>
      </CellData>
      <Points>
        <DataArray type="Float64" NumberOfComponents="3" format="ascii">0.2433818799968922 0.09974112700132684 -0.32050362537245053 0.32321284944876749 0.09974112700132684 -0.32050362537245053 0.32321284944876749 0.09974112700132684 -0.32050362537245053 0.32321284944876749 0.18010375233433021 -0.32050362537245053 0.32321284944876749 0.18010375233433021 -0.32050362537245053 0.2433818799968922 0.18010375233433021 -0.32050362537245053 0.2433818799968922 0.18010375233433021 -0.32050362537245053 0.2433818799968922 0.09974112700132684 -0.32050362537245053 0.2433818799968922 0.09974112700132684 -0.23277569480491492 0.32321284944876749 0.09974112700132684 -0.23277569480491492 0.32321284944876749 0.09974112700132684 -0.23277569480491492 0.32321284944876749 0.18010375233433021 -0.23277569480491492 0.32321284944876749 0.18010375233433021 -0.23277569480491492 0.2433818799968922 0.18010375233433021 -0.23277569480491492 0.2433818799968922 0.18010375233433021 -0.23277569480491492 0.2433818799968922 0.09974112700132684 -0.23277569480491492 0.2433818799968922 0.09974112700132684 -0.32050362537245053 0.2433818799968922 0.09974112700132684 -0.23277569480491492 0.32321284944876749 0.09974112700132684 -0.32050362537245053 0.32321284944876749 0.09974112700132684 -0.23277569480491492 0.32321284944876749 0.18010375233433021 -0.32050362537245053 0.32321284944876749 0.18010375233433021 -0.23277569480491492 0.2433818799968922 0.18010375233433021 -0.32050362537245053 0.2433818799968922 0.18010375233433021 -0.23277569480491492 0.2433818799968922 0.075867002748016804 -0.32050362537245053 0.32321284944876749 0.075867002748016804 -0.32050362537245053 0.32321284944876749 0.075867002748016804 -0.32050362537245053 0.32321284944876749 0.15707448441979702 -0.32050362537245053 0.32321284944876749 0.15707448441979702 -0.32050362537245053 0.2433818799968922 0.15707448441979702 -0.32050362537245053 0.2433818799968922 0.15707448441979702 -0.32050362537245053 0.2433818799968922 0.075867002748016804 -0.32050362537245053 0.2433818799968922 0.075867002748016804 -0.23277569480491492 0.32321284944876749 0.075867002748016804 -0.23277569480491492 0.32321284944876749 0.075867002748016804 -0.23277569480491492 0.32321284944876749 0.15707448441979702 -0.23277569480491492 0.32321284944876749 0.15707448441979702 -0.23277569480491492 0.2433818799968922 0.15707448441979702 -0.23277569480491492 0.2433818799968922 0.15707448441979702 -0.23277569480491492 0.2433818799968922 0.075867002748016804 -0.23277569480491492 0.2433818799968922 0.075867002748016804 -0.32050362537245053 0.2433818799968922 0.075867002748016804 -0.23277569480491492 0.32321284944876749 0.075867002748016804 -0.32050362537245053 0.32321284944876749 0.075867002748016804 -0.23277569480491492 0.32321284944876749 0.15707448441979702 -0.32050362537245053 0.32321284944876749 0.15707448441979702 -0.23277569480491492 0.2433818799968922 0.15707448441979702 -0.32050362537245053 0.2433818799968922 0.15707448441979702 -0.23277569480491492 0.24870256665987892 0.14887145538376789 -0.29458797574616064 0.32347614568141642 0.14887145538376789 -0.29458797574616064 0.32347614568141642 0.14887145538376789 -0.29458797574616064 0.32347614568141642 0.22731334986047316 -0.29458797574616064 0.32347614568141642 0.22731334986047316 -0.29458797574616064 0.24870256665987892 0.22731334986047316 -0.29458797574616064 0.24870256665987892 0.22731334986047316 -0.29458797574616064 0.24870256665987892 0.14887145538376789 -0.29458797574616064 0.24870256665987892 0.14887145538376789 -0.19778945260727976 0.32347614568141642 0.14887145538376789 -0.19778945260727976 0.32347614568141642 0.14887145538376789 -0.19778945260727976 0.32347614568141642 0.22731334986047316 -0.19778945260727976 0.32347614568141642 0.22731334986047316 -0.19778945260727976 0.24870256665987892 0.22731334986047316 -0.19778945260727976 0.24870256665987892 0.22731334986047316 -0.19778945260727976 0.24870256665987892 0.14887145538376789 -0.19778945260727976 0.24870256665987892 0.14887145538376789 -0.29458797574616064 0.24870256665987892 0.14887145538376789 -0.19778945260727976 0.32347614568141642 0.14887145538376789 -0.29458797574616064 0.32347614568141642 0.14887145538376789 -0.19778945260727976 0.32347614568141642 0.22731334986047316 -0.29458797574616064 0.32347614568141642 0.22731334986047316 -0.19778945260727976 0.24870256665987892 0.22731334986047316 -0.29458797574616064 0.24870256665987892 0.22731334986047316 -0.19778945260727976 0.24870256665987892 0.1258421874692347 -0.29458797574616064 0.32347614568141642 0.1258421874692347 -0.29458797574616064 0.32347614568141642 0.1258421874692347 -0.29458797574616064 0.32347614568141642 0.20570224190343758 -0.29458797574616064 0.32347614568141642 0.20570224190343758 -0.29458797574616064 0.24870256665987892 0.20570224190343758 -0.29458797574616064 0.24870256665987892 0.20570224190343758 -0.29458797574616064 0.24870256665987892 0.1258421874692347 -0.29458797574616064 0.24870256665987892 0.1258421874692347 -0.19778945260727976 0.32347614568141642 0.1258421874692347 -0.19778945260727976 0.32347614568141642 0.1258421874692347 -0.19778945260727976 0.32347614568141642 0.20570224190343758 -0.19778945260727976 0.32347614568141642 0.20570224190343758 -0.19778945260727976 0.24870256665987892 0.20570224190343758 -0.19778945260727976 0.24870256665987892 0.20570224190343758 -0.19778945260727976 0.24870256665987892 0.1258421874692347 -0.19778945260727976 0.24870256665987892 0.1258421874692347 -0.29458797574616064 0.24870256665987892 0.1258421874692347 -0.19778945260727976 0.32347614568141642 0.1258421874692347 -0.29458797574616064 0.32347614568141642 0.1258421874692347 -0.19778945260727976 0.32347614568141642 0.20570224190343758 -0.29458797574616064 0.32347614568141642 0.20570224190343758 -0.19778945260727976 0.24870256665987892 0.20570224190343758 -0.29458797574616064 0.24870256665987892 0.20570224190343758 -0.19778945260727976 0.24317366460062056 0.19587283751363921 -0.26082810753273933 0.31624052992402268 0.19587283751363921 -0.26082810753273933 0.31624052992402268 0.19587283751363921 -0.26082810753273933 0.31624052992402268 0.26785633421734795 -0.26082810753273933 0.31624052992402268 0.26785633421734795 -0.26082810753273933 0.24317366460062056 0.26785633421734795 -0.26082810753273933 0.24317366460062056 0.26785633421734795 -0.26082810753273933 0.24317366460062056 0.19587283751363921 -0.26082810753273933 0.24317366460062056 0.19587283751363921 -0.15907560104469254 0.31624052992402268 0.19587283751363921 -0.15907560104469254 0.31624052992402268 0.19587283751363921 -0.15907560104469254 0.31624052992402268 0.26785633421734795 -0.15907560104469254 0.31624052992402268 0.26785633421734795 -0.15907560104469254 0.24317366460062056 0.26785633421734795 -0.15907560104469254 0.24317366460062056 0.26785633421734795 -0.15907560104469254 0.24317366460062056 0.19587283751363921 -0.15907560104469254 0.24317366460062056 0.19587283751363921 -0.26082810753273933 0.24317366460062056 0.19587283751363921 -0.15907560104469254 0.31624052992402268 0.19587283751363921 -0.26082810753273933 0.31624052992402268 0.19587283751363921 -0.15907560104469254 0.31624052992402268 0.26785633421734795 -0.26082810753273933 0.31624052992402268 0.26785633421734795 -0.15907560104469254 0.24317366460062056 0.26785633421734795 -0.26082810753273933 0.24317366460062056 0.26785633421734795 -0.15907560104469254 0.24875764749625617 0.17426172955660363 -0.26082810753273933 0.32342106484503913 0.17426172955660363 -0.26082810753273933 0.32342106484503913 0.17426172955660363 -0.26082810753273933 0.32342106484503913 0.24788312274268409 -0.26082810753273933 0.32342106484503913 0.24788312274268409 -0.26082810753273933 0.24875764749625617 0.24788312274268409 -0.26082810753273933 0.24875764749625617 0.24788312274268409 -0.26082810753273933 0.24875764749625617 0.17426172955660363 -0.26082810753273933 0.24875764749625617 0.17426172955660363 -0.15907560104469254 0.32342106484503913 0.17426172955660363 -0.15907560104469254 0.32342106484503913 0.17426172955660363 -0.15907560104469254 0.32342106484503913 0.24788312274268409 -0.15907560104469254 0.32342106484503913 0.24788312274268409 -0.15907560104469254 0.24875764749625617 0.24788312274268409 -0.15907560104469254 0.24875764749625617 0.24788312274268409 -0.15907560104469254 0.24875764749625617 0.17426172955660363 -0.15907560104469254 0.24875764749625617 0.17426172955660363 -0.26082810753273933 0.24875764749625617 0.17426172955660363 -0.15907560104469254 0.32342106484503913 0.17426172955660363 -0.26082810753273933 0.32342106484503913 0.17426172955660363 -0.15907560104469254 0.32342106484503913 0.24788312274268409 -0.26082810753273933 0.32342106484503913 0.24788312274268409 -0.15907560104469254 0.24875764749625617 0.24788312274268409 -0.26082810753273933 0.24875764749625617 0.24788312274268409 -0.15907560104469254 0.2848000175771887 0.075603706515367894 -0.29163047552265858 0.36066403307717482 0.075603706515367894 -0.29163047552265858 0.36066403307717482 0.075603706515367894 -0.29163047552265858 0.36066403307717482 0.15733778065244591 -0.29163047552265858 0.36066403307717482 0.15733778065244591 -0.29163047552265858 0.2848000175771887 0.15733778065244591 -0.29163047552265858 0.2848000175771887 0.15733778065244591 -0.29163047552265858 0.2848000175771887 0.075603706515367894 -0.29163047552265858 0.2848000175771887 0.075603706515367894 -0.19474261183349578 0.36066403307717482 0.075603706515367894 -0.19474261183349578 0.36066403307717482 0.075603706515367894 -0.19474261183349578 0.36066403307717482 0.15733778065244591 -0.19474261183349578 0.36066403307717482 0.15733778065244591 -0.19474261183349578 0.2848000175771887 0.15733778065244591 -0.19474261183349578 0.2848000175771887 0.15733778065244591 -0.19474261183349578 0.2848000175771887 0.075603706515367894 -0.19474261183349578 0.2848000175771887 0.075603706515367894 -0.29163047552265858 0.2848000175771887 0.075603706515367894 -0.19474261183349578 0.36066403307717482 0.075603706515367894 -0.29163047552265858 0.36066403307717482 0.075603706515367894 -0.19474261183349578 0.36066403307717482 0.15733778065244591 -0.29163047552265858 0.36066403307717482 0.15733778065244591 -0.19474261183349578 0.2848000175771887 0.15733778065244591 -0.29163047552265858 0.2848000175771887 0.15733778065244591 -0.19474261183349578 0.2848000175771887 0.049282258940461968 -0.29163047552265858 0.36066403307717482 0.049282258940461968 -0.29163047552265858 0.36066403307717482 0.049282258940461968 -0.29163047552265858 0.36066403307717482 0.13022121137581655 -0.29163047552265858 0.36066403307717482 0.13022121137581655 -0.29163047552265858 0.2848000175771887 0.13022121137581655 -0.29163047552265858 0.2848000175771887 0.13022121137581655 -0.29163047552265858 0.2848000175771887 0.049282258940461968 -0.29163047552265858 0.2848000175771887 0.049282258940461968 -0.19474261183349578 0.36066403307717482 0.049282258940461968 -0.19474261183349578 0.36066403307717482 0.049282258940461968 -0.19474261183349578 0.36066403307717482 0.13022121137581655 -0.19474261183349578 0.36066403307717482 0.13022121137581655 -0.19474261183349578 0.2848000175771887 0.13022121137581655 -0.19474261183349578 0.2848000175771887 0.13022121137581655 -0.19474261183349578 0.2848000175771887 0.049282258940461968 -0.19474261183349578 0.2848000175771887 0.049282258940461968 -0.29163047552265858 0.2848000175771887 0.049282258940461968 -0.19474261183349578 0.36066403307717482 0.049282258940461968 -0.29163047552265858 0.36066403307717482 0.049282258940461968 -0.19474261183349578 0.36066403307717482 0.13022121137581655 -0.29163047552265858 0.36066403307717482 0.13022121137581655 -0.19474261183349578 0.2848000175771887 0.13022121137581655 -0.29163047552265858 0.2848000175771887 0.13022121137581655 -0.19474261183349578 0.2918085783891915 0.12567021336022102 -0.26417996586449094 0.36083600718618847 0.12567021336022102 -0.26417996586449094 0.36083600718618847 0.12567021336022102 -0.26417996586449094 0.36083600718618847 0.20587421601245126 -0.26417996586449094 0.36083600718618847 0.20587421601245126 -0.26417996586449094 0.2918085783891915 0.20587421601245126 -0.26417996586449094 0.2918085783891915 0.20587421601245126 -0.26417996586449094 0.2918085783891915 0.12567021336022102 -0.26417996586449094 0.2918085783891915 0.12567021336022102 -0.15984769175949587 0.36083600718618847 0.12567021336022102 -0.15984769175949587 0.36083600718618847 0.12567021336022102 -0.15984769175949587 0.36083600718618847 0.20587421601245126 -0.15984769175949587 0.36083600718618847 0.20587421601245126 -0.15984769175949587 0.2918085783891915 0.20587421601245126 -0.15984769175949587 0.2918085783891915 0.20587421601245126 -0.15984769175949587 0.2918085783891915 0.12567021336022102 -0.15984769175949587 0.2918085783891915 0.12567021336022102 -0.26417996586449094 0.2918085783891915 0.12567021336022102 -0.15984769175949587 0.36083600718618847 0.12567021336022102 -0.26417996586449094 0.36083600718618847 0.12567021336022102 -0.15984769175949587 0.36083600718618847 0.20587421601245126 -0.26417996586449094 0.36083600718618847 0.20587421601245126 -0.15984769175949587 0.2918085783891915 0.20587421601245126 -0.26417996586449094 0.2918085783891915 0.20587421601245126 -0.15984769175949587 0.2918085783891915 0.098553644083591643 -0.26417996586449094 0.36083600718618847 0.098553644083591643 -0.26417996586449094 0.36083600718618847 0.098553644083591643 -0.26417996586449094 0.36083600718618847 0.17875764673582192 -0.26417996586449094 0.36083600718618847 0.17875764673582192 -0.26417996586449094 0.2918085783891915 0.17875764673582192 -0.26417996586449094 0.2918085783891915 0.17875764673582192 -0.26417996586449094 0.2918085783891915 0.098553644083591643 -0.26417996586449094 0.2918085783891915 0.098553644083591643 -0.15984769175949587 0.36083600718618847 0.098553644083591643 -0.15984769175949587 0.36083600718618847 0.098553644083591643 -0.15984769175949587 0.36083600718618847 0.17875764673582192 -0.15984769175949587 0.36083600718618847 0.17875764673582192 -0.15984769175949587 0.2918085783891915 0.17875764673582192 -0.15984769175949587 0.2918085783891915 0.17875764673582192 -0.15984769175949587 0.2918085783891915 0.098553644083591643 -0.15984769175949587 0.2918085783891915 0.098553644083591643 -0.26417996586449094 0.2918085783891915 0.098553644083591643 -0.15984769175949587 0.36083600718618847 0.098553644083591643 -0.26417996586449094 0.36083600718618847 0.098553644083591643 -0.15984769175949587 0.36083600718618847 0.17875764673582192 -0.26417996586449094 0.36083600718618847 0.17875764673582192 -0.15984769175949587 0.2918085783891915 0.17875764673582192 -0.26417996586449094 0.2918085783891915 0.17875764673582192 -0.15984769175949587 0.2848000175771887 0.17420664872022634 -0.229285045790491 0.35239306167770973 0.17420664872022634 -0.229285045790491 0.35239306167770973 0.17420664872022634 -0.229285045790491 0.35239306167770973 0.24793820357906138 -0.229285045790491 0.35239306167770973 0.24793820357906138 -0.229285045790491 0.2848000175771887 0.24793820357906138 -0.229285045790491 0.2848000175771887 0.24793820357906138 -0.229285045790491 0.2848000175771887 0.17420664872022634 -0.229285045790491 0.2848000175771887 0.17420664872022634 -0.12235823260776917 0.35239306167770973 0.17420664872022634 -0.12235823260776917 0.35239306167770973 0.17420664872022634 -0.12235823260776917 0.35239306167770973 0.24793820357906138 -0.12235823260776917 0.35239306167770973 0.24793820357906138 -0.12235823260776917 0.2848000175771887 0.24793820357906138 -0.12235823260776917 0.2848000175771887 0.24793820357906138 -0.12235823260776917 0.2848000175771887 0.17420664872022634 -0.12235823260776917 0.2848000175771887 0.17420664872022634 -0.229285045790491 0.2848000175771887 0.17420664872022634 -0.12235823260776917 0.35239306167770973 0.17420664872022634 -0.229285045790491 0.35239306167770973 0.17420664872022634 -0.12235823260776917 0.35239306167770973 0.24793820357906138 -0.229285045790491 0.35239306167770973 0.24793820357906138 -0.12235823260776917 0.2848000175771887 0.24793820357906138 -0.229285045790491 0.2848000175771887 0.24793820357906138 -0.12235823260776917 0.29198055249820515 0.147090079443597 -0.229285045790491 0.36066403307717482 0.147090079443597 -0.229285045790491 0.36066403307717482 0.147090079443597 -0.229285045790491 0.36066403307717482 0.22161675600415542 -0.229285045790491 0.36066403307717482 0.22161675600415542 -0.229285045790491 0.29198055249820515 0.22161675600415542 -0.229285045790491 0.29198055249820515 0.22161675600415542 -0.229285045790491 0.29198055249820515 0.147090079443597 -0.229285045790491 0.29198055249820515 0.147090079443597 -0.12235823260776917 0.36066403307717482 0.147090079443597 -0.12235823260776917 0.36066403307717482 0.147090079443597 -0.12235823260776917 0.36066403307717482 0.22161675600415542 -0.12235823260776917 0.36066403307717482 0.22161675600415542 -0.12235823260776917 0.29198055249820515 0.22161675600415542 -0.12235823260776917 0.29198055249820515 0.22161675600415542 -0.12235823260776917 0.29198055249820515 0.147090079443597 -0.12235823260776917 0.29198055249820515 0.147090079443597 -0.229285045790491 0.29198055249820515 0.147090079443597 -0.12235823260776917 0.36066403307717482 0.147090079443597 -0.229285045790491 0.36066403307717482 0.147090079443597 -0.12235823260776917 0.36066403307717482 0.22161675600415542 -0.229285045790491 0.36066403307717482 0.22161675600415542 -0.12235823260776917 0.29198055249820515 0.22161675600415542 -0.229285045790491 0.29198055249820515 0.22161675600415542 -0.12235823260776917 0.32095254933087586 0.049337339776839247 -0.25491310708573522 0.38843543175864231 0.049337339776839247 -0.25491310708573522 0.38843543175864231 0.049337339776839247 -0.25491310708573522 0.38843543175864231 0.13016613053943929 -0.25491310708573522 0.38843543175864231 0.13016613053943929 -0.25491310708573522 0.32095254933087586 0.13016613053943929 -0.25491310708573522 0.32095254933087586 0.13016613053943929 -0.25491310708573522 0.32095254933087586 0.049337339776839247 -0.25491310708573522 0.32095254933087586 0.049337339776839247 -0.15316060059768838 0.38843543175864231 0.049337339776839247 -0.15316060059768838 0.38843543175864231 0.049337339776839247 -0.15316060059768838 0.38843543175864231 0.13016613053943929 -0.15316060059768838 0.38843543175864231 0.13016613053943929 -0.15316060059768838 0.32095254933087586 0.13016613053943929 -0.15316060059768838 0.32095254933087586 0.13016613053943929 -0.15316060059768838 0.32095254933087586 0.049337339776839247 -0.15316060059768838 0.32095254933087586 0.049337339776839247 -0.25491310708573522 0.32095254933087586 0.049337339776839247 -0.15316060059768838 0.38843543175864231 0.049337339776839247 -0.25491310708573522 0.38843543175864231 0.049337339776839247 -0.15316060059768838 0.38843543175864231 0.13016613053943929 -0.25491310708573522 0.38843543175864231 0.13016613053943929 -0.15316060059768838 0.32095254933087586 0.13016613053943929 -0.25491310708573522 0.32095254933087586 0.13016613053943929 -0.15316060059768838 0.32095254933087586 0.022755699034755841 -0.25491310708573522 0.38843543175864231 0.022755699034755841 -0.25491310708573522 0.38843543175864231 0.022755699034755841 -0.25491310708573522 0.38843543175864231 0.10134762500588404 -0.25491310708573522 0.38843543175864231 0.10134762500588404 -0.25491310708573522 0.32095254933087586 0.10134762500588404 -0.25491310708573522 0.32095254933087586 0.10134762500588404 -0.25491310708573522 0.32095254933087586 0.022755699034755841 -0.25491310708573522 0.32095254933087586 0.022755699034755841 -0.15316060059768838 0.38843543175864231 0.022755699034755841 -0.15316060059768838 0.38843543175864231 0.022755699034755841 -0.15316060059768838 0.38843543175864231 0.10134762500588404 -0.15316060059768838 0.38843543175864231 0.10134762500588404 -0.15316060059768838 0.32095254933087586 0.10134762500588404 -0.15316060059768838 0.32095254933087586 0.10134762500588404 -0.15316060059768838 0.32095254933087586 0.022755699034755841 -0.15316060059768838 0.32095254933087586 0.022755699034755841 -0.25491310708573522 0.32095254933087586 0.022755699034755841 -0.15316060059768838 0.38843543175864231 0.022755699034755841 -0.25491310708573522 0.38843543175864231 0.022755699034755841 -0.15316060059768838 0.38843543175864231 0.10134762500588404 -0.25491310708573522 0.38843543175864231 0.10134762500588404 -0.15316060059768838 0.32095254933087586 0.10134762500588404 -0.25491310708573522 0.32095254933087586 0.10134762500588404 -0.15316060059768838 0.32916843989396355 0.098725618192605322 -0.22623820501670699 0.3884905125950196 0.098725618192605322 -0.22623820501670699 0.3884905125950196 0.098725618192605322 -0.22623820501670699 0.3884905125950196 0.17858567262680825 -0.22623820501670699 0.3884905125950196 0.17858567262680825 -0.22623820501670699 0.32916843989396355 0.17858567262680825 -0.22623820501670699 0.32916843989396355 0.17858567262680825 -0.22623820501670699 0.32916843989396355 0.098725618192605322 -0.22623820501670699 0.32916843989396355 0.098725618192605322 -0.11940073238426711 0.3884905125950196 0.098725618192605322 -0.11940073238426711 0.3884905125950196 0.098725618192605322 -0.11940073238426711 0.3884905125950196 0.17858567262680825 -0.11940073238426711 0.3884905125950196 0.17858567262680825 -0.11940073238426711 0.32916843989396355 0.17858567262680825 -0.11940073238426711 0.32916843989396355 0.17858567262680825 -0.11940073238426711 0.32916843989396355 0.098725618192605322 -0.11940073238426711 0.32916843989396355 0.098725618192605322 -0.22623820501670699 0.32916843989396355 0.098725618192605322 -0.11940073238426711 0.3884905125950196 0.098725618192605322 -0.22623820501670699 0.3884905125950196 0.098725618192605322 -0.11940073238426711 0.3884905125950196 0.17858567262680825 -0.22623820501670699 0.3884905125950196 0.17858567262680825 -0.11940073238426711 0.32916843989396355 0.17858567262680825 -0.22623820501670699 0.32916843989396355 0.17858567262680825 -0.11940073238426711 0.32916843989396355 0.069907112659050072 -0.22623820501670699 0.3884905125950196 0.069907112659050072 -0.22623820501670699 0.3884905125950196 0.069907112659050072 -0.22623820501670699 0.3884905125950196 0.14834900713575536 -0.22623820501670699 0.3884905125950196 0.14834900713575536 -0.22623820501670699 0.32916843989396355 0.14834900713575536 -0.22623820501670699 0.32916843989396355 0.14834900713575536 -0.22623820501670699 0.32916843989396355 0.069907112659050072 -0.22623820501670699 0.32916843989396355 0.069907112659050072 -0.11940073238426711 0.3884905125950196 0.069907112659050072 -0.11940073238426711 0.3884905125950196 0.069907112659050072 -0.11940073238426711 0.3884905125950196 0.14834900713575536 -0.11940073238426711 0.3884905125950196 0.14834900713575536 -0.11940073238426711 0.32916843989396355 0.14834900713575536 -0.11940073238426711 0.32916843989396355 0.14834900713575536 -0.11940073238426711 0.32916843989396355 0.069907112659050072 -0.11940073238426711 0.32916843989396355 0.069907112659050072 -0.22623820501670699 0.32916843989396355 0.069907112659050072 -0.11940073238426711 0.3884905125950196 0.069907112659050072 -0.22623820501670699 0.3884905125950196 0.069907112659050072 -0.11940073238426711 0.3884905125950196 0.14834900713575536 -0.22623820501670699 0.3884905125950196 0.14834900713575536 -0.11940073238426711 0.32916843989396355 0.14834900713575536 -0.22623820501670699 0.32916843989396355 0.14834900713575536 -0.11940073238426711 0.32116076472714739 0.14735337567624593 -0.19125196281907186 0.37964378508251484 0.14735337567624593 -0.19125196281907186 0.37964378508251484 0.14735337567624593 -0.19125196281907186 0.37964378508251484 0.2213534597715065 -0.19125196281907186 0.37964378508251484 0.2213534597715065 -0.19125196281907186 0.32116076472714739 0.2213534597715065 -0.19125196281907186 0.32116076472714739 0.2213534597715065 -0.19125196281907186 0.32116076472714739 0.14735337567624593 -0.19125196281907186 0.32116076472714739 0.14735337567624593 -0.084280416726577656 0.37964378508251484 0.14735337567624593 -0.084280416726577656 0.37964378508251484 0.14735337567624593 -0.084280416726577656 0.37964378508251484 0.2213534597715065 -0.084280416726577656 0.37964378508251484 0.2213534597715065 -0.084280416726577656 0.32116076472714739 0.2213534597715065 -0.084280416726577656 0.32116076472714739 0.2213534597715065 -0.084280416726577656 0.32116076472714739 0.14735337567624593 -0.084280416726577656 0.32116076472714739 0.14735337567624593 -0.19125196281907186 0.32116076472714739 0.14735337567624593 -0.084280416726577656 0.37964378508251484 0.14735337567624593 -0.19125196281907186 0.37964378508251484 0.14735337567624593 -0.084280416726577656 0.37964378508251484 0.2213534597715065 -0.19125196281907186 0.37964378508251484 0.2213534597715065 -0.084280416726577656 0.32116076472714739 0.2213534597715065 -0.19125196281907186 0.32116076472714739 0.2213534597715065 -0.084280416726577656 0.32943173612661247 0.11711671018519304 -0.19125196281907186 0.38822721636237068 0.11711671018519304 -0.19125196281907186 0.38822721636237068 0.11711671018519304 -0.19125196281907186 0.38822721636237068 0.19087090625077696 -0.19125196281907186 0.38822721636237068 0.19087090625077696 -0.19125196281907186 0.32943173612661247 0.19087090625077696 -0.19125196281907186 0.32943173612661247 0.19087090625077696 -0.19125196281907186 0.32943173612661247 0.11711671018519304 -0.19125196281907186 0.32943173612661247 0.11711671018519304 -0.084280416726577656 0.38822721636237068 0.11711671018519304 -0.084280416726577656 0.38822721636237068 0.11711671018519304 -0.084280416726577656 0.38822721636237068 0.19087090625077696 -0.084280416726577656 0.38822721636237068 0.19087090625077696 -0.084280416726577656 0.32943173612661247 0.19087090625077696 -0.084280416726577656 0.32943173612661247 0.19087090625077696 -0.084280416726577656 0.32943173612661247 0.11711671018519304 -0.084280416726577656 0.32943173612661247 0.11711671018519304 -0.19125196281907186 0.32943173612661247 0.11711671018519304 -0.084280416726577656 0.38822721636237068 0.11711671018519304 -0.19125196281907186 0.38822721636237068 0.11711671018519304 -0.084280416726577656 0.38822721636237068 0.19087090625077696 -0.19125196281907186 0.38822721636237068 0.19087090625077696 -0.084280416726577656 0.32943173612661247 0.19087090625077696 -0.19125196281907186 0.32943173612661247 0.19087090625077696 -0.084280416726577656</DataArray>
      </Points>
      <Lines>
        <DataArray type="Int32" Name="connectivity" format="ascii">0 1 2 3 4 5 6 7 8 9 10 11 12 13 14 15 16 17 18 19 20 21 22 23 24 25 26 27 28 29 30 31 32 33 34 35 36 37 38 39 40 41 42 43 44 45 46 47 48 49 50 51 52 53 54 55 56 57 58 59 60 61 62 63 64 65 66 67 68 69 70 71 72 73 74 75 76 77 78 79 80 81 82 83 84 85 86 87 88 89 90 91 92 93 94 95 96 97 98 99 100 101 102 103 104 105 106 107 108 109 110 111 112 113 114 115 116 117 118 119 120 121 122 123 124 125 126 127 128 129 130 131 132 133 134 135 136 137 138 139 140 141 142 143 144 145 146 147 148 149 150 151 152 153 154 155 156 157 158 159 160 161 162 163 164 165 166 167 168 169 170 171 172 173 174 175 176 177 178 179 180 181 182 183 184 185 186 187 188 189 190 191 192 193 194 195 196 197 198 199 200 201 202 203 204 205 206 207 208 209 210 211 212 213 214 215 216 217 218 219 220 221 222 223 224 225 226 227 228 229 230 231 232 233 234 235 236 237 238 239 240 241 242 243 244 245 246 247 248 249 250 251 252 253 254 255 256 257 258 259 260 261 262 263 264 265 266 267 268 269 270 271 272 273 274 275 276 277 278 279 280 281 282 283 284 285 286 287 288 289 290 291 292 293 294 295 296 297 298 299 300 301 302 303 304 305 306 307 308 309 310 311 312 313 314 315 316 317 318 319 320 321 322 323 324 325 326 327 328 329 330 331 332 333 334 335 336 337 338 339 340 341 342 343 344 345 346 347 348 349 350 351 352 353 354 355 356 357 358 359 360 361 362 363 364 365 366 367 368 369 370 371 372 373 374 375 376 377 378 379 380 381 382 383 384 385 386 387 388 389 390 391 392 393 394 395 396 397 398 399 400 401 402 403 404 405 406 407 408 409 410 411 412 413 414 415 416 417 418 419 420 421 422 423 424 425 426 427 428 429 430 431</DataArray>
        <DataArray type="Int32" Name="offsets" format="ascii">2 4 6 8 10 12 14 16 18 20 22 24 26 28 30 32 34 36 38 40 42 44 46 48 50 52 54 56 58 60 62 64 66 68 70 72 74 76 78 80 82 84 86 88 90 92 94 96 98 100 102 104 106 108 110 112 114 116 118 120 122 124 126 128 130 132 134 136 138 140 142 144 146 148 150 152 154 156 158 160 162 164 166 168 170 172 174 176 178 180 182 184 186 188 190 192 194 196 198 200 202 204 206 208 210 212 214 216 218 220 222 224 226 228 230 232 234 236 238 240 242 244 246 248 250 252 254 256 258 260 262 264 266 268 270 272 274 276 278 280 282 284 286 288 290 292 294 296 298 300 302 304 306 308 310 312 314 316 318 320 322 324 326 328 330 332 334 336 338 340 342 344 346 348 350 352 354 356 358 360 362 364 366 368 370 372 374 376 378 380 382 384 386 388 390 392 394 396 398 400 402 404 406 408 410 412 414 416 418 420 422 424 426 428 430 432</DataArray>
      </Lines>
      <Polys>
        <DataArray type="Int32" Name="connectivity" format="ascii"></DataArray>
        <DataArray type="Int32" Name="offsets" format="ascii"></DataArray>
      </Polys>
    </Piece>
  </PolyData>
</VTKFile>
