<?xml version="1.0"?>
<VTKFile type="PolyData" version="0.1" byte_order="LittleEndian">
  <PolyData>
    <Piece NumberOfPoints="54" NumberOfVerts="0" NumberOfLines="0" NumberOfStrips="0" NumberOfPolys="18">
      <FieldData>
        <DataArray type="Int32" Name="step" NumberOfTuples="1" format="ascii">6184</DataArray>
        <DataArray type="Float64" Name="time" NumberOfTuples="1" format="ascii">1.2368000000000001</DataArray>
        <DataArray type="Int32" Name="candidate_pairs" NumberOfTuples="1" format="ascii">206</DataArray>
        <DataArray type="Int32" Name="contacts" NumberOfTuples="1" format="ascii">148</DataArray>
      </FieldData>
      <CellData Scalars="part_id">
        <DataArray type="Int32" Name="part_id" format="ascii">1 1 1 1 1 1 1 1 1 1 1 1 1 1 1 1 1 1</DataArray>
        <DataArray type="Int32" Name="candidate_pair" format="ascii">-1 -1 -1 -1 -1 -1 -1 -1 -1 -1 -1 -1 -1 -1 -1 -1 -1 -1</DataArray>
      </CellData>
      <Points>
        <DataArray type="Float64" NumberOfComponents="3" format="ascii">0.26009968869459882 0.1156800569755058 -0.30881430724484987 0.26510206391940683 0.16544670902121167 -0.28062124327948035 0.30769116976538435 0.1415674667090599 -0.24836424142373764 0.26009968869459882 0.1156800569755058 -0.30881430724484987 0.30769116976538435 0.1415674667090599 -0.24836424142373764 0.30165742382962968 0.091249532721102172 -0.27762622611463006 0.26510206391940683 0.16544670902121167 -0.28062124327948035 0.26510206391940683 0.21298854083001939 -0.24648889869681742 0.30769116976538435 0.19006022931483929 -0.21354918234729942 0.26510206391940683 0.16544670902121167 -0.28062124327948035 0.30769116976538435 0.19006022931483929 -0.21354918234729942 0.30769116976538435 0.1415674667090599 -0.24836424142373764 0.26510206391940683 0.21298854083001939 -0.24648889869681742 0.26009968869459882 0.2556142634915417 -0.20834946661954645 0.30165742382962957 0.23387502814752537 -0.17522919236664131 0.26510206391940683 0.21298854083001939 -0.24648889869681742 0.30165742382962957 0.23387502814752537 -0.17522919236664131 0.30769116976538435 0.19006022931483929 -0.21354918234729942 0.30165742382962968 0.091249532721102172 -0.27762622611463006 0.30769116976538435 0.1415674667090599 -0.24836424142373764 0.34497770927492954 0.11437896253466885 -0.2104942589072562 0.30165742382962968 0.091249532721102172 -0.27762622611463006 0.34497770927492954 0.11437896253466885 -0.2104942589072562 0.33821278373985247 0.064594188229800453 -0.2404988643671169 0.30769116976538435 0.1415674667090599 -0.24836424142373764 0.30769116976538435 0.19006022931483929 -0.21354918234729942 0.34497770927492954 0.16287172514044826 -0.17567919983081795 0.30769116976538435 0.1415674667090599 -0.24836424142373764 0.34497770927492954 0.16287172514044826 -0.17567919983081795 0.34497770927492954 0.11437896253466885 -0.2104942589072562 0.30769116976538435 0.19006022931483929 -0.21354918234729942 0.30165742382962957 0.23387502814752537 -0.17522919236664131 0.33821278373985247 0.20721968365622373 -0.13810183061912817 0.30769116976538435 0.19006022931483929 -0.21354918234729942 0.33821278373985247 0.20721968365622373 -0.13810183061912817 0.34497770927492954 0.16287172514044826 -0.17567919983081795 0.33821278373985247 0.064594188229800453 -0.2404988643671169 0.34497770927492954 0.11437896253466885 -0.2104942589072562 0.37476814365007532 0.085480675547306442 -0.16923915803694081 0.33821278373985247 0.064594188229800453 -0.2404988643671169 0.37476814365007532 0.085480675547306442 -0.16923915803694081 0.36769641116664831 0.037222952171419001 -0.19953395963296913 0.34497770927492954 0.11437896253466885 -0.2104942589072562 0.34497770927492954 0.16287172514044826 -0.17567919983081795 0.37476814365007532 0.13302250735611421 -0.13510681345427789 0.34497770927492954 0.11437896253466885 -0.2104942589072562 0.37476814365007532 0.13302250735611421 -0.13510681345427789 0.37476814365007532 0.085480675547306442 -0.16923915803694081 0.34497770927492954 0.16287172514044826 -0.17567919983081795 0.33821278373985247 0.20721968365622373 -0.13810183061912817 0.36769641116664831 0.17715715868745488 -0.099069119007665712 0.34497770927492954 0.16287172514044826 -0.17567919983081795 0.36769641116664831 0.17715715868745488 -0.099069119007665712 0.37476814365007532 0.13302250735611421 -0.13510681345427789</DataArray>
      </Points>
      <Lines>
        <DataArray type="Int32" Name="connectivity" format="ascii"></DataArray>
        <DataArray type="Int32" Name="offsets" format="ascii"></DataArray>
      </Lines>
      <Polys>
        <DataArray type="Int32" Name="connectivity" format="ascii">0 1 2 3 4 5 6 7 8 9 10 11 12 13 14 15 16 17 18 19 20 21 22 23 24 25 26 27 28 29 30 31 32 33 34 35 36 37 38 39 40 41 42 43 44 45 46 47 48 49 50 51 52 53</DataArray>
        <DataArray type="Int32" Name="offsets" format="ascii">3 6 9 12 15 18 21 24 27 30 33 36 39 42 45 48 51 54</DataArray>
      </Polys>
    </Piece>
  </PolyData>
</VTKFile>
