<?xml version="1.0"?>
<VTKFile type="PolyData" version="0.1" byte_order="LittleEndian">
  <PolyData>
    <Piece NumberOfPoints="24" NumberOfVerts="0" NumberOfLines="0" NumberOfStrips="0" NumberOfPolys="8">
      <FieldData>
        <DataArray type="Int32" Name="step" NumberOfTuples="1" format="ascii">6184</DataArray>
        <DataArray type="Float64" Name="time" NumberOfTuples="1" format="ascii">1.2368000000000001</DataArray>
        <DataArray type="Int32" Name="candidate_pairs" NumberOfTuples="1" format="ascii">4</DataArray>
        <DataArray type="Int32" Name="contacts" NumberOfTuples="1" format="ascii">4</DataArray>
      </FieldData>
      <CellData Scalars="part_id">
        <DataArray type="Int32" Name="part_id" format="ascii">14 14 14 14 14 14 14 14</DataArray>
        <DataArray type="Int32" Name="candidate_pair" format="ascii">0 0 1 1 2 2 3 3</DataArray>
      </CellData>
      <Points>
        <DataArray type="Float64" NumberOfComponents="3" format="ascii">0.3262355282400291 0.15654296942742524 -0.21326106305878498 0.3262355282400291 0.15199607692863043 -0.21652517221817344 0.32973180282884529 0.1494471108282438 -0.21297447146780343 0.3262355282400291 0.15654296942742524 -0.21326106305878498 0.32973180282884529 0.1494471108282438 -0.21297447146780343 0.32973180282884529 0.15399400332703861 -0.20971036230841497 0.3362632794016634 0.14799661065488226 -0.20353989446571985 0.3362632794016634 0.14555977162015973 -0.20528969888874904 0.33805222275990693 0.14415511447282434 -0.20333352406030553 0.3362632794016634 0.14799661065488226 -0.20353989446571985 0.33805222275990693 0.14415511447282434 -0.20333352406030553 0.33805222275990693 0.14659195350754686 -0.20158371963727634 0.32216369259697503 0.16875200522741451 -0.21008997045461381 0.32216369259697503 0.16640278811504322 -0.21195576223263779 0.3240801651088428 0.16496733604926256 -0.2101483855485729 0.32216369259697503 0.16875200522741451 -0.21008997045461381 0.3240801651088428 0.16496733604926256 -0.2101483855485729 0.3240801651088428 0.16731655316163385 -0.20828259377054892 0.32217980349525283 0.1477338159911851 -0.22534276960679014 0.32217980349525283 0.14521591301619904 -0.22697377071303029 0.32409610634560654 0.1439610212189705 -0.22503649686481611 0.32217980349525283 0.1477338159911851 -0.22534276960679014 0.32409610634560654 0.1439610212189705 -0.22503649686481611 0.32409610634560654 0.14647892419395656 -0.22340549575857596</DataArray>
      </Points>
      <Lines>
        <DataArray type="Int32" Name="connectivity" format="ascii"></DataArray>
        <DataArray type="Int32" Name="offsets" format="ascii"></DataArray>
      </Lines>
      <Polys>
        <DataArray type="Int32" Name="connectivity" format="ascii">0 1 2 3 4 5 6 7 8 9 10 11 12 13 14 15 16 17 18 19 20 21 22 23</DataArray>
        <DataArray type="Int32" Name="offsets" format="ascii">3 6 9 12 15 18 21 24</DataArray>
      </Polys>
    </Piece>
  </PolyData>
</VTKFile>
