<?xml version="1.0"?>
<VTKFile type="PolyData" version="0.1" byte_order="LittleEndian">
  <PolyData>
    <Piece NumberOfPoints="54" NumberOfVerts="0" NumberOfLines="0" NumberOfStrips="0" NumberOfPolys="18">
      <FieldData>
        <DataArray type="Int32" Name="step" NumberOfTuples="1" format="ascii">6184</DataArray>
        <DataArray type="Float64" Name="time" NumberOfTuples="1" format="ascii">1.2368000000000001</DataArray>
        <DataArray type="Int32" Name="candidate_pairs" NumberOfTuples="1" format="ascii">206</DataArray>
        <DataArray type="Int32" Name="contacts" NumberOfTuples="1" format="ascii">148</DataArray>
      </FieldData>
      <CellData Scalars="part_id">
        <DataArray type="Int32" Name="part_id" format="ascii">11 11 11 11 11 11 11 11 11 11 11 11 11 11 11 11 11 11</DataArray>
        <DataArray type="Int32" Name="candidate_pair" format="ascii">-1 -1 -1 -1 -1 -1 -1 -1 -1 -1 -1 -1 -1 -1 -1 -1 -1 -1</DataArray>
      </CellData>
      <Points>
        <DataArray type="Float64" NumberOfComponents="3" format="ascii">0.25886638035584891 0.11522562736028355 -0.30501912501349382 0.26445036325148452 0.1646192519753735 -0.278840179154555 0.30772834908981078 0.14158998406084031 -0.24826019516387163 0.25886638035584891 0.11522562736028355 -0.30501912501349382 0.30772834908981078 0.14158998406084031 -0.24826019516387163 0.30054781416879434 0.091351503106973514 -0.27588267893105295 0.26445036325148452 0.1646192519753735 -0.278840179154555 0.26445036325148452 0.21156555326886756 -0.24513539177751098 0.30772834908981078 0.18995444531183198 -0.21353724919888536 0.26445036325148452 0.1646192519753735 -0.278840179154555 0.30772834908981078 0.18995444531183198 -0.21353724919888536 0.30772834908981078 0.14158998406084031 -0.24826019516387163 0.26445036325148452 0.21156555326886756 -0.24513539177751098 0.25886638035584891 0.2521636184621196 -0.2067053974831303 0.30054781416879434 0.23219040698745574 -0.17476831679992089 0.26445036325148452 0.21156555326886756 -0.24513539177751098 0.30054781416879434 0.23219040698745574 -0.17476831679992089 0.30772834908981078 0.18995444531183198 -0.21353724919888536 0.30054781416879434 0.091351503106973514 -0.27588267893105295 0.30772834908981078 0.14158998406084031 -0.24826019516387163 0.34491623648556918 0.11447341478421094 -0.21049040842510139 0.30054781416879434 0.091351503106973514 -0.27588267893105295 0.34491623648556918 0.11447341478421094 -0.21049040842510139 0.33664526508610421 0.065030055532067588 -0.23922039133050688 0.30772834908981078 0.14158998406084031 -0.24826019516387163 0.30772834908981078 0.18995444531183198 -0.21353724919888536 0.34491623648556918 0.16283787603520264 -0.17576746246011515 0.30772834908981078 0.14158998406084031 -0.24826019516387163 0.34491623648556918 0.16283787603520264 -0.17576746246011515 0.34491623648556918 0.11447341478421094 -0.21049040842510139 0.30772834908981078 0.18995444531183198 -0.21353724919888536 0.30054781416879434 0.23219040698745574 -0.17476831679992089 0.3366452650861041 0.20586895941254979 -0.13810602919937479 0.30772834908981078 0.18995444531183198 -0.21353724919888536 0.3366452650861041 0.20586895941254979 -0.13810602919937479 0.34491623648556918 0.16283787603520264 -0.17576746246011515 0.33664526508610421 0.065030055532067588 -0.23922039133050688 0.34491623648556918 0.11447341478421094 -0.21049040842510139 0.37274271600341397 0.085654909250655692 -0.16885331635291673 0.33664526508610421 0.065030055532067588 -0.23922039133050688 0.37274271600341397 0.085654909250655692 -0.16885331635291673 0.36415928472355813 0.038448414789984182 -0.19807864461589791 0.34491623648556918 0.11447341478421094 -0.21049040842510139 0.34491623648556918 0.16283787603520264 -0.17576746246011515 0.37274271600341397 0.13260121054414975 -0.13514852897587273 0.34491623648556918 0.11447341478421094 -0.21049040842510139 0.37274271600341397 0.13260121054414975 -0.13514852897587273 0.37274271600341397 0.085654909250655692 -0.16885331635291673 0.34491623648556918 0.16283787603520264 -0.17576746246011515 0.3366452650861041 0.20586895941254979 -0.13810602919937479 0.36415928472355813 0.17538640589182025 -0.099764917085534366 0.34491623648556918 0.16283787603520264 -0.17576746246011515 0.36415928472355813 0.17538640589182025 -0.099764917085534366 0.37274271600341397 0.13260121054414975 -0.13514852897587273</DataArray>
      </Points>
      <Lines>
        <DataArray type="Int32" Name="connectivity" format="ascii"></DataArray>
        <DataArray type="Int32" Name="offsets" format="ascii"></DataArray>
      </Lines>
      <Polys>
        <DataArray type="Int32" Name="connectivity" format="ascii">0 1 2 3 4 5 6 7 8 9 10 11 12 13 14 15 16 17 18 19 20 21 22 23 24 25 26 27 28 29 30 31 32 33 34 35 36 37 38 39 40 41 42 43 44 45 46 47 48 49 50 51 52 53</DataArray>
        <DataArray type="Int32" Name="offsets" format="ascii">3 6 9 12 15 18 21 24 27 30 33 36 39 42 45 48 51 54</DataArray>
      </Polys>
    </Piece>
  </PolyData>
</VTKFile>
