<?xml version="1.0"?>
<VTKFile type="PolyData" version="0.1" byte_order="LittleEndian">
  <PolyData>
    <Piece NumberOfPoints="296" NumberOfVerts="0" NumberOfLines="148" NumberOfStrips="0" NumberOfPolys="0">
      <FieldData>
        <DataArray type="Int32" Name="step" NumberOfTuples="1" format="ascii">6184</DataArray>
        <DataArray type="Float64" Name="time" NumberOfTuples="1" format="ascii">1.2368000000000001</DataArray>
        <DataArray type="Int32" Name="candidate_pairs" NumberOfTuples="1" format="ascii">206</DataArray>
        <DataArray type="Int32" Name="contacts" NumberOfTuples="1" format="ascii">148</DataArray>
      </FieldData>
      <CellData Scalars="part_id">
        <DataArray type="Int32" Name="part_id" format="ascii">8 8 8 8 8 8 8 8 8 8 8 8 8 8 8 8 8 8 8 8 8 8 8 8 8 8 8 8 8 8 8 8 8 8 8 8 8 8 8 8 8 8 8 8 8 8 8 8 8 8 8 8 8 8 8 8 8 8 8 8 8 8 8 8 8 8 8 8 8 8 8 8 8 8 8 8 8 8 8 8 8 8 8 8 8 8 8 8 8 8 8 8 8 8 8 8 8 8 8 8 8 8 8 8 8 8 8 8 8 8 8 8 8 8 8 8 8 8 8 8 8 8 8 8 8 8 8 8 8 8 8 8 8 8 8 8 8 8 8 8 8 8 8 8 8 8 8 8</DataArray>
        <DataArray type="Int32" Name="candidate_pair" format="ascii">0 1 2 3 5 7 8 11 12 14 15 16 17 18 21 23 24 25 26 28 30 31 32 33 34 35 37 38 40 41 42 43 45 47 48 50 53 54 55 56 57 59 60 62 63 65 66 67 68 69 71 73 74 76 78 79 81 82 83 84 85 86 87 88 89 91 92 94 95 96 97 99 101 102 103 104 106 108 109 110 111 113 114 116 117 118 119 120 121 122 123 124 126 127 129 131 132 134 136 137 138 139 140 142 143 147 148 150 151 152 153 154 159 161 162 164 165 166 167 168 170 171 173 174 175 176 177 178 180 182 183 184 185 187 189 190 191 192 193 195 196 197 198 200 202 203 204 205</DataArray>
      </CellData>
      <Points>
        <DataArray type="Float64" NumberOfComponents="3" format="ascii">0.30769116976538435 0.14156746670905987 -0.24836424142373767 0.30767190427766955 0.14155885334063797 -0.24834365548987791 0.30769116976538435 0.14156746670905987 -0.24836424142373767 0.30767194178024182 0.14155877722088503 -0.24834365241725467 0.26575665244121643 0.16511989661003151 -0.28019426265614666 0.26445036325148452 0.1646192519753735 -0.278840179154555 0.30769116976538435 0.14156746670905987 -0.24836424142373767 0.30767715389581168 0.14162221610985609 -0.2483031747722789 0.30769116976538435 0.14156746670905987 -0.24836424142373767 0.30772402372916574 0.14152708343171891 -0.24829933467999818 0.30769116976538435 0.14156746670905987 -0.24836424142373767 0.30772834908981078 0.14158998406084031 -0.24826019516387163 0.30769116976538435 0.14156746670905987 -0.24836424142373767 0.30772834908981078 0.14158998406084031 -0.24826019516387163 0.30769116976538435 0.1415674667090599 -0.24836424142373764 0.30767190427766955 0.14155885334063797 -0.24834365548987791 0.30769116976538435 0.1415674667090599 -0.24836424142373764 0.30767194178024182 0.14155877722088503 -0.24834365241725467 0.30769116976538435 0.1415674667090599 -0.24836424142373764 0.30767715389581174 0.14162221610985609 -0.24830317477227884 0.30769116976538435 0.1415674667090599 -0.24836424142373764 0.30772402372916574 0.14152708343171891 -0.24829933467999818 0.30178420005630041 0.091994031931855555 -0.27724248968004578 0.30054781416879434 0.091351503106973514 -0.27588267893105295 0.30769116976538435 0.1415674667090599 -0.24836424142373764 0.30772834908981078 0.14158998406084031 -0.24826019516387163 0.30769116976538435 0.1415674667090599 -0.24836424142373764 0.30772834908981078 0.14158998406084031 -0.24826019516387163 0.26559914243960925 0.16573636148403334 -0.27997957274014318 0.26445036325148452 0.1646192519753735 -0.278840179154555 0.30764100671172828 0.19003155447085601 -0.2136469504132921 0.30762128712069114 0.19001804002310346 -0.21362983324912077 0.30768999646244322 0.19005955862778667 -0.2135514697941033 0.30772834908981078 0.18995444531183198 -0.21353724919888536 0.26577790249227612 0.21238722970165858 -0.24627987813631955 0.26445036325148452 0.21156555326886756 -0.24513539177751098 0.30764100671172823 0.19003155447085604 -0.21364695041329212 0.30762113137907771 0.19001980338423877 -0.21362841391344009 0.30768999646244322 0.19005955862778667 -0.2135514697941033 0.30772834908981078 0.18995444531183198 -0.21353724919888536 0.30769116976538435 0.19006022931483929 -0.21354918234729939 0.3077240237291658 0.19001164237384285 -0.21349016536977367 0.30768999646244322 0.19005955862778667 -0.2135514697941033 0.30772834908981078 0.18995444531183198 -0.21353724919888536 0.30769508789485517 0.14163496475941914 -0.24832090060165765 0.30767624222638723 0.14162184107451042 -0.24830445361546749 0.30769182345802887 0.14157871580118458 -0.24835701924863982 0.30767687948694183 0.14156150887003008 -0.24833634901078896 0.30769508789485517 0.18999758149345677 -0.21359927889545297 0.30767631587098748 0.18998536034197613 -0.21358225645133713 0.30769875484133097 0.18993879085575632 -0.21364627803845032 0.30768070230846112 0.18992719288285337 -0.21363012359949171 0.30769508789485517 0.18999758149345677 -0.21359927889545297 0.30767624006605143 0.18998621863203158 -0.21358156561060365 0.30769503243798446 0.1416340081760783 -0.24832151492106286 0.30772834908981078 0.14158998406084033 -0.24826019516387163 0.30769503243798446 0.1416340081760783 -0.24832151492106286 0.30772834908981078 0.14158998406084031 -0.24826019516387163 0.30769503243798446 0.1416340081760783 -0.24832151492106286 0.30772834908981078 0.14158998406084031 -0.24826019516387163 0.30769503243798446 0.18999846942706999 -0.2135985689560766 0.30772834908981078 0.18995444531183198 -0.21353724919888536 0.30769503243798446 0.18999846942706999 -0.2135985689560766 0.30772834908981078 0.18995444531183198 -0.21353724919888536 0.26536571774421375 0.21314646597056236 -0.24606832890909494 0.26445036325148452 0.21156555326886756 -0.24513539177751098 0.28477368364296629 0.22452074417892062 -0.21189285547630132 0.28411987985991433 0.22327572258654105 -0.2111925416823443 0.30146316866152356 0.23377131968915046 -0.17570125393150476 0.30054781416879434 0.23219040698745574 -0.17476831679992089 0.30146316866152356 0.23377131968915046 -0.17570125393150476 0.30054781416879434 0.23219040698745572 -0.17476831679992089 0.30769116976538435 0.19006022931483926 -0.21354918234729939 0.30767715389581168 0.18998486254778377 -0.21358153174036229 0.30769116976538435 0.19006022931483926 -0.21354918234729939 0.30772834908981078 0.18995444531183198 -0.21353724919888536 0.3018008092761072 0.23319358357205239 -0.17588925051286716 0.30049034805908231 0.23216122521048771 -0.17491441178786862 0.30769116976538435 0.19006022931483926 -0.21354918234729939 0.3076719779306788 0.19004340229236771 -0.21353440510682686 0.30769116976538435 0.19006022931483926 -0.21354918234729939 0.30772834908981078 0.18995444531183198 -0.21353724919888536 0.30769116976538435 0.19006022931483926 -0.21354918234729939 0.3077240237291658 0.19001164237384288 -0.21349016536977367 0.30769116976538435 0.19006022931483926 -0.21354918234729939 0.30772834908981078 0.18995444531183198 -0.21353724919888536 0.30770024526269679 0.14156162188862983 -0.24835632924176798 0.30767684526269867 0.14156157833569014 -0.24833635181481534 0.30774562281488888 0.14153239297842005 -0.248316760225163 0.30772321163266125 0.14152650629114122 -0.24830060536507795 0.30774485115169914 0.14153289009398012 -0.24831743322406757 0.30772834908981078 0.14158998406084031 -0.24826019516387163 0.30774562281488888 0.14153239297842005 -0.248316760225163 0.3077239528303064 0.14152605387823355 -0.24829997521386427 0.3449320919442796 0.11441685786965837 -0.21054841394515506 0.34491042195969712 0.11441051876947188 -0.21053162893385632 0.30774485115169914 0.14153289009398012 -0.24831743322406757 0.30772834908981078 0.14158998406084031 -0.24826019516387163 0.30774485115169914 0.14153289009398012 -0.24831743322406757 0.30772834908981078 0.14158998406084031 -0.24826019516387163 0.3449320919442796 0.11441685786965837 -0.21054841394515506 0.34491103329021611 0.11440998236636535 -0.21053088179542842 0.34493273854745754 0.11441632081735073 -0.21054764648529736 0.34491623648556918 0.11447341478421094 -0.21049040842510139 0.34493273854745754 0.11441632081735073 -0.21054764648529736 0.34491623648556918 0.11447341478421094 -0.21049040842510139 0.30216942971500588 0.091508886799549688 -0.27698333256134822 0.30054781416879434 0.0913515031069735 -0.27588267893105295 0.34497653574112702 0.11437829231620042 -0.21049654637297482 0.34491623648556918 0.11447341478421096 -0.21049040842510136 0.34492753504799373 0.11435031036932437 -0.21059202788868689 0.34490426003773655 0.1143440124301041 -0.21057520202356497 0.34497653574112702 0.11437829231620042 -0.21049654637297482 0.34491623648556918 0.11447341478421093 -0.21049040842510136 0.34492753504799378 0.1143503103693244 -0.21059202788868686 0.34490551601929104 0.11434291038728664 -0.21057366702399447 0.33814212265391447 0.065508063025706942 -0.24035100526959388 0.33664526508610415 0.065030055532067588 -0.23922039133050685 0.34497653574112702 0.11437829231620042 -0.21049654637297482 0.34491623648556918 0.11447341478421094 -0.21049040842510139 0.34497770927492954 0.11437896253466885 -0.21049425890725623 0.34495738553150984 0.11443831149489529 -0.21043959883241847 0.30774929447637472 0.14159975409395095 -0.2482738035249904 0.30772834908981078 0.14158998406084031 -0.24826019516387166 0.30774929447637472 0.14159975409395098 -0.24827380352499037 0.30772834908981078 0.14158998406084031 -0.24826019516387163 0.30774929447637472 0.18996421534494259 -0.21355085756000414 0.30772834908981078 0.18995444531183198 -0.21353724919888536 0.30774929447637472 0.18996421534494259 -0.21355085756000414 0.30772834908981078 0.18995444531183198 -0.21353724919888536 0.30774929447637472 0.18996421534494259 -0.21355085756000414 0.30772834908981078 0.18995444531183198 -0.21353724919888536 0.30774929447637472 0.14159975409395095 -0.2482738035249904 0.30772834908981078 0.14158998406084033 -0.24826019516387163 0.34452542601384151 0.16260317192924306 -0.17681191873711483 0.34452542601383779 0.16260317192924134 -0.17681191873711255 0.34452542601384423 0.1626031719292447 -0.17681191873710803 0.34452542601387898 0.16260317192916462 -0.17681191873710242 0.30774929447637472 0.18996421534494259 -0.21355085756000414 0.30772834908981078 0.18995444531183198 -0.21353724919888536 0.34493718187213313 0.16284764606831323 -0.17578107082123395 0.34491623648556918 0.16283787603520264 -0.17576746246011515 0.34493718187213313 0.16284764606831323 -0.17578107082123395 0.34491623648556918 0.16283787603520264 -0.17576746246011515 0.34493718187213313 0.16284764606831323 -0.17578107082123395 0.34491623648556918 0.16283787603520264 -0.17576746246011515 0.34493718187213313 0.16284764606831323 -0.17578107082123395 0.34491623648556918 0.16283787603520264 -0.17576746246011515 0.30774929447637472 0.14159975409395095 -0.24827380352499037 0.30772834908981078 0.14158998406084031 -0.24826019516387166 0.30774929447637472 0.14159975409395095 -0.24827380352499037 0.30772834908981078 0.14158998406084031 -0.24826019516387163 0.30774929447637472 0.14159975409395095 -0.24827380352499037 0.30772834908981078 0.14158998406084031 -0.24826019516387163 0.30774929447637472 0.14159975409395095 -0.24827380352499037 0.30772834908981078 0.14158998406084033 -0.24826019516387163 0.34493718187213313 0.11448318481732156 -0.21050401678622013 0.34491623648556924 0.11447341478421096 -0.21049040842510139 0.34452542601384456 0.16260317192924489 -0.17681191873710708 0.34452542601381492 0.16260317192929549 -0.17681191873710675 0.30833664063441796 0.14192613281054425 -0.24735703783538374 0.30833664063432226 0.14192613281049959 -0.24735703783532109 0.34493718187213313 0.16284764606831323 -0.17578107082123393 0.34491623648556918 0.16283787603520264 -0.17576746246011515 0.34493718187213313 0.11448318481732156 -0.21050401678622013 0.34491623648556924 0.11447341478421094 -0.21049040842510142 0.34493718187213313 0.16284764606831323 -0.17578107082123393 0.34491623648556918 0.16283787603520264 -0.17576746246011515 0.34493718187213313 0.11448318481732156 -0.21050401678622013 0.34491623648556918 0.11447341478421094 -0.21049040842510139 0.34493718187213313 0.16284764606831323 -0.17578107082123393 0.34491623648556918 0.16283787603520264 -0.17576746246011515 0.34493718187213313 0.16284764606831323 -0.17578107082123393 0.34491623648556918 0.16283787603520264 -0.17576746246011515 0.30769116976538435 0.19006022931483929 -0.21354918234729942 0.30767715389581168 0.18998486254778377 -0.21358153174036229 0.30769234332735929 0.19006089954644881 -0.21354689489988457 0.30772834908981078 0.18995444531183198 -0.21353724919888536 0.30204467173660465 0.23310882614412043 -0.17558274009029545 0.30054781416879434 0.23219040698745577 -0.17476831679992086 0.30774132212088373 0.19008887127819213 -0.21345139915584671 0.30771772303032358 0.19007499256316301 -0.21344012161598666 0.30769234332735929 0.19006089954644881 -0.21354689489988457 0.30772834908981078 0.18995444531183198 -0.21353724919888536 0.30774132212088373 0.19008887127819213 -0.21345139915584671 0.30771929049510505 0.19007403581255258 -0.21343878898920229 0.30769234332735929 0.19006089954644881 -0.21354689489988457 0.30772834908981078 0.18995444531183198 -0.21353724919888536 0.33796337508091173 0.2070828187755383 -0.13891533538911968 0.3366452650861041 0.20586895941254979 -0.13810602919937479 0.30774485115169914 0.19002693414290733 -0.2135014541439732 0.30772834908981078 0.18995444531183198 -0.21353724919888536 0.30774485115169914 0.19002693414290733 -0.2135014541439732 0.30772834908981078 0.18995444531183198 -0.21353724919888536 0.30774562281488893 0.19002645542518579 -0.21350076793646178 0.30772318988991532 0.19001304416194298 -0.21349004330938676 0.34493273854745754 0.16291036486627794 -0.17573166740520299 0.34491623648556918 0.16283787603520264 -0.17576746246011513 0.34493273854745754 0.16291036486627794 -0.17573166740520302 0.34491623648556918 0.16283787603520264 -0.17576746246011515 0.30779670727855429 0.18999475754143 -0.21345533307366243 0.30777599730250021 0.18998164119602298 -0.2134443589590494 0.34493209194427954 0.16291092031642415 -0.17573242165645384 0.34491042195969701 0.16289704336891625 -0.17572104839292327 0.34493273854745754 0.16291036486627794 -0.17573166740520299 0.34491623648556918 0.16283787603520264 -0.17576746246011515 0.34493209194427954 0.16291092031642415 -0.17573242165645384 0.34491101586814177 0.16289652225255635 -0.17572032254690723 0.34497010791073779 0.16287825757432264 -0.17568806976717338 0.34494910972857201 0.16285759147320714 -0.17567920139106294 0.34497770927492954 0.11437896253466887 -0.2104942589072562 0.34491623648556918 0.11447341478421096 -0.21049040842510136 0.34497770927492954 0.11437896253466887 -0.2104942589072562 0.34491051569815584 0.11441153166883622 -0.21053096520300707 0.34497770927492954 0.11437896253466887 -0.2104942589072562 0.34491623648556918 0.11447341478421093 -0.21049040842510136 0.34497770927492954 0.11437896253466887 -0.2104942589072562 0.34495220783223723 0.1143749422551025 -0.2104799986192708 0.33837966052658447 0.065420355476405956 -0.24004038571898964 0.33673181081520964 0.065072801577398504 -0.23909318957046369 0.34497770927492954 0.11437896253466887 -0.2104942589072562 0.34491623648556918 0.11447341478421094 -0.21049040842510139 0.34497770927492954 0.11437896253466887 -0.2104942589072562 0.34495738553150984 0.11443831149489529 -0.21043959883241847 0.33848518915472142 0.064734350085497327 -0.2400775775528757 0.33664526508610421 0.06503005553206756 -0.23922039133050682 0.33848518915472142 0.064734350085497327 -0.2400775775528757 0.33664526508610415 0.065030055532067588 -0.23922039133050685 0.35823559311431558 0.075412699645711526 -0.20587467601024051 0.35682859415943446 0.0756964541388844 -0.20523607214962072 0.37458264007203124 0.085359203804085446 -0.16971050257528561 0.37274271600341397 0.085654909250655692 -0.16885331635291673 0.34498255726117216 0.11444478553318807 -0.21045053167319394 0.34491623648556918 0.11447341478421096 -0.21049040842510136 0.34498255726117216 0.11444478553318807 -0.21045053167319394 0.34491623648556924 0.11447341478421096 -0.21049040842510139 0.34498255726117216 0.16280924678417974 -0.17572758570820768 0.34491623648556918 0.16283787603520264 -0.17576746246011513 0.34498255726117216 0.11444478553318807 -0.21045053167319394 0.34491623648556918 0.11447341478421093 -0.21049040842510136 0.34498255726117216 0.16280924678417974 -0.17572758570820768 0.34491623648556918 0.16283787603520264 -0.17576746246011515 0.3449826268643133 0.11444573180138737 -0.21044990298616384 0.34495798311408005 0.11443680789627672 -0.2104393594942115 0.3449826268643133 0.162808348535425 -0.17572828127995915 0.34495805891901604 0.16280035363921116 -0.17571714544924569 0.34498722919744051 0.11450837966727868 -0.2104082764507661 0.34496386177820215 0.11450065718971858 -0.21039752006312859 0.34497852971540571 0.16286116366176798 -0.17568737976030149 0.34494907550432891 0.16285766093886725 -0.17567920419508928 0.3449826268643133 0.162808348535425 -0.17572828127995915 0.34495798527441585 0.16280118746918712 -0.17571647429651766 0.34497888260604309 0.11437963323486258 -0.21049197147875609 0.34491623648556918 0.11447341478421096 -0.21049040842510136 0.34497770927492954 0.11437896253466885 -0.2104942589072562 0.34491051569815584 0.11441153166883622 -0.21053096520300707 0.34497888260604309 0.11437963323486258 -0.21049197147875609 0.34491623648556918 0.11447341478421093 -0.21049040842510136 0.34502785045714923 0.11440762717666052 -0.2103964766312415 0.34500210767053702 0.11439809956621087 -0.21038537472654104 0.37440889189824306 0.086229659468168782 -0.16965386722356984 0.37274271600341397 0.085654909250655692 -0.16885331635291673 0.34497888260604309 0.11437963323486258 -0.21049197147875609 0.34491623648556918 0.11447341478421094 -0.21049040842510139 0.34502785045714923 0.11440762717666052 -0.21039647663124147 0.34500226341215051 0.11440000821955319 -0.21038415776364644 0.37453366235630842 0.13285534409105465 -0.1359190952103248 0.37274271600341397 0.13260121054414975 -0.13514852897587273 0.34497770927492954 0.16287172514044826 -0.17567919983081795 0.34491623648556918 0.16283787603520264 -0.17576746246011513 0.34497770927492954 0.16287172514044826 -0.17567919983081795 0.34491623648556918 0.16283787603520264 -0.17576746246011515 0.33836012366714402 0.20660304667862581 -0.13866366219653675 0.3366452650861041 0.20586895941254979 -0.13810602919937479 0.34497770927492954 0.16287172514044826 -0.17567919983081795 0.34491051569815573 0.16289609061096022 -0.17572179589278261 0.34497770927492954 0.16287172514044826 -0.17567919983081795 0.3449573855315099 0.16280095793282295 -0.17571795580050187 0.34497770927492954 0.16287172514044826 -0.17567919983081795 0.34495222407730131 0.16285955804166932 -0.17567073837618585 0.34497770927492954 0.16287172514044826 -0.17567919983081795 0.34495226157987352 0.1628594819219164 -0.17567073530356264 0.34497770927492954 0.16287172514044826 -0.17567919983081795 0.34491623648556918 0.16283787603520264 -0.17576746246011513 0.34497770927492954 0.16287172514044826 -0.17567919983081795 0.34491623648556918 0.16283787603520264 -0.17576746246011515 0.34497770927492954 0.16287172514044826 -0.17567919983081795 0.34491051569815573 0.16289609061096022 -0.17572179589278261 0.34497770927492954 0.16287172514044826 -0.17567919983081795 0.3449573855315099 0.16280095793282295 -0.17571795580050187 0.37438767128222805 0.13347718200044986 -0.13571188922043584 0.37274271600341397 0.13260121054414975 -0.13514852897587273 0.34497770927492954 0.16287172514044826 -0.17567919983081795 0.34495222407730131 0.16285955804166932 -0.17567073837618585 0.34497770927492954 0.16287172514044826 -0.17567919983081795 0.34495226157987352 0.1628594819219164 -0.17567073530356264</DataArray>
      </Points>
      <Lines>
        <DataArray type="Int32" Name="connectivity" format="ascii">0 1 2 3 4 5 6 7 8 9 10 11 12 13 14 15 16 17 18 19 20 21 22 23 24 25 26 27 28 29 30 31 32 33 34 35 36 37 38 39 40 41 42 43 44 45 46 47 48 49 50 51 52 53 54 55 56 57 58 59 60 61 62 63 64 65 66 67 68 69 70 71 72 73 74 75 76 77 78 79 80 81 82 83 84 85 86 87 88 89 90 91 92 93 94 95 96 97 98 99 100 101 102 103 104 105 106 107 108 109 110 111 112 113 114 115 116 117 118 119 120 121 122 123 124 125 126 127 128 129 130 131 132 133 134 135 136 137 138 139 140 141 142 143 144 145 146 147 148 149 150 151 152 153 154 155 156 157 158 159 160 161 162 163 164 165 166 167 168 169 170 171 172 173 174 175 176 177 178 179 180 181 182 183 184 185 186 187 188 189 190 191 192 193 194 195 196 197 198 199 200 201 202 203 204 205 206 207 208 209 210 211 212 213 214 215 216 217 218 219 220 221 222 223 224 225 226 227 228 229 230 231 232 233 234 235 236 237 238 239 240 241 242 243 244 245 246 247 248 249 250 251 252 253 254 255 256 257 258 259 260 261 262 263 264 265 266 267 268 269 270 271 272 273 274 275 276 277 278 279 280 281 282 283 284 285 286 287 288 289 290 291 292 293 294 295</DataArray>
        <DataArray type="Int32" Name="offsets" format="ascii">2 4 6 8 10 12 14 16 18 20 22 24 26 28 30 32 34 36 38 40 42 44 46 48 50 52 54 56 58 60 62 64 66 68 70 72 74 76 78 80 82 84 86 88 90 92 94 96 98 100 102 104 106 108 110 112 114 116 118 120 122 124 126 128 130 132 134 136 138 140 142 144 146 148 150 152 154 156 158 160 162 164 166 168 170 172 174 176 178 180 182 184 186 188 190 192 194 196 198 200 202 204 206 208 210 212 214 216 218 220 222 224 226 228 230 232 234 236 238 240 242 244 246 248 250 252 254 256 258 260 262 264 266 268 270 272 274 276 278 280 282 284 286 288 290 292 294 296</DataArray>
      </Lines>
      <Polys>
        <DataArray type="Int32" Name="connectivity" format="ascii"></DataArray>
        <DataArray type="Int32" Name="offsets" format="ascii"></DataArray>
      </Polys>
    </Piece>
  </PolyData>
</VTKFile>
