<?xml version="1.0"?>
<VTKFile type="PolyData" version="0.1" byte_order="LittleEndian">
  <PolyData>
    <Piece NumberOfPoints="432" NumberOfVerts="0" NumberOfLines="216" NumberOfStrips="0" NumberOfPolys="0">
      <FieldData>
        <DataArray type="Int32" Name="step" NumberOfTuples="1" format="ascii">6184</DataArray>
        <DataArray type="Float64" Name="time" NumberOfTuples="1" format="ascii">1.2368000000000001</DataArray>
        <DataArray type="Int32" Name="candidate_pairs" NumberOfTuples="1" format="ascii">206</DataArray>
        <DataArray type="Int32" Name="contacts" NumberOfTuples="1" format="ascii">148</DataArray>
      </FieldData>
      <CellData Scalars="part_id">
        <DataArray type="Int32" Name="part_id" format="ascii">5 5 5 5 5 5 5 5 5 5 5 5 5 5 5 5 5 5 5 5 5 5 5 5 5 5 5 5 5 5 5 5 5 5 5 5 5 5 5 5 5 5 5 5 5 5 5 5 5 5 5 5 5 5 5 5 5 5 5 5 5 5 5 5 5 5 5 5 5 5 5 5 5 5 5 5 5 5 5 5 5 5 5 5 5 5 5 5 5 5 5 5 5 5 5 5 5 5 5 5 5 5 5 5 5 5 5 5 5 5 5 5 5 5 5 5 5 5 5 5 5 5 5 5 5 5 5 5 5 5 5 5 5 5 5 5 5 5 5 5 5 5 5 5 5 5 5 5 5 5 5 5 5 5 5 5 5 5 5 5 5 5 5 5 5 5 5 5 5 5 5 5 5 5 5 5 5 5 5 5 5 5 5 5 5 5 5 5 5 5 5 5 5 5 5 5 5 5 5 5 5 5 5 5 5 5 5 5 5 5 5 5 5 5 5 5</DataArray>
        <DataArray type="Int32" Name="candidate_pair" format="ascii">-1 -1 -1 -1 -1 -1 -1 -1 -1 -1 -1 -1 -1 -1 -1 -1 -1 -1 -1 -1 -1 -1 -1 -1 -1 -1 -1 -1 -1 -1 -1 -1 -1 -1 -1 -1 -1 -1 -1 -1 -1 -1 -1 -1 -1 -1 -1 -1 -1 -1 -1 -1 -1 -1 -1 -1 -1 -1 -1 -1 -1 -1 -1 -1 -1 -1 -1 -1 -1 -1 -1 -1 -1 -1 -1 -1 -1 -1 -1 -1 -1 -1 -1 -1 -1 -1 -1 -1 -1 -1 -1 -1 -1 -1 -1 -1 -1 -1 -1 -1 -1 -1 -1 -1 -1 -1 -1 -1 -1 -1 -1 -1 -1 -1 -1 -1 -1 -1 -1 -1 -1 -1 -1 -1 -1 -1 -1 -1 -1 -1 -1 -1 -1 -1 -1 -1 -1 -1 -1 -1 -1 -1 -1 -1 -1 -1 -1 -1 -1 -1 -1 -1 -1 -1 -1 -1 -1 -1 -1 -1 -1 -1 -1 -1 -1 -1 -1 -1 -1 -1 -1 -1 -1 -1 -1 -1 -1 -1 -1 -1 -1 -1 -1 -1 -1 -1 -1 -1 -1 -1 -1 -1 -1 -1 -1 -1 -1 -1 -1 -1 -1 -1 -1 -1 -1 -1 -1 -1 -1 -1 -1 -1 -1 -1 -1 -1</DataArray>
      </CellData>
      <Points>
        <DataArray type="Float64" NumberOfComponents="3" format="ascii">0.2451534312452899 0.10073379952619689 -0.32376056469415881 0.3226374272146933 0.10073379952619689 -0.32376056469415881 0.3226374272146933 0.10073379952619689 -0.32376056469415881 0.3226374272146933 0.18039296647052058 -0.32376056469415881 0.3226374272146933 0.18039296647052058 -0.32376056469415881 0.2451534312452899 0.18039296647052058 -0.32376056469415881 0.2451534312452899 0.18039296647052058 -0.32376056469415881 0.2451534312452899 0.10073379952619689 -0.32376056469415881 0.2451534312452899 0.10073379952619689 -0.23341798397442873 0.3226374272146933 0.10073379952619689 -0.23341798397442873 0.3226374272146933 0.10073379952619689 -0.23341798397442873 0.3226374272146933 0.18039296647052058 -0.23341798397442873 0.3226374272146933 0.18039296647052058 -0.23341798397442873 0.2451534312452899 0.18039296647052058 -0.23341798397442873 0.2451534312452899 0.18039296647052058 -0.23341798397442873 0.2451534312452899 0.10073379952619689 -0.23341798397442873 0.2451534312452899 0.10073379952619689 -0.32376056469415881 0.2451534312452899 0.10073379952619689 -0.23341798397442873 0.3226374272146933 0.10073379952619689 -0.32376056469415881 0.3226374272146933 0.10073379952619689 -0.23341798397442873 0.3226374272146933 0.18039296647052058 -0.32376056469415881 0.3226374272146933 0.18039296647052058 -0.23341798397442873 0.2451534312452899 0.18039296647052058 -0.32376056469415881 0.2451534312452899 0.18039296647052058 -0.23341798397442873 0.2451534312452899 0.076303275271793258 -0.32376056469415881 0.3226374272146933 0.076303275271793258 -0.32376056469415881 0.3226374272146933 0.076303275271793258 -0.32376056469415881 0.3226374272146933 0.15651372415836881 -0.32376056469415881 0.3226374272146933 0.15651372415836881 -0.32376056469415881 0.2451534312452899 0.15651372415836881 -0.32376056469415881 0.2451534312452899 0.15651372415836881 -0.32376056469415881 0.2451534312452899 0.076303275271793258 -0.32376056469415881 0.2451534312452899 0.076303275271793258 -0.23341798397442873 0.3226374272146933 0.076303275271793258 -0.23341798397442873 0.3226374272146933 0.076303275271793258 -0.23341798397442873 0.3226374272146933 0.15651372415836881 -0.23341798397442873 0.3226374272146933 0.15651372415836881 -0.23341798397442873 0.2451534312452899 0.15651372415836881 -0.23341798397442873 0.2451534312452899 0.15651372415836881 -0.23341798397442873 0.2451534312452899 0.076303275271793258 -0.23341798397442873 0.2451534312452899 0.076303275271793258 -0.32376056469415881 0.2451534312452899 0.076303275271793258 -0.23341798397442873 0.3226374272146933 0.076303275271793258 -0.32376056469415881 0.3226374272146933 0.076303275271793258 -0.23341798397442873 0.3226374272146933 0.15651372415836881 -0.32376056469415881 0.3226374272146933 0.15651372415836881 -0.23341798397442873 0.2451534312452899 0.15651372415836881 -0.32376056469415881 0.2451534312452899 0.15651372415836881 -0.23341798397442873 0.25000845928065674 0.15035310438246158 -0.29571484791823044 0.32278477440413444 0.15035310438246158 -0.29571484791823044 0.32278477440413444 0.15035310438246158 -0.29571484791823044 0.32278477440413444 0.22808214546876948 -0.29571484791823044 0.32278477440413444 0.22808214546876948 -0.29571484791823044 0.25000845928065674 0.22808214546876948 -0.29571484791823044 0.25000845928065674 0.22808214546876948 -0.29571484791823044 0.25000845928065674 0.15035310438246158 -0.29571484791823044 0.25000845928065674 0.15035310438246158 -0.19845557770854932 0.32278477440413444 0.15035310438246158 -0.19845557770854932 0.32278477440413444 0.15035310438246158 -0.19845557770854932 0.32278477440413444 0.22808214546876948 -0.19845557770854932 0.32278477440413444 0.22808214546876948 -0.19845557770854932 0.25000845928065674 0.22808214546876948 -0.19845557770854932 0.25000845928065674 0.22808214546876948 -0.19845557770854932 0.25000845928065674 0.15035310438246158 -0.19845557770854932 0.25000845928065674 0.15035310438246158 -0.29571484791823044 0.25000845928065674 0.15035310438246158 -0.19845557770854932 0.32278477440413444 0.15035310438246158 -0.29571484791823044 0.32278477440413444 0.15035310438246158 -0.19845557770854932 0.32278477440413444 0.22808214546876948 -0.29571484791823044 0.32278477440413444 0.22808214546876948 -0.19845557770854932 0.25000845928065674 0.22808214546876948 -0.29571484791823044 0.25000845928065674 0.22808214546876948 -0.19845557770854932 0.25000845928065674 0.12647386207030981 -0.29571484791823044 0.32278477440413444 0.12647386207030981 -0.29571484791823044 0.32278477440413444 0.12647386207030981 -0.29571484791823044 0.32278477440413444 0.20515383395358938 -0.29571484791823044 0.32278477440413444 0.20515383395358938 -0.29571484791823044 0.25000845928065674 0.20515383395358938 -0.29571484791823044 0.25000845928065674 0.20515383395358938 -0.29571484791823044 0.25000845928065674 0.12647386207030981 -0.29571484791823044 0.25000845928065674 0.12647386207030981 -0.19845557770854932 0.32278477440413444 0.12647386207030981 -0.19845557770854932 0.32278477440413444 0.12647386207030981 -0.19845557770854932 0.32278477440413444 0.20515383395358938 -0.19845557770854932 0.32278477440413444 0.20515383395358938 -0.19845557770854932 0.25000845928065674 0.20515383395358938 -0.19845557770854932 0.25000845928065674 0.20515383395358938 -0.19845557770854932 0.25000845928065674 0.12647386207030981 -0.19845557770854932 0.25000845928065674 0.12647386207030981 -0.29571484791823044 0.25000845928065674 0.12647386207030981 -0.19845557770854932 0.32278477440413444 0.12647386207030981 -0.29571484791823044 0.32278477440413444 0.12647386207030981 -0.19845557770854932 0.32278477440413444 0.20515383395358938 -0.29571484791823044 0.32278477440413444 0.20515383395358938 -0.19845557770854932 0.25000845928065674 0.20515383395358938 -0.29571484791823044 0.25000845928065674 0.20515383395358938 -0.19845557770854932 0.24503646589289471 0.19792531802831528 -0.26155212149852153 0.31672064663133365 0.19792531802831528 -0.26155212149852153 0.31672064663133365 0.19792531802831528 -0.26155212149852153 0.31672064663133365 0.27067748629324578 -0.26155212149852153 0.31672064663133365 0.27067748629324578 -0.26155212149852153 0.24503646589289471 0.27067748629324578 -0.26155212149852153 0.24503646589289471 0.27067748629324578 -0.26155212149852153 0.24503646589289471 0.19792531802831528 -0.26155212149852153 0.24503646589289471 0.19792531802831528 -0.1601659695649372 0.31672064663133365 0.19792531802831528 -0.1601659695649372 0.31672064663133365 0.19792531802831528 -0.1601659695649372 0.31672064663133365 0.27067748629324578 -0.1601659695649372 0.31672064663133365 0.27067748629324578 -0.1601659695649372 0.24503646589289471 0.27067748629324578 -0.1601659695649372 0.24503646589289471 0.27067748629324578 -0.1601659695649372 0.24503646589289471 0.19792531802831528 -0.1601659695649372 0.24503646589289471 0.19792531802831528 -0.26155212149852153 0.24503646589289471 0.19792531802831528 -0.1601659695649372 0.31672064663133365 0.19792531802831528 -0.26155212149852153 0.31672064663133365 0.19792531802831528 -0.1601659695649372 0.31672064663133365 0.27067748629324578 -0.26155212149852153 0.31672064663133365 0.27067748629324578 -0.1601659695649372 0.24503646589289471 0.27067748629324578 -0.26155212149852153 0.24503646589289471 0.27067748629324578 -0.1601659695649372 0.25003884111770275 0.17499700651313518 -0.26155212149852153 0.32275439256708843 0.17499700651313518 -0.26155212149852153 0.32275439256708843 0.17499700651313518 -0.26155212149852153 0.32275439256708843 0.24893825094922947 -0.26155212149852153 0.32275439256708843 0.24893825094922947 -0.26155212149852153 0.25003884111770275 0.24893825094922947 -0.26155212149852153 0.25003884111770275 0.24893825094922947 -0.26155212149852153 0.25003884111770275 0.17499700651313518 -0.26155212149852153 0.25003884111770275 0.17499700651313518 -0.1601659695649372 0.32275439256708843 0.17499700651313518 -0.1601659695649372 0.32275439256708843 0.17499700651313518 -0.1601659695649372 0.32275439256708843 0.24893825094922947 -0.1601659695649372 0.32275439256708843 0.24893825094922947 -0.1601659695649372 0.25003884111770275 0.24893825094922947 -0.1601659695649372 0.25003884111770275 0.24893825094922947 -0.1601659695649372 0.25003884111770275 0.17499700651313518 -0.1601659695649372 0.25003884111770275 0.17499700651313518 -0.26155212149852153 0.25003884111770275 0.17499700651313518 -0.1601659695649372 0.32275439256708843 0.17499700651313518 -0.26155212149852153 0.32275439256708843 0.17499700651313518 -0.1601659695649372 0.32275439256708843 0.24893825094922947 -0.26155212149852153 0.32275439256708843 0.24893825094922947 -0.1601659695649372 0.25003884111770275 0.24893825094922947 -0.26155212149852153 0.25003884111770275 0.24893825094922947 -0.1601659695649372 0.28656381919087959 0.076155928082352081 -0.29271983075338015 0.36007131391367964 0.076155928082352081 -0.29271983075338015 0.36007131391367964 0.076155928082352081 -0.29271983075338015 0.36007131391367964 0.15666107134780999 -0.29271983075338015 0.36007131391367964 0.15666107134780999 -0.29271983075338015 0.28656381919087959 0.15666107134780999 -0.29271983075338015 0.28656381919087959 0.15666107134780999 -0.29271983075338015 0.28656381919087959 0.076155928082352081 -0.29271983075338015 0.28656381919087959 0.076155928082352081 -0.19540065426850611 0.36007131391367964 0.076155928082352081 -0.19540065426850611 0.36007131391367964 0.076155928082352081 -0.19540065426850611 0.36007131391367964 0.15666107134780999 -0.19540065426850611 0.36007131391367964 0.15666107134780999 -0.19540065426850611 0.28656381919087959 0.15666107134780999 -0.19540065426850611 0.28656381919087959 0.15666107134780999 -0.19540065426850611 0.28656381919087959 0.076155928082352081 -0.19540065426850611 0.28656381919087959 0.076155928082352081 -0.29271983075338015 0.28656381919087959 0.076155928082352081 -0.19540065426850611 0.36007131391367964 0.076155928082352081 -0.29271983075338015 0.36007131391367964 0.076155928082352081 -0.19540065426850611 0.36007131391367964 0.15666107134780999 -0.29271983075338015 0.36007131391367964 0.15666107134780999 -0.19540065426850611 0.28656381919087959 0.15666107134780999 -0.29271983075338015 0.28656381919087959 0.15666107134780999 -0.19540065426850611 0.28656381919087959 0.049500583591050369 -0.29271983075338015 0.36007131391367964 0.049500583591050369 -0.29271983075338015 0.36007131391367964 0.049500583591050369 -0.29271983075338015 0.36007131391367964 0.12947256717341893 -0.29271983075338015 0.36007131391367964 0.12947256717341893 -0.29271983075338015 0.28656381919087959 0.12947256717341893 -0.29271983075338015 0.28656381919087959 0.12947256717341893 -0.29271983075338015 0.28656381919087959 0.049500583591050369 -0.29271983075338015 0.28656381919087959 0.049500583591050369 -0.19540065426850611 0.36007131391367964 0.049500583591050369 -0.19540065426850611 0.36007131391367964 0.049500583591050369 -0.19540065426850611 0.36007131391367964 0.12947256717341893 -0.19540065426850611 0.36007131391367964 0.12947256717341893 -0.19540065426850611 0.28656381919087959 0.12947256717341893 -0.19540065426850611 0.28656381919087959 0.12947256717341893 -0.19540065426850611 0.28656381919087959 0.049500583591050369 -0.19540065426850611 0.28656381919087959 0.049500583591050369 -0.29271983075338015 0.28656381919087959 0.049500583591050369 -0.19540065426850611 0.36007131391367964 0.049500583591050369 -0.29271983075338015 0.36007131391367964 0.049500583591050369 -0.19540065426850611 0.36007131391367964 0.12947256717341893 -0.29271983075338015 0.36007131391367964 0.12947256717341893 -0.19540065426850611 0.28656381919087959 0.12947256717341893 -0.29271983075338015 0.28656381919087959 0.12947256717341893 -0.19540065426850611 0.29250397049172827 0.12638026743540381 -0.26355144069739372 0.36016490854858563 0.12638026743540381 -0.26355144069739372 0.36016490854858563 0.12638026743540381 -0.26355144069739372 0.36016490854858563 0.20524742858849537 -0.26355144069739372 0.36016490854858563 0.20524742858849537 -0.26355144069739372 0.29250397049172827 0.20524742858849537 -0.26355144069739372 0.29250397049172827 0.20524742858849537 -0.26355144069739372 0.29250397049172827 0.12638026743540381 -0.26355144069739372 0.29250397049172827 0.12638026743540381 -0.16049200055716187 0.36016490854858563 0.12638026743540381 -0.16049200055716187 0.36016490854858563 0.12638026743540381 -0.16049200055716187 0.36016490854858563 0.20524742858849537 -0.16049200055716187 0.36016490854858563 0.20524742858849537 -0.16049200055716187 0.29250397049172827 0.20524742858849537 -0.16049200055716187 0.29250397049172827 0.20524742858849537 -0.16049200055716187 0.29250397049172827 0.12638026743540381 -0.16049200055716187 0.29250397049172827 0.12638026743540381 -0.26355144069739372 0.29250397049172827 0.12638026743540381 -0.16049200055716187 0.36016490854858563 0.12638026743540381 -0.26355144069739372 0.36016490854858563 0.12638026743540381 -0.16049200055716187 0.36016490854858563 0.20524742858849537 -0.26355144069739372 0.36016490854858563 0.20524742858849537 -0.16049200055716187 0.29250397049172827 0.20524742858849537 -0.26355144069739372 0.29250397049172827 0.20524742858849537 -0.16049200055716187 0.29250397049172827 0.099191763261012769 -0.26355144069739372 0.36016490854858563 0.099191763261012769 -0.26355144069739372 0.36016490854858563 0.099191763261012769 -0.26355144069739372 0.36016490854858563 0.17805892441410434 -0.26355144069739372 0.36016490854858563 0.17805892441410434 -0.26355144069739372 0.29250397049172827 0.17805892441410434 -0.26355144069739372 0.29250397049172827 0.17805892441410434 -0.26355144069739372 0.29250397049172827 0.099191763261012769 -0.26355144069739372 0.29250397049172827 0.099191763261012769 -0.16049200055716187 0.36016490854858563 0.099191763261012769 -0.16049200055716187 0.36016490854858563 0.099191763261012769 -0.16049200055716187 0.36016490854858563 0.17805892441410434 -0.16049200055716187 0.36016490854858563 0.17805892441410434 -0.16049200055716187 0.29250397049172827 0.17805892441410434 -0.16049200055716187 0.29250397049172827 0.17805892441410434 -0.16049200055716187 0.29250397049172827 0.099191763261012769 -0.16049200055716187 0.29250397049172827 0.099191763261012769 -0.26355144069739372 0.29250397049172827 0.099191763261012769 -0.16049200055716187 0.36016490854858563 0.099191763261012769 -0.26355144069739372 0.36016490854858563 0.099191763261012769 -0.16049200055716187 0.36016490854858563 0.17805892441410434 -0.26355144069739372 0.36016490854858563 0.17805892441410434 -0.16049200055716187 0.29250397049172827 0.17805892441410434 -0.26355144069739372 0.29250397049172827 0.17805892441410434 -0.16049200055716187 0.28656381919087948 0.17496662467608923 -0.22864278698604948 0.35330638837860256 0.17496662467608923 -0.22864278698604948 0.35330638837860256 0.17496662467608923 -0.22864278698604948 0.35330638837860256 0.24896863278627543 -0.22864278698604948 0.35330638837860256 0.24896863278627543 -0.22864278698604948 0.28656381919087948 0.24896863278627543 -0.22864278698604948 0.28656381919087948 0.24896863278627543 -0.22864278698604948 0.28656381919087948 0.17496662467608923 -0.22864278698604948 0.28656381919087948 0.17496662467608923 -0.12300822598037811 0.35330638837860256 0.17496662467608923 -0.12300822598037811 0.35330638837860256 0.17496662467608923 -0.12300822598037811 0.35330638837860256 0.24896863278627543 -0.12300822598037811 0.35330638837860256 0.24896863278627543 -0.12300822598037811 0.28656381919087948 0.24896863278627543 -0.12300822598037811 0.28656381919087948 0.24896863278627543 -0.12300822598037811 0.28656381919087948 0.17496662467608923 -0.12300822598037811 0.28656381919087948 0.17496662467608923 -0.22864278698604948 0.28656381919087948 0.17496662467608923 -0.12300822598037811 0.35330638837860256 0.17496662467608923 -0.22864278698604948 0.35330638837860256 0.17496662467608923 -0.12300822598037811 0.35330638837860256 0.24896863278627543 -0.22864278698604948 0.35330638837860256 0.24896863278627543 -0.12300822598037811 0.28656381919087948 0.24896863278627543 -0.22864278698604948 0.28656381919087948 0.24896863278627543 -0.12300822598037811 0.29259756512663426 0.1477781205016982 -0.22864278698604948 0.36007131391367964 0.1477781205016982 -0.22864278698604948 0.36007131391367964 0.1477781205016982 -0.22864278698604948 0.36007131391367964 0.22231328829497379 -0.22864278698604948 0.36007131391367964 0.22231328829497379 -0.22864278698604948 0.29259756512663426 0.22231328829497379 -0.22864278698604948 0.29259756512663426 0.22231328829497379 -0.22864278698604948 0.29259756512663426 0.1477781205016982 -0.22864278698604948 0.29259756512663426 0.1477781205016982 -0.12300822598037811 0.36007131391367964 0.1477781205016982 -0.12300822598037811 0.36007131391367964 0.1477781205016982 -0.12300822598037811 0.36007131391367964 0.22231328829497379 -0.12300822598037811 0.36007131391367964 0.22231328829497379 -0.12300822598037811 0.29259756512663426 0.22231328829497379 -0.12300822598037811 0.29259756512663426 0.22231328829497379 -0.12300822598037811 0.29259756512663426 0.1477781205016982 -0.12300822598037811 0.29259756512663426 0.1477781205016982 -0.22864278698604948 0.29259756512663426 0.1477781205016982 -0.12300822598037811 0.36007131391367964 0.1477781205016982 -0.22864278698604948 0.36007131391367964 0.1477781205016982 -0.12300822598037811 0.36007131391367964 0.22231328829497379 -0.22864278698604948 0.36007131391367964 0.22231328829497379 -0.12300822598037811 0.29259756512663426 0.22231328829497379 -0.22864278698604948 0.29259756512663426 0.22231328829497379 -0.12300822598037811 0.32314956093814839 0.049530965428096353 -0.25556208716882101 0.3898313664517794 0.049530965428096353 -0.25556208716882101 0.3898313664517794 0.049530965428096353 -0.25556208716882101 0.3898313664517794 0.12944218533637294 -0.25556208716882101 0.3898313664517794 0.12944218533637294 -0.25556208716882101 0.32314956093814839 0.12944218533637294 -0.25556208716882101 0.32314956093814839 0.12944218533637294 -0.25556208716882101 0.32314956093814839 0.049530965428096353 -0.25556208716882101 0.32314956093814839 0.049530965428096353 -0.15417593523523671 0.3898313664517794 0.049530965428096353 -0.15417593523523671 0.3898313664517794 0.049530965428096353 -0.15417593523523671 0.3898313664517794 0.12944218533637294 -0.15417593523523671 0.3898313664517794 0.12944218533637294 -0.15417593523523671 0.32314956093814839 0.12944218533637294 -0.15417593523523671 0.32314956093814839 0.12944218533637294 -0.15417593523523671 0.32314956093814839 0.049530965428096353 -0.15417593523523671 0.32314956093814839 0.049530965428096353 -0.25556208716882101 0.32314956093814839 0.049530965428096353 -0.15417593523523671 0.3898313664517794 0.049530965428096353 -0.25556208716882101 0.3898313664517794 0.049530965428096353 -0.15417593523523671 0.3898313664517794 0.12944218533637294 -0.25556208716882101 0.3898313664517794 0.12944218533637294 -0.15417593523523671 0.32314956093814839 0.12944218533637294 -0.25556208716882101 0.32314956093814839 0.12944218533637294 -0.15417593523523671 0.32314956093814839 0.022159729369714901 -0.25556208716882101 0.3898313664517794 0.022159729369714901 -0.25556208716882101 0.3898313664517794 0.022159729369714901 -0.25556208716882101 0.3898313664517794 0.10054389834901055 -0.25556208716882101 0.3898313664517794 0.10054389834901055 -0.25556208716882101 0.32314956093814839 0.10054389834901055 -0.25556208716882101 0.32314956093814839 0.10054389834901055 -0.25556208716882101 0.32314956093814839 0.022159729369714901 -0.25556208716882101 0.32314956093814839 0.022159729369714901 -0.15417593523523671 0.3898313664517794 0.022159729369714901 -0.15417593523523671 0.3898313664517794 0.022159729369714901 -0.15417593523523671 0.3898313664517794 0.10054389834901055 -0.15417593523523671 0.3898313664517794 0.10054389834901055 -0.15417593523523671 0.32314956093814839 0.10054389834901055 -0.15417593523523671 0.32314956093814839 0.10054389834901055 -0.15417593523523671 0.32314956093814839 0.022159729369714901 -0.15417593523523671 0.32314956093814839 0.022159729369714901 -0.25556208716882101 0.32314956093814839 0.022159729369714901 -0.15417593523523671 0.3898313664517794 0.022159729369714901 -0.25556208716882101 0.3898313664517794 0.022159729369714901 -0.15417593523523671 0.3898313664517794 0.10054389834901055 -0.25556208716882101 0.3898313664517794 0.10054389834901055 -0.15417593523523671 0.32314956093814839 0.10054389834901055 -0.25556208716882101 0.32314956093814839 0.10054389834901055 -0.15417593523523671 0.32988410463617945 0.099285357895918774 -0.2255878635460063 0.38986174828882542 0.099285357895918774 -0.2255878635460063 0.38986174828882542 0.099285357895918774 -0.2255878635460063 0.38986174828882542 0.17796532977919832 -0.2255878635460063 0.38986174828882542 0.17796532977919832 -0.2255878635460063 0.32988410463617945 0.17796532977919832 -0.2255878635460063 0.32988410463617945 0.17796532977919832 -0.2255878635460063 0.32988410463617945 0.099285357895918774 -0.2255878635460063 0.32988410463617945 0.099285357895918774 -0.12001320881552781 0.38986174828882542 0.099285357895918774 -0.12001320881552781 0.38986174828882542 0.099285357895918774 -0.12001320881552781 0.38986174828882542 0.17796532977919832 -0.12001320881552781 0.38986174828882542 0.17796532977919832 -0.12001320881552781 0.32988410463617945 0.17796532977919832 -0.12001320881552781 0.32988410463617945 0.17796532977919832 -0.12001320881552781 0.32988410463617945 0.099285357895918774 -0.12001320881552781 0.32988410463617945 0.099285357895918774 -0.2255878635460063 0.32988410463617945 0.099285357895918774 -0.12001320881552781 0.38986174828882542 0.099285357895918774 -0.2255878635460063 0.38986174828882542 0.099285357895918774 -0.12001320881552781 0.38986174828882542 0.17796532977919832 -0.2255878635460063 0.38986174828882542 0.17796532977919832 -0.12001320881552781 0.32988410463617945 0.17796532977919832 -0.2255878635460063 0.32988410463617945 0.17796532977919832 -0.12001320881552781 0.32988410463617945 0.070387070908556365 -0.2255878635460063 0.38986174828882542 0.070387070908556365 -0.2255878635460063 0.38986174828882542 0.070387070908556365 -0.2255878635460063 0.38986174828882542 0.1481161119948643 -0.2255878635460063 0.38986174828882542 0.1481161119948643 -0.2255878635460063 0.32988410463617945 0.1481161119948643 -0.2255878635460063 0.32988410463617945 0.1481161119948643 -0.2255878635460063 0.32988410463617945 0.070387070908556365 -0.2255878635460063 0.32988410463617945 0.070387070908556365 -0.12001320881552781 0.38986174828882542 0.070387070908556365 -0.12001320881552781 0.38986174828882542 0.070387070908556365 -0.12001320881552781 0.38986174828882542 0.1481161119948643 -0.12001320881552781 0.38986174828882542 0.1481161119948643 -0.12001320881552781 0.32988410463617945 0.1481161119948643 -0.12001320881552781 0.32988410463617945 0.1481161119948643 -0.12001320881552781 0.32988410463617945 0.070387070908556365 -0.12001320881552781 0.32988410463617945 0.070387070908556365 -0.2255878635460063 0.32988410463617945 0.070387070908556365 -0.12001320881552781 0.38986174828882542 0.070387070908556365 -0.2255878635460063 0.38986174828882542 0.070387070908556365 -0.12001320881552781 0.38986174828882542 0.1481161119948643 -0.2255878635460063 0.38986174828882542 0.1481161119948643 -0.12001320881552781 0.32988410463617945 0.1481161119948643 -0.2255878635460063 0.32988410463617945 0.1481161119948643 -0.12001320881552781 0.32326652629054353 0.14792546769113935 -0.19062545728012686 0.38264266861595719 0.14792546769113935 -0.19062545728012686 0.38264266861595719 0.14792546769113935 -0.19062545728012686 0.38264266861595719 0.22216594110553264 -0.19062545728012686 0.38264266861595719 0.22216594110553264 -0.19062545728012686 0.32326652629054353 0.22216594110553264 -0.19062545728012686 0.32326652629054353 0.22216594110553264 -0.19062545728012686 0.32326652629054353 0.14792546769113935 -0.19062545728012686 0.32326652629054353 0.14792546769113935 -0.084122861558356798 0.38264266861595719 0.14792546769113935 -0.084122861558356798 0.38264266861595719 0.14792546769113935 -0.084122861558356798 0.38264266861595719 0.22216594110553264 -0.084122861558356798 0.38264266861595719 0.22216594110553264 -0.084122861558356798 0.32326652629054353 0.22216594110553264 -0.084122861558356798 0.32326652629054353 0.22216594110553264 -0.084122861558356798 0.32326652629054353 0.14792546769113935 -0.084122861558356798 0.32326652629054353 0.14792546769113935 -0.19062545728012686 0.32326652629054353 0.14792546769113935 -0.084122861558356798 0.38264266861595719 0.14792546769113935 -0.19062545728012686 0.38264266861595719 0.14792546769113935 -0.084122861558356798 0.38264266861595719 0.22216594110553264 -0.19062545728012686 0.38264266861595719 0.22216594110553264 -0.084122861558356798 0.32326652629054353 0.22216594110553264 -0.19062545728012686 0.32326652629054353 0.22216594110553264 -0.084122861558356798 0.33003145182562066 0.11807624990680529 -0.19062545728012686 0.38971440109938427 0.11807624990680529 -0.19062545728012686 0.38971440109938427 0.11807624990680529 -0.19062545728012686 0.38971440109938427 0.19210341613676379 -0.19062545728012686 0.38971440109938427 0.19210341613676379 -0.19062545728012686 0.33003145182562066 0.19210341613676379 -0.19062545728012686 0.33003145182562066 0.19210341613676379 -0.19062545728012686 0.33003145182562066 0.11807624990680529 -0.19062545728012686 0.33003145182562066 0.11807624990680529 -0.084122861558356798 0.38971440109938427 0.11807624990680529 -0.084122861558356798 0.38971440109938427 0.11807624990680529 -0.084122861558356798 0.38971440109938427 0.19210341613676379 -0.084122861558356798 0.38971440109938427 0.19210341613676379 -0.084122861558356798 0.33003145182562066 0.19210341613676379 -0.084122861558356798 0.33003145182562066 0.19210341613676379 -0.084122861558356798 0.33003145182562066 0.11807624990680529 -0.084122861558356798 0.33003145182562066 0.11807624990680529 -0.19062545728012686 0.33003145182562066 0.11807624990680529 -0.084122861558356798 0.38971440109938427 0.11807624990680529 -0.19062545728012686 0.38971440109938427 0.11807624990680529 -0.084122861558356798 0.38971440109938427 0.19210341613676379 -0.19062545728012686 0.38971440109938427 0.19210341613676379 -0.084122861558356798 0.33003145182562066 0.19210341613676379 -0.19062545728012686 0.33003145182562066 0.19210341613676379 -0.084122861558356798</DataArray>
      </Points>
      <Lines>
        <DataArray type="Int32" Name="connectivity" format="ascii">0 1 2 3 4 5 6 7 8 9 10 11 12 13 14 15 16 17 18 19 20 21 22 23 24 25 26 27 28 29 30 31 32 33 34 35 36 37 38 39 40 41 42 43 44 45 46 47 48 49 50 51 52 53 54 55 56 57 58 59 60 61 62 63 64 65 66 67 68 69 70 71 72 73 74 75 76 77 78 79 80 81 82 83 84 85 86 87 88 89 90 91 92 93 94 95 96 97 98 99 100 101 102 103 104 105 106 107 108 109 110 111 112 113 114 115 116 117 118 119 120 121 122 123 124 125 126 127 128 129 130 131 132 133 134 135 136 137 138 139 140 141 142 143 144 145 146 147 148 149 150 151 152 153 154 155 156 157 158 159 160 161 162 163 164 165 166 167 168 169 170 171 172 173 174 175 176 177 178 179 180 181 182 183 184 185 186 187 188 189 190 191 192 193 194 195 196 197 198 199 200 201 202 203 204 205 206 207 208 209 210 211 212 213 214 215 216 217 218 219 220 221 222 223 224 225 226 227 228 229 230 231 232 233 234 235 236 237 238 239 240 241 242 243 244 245 246 247 248 249 250 251 252 253 254 255 256 257 258 259 260 261 262 263 264 265 266 267 268 269 270 271 272 273 274 275 276 277 278 279 280 281 282 283 284 285 286 287 288 289 290 291 292 293 294 295 296 297 298 299 300 301 302 303 304 305 306 307 308 309 310 311 312 313 314 315 316 317 318 319 320 321 322 323 324 325 326 327 328 329 330 331 332 333 334 335 336 337 338 339 340 341 342 343 344 345 346 347 348 349 350 351 352 353 354 355 356 357 358 359 360 361 362 363 364 365 366 367 368 369 370 371 372 373 374 375 376 377 378 379 380 381 382 383 384 385 386 387 388 389 390 391 392 393 394 395 396 397 398 399 400 401 402 403 404 405 406 407 408 409 410 411 412 413 414 415 416 417 418 419 420 421 422 423 424 425 426 427 428 429 430 431</DataArray>
        <DataArray type="Int32" Name="offsets" format="ascii">2 4 6 8 10 12 14 16 18 20 22 24 26 28 30 32 34 36 38 40 42 44 46 48 50 52 54 56 58 60 62 64 66 68 70 72 74 76 78 80 82 84 86 88 90 92 94 96 98 100 102 104 106 108 110 112 114 116 118 120 122 124 126 128 130 132 134 136 138 140 142 144 146 148 150 152 154 156 158 160 162 164 166 168 170 172 174 176 178 180 182 184 186 188 190 192 194 196 198 200 202 204 206 208 210 212 214 216 218 220 222 224 226 228 230 232 234 236 238 240 242 244 246 248 250 252 254 256 258 260 262 264 266 268 270 272 274 276 278 280 282 284 286 288 290 292 294 296 298 300 302 304 306 308 310 312 314 316 318 320 322 324 326 328 330 332 334 336 338 340 342 344 346 348 350 352 354 356 358 360 362 364 366 368 370 372 374 376 378 380 382 384 386 388 390 392 394 396 398 400 402 404 406 408 410 412 414 416 418 420 422 424 426 428 430 432</DataArray>
      </Lines>
      <Polys>
        <DataArray type="Int32" Name="connectivity" format="ascii"></DataArray>
        <DataArray type="Int32" Name="offsets" format="ascii"></DataArray>
      </Polys>
    </Piece>
  </PolyData>
</VTKFile>
