<?xml version="1.0"?>
<VTKFile type="PolyData" version="0.1" byte_order="LittleEndian">
  <PolyData>
    <Piece NumberOfPoints="48" NumberOfVerts="0" NumberOfLines="24" NumberOfStrips="0" NumberOfPolys="0">
      <FieldData>
        <DataArray type="Int32" Name="step" NumberOfTuples="1" format="ascii">2835</DataArray>
        <DataArray type="Float64" Name="time" NumberOfTuples="1" format="ascii">1.4175</DataArray>
        <DataArray type="Int32" Name="candidate_pairs" NumberOfTuples="1" format="ascii">36</DataArray>
        <DataArray type="Int32" Name="contacts" NumberOfTuples="1" format="ascii">20</DataArray>
      </FieldData>
      <CellData Scalars="part_id">
        <DataArray type="Int32" Name="part_id" format="ascii">6 6 6 6 6 6 6 6 6 6 6 6 6 6 6 6 6 6 6 6 6 6 6 6</DataArray>
        <DataArray type="Int32" Name="candidate_pair" format="ascii">-1 -1 -1 -1 -1 -1 -1 -1 -1 -1 -1 -1 -1 -1 -1 -1 -1 -1 -1 -1 -1 -1 -1 -1</DataArray>
      </CellData>
      <Points>
        <DataArray type="Float64" NumberOfComponents="3" format="ascii">-0.33813927446782865 -0.05040498072391178 -0.12201438391147769 -0.20890847195103879 -0.05040498072391178 -0.12201438391147769 -0.20890847195103879 -0.05040498072391178 -0.12201438391147769 -0.20890847195103879 0.079556563578719444 -0.12201438391147769 -0.20890847195103879 0.079556563578719444 -0.12201438391147769 -0.33813927446782865 0.079556563578719444 -0.12201438391147769 -0.33813927446782865 0.079556563578719444 -0.12201438391147769 -0.33813927446782865 -0.05040498072391178 -0.12201438391147769 -0.33813927446782865 -0.05040498072391178 -0.040090881991176386 -0.20890847195103879 -0.05040498072391178 -0.040090881991176386 -0.20890847195103879 -0.05040498072391178 -0.040090881991176386 -0.20890847195103879 0.079556563578719444 -0.040090881991176386 -0.20890847195103879 0.079556563578719444 -0.040090881991176386 -0.33813927446782865 0.079556563578719444 -0.040090881991176386 -0.33813927446782865 0.079556563578719444 -0.040090881991176386 -0.33813927446782865 -0.05040498072391178 -0.040090881991176386 -0.33813927446782865 -0.05040498072391178 -0.12201438391147769 -0.33813927446782865 -0.05040498072391178 -0.040090881991176386 -0.20890847195103879 -0.05040498072391178 -0.12201438391147769 -0.20890847195103879 -0.05040498072391178 -0.040090881991176386 -0.20890847195103879 0.079556563578719444 -0.12201438391147769 -0.20890847195103879 0.079556563578719444 -0.040090881991176386 -0.33813927446782865 0.079556563578719444 -0.12201438391147769 -0.33813927446782865 0.079556563578719444 -0.040090881991176386 -0.33813927446782865 -0.050933440644849517 -0.12201438391147769 -0.20890847195103879 -0.050933440644849517 -0.12201438391147769 -0.20890847195103879 -0.050933440644849517 -0.12201438391147769 -0.20890847195103879 0.079028103657781706 -0.12201438391147769 -0.20890847195103879 0.079028103657781706 -0.12201438391147769 -0.33813927446782865 0.079028103657781706 -0.12201438391147769 -0.33813927446782865 0.079028103657781706 -0.12201438391147769 -0.33813927446782865 -0.050933440644849517 -0.12201438391147769 -0.33813927446782865 -0.050933440644849517 -0.040090881991176386 -0.20890847195103879 -0.050933440644849517 -0.040090881991176386 -0.20890847195103879 -0.050933440644849517 -0.040090881991176386 -0.20890847195103879 0.079028103657781706 -0.040090881991176386 -0.20890847195103879 0.079028103657781706 -0.040090881991176386 -0.33813927446782865 0.079028103657781706 -0.040090881991176386 -0.33813927446782865 0.079028103657781706 -0.040090881991176386 -0.33813927446782865 -0.050933440644849517 -0.040090881991176386 -0.33813927446782865 -0.050933440644849517 -0.12201438391147769 -0.33813927446782865 -0.050933440644849517 -0.040090881991176386 -0.20890847195103879 -0.050933440644849517 -0.12201438391147769 -0.20890847195103879 -0.050933440644849517 -0.040090881991176386 -0.20890847195103879 0.079028103657781706 -0.12201438391147769 -0.20890847195103879 0.079028103657781706 -0.040090881991176386 -0.33813927446782865 0.079028103657781706 -0.12201438391147769 -0.33813927446782865 0.079028103657781706 -0.040090881991176386</DataArray>
      </Points>
      <Lines>
        <DataArray type="Int32" Name="connectivity" format="ascii">0 1 2 3 4 5 6 7 8 9 10 11 12 13 14 15 16 17 18 19 20 21 22 23 24 25 26 27 28 29 30 31 32 33 34 35 36 37 38 39 40 41 42 43 44 45 46 47</DataArray>
        <DataArray type="Int32" Name="offsets" format="ascii">2 4 6 8 10 12 14 16 18 20 22 24 26 28 30 32 34 36 38 40 42 44 46 48</DataArray>
      </Lines>
      <Polys>
        <DataArray type="Int32" Name="connectivity" format="ascii"></DataArray>
        <DataArray type="Int32" Name="offsets" format="ascii"></DataArray>
      </Polys>
    </Piece>
  </PolyData>
</VTKFile>
