<?xml version="1.0"?>
<VTKFile type="PolyData" version="0.1" byte_order="LittleEndian">
  <PolyData>
    <Piece NumberOfPoints="40" NumberOfVerts="0" NumberOfLines="20" NumberOfStrips="0" NumberOfPolys="0">
      <FieldData>
        <DataArray type="Int32" Name="step" NumberOfTuples="1" format="ascii">2835</DataArray>
        <DataArray type="Float64" Name="time" NumberOfTuples="1" format="ascii">1.4175</DataArray>
        <DataArray type="Int32" Name="candidate_pairs" NumberOfTuples="1" format="ascii">36</DataArray>
        <DataArray type="Int32" Name="contacts" NumberOfTuples="1" format="ascii">20</DataArray>
      </FieldData>
      <CellData Scalars="part_id">
        <DataArray type="Int32" Name="part_id" format="ascii">8 8 8 8 8 8 8 8 8 8 8 8 8 8 8 8 8 8 8 8</DataArray>
        <DataArray type="Int32" Name="candidate_pair" format="ascii">0 1 2 3 4 5 6 7 10 11 12 13 16 17 18 19 20 21 22 23</DataArray>
      </CellData>
      <Points>
        <DataArray type="Float64" NumberOfComponents="3" format="ascii">-0.33343929338149764 -0.017817419218265004 -0.098523874861618801 -0.30378336983028642 -0.016049076086369518 -0.087658479273935441 -0.33343929338149764 -0.017817419218265004 -0.098523874861618801 -0.30378336983028642 -0.016049076086369518 -0.087658479273935441 -0.3333278108493683 1.8355255249332493e-05 -0.099089610721166524 -0.30305333517012734 -0.00042107262228192562 -0.09126410912116549 -0.3333278108493683 1.8355255249332493e-05 -0.099089610721166524 -0.30378336983028642 -0.016049076086369518 -0.087658479273935441 -0.27232531577080793 -0.049337798350772517 -0.088555187836951724 -0.30378336983028642 -0.016049076086369518 -0.087658479273935441 -0.24090975146981056 -0.018798252922734054 -0.085784777254708872 -0.24430249687216518 -0.01528780934839752 -0.078741707081459111 -0.28651785525096191 -0.00040481832535850298 -0.094537567393280314 -0.28672983354421655 5.0131413762721762e-05 -0.093241339360117248 -0.28618289014690274 -0.0004057678529115571 -0.094491943864405056 -0.28638377548110172 0.0001246715286547855 -0.093258342351377768 -0.22228706145434204 3.2770732469308784e-05 -0.081886076975619643 -0.25438823728860671 0.032649624470290621 -0.084802602459569359 -0.22160855524999151 -0.017156239799694731 -0.081251457356771306 -0.24326437658858105 -0.016577536007307252 -0.077695673686187752 -0.33353570117873471 0.047052318385149242 -0.095786915988952087 -0.30378336983028642 0.045200658941177183 -0.084409592216466309 -0.33332786276485726 -1.8182702090764683e-05 -0.099090670955627791 -0.30378336983028642 -0.016049076086369518 -0.087658479273935441 -0.27694898976345977 0.026839703542897511 -0.091963646643148392 -0.2769489897662657 0.026839703542294022 -0.091963646625957157 -0.26274886208688963 0.023382514075551742 -0.089887178062348486 -0.26274886208707909 0.023382514075508114 -0.089887178061186152 -0.29426762428868403 0.037018874289871599 -0.09337923676533344 -0.29340448845514355 0.035366346532559718 -0.089707331196279494 -0.26199395008487969 0.067522519797569333 -0.083750454725915663 -0.24326437658858105 0.044672199020239452 -0.074446786628718634 -0.22230506670919123 -4.1870861672171566e-05 -0.081830162203251899 -0.25438823728860671 0.032649624470290621 -0.084802602459569359 -0.22230506670919123 -4.1870861672171566e-05 -0.081830162203251899 -0.24250666845409752 -3.5354324238505999e-05 -0.081420914846294712 -0.22106728391124772 0.045314625061759671 -0.078394104856185268 -0.24326437658858105 0.044672199020239459 -0.074446786628718647 -0.22106728391124772 0.045314625061759671 -0.078394104856185268 -0.24326437658858105 0.044672199020239452 -0.074446786628718634</DataArray>
      </Points>
      <Lines>
        <DataArray type="Int32" Name="connectivity" format="ascii">0 1 2 3 4 5 6 7 8 9 10 11 12 13 14 15 16 17 18 19 20 21 22 23 24 25 26 27 28 29 30 31 32 33 34 35 36 37 38 39</DataArray>
        <DataArray type="Int32" Name="offsets" format="ascii">2 4 6 8 10 12 14 16 18 20 22 24 26 28 30 32 34 36 38 40</DataArray>
      </Lines>
      <Polys>
        <DataArray type="Int32" Name="connectivity" format="ascii"></DataArray>
        <DataArray type="Int32" Name="offsets" format="ascii"></DataArray>
      </Polys>
    </Piece>
  </PolyData>
</VTKFile>
