<?xml version="1.0"?>
<VTKFile type="PolyData" version="0.1" byte_order="LittleEndian">
  <PolyData>
    <Piece NumberOfPoints="432" NumberOfVerts="0" NumberOfLines="216" NumberOfStrips="0" NumberOfPolys="0">
      <FieldData>
        <DataArray type="Int32" Name="step" NumberOfTuples="1" format="ascii">2835</DataArray>
        <DataArray type="Float64" Name="time" NumberOfTuples="1" format="ascii">1.4175</DataArray>
        <DataArray type="Int32" Name="candidate_pairs" NumberOfTuples="1" format="ascii">36</DataArray>
        <DataArray type="Int32" Name="contacts" NumberOfTuples="1" format="ascii">20</DataArray>
      </FieldData>
      <CellData Scalars="part_id">
        <DataArray type="Int32" Name="part_id" format="ascii">5 5 5 5 5 5 5 5 5 5 5 5 5 5 5 5 5 5 5 5 5 5 5 5 5 5 5 5 5 5 5 5 5 5 5 5 5 5 5 5 5 5 5 5 5 5 5 5 5 5 5 5 5 5 5 5 5 5 5 5 5 5 5 5 5 5 5 5 5 5 5 5 5 5 5 5 5 5 5 5 5 5 5 5 5 5 5 5 5 5 5 5 5 5 5 5 5 5 5 5 5 5 5 5 5 5 5 5 5 5 5 5 5 5 5 5 5 5 5 5 5 5 5 5 5 5 5 5 5 5 5 5 5 5 5 5 5 5 5 5 5 5 5 5 5 5 5 5 5 5 5 5 5 5 5 5 5 5 5 5 5 5 5 5 5 5 5 5 5 5 5 5 5 5 5 5 5 5 5 5 5 5 5 5 5 5 5 5 5 5 5 5 5 5 5 5 5 5 5 5 5 5 5 5 5 5 5 5 5 5 5 5 5 5 5 5</DataArray>
        <DataArray type="Int32" Name="candidate_pair" format="ascii">-1 -1 -1 -1 -1 -1 -1 -1 -1 -1 -1 -1 -1 -1 -1 -1 -1 -1 -1 -1 -1 -1 -1 -1 -1 -1 -1 -1 -1 -1 -1 -1 -1 -1 -1 -1 -1 -1 -1 -1 -1 -1 -1 -1 -1 -1 -1 -1 -1 -1 -1 -1 -1 -1 -1 -1 -1 -1 -1 -1 -1 -1 -1 -1 -1 -1 -1 -1 -1 -1 -1 -1 -1 -1 -1 -1 -1 -1 -1 -1 -1 -1 -1 -1 -1 -1 -1 -1 -1 -1 -1 -1 -1 -1 -1 -1 -1 -1 -1 -1 -1 -1 -1 -1 -1 -1 -1 -1 -1 -1 -1 -1 -1 -1 -1 -1 -1 -1 -1 -1 -1 -1 -1 -1 -1 -1 -1 -1 -1 -1 -1 -1 -1 -1 -1 -1 -1 -1 -1 -1 -1 -1 -1 -1 -1 -1 -1 -1 -1 -1 -1 -1 -1 -1 -1 -1 -1 -1 -1 -1 -1 -1 -1 -1 -1 -1 -1 -1 -1 -1 -1 -1 -1 -1 -1 -1 -1 -1 -1 -1 -1 -1 -1 -1 -1 -1 -1 -1 -1 -1 -1 -1 -1 -1 -1 -1 -1 -1 -1 -1 -1 -1 -1 -1 -1 -1 -1 -1 -1 -1 -1 -1 -1 -1 -1 -1</DataArray>
      </CellData>
      <Points>
        <DataArray type="Float64" NumberOfComponents="3" format="ascii">-0.47566980093691524 -0.13622535649247083 -0.1304277491199313 -0.30210797684086255 -0.13622535649247083 -0.1304277491199313 -0.30210797684086255 -0.13622535649247083 -0.1304277491199313 -0.30210797684086255 0.031225356492470841 -0.1304277491199313 -0.30210797684086255 0.031225356492470841 -0.1304277491199313 -0.47566980093691524 0.031225356492470841 -0.1304277491199313 -0.47566980093691524 0.031225356492470841 -0.1304277491199313 -0.47566980093691524 -0.13622535649247083 -0.1304277491199313 -0.47566980093691524 -0.13622535649247083 -0.045447614402990735 -0.30210797684086255 -0.13622535649247083 -0.045447614402990735 -0.30210797684086255 -0.13622535649247083 -0.045447614402990735 -0.30210797684086255 0.031225356492470841 -0.045447614402990735 -0.30210797684086255 0.031225356492470841 -0.045447614402990735 -0.47566980093691524 0.031225356492470841 -0.045447614402990735 -0.47566980093691524 0.031225356492470841 -0.045447614402990735 -0.47566980093691524 -0.13622535649247083 -0.045447614402990735 -0.47566980093691524 -0.13622535649247083 -0.1304277491199313 -0.47566980093691524 -0.13622535649247083 -0.045447614402990735 -0.30210797684086255 -0.13622535649247083 -0.1304277491199313 -0.30210797684086255 -0.13622535649247083 -0.045447614402990735 -0.30210797684086255 0.031225356492470841 -0.1304277491199313 -0.30210797684086255 0.031225356492470841 -0.045447614402990735 -0.47566980093691524 0.031225356492470841 -0.1304277491199313 -0.47566980093691524 0.031225356492470841 -0.045447614402990735 -0.47554987446490882 -0.13610543002046435 -0.13030782264792481 -0.30222790331286897 -0.13610543002046435 -0.13030782264792481 -0.30222790331286897 -0.13610543002046435 -0.13030782264792481 -0.30222790331286897 0.03110543002046437 -0.13030782264792481 -0.30222790331286897 0.03110543002046437 -0.13030782264792481 -0.47554987446490882 0.03110543002046437 -0.13030782264792481 -0.47554987446490882 0.03110543002046437 -0.13030782264792481 -0.47554987446490882 -0.13610543002046435 -0.13030782264792481 -0.47554987446490882 -0.13610543002046435 -0.045567540874997203 -0.30222790331286897 -0.13610543002046435 -0.045567540874997203 -0.30222790331286897 -0.13610543002046435 -0.045567540874997203 -0.30222790331286897 0.03110543002046437 -0.045567540874997203 -0.30222790331286897 0.03110543002046437 -0.045567540874997203 -0.47554987446490882 0.03110543002046437 -0.045567540874997203 -0.47554987446490882 0.03110543002046437 -0.045567540874997203 -0.47554987446490882 -0.13610543002046435 -0.045567540874997203 -0.47554987446490882 -0.13610543002046435 -0.13030782264792481 -0.47554987446490882 -0.13610543002046435 -0.045567540874997203 -0.30222790331286897 -0.13610543002046435 -0.13030782264792481 -0.30222790331286897 -0.13610543002046435 -0.045567540874997203 -0.30222790331286897 0.03110543002046437 -0.13030782264792481 -0.30222790331286897 0.03110543002046437 -0.045567540874997203 -0.47554987446490882 0.03110543002046437 -0.13030782264792481 -0.47554987446490882 0.03110543002046437 -0.045567540874997203 -0.36393960533877029 -0.1356062720054369 -0.11271991463289735 -0.19161595021678529 -0.1356062720054369 -0.11271991463289735 -0.19161595021678529 -0.1356062720054369 -0.11271991463289735 -0.19161595021678529 0.030606272005436912 -0.11271991463289735 -0.19161595021678529 0.030606272005436912 -0.11271991463289735 -0.36393960533877029 0.030606272005436912 -0.11271991463289735 -0.36393960533877029 0.030606272005436912 -0.11271991463289735 -0.36393960533877029 -0.1356062720054369 -0.11271991463289735 -0.36393960533877029 -0.1356062720054369 -0.034392411237275329 -0.19161595021678529 -0.1356062720054369 -0.034392411237275329 -0.19161595021678529 -0.1356062720054369 -0.034392411237275329 -0.19161595021678529 0.030606272005436912 -0.034392411237275329 -0.19161595021678529 0.030606272005436912 -0.034392411237275329 -0.36393960533877029 0.030606272005436912 -0.034392411237275329 -0.36393960533877029 0.030606272005436912 -0.034392411237275329 -0.36393960533877029 -0.1356062720054369 -0.034392411237275329 -0.36393960533877029 -0.1356062720054369 -0.11271991463289735 -0.36393960533877029 -0.1356062720054369 -0.034392411237275329 -0.19161595021678529 -0.1356062720054369 -0.11271991463289735 -0.19161595021678529 -0.1356062720054369 -0.034392411237275329 -0.19161595021678529 0.030606272005436912 -0.11271991463289735 -0.19161595021678529 0.030606272005436912 -0.034392411237275329 -0.36393960533877029 0.030606272005436912 -0.11271991463289735 -0.36393960533877029 0.030606272005436912 -0.034392411237275329 -0.36427756168266118 -0.13594422834932779 -0.13014662097678825 -0.1912779938728944 -0.13594422834932779 -0.13014662097678825 -0.1912779938728944 -0.13594422834932779 -0.13014662097678825 -0.1912779938728944 0.030944228349327817 -0.13014662097678825 -0.1912779938728944 0.030944228349327817 -0.13014662097678825 -0.36427756168266118 0.030944228349327817 -0.13014662097678825 -0.36427756168266118 0.030944228349327817 -0.13014662097678825 -0.36427756168266118 -0.13594422834932779 -0.13014662097678825 -0.36427756168266118 -0.13594422834932779 -0.05114320489338442 -0.1912779938728944 -0.13594422834932779 -0.05114320489338442 -0.1912779938728944 -0.13594422834932779 -0.05114320489338442 -0.1912779938728944 0.030944228349327817 -0.05114320489338442 -0.1912779938728944 0.030944228349327817 -0.05114320489338442 -0.36427756168266118 0.030944228349327817 -0.05114320489338442 -0.36427756168266118 0.030944228349327817 -0.05114320489338442 -0.36427756168266118 -0.13594422834932779 -0.05114320489338442 -0.36427756168266118 -0.13594422834932779 -0.13014662097678825 -0.36427756168266118 -0.13594422834932779 -0.05114320489338442 -0.1912779938728944 -0.13594422834932779 -0.13014662097678825 -0.1912779938728944 -0.13594422834932779 -0.05114320489338442 -0.1912779938728944 0.030944228349327817 -0.13014662097678825 -0.1912779938728944 0.030944228349327817 -0.05114320489338442 -0.36427756168266118 0.030944228349327817 -0.13014662097678825 -0.36427756168266118 0.030944228349327817 -0.05114320489338442 -0.25255509365288398 -0.13533287143066175 -0.095331554673374008 -0.080778239680449393 -0.13533287143066175 -0.095331554673374008 -0.080778239680449393 -0.13533287143066175 -0.095331554673374008 -0.080778239680449393 0.030332871430661761 -0.095331554673374008 -0.080778239680449393 0.030332871430661761 -0.095331554673374008 -0.25255509365288398 0.030332871430661761 -0.095331554673374008 -0.25255509365288398 0.030332871430661761 -0.095331554673374008 -0.25255509365288398 -0.13533287143066175 -0.095331554673374008 -0.25255509365288398 -0.13533287143066175 0.0011133532889486507 -0.080778239680449393 -0.13533287143066175 0.0011133532889486507 -0.080778239680449393 -0.13533287143066175 0.0011133532889486507 -0.080778239680449393 0.030332871430661761 0.0011133532889486507 -0.080778239680449393 0.030332871430661761 0.0011133532889486507 -0.25255509365288398 0.030332871430661761 0.0011133532889486507 -0.25255509365288398 0.030332871430661761 0.0011133532889486507 -0.25255509365288398 -0.13533287143066175 0.0011133532889486507 -0.25255509365288398 -0.13533287143066175 -0.095331554673374008 -0.25255509365288398 -0.13533287143066175 0.0011133532889486507 -0.080778239680449393 -0.13533287143066175 -0.095331554673374008 -0.080778239680449393 -0.13533287143066175 0.0011133532889486507 -0.080778239680449393 0.030332871430661761 -0.095331554673374008 -0.080778239680449393 0.030332871430661761 0.0011133532889486507 -0.25255509365288398 0.030332871430661761 -0.095331554673374008 -0.25255509365288398 0.030332871430661761 0.0011133532889486507 -0.25301692523508273 -0.13579470301286051 -0.11288213625557275 -0.080316408098250636 -0.13579470301286051 -0.11288213625557275 -0.080316408098250636 -0.13579470301286051 -0.11288213625557275 -0.080316408098250636 0.030794703012860518 -0.11288213625557275 -0.080316408098250636 0.030794703012860518 -0.11288213625557275 -0.25301692523508273 0.030794703012860518 -0.11288213625557275 -0.25301692523508273 0.030794703012860518 -0.11288213625557275 -0.25301692523508273 -0.13579470301286051 -0.11288213625557275 -0.25301692523508273 -0.13579470301286051 -0.015513565128852588 -0.080316408098250636 -0.13579470301286051 -0.015513565128852588 -0.080316408098250636 -0.13579470301286051 -0.015513565128852588 -0.080316408098250636 0.030794703012860518 -0.015513565128852588 -0.080316408098250636 0.030794703012860518 -0.015513565128852588 -0.25301692523508273 0.030794703012860518 -0.015513565128852588 -0.25301692523508273 0.030794703012860518 -0.015513565128852588 -0.25301692523508273 -0.13579470301286051 -0.015513565128852588 -0.25301692523508273 -0.13579470301286051 -0.11288213625557275 -0.25301692523508273 -0.13579470301286051 -0.015513565128852588 -0.080316408098250636 -0.13579470301286051 -0.11288213625557275 -0.080316408098250636 -0.13579470301286051 -0.015513565128852588 -0.080316408098250636 0.030794703012860518 -0.11288213625557275 -0.080316408098250636 0.030794703012860518 -0.015513565128852588 -0.25301692523508273 0.030794703012860518 -0.11288213625557275 -0.25301692523508273 0.030794703012860518 -0.015513565128852588 -0.475463819713561 -0.031019375269116602 -0.13022176789657705 -0.30231395806421679 -0.031019375269116602 -0.13022176789657705 -0.30231395806421679 -0.031019375269116602 -0.13022176789657705 -0.30231395806421679 0.13601937526911664 -0.13022176789657705 -0.30231395806421679 0.13601937526911664 -0.13022176789657705 -0.475463819713561 0.13601937526911664 -0.13022176789657705 -0.475463819713561 0.13601937526911664 -0.13022176789657705 -0.475463819713561 -0.031019375269116602 -0.13022176789657705 -0.475463819713561 -0.031019375269116602 -0.051094267358343826 -0.30231395806421679 -0.031019375269116602 -0.051094267358343826 -0.30231395806421679 -0.031019375269116602 -0.051094267358343826 -0.30231395806421679 0.13601937526911664 -0.051094267358343826 -0.30231395806421679 0.13601937526911664 -0.051094267358343826 -0.475463819713561 0.13601937526911664 -0.051094267358343826 -0.475463819713561 0.13601937526911664 -0.051094267358343826 -0.475463819713561 -0.031019375269116602 -0.051094267358343826 -0.475463819713561 -0.031019375269116602 -0.13022176789657705 -0.475463819713561 -0.031019375269116602 -0.051094267358343826 -0.30231395806421679 -0.031019375269116602 -0.13022176789657705 -0.30231395806421679 -0.031019375269116602 -0.051094267358343826 -0.30231395806421679 0.13601937526911664 -0.13022176789657705 -0.30231395806421679 0.13601937526911664 -0.051094267358343826 -0.475463819713561 0.13601937526911664 -0.13022176789657705 -0.475463819713561 0.13601937526911664 -0.051094267358343826 -0.47534576106276832 -0.030901316618323911 -0.12466303751378549 -0.30243201671500947 -0.030901316618323911 -0.12466303751378549 -0.30243201671500947 -0.030901316618323911 -0.12466303751378549 -0.30243201671500947 0.13590131661832394 -0.12466303751378549 -0.30243201671500947 0.13590131661832394 -0.12466303751378549 -0.47534576106276832 0.13590131661832394 -0.12466303751378549 -0.47534576106276832 0.13590131661832394 -0.12466303751378549 -0.47534576106276832 -0.030901316618323911 -0.12466303751378549 -0.47534576106276832 -0.030901316618323911 -0.045771654277137648 -0.30243201671500947 -0.030901316618323911 -0.045771654277137648 -0.30243201671500947 -0.030901316618323911 -0.045771654277137648 -0.30243201671500947 0.13590131661832394 -0.045771654277137648 -0.30243201671500947 0.13590131661832394 -0.045771654277137648 -0.47534576106276832 0.13590131661832394 -0.045771654277137648 -0.47534576106276832 0.13590131661832394 -0.045771654277137648 -0.47534576106276832 -0.030901316618323911 -0.045771654277137648 -0.47534576106276832 -0.030901316618323911 -0.12466303751378549 -0.47534576106276832 -0.030901316618323911 -0.045771654277137648 -0.30243201671500947 -0.030901316618323911 -0.12466303751378549 -0.30243201671500947 -0.030901316618323911 -0.045771654277137648 -0.30243201671500947 0.13590131661832394 -0.12466303751378549 -0.30243201671500947 0.13590131661832394 -0.045771654277137648 -0.47534576106276832 0.13590131661832394 -0.12466303751378549 -0.47534576106276832 0.13590131661832394 -0.045771654277137648 -0.36457065202545258 -0.031237318692119213 -0.13043971131957965 -0.190984903530103 -0.031237318692119213 -0.13043971131957965 -0.190984903530103 -0.031237318692119213 -0.13043971131957965 -0.190984903530103 0.13623731869211925 -0.13043971131957965 -0.190984903530103 0.13623731869211925 -0.13043971131957965 -0.36457065202545258 0.13623731869211925 -0.13043971131957965 -0.36457065202545258 0.13623731869211925 -0.13043971131957965 -0.36457065202545258 -0.031237318692119213 -0.13043971131957965 -0.36457065202545258 -0.031237318692119213 -0.033761364550593018 -0.190984903530103 -0.031237318692119213 -0.033761364550593018 -0.190984903530103 -0.031237318692119213 -0.033761364550593018 -0.190984903530103 0.13623731869211925 -0.033761364550593018 -0.190984903530103 0.13623731869211925 -0.033761364550593018 -0.36457065202545258 0.13623731869211925 -0.033761364550593018 -0.36457065202545258 0.13623731869211925 -0.033761364550593018 -0.36457065202545258 -0.031237318692119213 -0.033761364550593018 -0.36457065202545258 -0.031237318692119213 -0.13043971131957965 -0.36457065202545258 -0.031237318692119213 -0.033761364550593018 -0.190984903530103 -0.031237318692119213 -0.13043971131957965 -0.190984903530103 -0.031237318692119213 -0.033761364550593018 -0.190984903530103 0.13623731869211925 -0.13043971131957965 -0.190984903530103 0.13623731869211925 -0.033761364550593018 -0.36457065202545258 0.13623731869211925 -0.13043971131957965 -0.36457065202545258 0.13623731869211925 -0.033761364550593018 -0.36492552583954907 -0.031592192506215713 -0.13079458513367614 -0.19063002971600651 -0.031592192506215713 -0.13079458513367614 -0.19063002971600651 -0.031592192506215713 -0.13079458513367614 -0.19063002971600651 0.13659219250621574 -0.13079458513367614 -0.19063002971600651 0.13659219250621574 -0.13079458513367614 -0.36492552583954907 0.13659219250621574 -0.13079458513367614 -0.36492552583954907 0.13659219250621574 -0.13079458513367614 -0.36492552583954907 -0.031592192506215713 -0.13079458513367614 -0.36492552583954907 -0.031592192506215713 -0.033406490736496514 -0.19063002971600651 -0.031592192506215713 -0.033406490736496514 -0.19063002971600651 -0.031592192506215713 -0.033406490736496514 -0.19063002971600651 0.13659219250621574 -0.033406490736496514 -0.19063002971600651 0.13659219250621574 -0.033406490736496514 -0.36492552583954907 0.13659219250621574 -0.033406490736496514 -0.36492552583954907 0.13659219250621574 -0.033406490736496514 -0.36492552583954907 -0.031592192506215713 -0.033406490736496514 -0.36492552583954907 -0.031592192506215713 -0.13079458513367614 -0.36492552583954907 -0.031592192506215713 -0.033406490736496514 -0.19063002971600651 -0.031592192506215713 -0.13079458513367614 -0.19063002971600651 -0.031592192506215713 -0.033406490736496514 -0.19063002971600651 0.13659219250621574 -0.13079458513367614 -0.19063002971600651 0.13659219250621574 -0.033406490736496514 -0.36492552583954907 0.13659219250621574 -0.13079458513367614 -0.36492552583954907 0.13659219250621574 -0.033406490736496514 -0.2538266915895791 -0.031604469367356905 -0.11369190261006915 -0.079506641743754256 -0.031604469367356905 -0.11369190261006915 -0.079506641743754256 -0.031604469367356905 -0.11369190261006915 -0.079506641743754256 0.13660446936735693 -0.11369190261006915 -0.079506641743754256 0.13660446936735693 -0.11369190261006915 -0.2538266915895791 0.13660446936735693 -0.11369190261006915 -0.2538266915895791 0.13660446936735693 -0.11369190261006915 -0.2538266915895791 -0.031604469367356905 -0.11369190261006915 -0.2538266915895791 -0.031604469367356905 0.0023849512256438124 -0.079506641743754256 -0.031604469367356905 0.0023849512256438124 -0.079506641743754256 -0.031604469367356905 0.0023849512256438124 -0.079506641743754256 0.13660446936735693 0.0023849512256438124 -0.079506641743754256 0.13660446936735693 0.0023849512256438124 -0.2538266915895791 0.13660446936735693 0.0023849512256438124 -0.2538266915895791 0.13660446936735693 0.0023849512256438124 -0.2538266915895791 -0.031604469367356905 0.0023849512256438124 -0.2538266915895791 -0.031604469367356905 -0.11369190261006915 -0.2538266915895791 -0.031604469367356905 0.0023849512256438124 -0.079506641743754256 -0.031604469367356905 -0.11369190261006915 -0.079506641743754256 -0.031604469367356905 0.0023849512256438124 -0.079506641743754256 0.13660446936735693 -0.11369190261006915 -0.079506641743754256 0.13660446936735693 0.0023849512256438124 -0.2538266915895791 0.13660446936735693 -0.11369190261006915 -0.2538266915895791 0.13660446936735693 0.0023849512256438124 -0.25433614096219481 -0.032113918739972616 -0.11420135198268486 -0.078997192371138544 -0.032113918739972616 -0.11420135198268486 -0.078997192371138544 -0.032113918739972616 -0.11420135198268486 -0.078997192371138544 0.13711391873997264 -0.11420135198268486 -0.078997192371138544 0.13711391873997264 -0.11420135198268486 -0.25433614096219481 0.13711391873997264 -0.11420135198268486 -0.25433614096219481 0.13711391873997264 -0.11420135198268486 -0.25433614096219481 -0.032113918739972616 -0.11420135198268486 -0.25433614096219481 -0.032113918739972616 0.0028944005982595236 -0.078997192371138544 -0.032113918739972616 0.0028944005982595236 -0.078997192371138544 -0.032113918739972616 0.0028944005982595236 -0.078997192371138544 0.13711391873997264 0.0028944005982595236 -0.078997192371138544 0.13711391873997264 0.0028944005982595236 -0.25433614096219481 0.13711391873997264 0.0028944005982595236 -0.25433614096219481 0.13711391873997264 0.0028944005982595236 -0.25433614096219481 -0.032113918739972616 0.0028944005982595236 -0.25433614096219481 -0.032113918739972616 -0.11420135198268486 -0.25433614096219481 -0.032113918739972616 0.0028944005982595236 -0.078997192371138544 -0.032113918739972616 -0.11420135198268486 -0.078997192371138544 -0.032113918739972616 0.0028944005982595236 -0.078997192371138544 0.13711391873997264 -0.11420135198268486 -0.078997192371138544 0.13711391873997264 0.0028944005982595236 -0.25433614096219481 0.13711391873997264 -0.11420135198268486 -0.25433614096219481 0.13711391873997264 0.0028944005982595236 -0.47315903418761507 0.076285410256829361 -0.11082823237063111 -0.30461874359016272 0.076285410256829361 -0.11082823237063111 -0.30461874359016272 0.076285410256829361 -0.11082823237063111 -0.30461874359016272 0.2387145897431707 -0.11082823237063111 -0.30461874359016272 0.2387145897431707 -0.11082823237063111 -0.47315903418761507 0.2387145897431707 -0.11082823237063111 -0.47315903418761507 0.2387145897431707 -0.11082823237063111 -0.47315903418761507 0.076285410256829361 -0.11082823237063111 -0.47315903418761507 0.076285410256829361 -0.0021328028842897348 -0.30461874359016272 0.076285410256829361 -0.0021328028842897348 -0.30461874359016272 0.076285410256829361 -0.0021328028842897348 -0.30461874359016272 0.2387145897431707 -0.0021328028842897348 -0.30461874359016272 0.2387145897431707 -0.0021328028842897348 -0.47315903418761507 0.2387145897431707 -0.0021328028842897348 -0.47315903418761507 0.2387145897431707 -0.0021328028842897348 -0.47315903418761507 0.076285410256829361 -0.0021328028842897348 -0.47315903418761507 0.076285410256829361 -0.11082823237063111 -0.47315903418761507 0.076285410256829361 -0.0021328028842897348 -0.30461874359016272 0.076285410256829361 -0.11082823237063111 -0.30461874359016272 0.076285410256829361 -0.0021328028842897348 -0.30461874359016272 0.2387145897431707 -0.11082823237063111 -0.30461874359016272 0.2387145897431707 -0.0021328028842897348 -0.47315903418761507 0.2387145897431707 -0.11082823237063111 -0.47315903418761507 0.2387145897431707 -0.0021328028842897348 -0.47309410552773878 0.076350338916705673 -0.10532263197875591 -0.30468367225003901 0.076350338916705673 -0.10532263197875591 -0.30468367225003901 0.076350338916705673 -0.10532263197875591 -0.30468367225003901 0.23864966108329438 -0.10532263197875591 -0.30468367225003901 0.23864966108329438 -0.10532263197875591 -0.47309410552773878 0.23864966108329438 -0.10532263197875591 -0.47309410552773878 0.23864966108329438 -0.10532263197875591 -0.47309410552773878 0.076350338916705673 -0.10532263197875591 -0.47309410552773878 0.076350338916705673 0.003242940187832815 -0.30468367225003901 0.076350338916705673 0.003242940187832815 -0.30468367225003901 0.076350338916705673 0.003242940187832815 -0.30468367225003901 0.23864966108329438 0.003242940187832815 -0.30468367225003901 0.23864966108329438 0.003242940187832815 -0.47309410552773878 0.23864966108329438 0.003242940187832815 -0.47309410552773878 0.23864966108329438 0.003242940187832815 -0.47309410552773878 0.076350338916705673 0.003242940187832815 -0.47309410552773878 0.076350338916705673 -0.10532263197875591 -0.47309410552773878 0.076350338916705673 0.003242940187832815 -0.30468367225003901 0.076350338916705673 -0.10532263197875591 -0.30468367225003901 0.076350338916705673 0.003242940187832815 -0.30468367225003901 0.23864966108329438 -0.10532263197875591 -0.30468367225003901 0.23864966108329438 0.003242940187832815 -0.47309410552773878 0.23864966108329438 -0.10532263197875591 -0.47309410552773878 0.23864966108329438 0.003242940187832815 -0.36292359801493274 0.075409735318400686 -0.11170390730905978 -0.19263195754062287 0.075409735318400686 -0.11170390730905978 -0.19263195754062287 0.075409735318400686 -0.11170390730905978 -0.19263195754062287 0.23959026468159936 -0.11170390730905978 -0.19263195754062287 0.23959026468159936 -0.11170390730905978 -0.36292359801493274 0.23959026468159936 -0.11170390730905978 -0.36292359801493274 0.23959026468159936 -0.11170390730905978 -0.36292359801493274 0.075409735318400686 -0.11170390730905978 -0.36292359801493274 0.075409735318400686 0.015857831438887131 -0.19263195754062287 0.075409735318400686 0.015857831438887131 -0.19263195754062287 0.075409735318400686 0.015857831438887131 -0.19263195754062287 0.23959026468159936 0.015857831438887131 -0.19263195754062287 0.23959026468159936 0.015857831438887131 -0.36292359801493274 0.23959026468159936 0.015857831438887131 -0.36292359801493274 0.23959026468159936 0.015857831438887131 -0.36292359801493274 0.075409735318400686 0.015857831438887131 -0.36292359801493274 0.075409735318400686 -0.11170390730905978 -0.36292359801493274 0.075409735318400686 0.015857831438887131 -0.19263195754062287 0.075409735318400686 -0.11170390730905978 -0.19263195754062287 0.075409735318400686 0.015857831438887131 -0.19263195754062287 0.23959026468159936 -0.11170390730905978 -0.19263195754062287 0.23959026468159936 0.015857831438887131 -0.36292359801493274 0.23959026468159936 -0.11170390730905978 -0.36292359801493274 0.23959026468159936 0.015857831438887131 -0.36313155602777619 0.075201777305557244 -0.11191186532190323 -0.19242399952777942 0.075201777305557244 -0.11191186532190323 -0.19242399952777942 0.075201777305557244 -0.11191186532190323 -0.19242399952777942 0.23979822269444281 -0.11191186532190323 -0.19242399952777942 0.23979822269444281 -0.11191186532190323 -0.36313155602777619 0.23979822269444281 -0.11191186532190323 -0.36313155602777619 0.23979822269444281 -0.11191186532190323 -0.36313155602777619 0.075201777305557244 -0.11191186532190323 -0.36313155602777619 0.075201777305557244 0.016065789451730587 -0.19242399952777942 0.075201777305557244 0.016065789451730587 -0.19242399952777942 0.075201777305557244 0.016065789451730587 -0.19242399952777942 0.23979822269444281 0.016065789451730587 -0.19242399952777942 0.23979822269444281 0.016065789451730587 -0.36313155602777619 0.23979822269444281 0.016065789451730587 -0.36313155602777619 0.23979822269444281 0.016065789451730587 -0.36313155602777619 0.075201777305557244 0.016065789451730587 -0.36313155602777619 0.075201777305557244 -0.11191186532190323 -0.36313155602777619 0.075201777305557244 0.016065789451730587 -0.19242399952777942 0.075201777305557244 -0.11191186532190323 -0.19242399952777942 0.075201777305557244 0.016065789451730587 -0.19242399952777942 0.23979822269444281 -0.11191186532190323 -0.19242399952777942 0.23979822269444281 0.016065789451730587 -0.36313155602777619 0.23979822269444281 -0.11191186532190323 -0.36313155602777619 0.23979822269444281 0.016065789451730587 -0.25269108633433435 0.074531135887887914 -0.09546754735482435 -0.080642246998999037 0.074531135887887914 -0.09546754735482435 -0.080642246998999037 0.074531135887887914 -0.09546754735482435 -0.080642246998999037 0.24046886411211216 -0.09546754735482435 -0.080642246998999037 0.24046886411211216 -0.09546754735482435 -0.25269108633433435 0.24046886411211216 -0.09546754735482435 -0.25269108633433435 0.24046886411211216 -0.09546754735482435 -0.25269108633433435 0.074531135887887914 -0.09546754735482435 -0.25269108633433435 0.074531135887887914 0.052515595970399044 -0.080642246998999037 0.074531135887887914 0.052515595970399044 -0.080642246998999037 0.074531135887887914 0.052515595970399044 -0.080642246998999037 0.24046886411211216 0.052515595970399044 -0.080642246998999037 0.24046886411211216 0.052515595970399044 -0.25269108633433435 0.24046886411211216 0.052515595970399044 -0.25269108633433435 0.24046886411211216 0.052515595970399044 -0.25269108633433435 0.074531135887887914 0.052515595970399044 -0.25269108633433435 0.074531135887887914 -0.09546754735482435 -0.25269108633433435 0.074531135887887914 0.052515595970399044 -0.080642246998999037 0.074531135887887914 -0.09546754735482435 -0.080642246998999037 0.074531135887887914 0.052515595970399044 -0.080642246998999037 0.24046886411211216 -0.09546754735482435 -0.080642246998999037 0.24046886411211216 0.052515595970399044 -0.25269108633433435 0.24046886411211216 -0.09546754735482435 -0.25269108633433435 0.24046886411211216 0.052515595970399044 -0.25301128762498193 0.074210934597240291 -0.095787748645471973 -0.080322045708351414 0.074210934597240291 -0.095787748645471973 -0.080322045708351414 0.074210934597240291 -0.095787748645471973 -0.080322045708351414 0.24078906540275977 -0.095787748645471973 -0.080322045708351414 0.24078906540275977 -0.095787748645471973 -0.25301128762498193 0.24078906540275977 -0.095787748645471973 -0.25301128762498193 0.24078906540275977 -0.095787748645471973 -0.25301128762498193 0.074210934597240291 -0.095787748645471973 -0.25301128762498193 0.074210934597240291 0.05283579726104666 -0.080322045708351414 0.074210934597240291 0.05283579726104666 -0.080322045708351414 0.074210934597240291 0.05283579726104666 -0.080322045708351414 0.24078906540275977 0.05283579726104666 -0.080322045708351414 0.24078906540275977 0.05283579726104666 -0.25301128762498193 0.24078906540275977 0.05283579726104666 -0.25301128762498193 0.24078906540275977 0.05283579726104666 -0.25301128762498193 0.074210934597240291 0.05283579726104666 -0.25301128762498193 0.074210934597240291 -0.095787748645471973 -0.25301128762498193 0.074210934597240291 0.05283579726104666 -0.080322045708351414 0.074210934597240291 -0.095787748645471973 -0.080322045708351414 0.074210934597240291 0.05283579726104666 -0.080322045708351414 0.24078906540275977 -0.095787748645471973 -0.080322045708351414 0.24078906540275977 0.05283579726104666 -0.25301128762498193 0.24078906540275977 -0.095787748645471973 -0.25301128762498193 0.24078906540275977 0.05283579726104666</DataArray>
      </Points>
      <Lines>
        <DataArray type="Int32" Name="connectivity" format="ascii">0 1 2 3 4 5 6 7 8 9 10 11 12 13 14 15 16 17 18 19 20 21 22 23 24 25 26 27 28 29 30 31 32 33 34 35 36 37 38 39 40 41 42 43 44 45 46 47 48 49 50 51 52 53 54 55 56 57 58 59 60 61 62 63 64 65 66 67 68 69 70 71 72 73 74 75 76 77 78 79 80 81 82 83 84 85 86 87 88 89 90 91 92 93 94 95 96 97 98 99 100 101 102 103 104 105 106 107 108 109 110 111 112 113 114 115 116 117 118 119 120 121 122 123 124 125 126 127 128 129 130 131 132 133 134 135 136 137 138 139 140 141 142 143 144 145 146 147 148 149 150 151 152 153 154 155 156 157 158 159 160 161 162 163 164 165 166 167 168 169 170 171 172 173 174 175 176 177 178 179 180 181 182 183 184 185 186 187 188 189 190 191 192 193 194 195 196 197 198 199 200 201 202 203 204 205 206 207 208 209 210 211 212 213 214 215 216 217 218 219 220 221 222 223 224 225 226 227 228 229 230 231 232 233 234 235 236 237 238 239 240 241 242 243 244 245 246 247 248 249 250 251 252 253 254 255 256 257 258 259 260 261 262 263 264 265 266 267 268 269 270 271 272 273 274 275 276 277 278 279 280 281 282 283 284 285 286 287 288 289 290 291 292 293 294 295 296 297 298 299 300 301 302 303 304 305 306 307 308 309 310 311 312 313 314 315 316 317 318 319 320 321 322 323 324 325 326 327 328 329 330 331 332 333 334 335 336 337 338 339 340 341 342 343 344 345 346 347 348 349 350 351 352 353 354 355 356 357 358 359 360 361 362 363 364 365 366 367 368 369 370 371 372 373 374 375 376 377 378 379 380 381 382 383 384 385 386 387 388 389 390 391 392 393 394 395 396 397 398 399 400 401 402 403 404 405 406 407 408 409 410 411 412 413 414 415 416 417 418 419 420 421 422 423 424 425 426 427 428 429 430 431</DataArray>
        <DataArray type="Int32" Name="offsets" format="ascii">2 4 6 8 10 12 14 16 18 20 22 24 26 28 30 32 34 36 38 40 42 44 46 48 50 52 54 56 58 60 62 64 66 68 70 72 74 76 78 80 82 84 86 88 90 92 94 96 98 100 102 104 106 108 110 112 114 116 118 120 122 124 126 128 130 132 134 136 138 140 142 144 146 148 150 152 154 156 158 160 162 164 166 168 170 172 174 176 178 180 182 184 186 188 190 192 194 196 198 200 202 204 206 208 210 212 214 216 218 220 222 224 226 228 230 232 234 236 238 240 242 244 246 248 250 252 254 256 258 260 262 264 266 268 270 272 274 276 278 280 282 284 286 288 290 292 294 296 298 300 302 304 306 308 310 312 314 316 318 320 322 324 326 328 330 332 334 336 338 340 342 344 346 348 350 352 354 356 358 360 362 364 366 368 370 372 374 376 378 380 382 384 386 388 390 392 394 396 398 400 402 404 406 408 410 412 414 416 418 420 422 424 426 428 430 432</DataArray>
      </Lines>
      <Polys>
        <DataArray type="Int32" Name="connectivity" format="ascii"></DataArray>
        <DataArray type="Int32" Name="offsets" format="ascii"></DataArray>
      </Polys>
    </Piece>
  </PolyData>
</VTKFile>
