<?xml version="1.0"?>
<VTKFile type="PolyData" version="0.1" byte_order="LittleEndian">
  <PolyData>
    <Piece NumberOfPoints="40" NumberOfVerts="0" NumberOfLines="20" NumberOfStrips="0" NumberOfPolys="0">
      <FieldData>
        <DataArray type="Int32" Name="step" NumberOfTuples="1" format="ascii">2835</DataArray>
        <DataArray type="Float64" Name="time" NumberOfTuples="1" format="ascii">1.4175</DataArray>
        <DataArray type="Int32" Name="candidate_pairs" NumberOfTuples="1" format="ascii">36</DataArray>
        <DataArray type="Int32" Name="contacts" NumberOfTuples="1" format="ascii">20</DataArray>
      </FieldData>
      <CellData Scalars="part_id">
        <DataArray type="Int32" Name="part_id" format="ascii">7 7 7 7 7 7 7 7 7 7 7 7 7 7 7 7 7 7 7 7</DataArray>
        <DataArray type="Int32" Name="candidate_pair" format="ascii">0 1 2 3 4 5 6 7 10 11 12 13 16 17 18 19 20 21 22 23</DataArray>
      </CellData>
      <Points>
        <DataArray type="Float64" NumberOfComponents="3" format="ascii">-0.33333333333333337 -0.017465236442799778 -0.096359925396394777 -0.30378336983028642 -0.016049076086369518 -0.087658479273935427 -0.33333333333333337 -0.017465236442799778 -0.096359925396394777 -0.30378336983028642 -0.016049076086369518 -0.087658479273935427 -0.33333333333333337 0 -0.099202392627460445 -0.30378336983028642 -0.00065563789091192598 -0.086841960768170787 -0.33333333333333337 0 -0.099202392627460445 -0.30378336983028642 -0.016049076086369518 -0.087658479273935427 -0.27331971738987354 -0.048287132933430482 -0.082099486347906911 -0.30378336983028642 -0.016049076086369518 -0.087658479273935427 -0.24161282132498058 -0.018324116152106634 -0.082092007183763679 -0.24326437658858105 -0.016577536007307256 -0.077695673686187766 -0.30314092586139479 -0.016727869893371435 -0.091829255353824274 -0.30378336983028642 -0.016049076086369518 -0.087658479273935427 -0.30314092586139479 -0.016727869893371435 -0.091829255353824274 -0.30378336983028642 -0.016049076086369518 -0.087658479273935427 -0.22222222222222221 0 -0.082087433242712241 -0.25565141636237765 0.03224375615343248 -0.07715095855077729 -0.22222222222222221 -0.016846083193659354 -0.079345733202944177 -0.24326437658858105 -0.016577536007307256 -0.077695673686187766 -0.33333333333333337 0.046379701953832952 -0.091654096134474131 -0.30378336983028642 0.045200658941177183 -0.084409592216466309 -0.33333333333333337 0 -0.099202392627460445 -0.30378336983028642 -0.016049076086369518 -0.087658479273935427 -0.2851997138535613 0.045486270408384592 -0.084385257636560837 -0.28568992578877134 0.045042664574524681 -0.081430998956025499 -0.24273468374231597 0.045231862183204928 -0.077885577184574173 -0.24326437658858105 0.044672199020239452 -0.074446786628718647 -0.3033602752857219 0.045647692411072104 -0.08715634164746433 -0.30378336983028642 0.045200658941177183 -0.084409592216466309 -0.26295112963204798 0.066511182497714677 -0.077536400656148211 -0.24326437658858105 0.044672199020239452 -0.074446786628718647 -0.22222222222222221 0 -0.082087433242712241 -0.25565141636237765 0.03224375615343248 -0.07715095855077729 -0.22222222222222221 0 -0.082087433242712241 -0.24326437658858105 -0.00027881127472017582 -0.076831135810013468 -0.22222222222222221 0.044730901702149863 -0.074807478990687348 -0.24326437658858105 0.044672199020239452 -0.074446786628718647 -0.22222222222222221 0.044730901702149863 -0.074807478990687348 -0.24326437658858105 0.044672199020239452 -0.074446786628718647</DataArray>
      </Points>
      <Lines>
        <DataArray type="Int32" Name="connectivity" format="ascii">0 1 2 3 4 5 6 7 8 9 10 11 12 13 14 15 16 17 18 19 20 21 22 23 24 25 26 27 28 29 30 31 32 33 34 35 36 37 38 39</DataArray>
        <DataArray type="Int32" Name="offsets" format="ascii">2 4 6 8 10 12 14 16 18 20 22 24 26 28 30 32 34 36 38 40</DataArray>
      </Lines>
      <Polys>
        <DataArray type="Int32" Name="connectivity" format="ascii"></DataArray>
        <DataArray type="Int32" Name="offsets" format="ascii"></DataArray>
      </Polys>
    </Piece>
  </PolyData>
</VTKFile>
