<?xml version="1.0"?>
<VTKFile type="PolyData" version="0.1" byte_order="LittleEndian">
  <PolyData>
    <Piece NumberOfPoints="24" NumberOfVerts="0" NumberOfLines="0" NumberOfStrips="0" NumberOfPolys="8">
      <FieldData>
        <DataArray type="Int32" Name="step" NumberOfTuples="1" format="ascii">2835</DataArray>
        <DataArray type="Float64" Name="time" NumberOfTuples="1" format="ascii">1.4175</DataArray>
        <DataArray type="Int32" Name="candidate_pairs" NumberOfTuples="1" format="ascii">4</DataArray>
        <DataArray type="Int32" Name="contacts" NumberOfTuples="1" format="ascii">4</DataArray>
      </FieldData>
      <CellData Scalars="part_id">
        <DataArray type="Int32" Name="part_id" format="ascii">13 13 13 13 13 13 13 13</DataArray>
        <DataArray type="Int32" Name="candidate_pair" format="ascii">0 0 1 1 2 2 3 3</DataArray>
      </CellData>
      <Points>
        <DataArray type="Float64" NumberOfComponents="3" format="ascii">-0.27400916069325421 0.016511597925694715 -0.092344455925962105 -0.27400916069325421 0.011618673934513959 -0.092557258220422822 -0.26917790139757014 0.011583779864918271 -0.091754945300313889 -0.27400916069325421 0.016511597925694715 -0.092344455925962105 -0.26917790139757014 0.011583779864918271 -0.091754945300313889 -0.26917790139757014 0.016476703856099031 -0.091542143005853172 -0.27058612472705207 0.015539299824944891 -0.091824747228316031 -0.27058612472705207 0.012542121086094786 -0.091954822619473922 -0.26762915557553374 0.01252016896366352 -0.091449004923767355 -0.27058612472705207 0.015539299824944891 -0.091824747228316031 -0.26762915557553374 0.01252016896366352 -0.091449004923767355 -0.26762915557553374 0.015517347702513626 -0.091318929532609464 -0.2743168013439683 0.017735315496647155 -0.092324390308945847 -0.2743168013439683 0.014739505435916895 -0.092482889772753624 -0.27135615164097526 0.014713917965715266 -0.091999259110433967 -0.2743168013439683 0.017735315496647155 -0.092324390308945847 -0.27135615164097526 0.014713917965715266 -0.091999259110433967 -0.27135615164097526 0.017709728026445527 -0.091840759646626191 -0.2743167645715251 0.013396144783256786 -0.092541200270643054 -0.2743167645715251 0.01039790910844028 -0.092644073193502291 -0.27135618841341846 0.01038128633761135 -0.092159601836721727 -0.2743167645715251 0.013396144783256786 -0.092541200270643054 -0.27135618841341846 0.01038128633761135 -0.092159601836721727 -0.27135618841341846 0.013379522012427857 -0.09205672891386249</DataArray>
      </Points>
      <Lines>
        <DataArray type="Int32" Name="connectivity" format="ascii"></DataArray>
        <DataArray type="Int32" Name="offsets" format="ascii"></DataArray>
      </Lines>
      <Polys>
        <DataArray type="Int32" Name="connectivity" format="ascii">0 1 2 3 4 5 6 7 8 9 10 11 12 13 14 15 16 17 18 19 20 21 22 23</DataArray>
        <DataArray type="Int32" Name="offsets" format="ascii">3 6 9 12 15 18 21 24</DataArray>
      </Polys>
    </Piece>
  </PolyData>
</VTKFile>
