<?xml version="1.0"?>
<VTKFile type="PolyData" version="0.1" byte_order="LittleEndian">
  <PolyData>
    <Piece NumberOfPoints="54" NumberOfVerts="0" NumberOfLines="0" NumberOfStrips="0" NumberOfPolys="18">
      <FieldData>
        <DataArray type="Int32" Name="step" NumberOfTuples="1" format="ascii">2835</DataArray>
        <DataArray type="Float64" Name="time" NumberOfTuples="1" format="ascii">1.4175</DataArray>
        <DataArray type="Int32" Name="candidate_pairs" NumberOfTuples="1" format="ascii">36</DataArray>
        <DataArray type="Int32" Name="contacts" NumberOfTuples="1" format="ascii">20</DataArray>
      </FieldData>
      <CellData Scalars="part_id">
        <DataArray type="Int32" Name="part_id" format="ascii">3 3 3 3 3 3 3 3 3 3 3 3 3 3 3 3 3 3</DataArray>
        <DataArray type="Int32" Name="candidate_pair" format="ascii">-1 -1 -1 -1 -1 -1 -1 -1 -1 -1 -1 -1 -1 -1 -1 -1 -1 -1</DataArray>
      </CellData>
      <Points>
        <DataArray type="Float64" NumberOfComponents="3" format="ascii">-0.44444444444444442 -0.10499999999999998 -0.076672970895461573 -0.33333333333333337 -0.10499999999999998 -0.082113642627460445 -0.33333333333333337 0 -0.099202392627460445 -0.44444444444444442 -0.10499999999999998 -0.076672970895461573 -0.33333333333333337 0 -0.099202392627460445 -0.44444444444444442 0 -0.093761720895461573 -0.33333333333333337 -0.10499999999999998 -0.082113642627460445 -0.22222222222222221 -0.10499999999999998 -0.064998683242712241 -0.22222222222222221 0 -0.082087433242712241 -0.33333333333333337 -0.10499999999999998 -0.082113642627460445 -0.22222222222222221 0 -0.082087433242712241 -0.33333333333333337 0 -0.099202392627460445 -0.22222222222222221 -0.10499999999999998 -0.064998683242712241 -0.11111111111111116 -0.10499999999999998 -0.02921951814171311 -0.11111111111111116 0 -0.046308268141713106 -0.22222222222222221 -0.10499999999999998 -0.064998683242712241 -0.11111111111111116 0 -0.046308268141713106 -0.22222222222222221 0 -0.082087433242712241 -0.44444444444444442 0 -0.093761720895461573 -0.33333333333333337 0 -0.099202392627460445 -0.33333333333333337 0.10500000000000004 -0.082113642627460431 -0.44444444444444442 0 -0.093761720895461573 -0.33333333333333337 0.10500000000000004 -0.082113642627460431 -0.44444444444444442 0.10500000000000004 -0.076672970895461559 -0.33333333333333337 0 -0.099202392627460445 -0.22222222222222221 0 -0.082087433242712241 -0.22222222222222221 0.10500000000000004 -0.064998683242712227 -0.33333333333333337 0 -0.099202392627460445 -0.22222222222222221 0.10500000000000004 -0.064998683242712227 -0.33333333333333337 0.10500000000000004 -0.082113642627460431 -0.22222222222222221 0 -0.082087433242712241 -0.11111111111111116 0 -0.046308268141713106 -0.11111111111111116 0.10500000000000004 -0.029219518141713093 -0.22222222222222221 0 -0.082087433242712241 -0.11111111111111116 0.10500000000000004 -0.029219518141713093 -0.22222222222222221 0.10500000000000004 -0.064998683242712227 -0.44444444444444442 0.10500000000000004 -0.076672970895461559 -0.33333333333333337 0.10500000000000004 -0.082113642627460431 -0.33333333333333337 0.21000000000000002 -0.030847392627460411 -0.44444444444444442 0.10500000000000004 -0.076672970895461559 -0.33333333333333337 0.21000000000000002 -0.030847392627460411 -0.44444444444444442 0.21000000000000002 -0.025406720895461542 -0.33333333333333337 0.10500000000000004 -0.082113642627460431 -0.22222222222222221 0.10500000000000004 -0.064998683242712227 -0.22222222222222221 0.21000000000000002 -0.013732433242712215 -0.33333333333333337 0.10500000000000004 -0.082113642627460431 -0.22222222222222221 0.21000000000000002 -0.013732433242712215 -0.33333333333333337 0.21000000000000002 -0.030847392627460411 -0.22222222222222221 0.10500000000000004 -0.064998683242712227 -0.11111111111111116 0.10500000000000004 -0.029219518141713093 -0.11111111111111116 0.21000000000000002 0.022046731858286921 -0.22222222222222221 0.10500000000000004 -0.064998683242712227 -0.11111111111111116 0.21000000000000002 0.022046731858286921 -0.22222222222222221 0.21000000000000002 -0.013732433242712215</DataArray>
      </Points>
      <Lines>
        <DataArray type="Int32" Name="connectivity" format="ascii"></DataArray>
        <DataArray type="Int32" Name="offsets" format="ascii"></DataArray>
      </Lines>
      <Polys>
        <DataArray type="Int32" Name="connectivity" format="ascii">0 1 2 3 4 5 6 7 8 9 10 11 12 13 14 15 16 17 18 19 20 21 22 23 24 25 26 27 28 29 30 31 32 33 34 35 36 37 38 39 40 41 42 43 44 45 46 47 48 49 50 51 52 53</DataArray>
        <DataArray type="Int32" Name="offsets" format="ascii">3 6 9 12 15 18 21 24 27 30 33 36 39 42 45 48 51 54</DataArray>
      </Polys>
    </Piece>
  </PolyData>
</VTKFile>
