<?xml version="1.0"?>
<VTKFile type="PolyData" version="0.1" byte_order="LittleEndian">
  <PolyData>
    <Piece NumberOfPoints="24" NumberOfVerts="0" NumberOfLines="0" NumberOfStrips="0" NumberOfPolys="8">
      <FieldData>
        <DataArray type="Int32" Name="step" NumberOfTuples="1" format="ascii">2835</DataArray>
        <DataArray type="Float64" Name="time" NumberOfTuples="1" format="ascii">1.4175</DataArray>
        <DataArray type="Int32" Name="candidate_pairs" NumberOfTuples="1" format="ascii">4</DataArray>
        <DataArray type="Int32" Name="contacts" NumberOfTuples="1" format="ascii">4</DataArray>
      </FieldData>
      <CellData Scalars="part_id">
        <DataArray type="Int32" Name="part_id" format="ascii">12 12 12 12 12 12 12 12</DataArray>
        <DataArray type="Int32" Name="candidate_pair" format="ascii">0 0 1 1 2 2 3 3</DataArray>
      </CellData>
      <Points>
        <DataArray type="Float64" NumberOfComponents="3" format="ascii">-0.27401147992658503 0.016510991680747392 -0.092330516647465041 -0.27401147992658503 0.011618067689566634 -0.092543318941925759 -0.26918022063090097 0.011583173619970947 -0.091741006021816826 -0.27401147992658503 0.016510991680747392 -0.092330516647465041 -0.26918022063090097 0.011583173619970947 -0.091741006021816826 -0.26918022063090097 0.016476097611151708 -0.091528203727356108 -0.2705884439603829 0.015538693579997567 -0.091810807949818968 -0.2705884439603829 0.012541514841147461 -0.091940883340976859 -0.26763147480886457 0.012519562718716196 -0.091435065645270291 -0.2705884439603829 0.015538693579997567 -0.091810807949818968 -0.26763147480886457 0.012519562718716196 -0.091435065645270291 -0.26763147480886457 0.015516741457566301 -0.0913049902541124 -0.27431912057729912 0.017734709251699832 -0.092310451030448784 -0.27431912057729912 0.014738899190969572 -0.09246895049425656 -0.27135847087430609 0.014713311720767943 -0.091985319831936904 -0.27431912057729912 0.017734709251699832 -0.092310451030448784 -0.27135847087430609 0.014713311720767943 -0.091985319831936904 -0.27135847087430609 0.017709121781498204 -0.091826820368129128 -0.27431908380485592 0.013395538538309461 -0.09252726099214599 -0.27431908380485592 0.010397302863492955 -0.092630133915005228 -0.27135850764674929 0.010380680092664026 -0.092145662558224664 -0.27431908380485592 0.013395538538309461 -0.09252726099214599 -0.27135850764674929 0.010380680092664026 -0.092145662558224664 -0.27135850764674929 0.013378915767480532 -0.092042789635365427</DataArray>
      </Points>
      <Lines>
        <DataArray type="Int32" Name="connectivity" format="ascii"></DataArray>
        <DataArray type="Int32" Name="offsets" format="ascii"></DataArray>
      </Lines>
      <Polys>
        <DataArray type="Int32" Name="connectivity" format="ascii">0 1 2 3 4 5 6 7 8 9 10 11 12 13 14 15 16 17 18 19 20 21 22 23</DataArray>
        <DataArray type="Int32" Name="offsets" format="ascii">3 6 9 12 15 18 21 24</DataArray>
      </Polys>
    </Piece>
  </PolyData>
</VTKFile>
