<?xml version="1.0"?>
<VTKFile type="PolyData" version="0.1" byte_order="LittleEndian">
  <PolyData>
    <Piece NumberOfPoints="8" NumberOfVerts="0" NumberOfLines="4" NumberOfStrips="0" NumberOfPolys="0">
      <FieldData>
        <DataArray type="Int32" Name="step" NumberOfTuples="1" format="ascii">2835</DataArray>
        <DataArray type="Float64" Name="time" NumberOfTuples="1" format="ascii">1.4175</DataArray>
        <DataArray type="Int32" Name="candidate_pairs" NumberOfTuples="1" format="ascii">4</DataArray>
        <DataArray type="Int32" Name="contacts" NumberOfTuples="1" format="ascii">4</DataArray>
      </FieldData>
      <CellData Scalars="part_id">
        <DataArray type="Int32" Name="part_id" format="ascii">16 16 16 16</DataArray>
        <DataArray type="Int32" Name="candidate_pair" format="ascii">0 1 2 3</DataArray>
      </CellData>
      <Points>
        <DataArray type="Float64" NumberOfComponents="3" format="ascii">-0.27159353104541217 0.014047688895306495 -0.092049700613137997 -0.27210979120886009 0.01391273907743721 -0.088946824287807938 -0.2691076401512929 0.014029734394304206 -0.091636876076041693 -0.26923421360747773 0.013997681984385406 -0.090898328986677837 -0.27283647649247178 0.01622461673118121 -0.092161824709689907 -0.27295755325948529 0.016185511615310622 -0.091422696029146183 -0.27283647649247178 0.011888715560434068 -0.09235040105368239 -0.27295766560400075 0.011863335300206421 -0.091610692299078533</DataArray>
      </Points>
      <Lines>
        <DataArray type="Int32" Name="connectivity" format="ascii">0 1 2 3 4 5 6 7</DataArray>
        <DataArray type="Int32" Name="offsets" format="ascii">2 4 6 8</DataArray>
      </Lines>
      <Polys>
        <DataArray type="Int32" Name="connectivity" format="ascii"></DataArray>
        <DataArray type="Int32" Name="offsets" format="ascii"></DataArray>
      </Polys>
    </Piece>
  </PolyData>
</VTKFile>
